<svg width="1920" height="450" version="1.2" viewBox="0 0 1440 337.5" xml:space="preserve" xmlns="http://www.w3.org/2000/svg" xmlns:xlink="http://www.w3.org/1999/xlink" zoomAndPan="magnify"><path d="m1438.9 337h-1437.9v-337h1437.9z" style="fill:#ffeed7"/><path d="m1432.8 36.641c0.3805 0.21742 0.6693 0.55215 0.6417 0.74385-0.052 0.36327-0.025 0.38142 0.9194 0.62108 0.8618 0.21863 4.2816 2.971 4.2204 3.3967-0.029 0.20251 0.08 0.31026 0.2428 0.23945 0.3939-0.1715 2.0062 1.193 1.8712 1.5836-0.058 0.16862 0.093 0.33682 0.3354 0.37378 1.4001 0.21312 11.918 12.773 11.537 13.777-0.074 0.19559-0.016 0.38017 0.1295 0.41019 0.5208 0.1075 0.9001 0.60763 0.7139 0.94115-0.1115 0.19958-0.046 0.30688 0.1596 0.26024 0.4207-0.0956 1.4013 1.6197 1.1189 1.9573-0.1093 0.13076-0.017 0.26389 0.2049 0.29583 0.5109 0.07349 2.1716 3.0151 1.9382 3.4331-0.096 0.17139 0.039 0.38518 0.2984 0.47508 0.2675 0.09255 0.4396 0.39302 0.3968 0.69263-0.042 0.29104 0.074 0.55096 0.2561 0.5776 0.9037 0.13192 6.4884 13.906 5.9958 14.788-0.112 0.20062-0.08 0.31093 0.071 0.24515 0.3503-0.15252 0.9557 1.5501 0.6717 1.8895-0.117 0.13994 0.015 0.53734 0.2936 0.88313 0.2951 0.36637 0.4244 0.82323 0.3099 1.0949-0.1128 0.2677-0.035 0.5563 0.1824 0.67772 0.2297 0.12826 0.2957 0.40877 0.1675 0.71286-0.1161 0.27576-0.084 0.49327 0.072 0.48335 0.3688-0.02351 1.2637 4.0676 1.0119 4.6259-0.1062 0.23559-0.039 0.55148 0.1493 0.70196 0.4263 0.34056 0.7809 2.2633 0.4831 2.6193-0.121 0.14466-0.068 0.49145 0.1168 0.77065 0.4142 0.62452 0.6933 2.7814 0.4045 3.1267-0.1162 0.13896-0.064 0.48054 0.1169 0.75907 0.3999 0.61705 0.7255 4.6511 0.4196 5.1988-0.1209 0.21656-0.1078 0.57651 0.029 0.79989 0.137 0.22338 0.1609 0.56384 0.053 0.75658-0.1077 0.19274-0.096 0.48391 0.026 0.64705 0.49 0.65446-0.052 12.289-0.5913 12.692-0.1083 0.081-0.083 0.3328 0.056 0.55947 0.4669 0.76165-1.9266 12.718-4.068 20.32-0.3242 1.151-2.1685 7.1204-4.0985 13.265-3.898 12.411-5.9475 19.622-6.8988 24.272-0.3486 1.7043-0.7 3.0433-0.7808 2.9754-0.2233-0.18732-1.2971 10.038-1.378 13.122-0.098 3.7155 0.1743 7.3571 0.8217 11.006 0.2998 1.6899 0.5183 3.2868 0.4854 3.5487-0.033 0.2619 0.061 0.58164 0.2089 0.71054 0.4373 0.38147 0.942 2.1181 0.7273 2.5025-0.1091 0.19536-0.053 0.38124 0.1251 0.41307 0.3825 0.0685 2.8566 5.2806 2.733 5.7576-0.047 0.18041 0.055 0.34814 0.2259 0.37275 0.171 0.0246 1.0265 1.0099 1.901 2.1895 3.5389 4.7733 8.3752 8.1917 13.463 9.5156l1.4435 0.37563-0.081 1.1452c-0.078 1.107-0.1072 1.1414-0.8671 1.0321-1.3245-0.19054-4.9528-1.5239-6.7523-2.4814-3.2217-1.7142-7.8313-5.6113-7.958-6.728-0.031-0.2743-0.2175-0.46216-0.4142-0.41747-0.7886 0.17919-5.4796-7.9114-5.0417-8.6954 0.1041-0.1864 0.031-0.36166-0.1622-0.38947-0.8402-0.12086-3.1147-9.9137-2.8547-12.291 0.067-0.61114 0.024-1.0695-0.096-1.0185-0.1196 0.051-0.2144 0.0553-0.2105 0.01 0-0.0457-0.032-1.5585-0.079-3.3618-0.064-2.4296 0.1243-5.0108 0.7259-9.9668 1.2148-10.008 2.4269-14.956 8.0189-32.735 3.4104-10.842 4.8854-15.841 6.2024-21.019 1.1714-4.6064 3.7249-22.733 3.2131-22.81-0.2407-0.0358-0.3072-5.7292-0.072-6.1506 0.1118-0.20018 0.073-0.3827-0.086-0.4056-0.164-0.0236-0.1938-0.3193-0.069-0.68215 0.1214-0.35228 0.1195-0.59645 0-0.54261-0.2979 0.12966-0.4081-1.4694-0.1246-1.8083 0.1215-0.14531 0.073-0.49204-0.1067-0.77051-0.3807-0.58849-0.6671-3.2665-0.3853-3.6034 0.1053-0.12597 0.022-0.32365-0.1851-0.43929-0.2071-0.11564-0.3488-0.40349-0.3148-0.63967 0.095-0.65804-1.4973-7.7024-2.6037-11.522-1.1481-3.9629-3.1133-9.2642-4.7432-12.795-0.6291-1.363-1.1006-2.6863-1.0477-2.9407 0.053-0.25438-0.046-0.48303-0.2209-0.50811-0.1744-0.02508-1.0545-1.4072-1.9559-3.0714-0.9015-1.6642-2.357-4.1431-3.2347-5.5087-0.9066-1.4107-1.4969-2.6011-1.3669-2.7565 0.1263-0.15095 0.1-0.21737-0.059-0.1482-0.1584 0.06895-1.3067-1.1946-2.5519-2.8079-1.2451-1.6133-3.2996-4.0627-4.5655-5.4431-1.266-1.3804-2.2077-2.6223-2.0927-2.7597 0.1149-0.13745 0.071-0.18975-0.098-0.11622-0.1689 0.07353-1.5701-0.95542-3.1138-2.2865-1.5436-1.3311-4.0065-3.2439-5.473-4.2506s-2.7736-2.0207-2.9046-2.2534c-0.131-0.23265-0.3737-0.36401-0.5393-0.29191-0.3748 0.16313-1.8922-0.59984-1.8451-0.92769 0.049-0.33722 5.3452 0.51731 6.1868 0.99812zm-48.604-7.0734c-0.021 0.14667-0.1886 0.24673-0.3723 0.22235-0.1837-0.02438-0.634-0.0086-1.0006 0.03504-0.4674 0.05564-0.5963-0.0047-0.4314-0.20187 0.1294-0.15468 0.121-0.29767-0.019-0.31776-0.1396-0.02009-0.3489 0.13353-0.465 0.34139-0.3243 0.58062-1.3102 0.32864-1.2181-0.31133 0.069-0.47865 0.2545-0.50777 1.8106-0.28392 0.9781 0.1407 1.7172 0.36567 1.6955 0.5161zm-69.084-9.9694c-0.057 0.39637-3.7408 2.5002-4.0638 2.3208-0.1663-0.09234-0.2682-0.01611-0.2264 0.1694 0.1067 0.47437-5.6354 3.1664-9.9258 4.6535-5.851 2.028-14.468 4.0251-15.097 3.4989-0.1453-0.12155-0.522-0.04749-0.837 0.16458-0.315 0.21207-0.753 0.28493-0.9734 0.16191-0.2203-0.12302-0.6891-0.09021-1.0416 0.07291-0.8433 0.39017-4.548 0.67903-5.0579 0.39437-0.2194-0.12249-0.5898-0.10576-0.8231 0.03719-0.5428 0.33255-7.5133 0.2297-7.8519-0.11585-0.1403-0.14308-0.4067-0.14664-0.5921-0.0079-0.5796 0.43368-11.884-1.5913-15.594-2.7933-5.1846-1.68-11.831-4.6575-12.318-5.5189-0.1384-0.24442-0.6473-0.53979-1.1308-0.65637-1.7642-0.42534-11.348-7.5202-11.098-8.2158 0.059-0.16549-0.056-0.26366-0.256-0.21817-0.4669 0.1061-2.4503-1.8018-2.193-2.1094 0.1067-0.12757 0.015-0.19117-0.2048-0.14132-0.5284 0.12008-4.0978-3.6591-3.7964-4.0195 0.1418-0.16942 0.094-0.21323-0.127-0.11695-0.3539 0.15405-1.282-0.72457-1.2201-1.155 0.018-0.12394 0.7825-0.11635 1.6992 0.01688 1.5939 0.23161 1.7344 0.31206 3.2073 1.837 0.8471 0.87714 1.52 1.7384 1.4951 1.9139-0.025 0.17549 0.1402 0.34787 0.3668 0.38307 0.2266 0.0352 1.4408 0.96163 2.6982 2.0587 1.2573 1.0971 3.5572 2.9531 5.1108 4.1244 1.5537 1.1713 2.8516 2.2307 2.8843 2.354 0.033 0.12337 0.2849 0.39003 0.5603 0.59257 0.3652 0.26866 0.4626 0.28098 0.3601 0.04557-0.077-0.17748 0.4607 0.02524 1.1956 0.45049 13.471 7.7951 26.657 10.43 42.799 8.5523 1.7353-0.20185 3.3148-0.27785 3.5099-0.16888 0.1952 0.10897 0.3034 0.07979 0.2404-0.06485-0.063-0.14464 0.546-0.37675 1.3533-0.51579 2.2475-0.38708 7.2594-1.6628 9.5503-2.431 1.1295-0.37873 2.2103-0.60113 2.4019-0.49421 0.1915 0.10692 0.3354 0.08069 0.3197-0.05829-0.04-0.35938 5.6741-2.7728 6.058-2.5584 0.1969 0.10995 0.2828 0.02227 0.2254-0.23019-0.051-0.22427 0.01-0.39319 0.1359-0.37536 0.1258 0.01783 1.2925-0.54904 2.5927-1.2597 2.3003-1.2572 2.4091-1.2857 4.0313-1.0528 0.917 0.13165 1.652 0.34556 1.6334 0.47535zm-141.01-20.345c0.2606 0.34804 0.029 1.2305-0.2602 0.9892-0.1591-0.13304-0.1627 0.0527-0.01 0.459 0.1421 0.37535 0.2019 0.83973 0.1328 1.0319-0.078 0.21562 0.01 0.29075 0.2266 0.19615 0.257-0.11186 0.2786 0.02658 0.08 0.51186-0.1564 0.38179-0.1602 0.7591-0.01 0.8856 0.145 0.12122 0.1503 0.49696 0.012 0.83497-0.1498 0.3656-0.1344 0.63146 0.038 0.65626 0.1684 0.02423 0.1867 0.25489 0.044 0.55068-0.1507 0.31176-0.1246 0.52646 0.067 0.55406 0.1723 0.02479 0.2183 0.21513 0.1022 0.42299s-0.081 0.39667 0.078 0.41957c0.1593 0.022905 0.1922 0.27262 0.073 0.55493-0.1189 0.28231-0.093 0.53095 0.057 0.55254 0.1501 0.021591 0.1788 0.26278 0.064 0.53596-0.1151 0.27319-0.075 0.57144 0.088 0.66279 0.3606 0.20134 0.7563 4.2328 0.4664 4.7519-0.1134 0.203-0.081 0.38709 0.072 0.40908 0.1528 0.02199 0.2045 0.24378 0.1148 0.49286-0.09 0.24908-0.046 0.59225 0.098 0.7626 0.3448 0.40939 0.7332 3.737 0.4725 4.0486-0.112 0.13387-0.053 0.47166 0.1304 0.75064 0.1837 0.27898 0.4549 1.4436 0.6026 2.5879 0.1478 1.1444 0.5108 3.3958 0.8067 5.0031 0.2958 1.6073 0.4426 3.1195 0.3261 3.3605s-0.066 0.56008 0.1123 0.70911c0.1782 0.14903 0.648 1.7262 1.0439 3.5048 0.396 1.7786 1.0372 4.304 1.425 5.612s0.6102 2.4916 0.4943 2.6302-0.047 0.41209 0.1531 0.60775c0.2001 0.19566 0.8308 1.5846 1.4016 3.0864 1.1803 3.1058 2.5596 6.1805 3.6406 8.1159 0.4063 0.72753 0.659 1.4657 0.5615 1.6403-0.098 0.17462-0.026 0.28981 0.158 0.25598 0.1844-0.03383 0.7797 0.68157 1.323 1.5898 2.8395 4.7474 8.1397 10.005 12.986 12.882 1.1038 0.65519 2.0745 1.3287 2.1571 1.4967 0.083 0.168 0.4834 0.36348 0.8905 0.4344 0.4071 0.07092 1.6626 0.53035 2.79 1.021 2.6417 1.1496 5.9477 2.1831 9.2575 2.8942 1.4482 0.31113 2.6184 0.66854 2.6003 0.79425-0.018 0.1257 0.2143 0.26411 0.5163 0.30756 0.3021 0.04346 0.4924-0.05166 0.4228-0.21138-0.07-0.15972 6e-4 -0.2721 0.156-0.24975 0.1554 0.02235 0.2652 0.16064 0.2441 0.30731-0.021 0.14667 0.1488 0.2936 0.3775 0.3265 0.2288 0.0329 0.359-0.07085 0.2894-0.23057-0.074-0.16942 0.2134-0.24149 0.6895-0.17301 0.4488 0.06456 0.7966 0.25208 0.7729 0.41671-0.03 0.20584 0.073 0.22989 0.3293 0.077 0.2048-0.12228 1.8928-0.14567 3.7512-0.05196 1.8584 0.0937 4.5894 0.15635 6.0689 0.13922 1.4794-0.01713 2.908 0.06071 3.1746 0.17299 0.2667 0.11228 0.4431 0.10837 0.3921-0.0087-0.051-0.11706 0.7341-0.25263 1.7447-0.30127 1.0105-0.04864 3.3644-0.22444 5.2308-0.39065 1.8663-0.16621 3.4787-0.23084 3.5831-0.14361 0.1043 0.08723 0.7225-0.01589 1.3737-0.22914 0.6513-0.21326 1.6405-0.34585 2.1982-0.29465 0.5578 0.0512 1.1654 0.02721 1.3504-0.05331s0.5167-0.04571 0.7371 0.07736c0.2443 0.13636 0.4231 0.08269 0.4578-0.13741 0.062-0.39607 9.695-2.0474 9.9507-1.7059 0.08 0.10706 0.3194 0.0171 0.5317-0.19991 0.228-0.23308 0.7831-0.34646 1.3562-0.27702 0.5384 0.06524 1.0531-0.03027 1.1566-0.21463 0.1119-0.19917 0.3833-0.23708 0.678-0.09468 0.3198 0.15451 0.6039 0.09064 0.8132-0.18278 0.2053-0.26829 0.6701-0.37801 1.2851-0.3034 0.5332 0.06467 1.0469-0.0315 1.1501-0.2153 0.1118-0.19917 0.3833-0.23708 0.678-0.09468 0.3182 0.15375 0.6033 0.09137 0.8086-0.17691 0.1943-0.25383 0.7072-0.38226 1.3238-0.33142 0.5537 0.04564 1.1215-0.05419 1.2617-0.22186 0.145-0.17337 0.3874-0.19412 0.5621-0.04812 0.1783 0.14906 0.453 0.11382 0.6551-0.08402 0.4834-0.47322 7.4188-1.9918 7.8915-1.7279 0.2314 0.12922 0.4062 0.0672 0.4383-0.15551 0.059-0.4068 1.5387-0.61788 1.9459-0.27748 0.1402 0.11725 0.2424 0.06641 0.2271-0.11297-0.015-0.17938 0.4146-0.42126 0.9554-0.5375 0.5409-0.11624 3.9622-0.90298 7.6029-1.7483 3.6407-0.84533 6.8217-1.4519 7.0688-1.348 0.2492 0.10479 0.4704 0.04182 0.4968-0.14136 0.056-0.38986 1.8904-0.73007 2.4006-0.44524 0.1943 0.10846 0.4567 0.01199 0.5831-0.21438 0.1448-0.2593 0.4001-0.32932 0.69-0.18925 0.259 0.12516 0.5795 0.0743 0.7332-0.11636 0.37-0.45877 2.8265-0.97878 3.3206-0.70292 0.2328 0.12998 0.4852 0.06399 0.61-0.1595 0.1299-0.2326 0.3923-0.29452 0.673-0.15886 0.2603 0.12576 0.5789 0.07393 0.7337-0.11933 0.3259-0.407 3.0932-0.94061 3.4278-0.66094 0.1284 0.1074 0.3763 0.0087 0.5509-0.21942 0.2008-0.26247 0.671-0.37178 1.2808-0.2978 0.5332 0.06467 1.0469-0.0315 1.1501-0.2153 0.1118-0.19917 0.3833-0.23708 0.678-0.09468 0.311 0.15029 0.601 0.09445 0.7896-0.15207 0.1736-0.2268 0.7191-0.35624 1.3057-0.3098 0.5542 0.04387 1.1074-0.02415 1.2293-0.15117 0.356-0.37083 6.7812-1.3939 7.3225-1.166 0.271 0.11411 0.6036 0.07308 0.7392-0.09119 0.3215-0.38941 5.4664-1.066 5.9696-0.78507 0.2128 0.11879 0.4861 0.09741 0.6073-0.04751 0.1212-0.14492 0.3191-0.18095 0.4398-0.08008 0.1206 0.10088 0.5176 0.05039 0.8822-0.1122 0.8931-0.39833 6.7009-0.90943 8.2521-0.72621 0.6841 0.08081 1.2073 0.06094 1.1627-0.04417-0.1164-0.27405 3.6828-0.32823 4.1643-0.05938 0.2214 0.12356 0.5773 0.11751 0.791-0.01344 1.181-0.7236 14.722 0.50097 20.681 1.8703 5.8189 1.3371 10.783 2.9685 10.406 3.4196-0.097 0.1157 0.161 0.21489 0.5727 0.22043 0.9675 0.01302 4.5138 1.6015 4.8225 2.1601 0.1381 0.25 0.3906 0.3626 0.6043 0.26957 0.2128-0.09264 0.4391 0.0059 0.5387 0.23452 0.094 0.21685 0.5159 0.46158 0.9366 0.54384 0.8078 0.15797 6.2079 3.6556 7.9693 5.1617 0.5717 0.48879 0.9597 0.98393 0.8624 1.1003-0.097 0.11638 0.08 0.18252 0.3933 0.14698 0.4151-0.04704 0.5879 0.09069 0.6351 0.5062 0.036 0.31667 0.225 0.5344 0.4247 0.48902 0.198-0.04499 1.415 0.99305 2.7044 2.3068 3.0198 3.0767 3.6943 3.8965 3.4481 4.1908-0.1103 0.13187-0.022 0.19928 0.1952 0.14981 0.4844-0.11007 3.9754 4.7473 6.0925 8.4772 2.7297 4.809 5.4067 11.085 5.3573 12.559-0.013 0.39965 0.1495 0.89663 0.3621 1.1044 0.4939 0.48287 1.7508 4.6628 1.4943 4.9695-0.1064 0.12721 0.01 0.6044 0.253 1.0604 0.8873 1.648 2.2387 9.856 2.6731 16.235 0.4207 6.1779 0.2465 15.891-0.3243 18.079-0.1671 0.6409-0.2228 1.2331-0.1236 1.316 0.099 0.0829-0.113 2.8108-0.4714 6.0621-0.526 4.7715-0.733 5.9866-1.0734 6.3014-0.2918 0.26998-0.311 0.34358-0.062 0.23903 0.2752-0.11566 0.2781 0.2074 0.013 1.3786-0.1907 0.84132-0.7055 3.552-1.144 6.0238-0.5215 2.9396-0.93 4.6172-1.181 4.8499-0.3076 0.28525-0.3082 0.32399 0 0.19541 0.2945-0.12402 0.3199 0.0375 0.1121 0.71241-0.1478 0.48003-0.5128 2.0318-0.8111 3.4483s-0.6484 2.6217-0.7781 2.6781c-0.1297 0.0564-0.2404 0.59071-0.2461 1.1873-0.01 0.70977-0.1601 1.2232-0.4438 1.4854-0.3065 0.28344-0.3254 0.35532-0.064 0.24551 0.2869-0.1207 0.293 0.0959 0.027 0.97238-0.1881 0.62022-0.5005 1.2815-0.6943 1.4695-0.2725 0.26437-0.2661 0.30547 0.028 0.18144 0.2951-0.12428 0.3186 0.0358 0.1043 0.71129-0.1521 0.4794-0.7233 2.641-1.2693 4.8036-0.5461 2.1626-1.1373 4.0626-1.3139 4.2222s-0.2569 0.43754-0.1785 0.61754c0.2001 0.45934-1.3339 6.3301-1.6424 6.2857-0.1391-0.02-0.2104 0.2198-0.1584 0.53291 0.1243 0.74828-1.3224 6.3311-1.6291 6.287-0.1305-0.0188-0.2083 0.24641-0.1728 0.58931 0.035 0.34289-0.526 2.9875-1.2477 5.8768-2.8609 11.453-3.6379 15.252-5.0294 24.589-0.7645 5.1298-1.3285 9.397-1.2533 9.4826 0.075 0.0857 0.1038 1.854 0.063 3.9296-0.1829 9.402 1.2705 17.509 4.2674 23.803 2.2847 4.7986 6.3083 9.6941 10.18 12.385 0.9574 0.66562 1.8152 1.395 1.9061 1.6208 0.1 0.24719 0.3797 0.375 0.7039 0.32122 0.3489-0.0579 0.5738 0.0656 0.6386 0.35056 0.055 0.24194 0.2228 0.38646 0.3728 0.32116s0.422 0.0463 0.6045 0.24806c0.1825 0.20173 0.4564 0.31253 0.6088 0.24622 0.4269-0.18584 1.1027 0.29002 0.8607 0.60614-0.1529 0.19985-0.1044 0.20475 0.1685 0.017 0.4637-0.31918 1.1624 8e-3 0.8602 0.40319-0.1546 0.20199-0.1157 0.213 0.1387 0.0392 0.3746-0.2559 3.5736 0.58574 3.3295 0.87597-0.069 0.0823 0.5438 0.20306 1.3621 0.26845 0.8183 0.0654 1.4097 0.21234 1.3141 0.32657-0.096 0.11458 1.2936 0.3225 3.0997 0.46383 1.8003 0.14089 4.0744 0.34489 5.0534 0.45334 0.9791 0.10845 1.7461 0.1159 1.7045 0.0166-0.1113-0.2661 3.0622-0.38215 3.5164-0.12859 0.2134 0.11915 0.4872 0.0981 0.6084-0.0469 0.1212-0.14492 0.3291-0.17261 0.462-0.0615 0.1328 0.11107 0.4684 0.0618 0.7457-0.10946 0.2772-0.17128 1.7616-0.53612 3.2986-0.81077 3.8824-0.69375 8.7603-2.1345 12.627-3.7296 1.7996-0.74233 3.3193-1.3429 3.3772-1.3346 0.058 8e-3 -0.052 1.108-0.2441 2.4438-0.2948 2.0492-0.4084 2.3956-0.7274 2.2176-0.2284-0.12752-0.4-0.0587-0.4334 0.17373-0.061 0.42696-1.6077 1.0509-2.453 0.98978-0.2984-0.0216-0.5359 0.0968-0.5277 0.26311 0.02 0.40195-1.5463 0.78833-1.922 0.4742-0.1893-0.15823-0.2423-0.12523-0.1477 0.0919 0.1558 0.35784-3.4415 1.548-3.9336 1.3014-0.1435-0.0719-0.5168 0.0607-0.8295 0.29472-0.3458 0.25872-0.7557 0.3351-1.0459 0.19487-0.3014-0.14564-0.593-0.0793-0.7914 0.17995-0.2013 0.263-0.7363 0.38021-1.4885 0.32612-0.6458-0.0464-1.322 0.0661-1.5027 0.24999-0.3594 0.36589-4.7126 0.93611-8.2709 1.0834-2.9529 0.12223-11.632-0.83667-12.083-1.3349-0.1793-0.19819-0.5337-0.31315-0.7875-0.25548-0.2538 0.0577-0.6395-0.0876-0.8571-0.32276-0.3088-0.33372-0.3605-0.34403-0.2353-0.0469 0.4995 1.1851-9.6728-3.3929-10.526-4.737-0.1879-0.29622-0.4982-0.503-0.6896-0.45951-0.8756 0.19897-7.8109-6.4665-7.6193-7.3229 0.049-0.21857-0.1071-0.41132-0.3468-0.42833-0.2458-0.0174-0.3951-0.2169-0.3426-0.45757 0.051-0.23466-0.051-0.43303-0.2261-0.44083-0.4565-0.0203-2.0771-2.6166-3.3804-5.4159-1.4595-3.1347-3.2579-8.8457-2.9876-9.4873 0.1146-0.27222 0.083-0.48651-0.07-0.4762-0.865 0.0583-1.9604-11.908-1.5096-16.49 0.1162-1.1809 0.1457-2.4016 0.066-2.7125-0.2801-1.0864 2.8599-21.493 4.1386-26.896 2.1578-9.1182 3.8747-15.62 4.0796-15.448 0.1112 0.093 0.155-0.0385 0.097-0.29215-0.1297-0.57042 1.4307-6.7518 1.6568-6.5628 0.09 0.0752 0.1635-0.19369 0.1635-0.59747 0-0.40379 0.6911-3.3503 1.5357-6.5477 0.8447-3.1975 1.564-6.0103 1.5986-6.2507 0.039-0.27231 0.1784-0.34809 0.3692-0.20098 0.2134 0.16444 0.2375 0.13473 0.079-0.0978-0.3036-0.44662 0.2293-2.7963 0.5697-2.5117 0.1647 0.13774 0.194 0.0715 0.082-0.18559-0.2076-0.47652 0.1769-2.4452 0.5313-2.7203 0.137-0.10641 0.2538-0.69017 0.2596-1.2972 0.01-0.79325 0.089-1.0379 0.2905-0.86966 0.1673 0.13985 0.305 0.0604 0.3421-0.19738 0.035-0.24039-0.076-0.37116-0.2508-0.29527-0.2175 0.0947-0.198-0.25038 0.064-1.1316 0.2073-0.69727 0.4862-1.2929 0.6199-1.3236 0.1336-0.0307 0.2598-0.17286 0.2804-0.31597 0.021-0.1431-0.1045-0.1984-0.278-0.12288-0.2197 0.0956-0.2048-0.28987 0.049-1.2698 0.7353-2.8381 2.2804-10.975 2.8944-15.244 0.4109-2.8563 0.7157-4.3154 0.874-4.1831 0.1449 0.12116 0.2991-0.18633 0.3818-0.76165 0.083-0.57532 0.022-0.9138-0.1516-0.8384-0.1812 0.0788-0.205-0.46766-0.063-1.4521 0.1249-0.86821 0.231-2.1654 0.2357-2.8827 0.01-0.95495 0.084-1.2412 0.2899-1.069 0.1688 0.14108 0.3062 0.0625 0.3434-0.19633 0.034-0.23732-0.053-0.38156-0.1928-0.32053-0.1402 0.061-0.2146-0.58551-0.1654-1.4368 0.049-0.85123 0.1993-1.5727 0.3335-1.6033 0.1341-0.0306 0.2607-0.17273 0.2813-0.31584 0.021-0.1431-0.074-0.21154-0.2109-0.15207-0.3056 0.13302-0.092-5.9591 0.2434-6.9552 0.1395-0.41351 0.1268-0.66882-0.03-0.60066-0.1498 0.0652-0.2552-5.7e-4 -0.2342-0.14613s-0.03-1.965-0.1125-4.0433c-0.083-2.0782-0.048-4.0284 0.077-4.3338 0.1357-0.3311 0.094-0.62966-0.103-0.73968-0.384-0.2144-0.6739-3.134-0.3497-3.5217 0.1205-0.14406 0.07-0.48996-0.1113-0.76866-0.4378-0.67133-0.8192-3.5444-0.5375-4.0488 0.1316-0.23564 0.064-0.48649-0.1665-0.61502-0.2138-0.11938-0.4159-0.58615-0.4491-1.0373-0.033-0.45112-0.3597-2.0245-0.7256-3.4964-0.3659-1.4719-0.5737-2.8402-0.4618-3.0406 0.112-0.2004 0.032-0.46011-0.1776-0.57714-0.4678-0.26121-0.8754-1.7371-0.5779-2.0928 0.1193-0.14264 0.044-0.35584-0.1672-0.47379-0.5157-0.28795-2.6189-6.1395-2.3305-6.4843 0.1348-0.16112 0.097-0.21505-0.093-0.13229-0.1918 0.0835-0.7599-0.77528-1.4118-2.1344-0.6-1.2508-1.589-3.134-2.1977-4.1849-0.6088-1.0509-1.0864-2.0675-1.0613-2.2591 0.025-0.19162-0.045-0.33214-0.1553-0.31227-0.3435 0.0618-2.9775-3.6039-2.8079-3.9077 0.088-0.15804-0.042-0.30111-0.29-0.31794-0.2664-0.01809-0.4106-0.21078-0.3529-0.47137 0.054-0.24242-0.05-0.40727-0.23-0.36632-0.3426 0.07785-1.6422-1.5418-1.546-1.9267 0.03-0.12189-0.093-0.24568-0.2742-0.2751-0.48-0.07789-3.6641-3.3632-3.6186-3.7336 0.021-0.17265-0.1662-0.32715-0.4164-0.34334-0.2503-0.01619-0.4102-0.16168-0.3554-0.32331 0.055-0.16164-0.079-0.33138-0.2967-0.37722-0.7125-0.14979-1.2728-0.61535-1.216-1.0104 0.031-0.21297-0.07-0.33231-0.2246-0.26521-0.3342 0.14546-5.5223-3.5884-5.7602-4.1456-0.091-0.21286-0.2963-0.33001-0.4563-0.26033-0.3467 0.15089-3.3511-1.4312-3.5659-1.8777-0.082-0.17102-0.4823-0.37084-0.889-0.44406-0.4068-0.07322-2.0671-0.69922-3.6897-1.3911-12.324-5.2552-28.58-6.563-48.962-3.9388-0.509 0.06554-0.6042 0.01026-0.4009-0.23282 0.2916-0.34863-0.1766-0.21909-0.9919 0.27444-0.6407 0.38782-3.6092 0.75191-3.9318 0.48223-0.1494-0.12488-0.4584-0.03609-0.6867 0.19732-0.2761 0.28226-0.6339 0.34904-1.0683 0.19943-0.3592-0.12372-0.6094-0.12472-0.556-0.0022 0.1334 0.30642-8.2391 1.8002-8.6873 1.5499-0.1982-0.11067-0.4549-0.03209-0.5703 0.17462-0.2384 0.42666-2.4955 0.80287-2.8814 0.48025-0.1394-0.11651-0.5555 0.01424-0.9248 0.29055-0.3892 0.29118-1.0615 0.47022-1.5994 0.42588-0.5104-0.04208-1.0427 0.06068-1.183 0.22834-0.145 0.17337-0.3874 0.19412-0.562 0.04811-0.1809-0.15119-0.4531-0.10752-0.6622 0.10623-0.4615 0.47182-4.2947 1.2616-4.7876 0.98648-0.2157-0.12043-0.4736-0.04275-0.5981 0.18014-0.2452 0.43905-1.9869 0.83524-2.3473 0.53395-0.1281-0.10707-0.3531-0.05008-0.5 0.12665-0.3634 0.43709-3.4116 1.0863-3.878 0.82596-0.2152-0.12014-0.473-0.03396-0.6049 0.20219-0.1492 0.26715-0.3984 0.33014-0.7101 0.17951-0.3129-0.15119-0.5612-0.08723-0.7124 0.18353-0.1422 0.25452-0.4177 0.33748-0.7108 0.21403-0.2632-0.11086-0.59-0.0639-0.7262 0.10437-0.1362 0.16826-1.7669 0.64661-3.6238 1.063s-4.8964 1.1043-6.7544 1.5288c-1.8581 0.42448-3.5893 0.68508-3.8473 0.57911-0.2579-0.10597-0.715-0.0086-1.0157 0.21645-0.7295 0.54584-3.0328 1.0487-3.5306 0.77086-0.2274-0.127-0.4831-0.06761-0.5985 0.13904-0.2473 0.44271-2.8239 0.93845-3.3502 0.64459-0.21-0.11722-0.3315-0.09765-0.27 0.0435 0.1245 0.28582-0.07 0.34669-2.7476 0.86219-1.0309 0.19843-2.1119 0.26073-2.4023 0.13844-0.372-0.15667-0.5463-0.095-0.59 0.20878-0.037 0.2576-0.3058 0.41226-0.6678 0.38426-0.3333-0.02577-0.8215-0.06538-1.0849-0.08801-0.2634-0.02264-0.5831 0.07044-0.7104 0.20682-0.2313 0.24779-5.9281 1.2305-11.596 2.0002-1.7243 0.23418-3.2261 0.29977-3.5277 0.15405-0.3706-0.17908-0.4807-0.15169-0.374 0.09308 0.1069 0.24553-0.078 0.28893-0.6339 0.14859-0.4318-0.10903-0.9695-0.08741-1.1949 0.04805-0.6203 0.37283-7.0778 0.76633-7.6935 0.46883-0.3198-0.15452-0.6388-0.14039-0.7853 0.03477-0.3355 0.40107-6.1854 0.38402-11.653-0.03397-4.5877-0.35073-11.003-1.4597-10.941-1.8913 0.019-0.13076-0.4295-0.2305-0.9963-0.22163-1.207 0.01888-4.04-0.87739-4.2425-1.3422-0.077-0.17656-0.3941-0.27884-0.7049-0.22729-0.7473 0.12395-4.023-1.2251-4.324-1.7808-0.13-0.23988-0.3768-0.37501-0.5485-0.30027-0.4435 0.19307-3.6169-1.5574-3.9462-2.1768-0.151-0.28412-0.4264-0.4505-0.6119-0.36975-0.4559 0.19845-4.3345-2.6591-4.4041-3.2447-0.031-0.26093-0.2274-0.42639-0.4468-0.37654-0.4096 0.09308-3.8731-3.1506-3.5902-3.3623 0.315-0.23566-0.3126-0.88607-0.7574-0.785-0.3313 0.07528-0.3901-0.0058-0.2222-0.30647 0.1477-0.26447 0.1054-0.3809-0.1198-0.32973-0.8451 0.19205-7.6425-10.323-7.1932-11.128 0.114-0.20395 0.055-0.32278-0.14-0.28314-0.7199 0.1462-5.3591-12.502-4.9193-13.412 0.1444-0.2988 0.086-0.55546-0.1571-0.69125-0.7185-0.40113-3.825-15.482-3.3791-16.404 0.1199-0.24811 0.068-0.57366-0.1156-0.72345-0.4027-0.32864-1.0955-5.4966-0.8064-6.0144 0.1124-0.20123 0.086-0.46503-0.059-0.58623-0.1449-0.1212-0.1744-0.32692-0.065-0.45717 0.109-0.13025 0.082-0.42655-0.06-0.65844-0.1422-0.2319-0.1734-0.52336-0.069-0.6477 0.104-0.12434 0.042-0.38868-0.1378-0.58742-0.4033-0.44594-0.7839-4.0574-0.4841-4.5942 0.1202-0.21522 0.1048-0.34178-0.034-0.28124-0.3071 0.13368-0.7103-3.4058-0.4266-3.745 0.1105-0.13213 0.083-0.43259-0.061-0.66769-0.2153-0.35112-0.9865-6.1776-0.9084-6.8622 0.028-0.24826 4.1436 0.3223 4.3543 0.60371zm-192.12-17.443c6.0913 1.2206 13.979 3.082 14.027 3.3103 0.024 0.11245 0.4597 0.21558 0.969 0.22918 1.8038 0.04815 20.447 5.5398 20.754 6.1135 0.071 0.13181 0.7555 0.35664 1.5222 0.49963 0.7666 0.14299 1.6419 0.44643 1.945 0.6743s0.798 0.42031 1.0997 0.42764c0.6921 0.01681 3.799 1.2182 3.9688 1.5347 0.07 0.13004 0.6453 0.3354 1.279 0.45635s1.4164 0.453 1.7394 0.73787c0.323 0.28488 0.7082 0.46528 0.8561 0.4009 0.392-0.17063 1.6066 0.37946 1.3954 0.63196-0.099 0.11784 0.025 0.16777 0.2754 0.11095 0.5623-0.12777 3.8057 1.2157 4.1085 1.7017 0.1217 0.1953 0.6656 0.41746 1.2087 0.49369 0.5801 0.08141 1.1778 0.36788 1.4486 0.69431 0.2535 0.30564 0.6031 0.49384 0.7768 0.41823 0.3787-0.16485 4.4037 1.7783 4.7198 2.2785 0.1219 0.19305 0.4254 0.33864 0.6743 0.32355 0.6976-0.04231 8.7841 4.4481 8.896 4.9399 0.055 0.23986 0.2827 0.38786 0.5161 0.33481 0.5147-0.11696 2.7414 1.2077 2.9528 1.7566 0.085 0.21982 0.3278 0.36017 0.5402 0.31189 0.4614-0.10485 2.9652 1.5891 3.1974 2.1632 0.09 0.22162 0.2991 0.34368 0.4655 0.27125 0.4373-0.19038 2.7492 1.3975 2.6849 1.8441-0.03 0.20716 0.1036 0.3447 0.2964 0.30565 0.4863-0.0985 1.7707 0.84023 1.5351 1.122-0.1058 0.12641 0 0.18587 0.2376 0.13214 0.2489-0.05656 1.6437 0.84891 3.3124 2.1504 3.6183 2.822 4.2621 3.4282 3.9881 3.7557-0.1281 0.15321-0.083 0.20287 0.1077 0.11966 0.4595-0.2 1.8351 0.84079 1.764 1.3347-0.032 0.2249 0.074 0.35097 0.237 0.28016 0.3939-0.1715 2.0062 1.193 1.8712 1.5836-0.058 0.16862 0.1056 0.33822 0.3643 0.3769 1.414 0.21135 14.723 15.068 14.132 15.775-0.087 0.1038-0.01 0.19367 0.1779 0.19972 0.7408 0.02425 8.8911 12.363 8.7836 13.298-0.028 0.24328 0.089 0.43467 0.2605 0.4253 0.3801-0.02079 1.9636 2.8734 1.8873 3.4495-0.03 0.22721 0.089 0.43407 0.2644 0.4597 0.4561 0.06661 1.6229 2.3157 1.4044 2.707-0.1006 0.18011-0.01 0.35307 0.2125 0.38435 0.4455 0.0641 2.4885 4.0821 2.3891 4.6988-0.035 0.21947 0.087 0.42076 0.2712 0.4473 0.4638 0.06673 2.0137 3.4078 1.7772 3.8312-0.1086 0.19452-0.021 0.36824 0.2014 0.40027 0.4404 0.06335 3.4281 6.3476 3.3704 7.0891-0.02 0.26098 0.082 0.49871 0.2276 0.52828 0.3771 0.07663 3.9676 7.9229 3.9223 8.5713-0.021 0.29644 0.097 0.53253 0.2617 0.52466 0.1647-0.0079 0.2626 0.1287 0.2176 0.3035-0.045 0.1748 0.032 0.37594 0.1719 0.44699 0.3692 0.188 1.5033 2.731 1.4377 3.2238-0.031 0.23069 0.093 0.44118 0.2751 0.46775 0.182 0.02657 0.6772 0.77181 1.1005 1.6561 0.4233 0.88428 1.6787 3.2978 2.7898 5.3635 1.1112 2.0656 1.9281 3.866 1.8154 4.0007s-0.041 0.21357 0.1596 0.17515c0.2009-0.0385 0.7539 0.62166 1.232 1.4707 0.4771 0.84728 1.5001 2.5199 2.2733 3.717s1.3148 2.2852 1.2035 2.4182c-0.1112 0.13299-0.035 0.20384 0.169 0.15745 0.5148-0.11698 2.8822 3.132 2.5615 3.5153-0.1615 0.19311-0.1125 0.27246 0.1393 0.22515 0.2145-0.0403 1.0862 0.7848 1.9443 1.8404 0.8555 1.0524 2.0372 2.3975 2.6259 2.9892 0.5886 0.59169 0.9988 1.2124 0.9115 1.3793-0.087 0.16694-0.01 0.27296 0.1775 0.23558 0.3753-0.0759 4.8388 3.9277 4.7677 4.2764-0.042 0.20642 0.062 0.25845 0.9345 0.46721 0.1809 0.0433 0.305 0.2454 0.2757 0.44911-0.029 0.20371 0.099 0.3753 0.2855 0.38132 0.4996 0.0161 5.7843 3.4464 6.0632 3.9355 0.1313 0.23037 0.3743 0.35986 0.5399 0.28776 0.3541-0.15413 1.9399 0.61286 1.7484 0.84562-0.072 0.0874 0.338 0.24486 0.9109 0.35001s1.2052 0.37208 1.4052 0.59318c0.1999 0.2211 0.8609 0.49893 1.4687 0.61739s1.4436 0.41736 1.8574 0.66422c0.4137 0.24686 1.2292 0.54038 1.8121 0.65227 2.9087 0.55832 6.7294 1.4838 6.709 1.625-0.033 0.2278 3.3003 0.62584 3.718 0.44399 0.1916-0.0834 1.2092 5.5e-4 2.2615 0.1865 1.0524 0.18595 2.1025 0.30077 2.3337 0.25516 0.6299-0.12428 9.5817-0.28165 10.509-0.18474 0.4426 0.0463 1.1033-0.0286 1.4683-0.16641 0.3649-0.13778 0.9351-0.1744 1.2671-0.0814s0.7889 0.0644 1.0153-0.0637c0.2264-0.12801 1.283-0.32789 2.348-0.44418 1.065-0.11628 4.2401-0.60741 7.0557-1.0914 2.8157-0.48398 5.2822-0.78909 5.4811-0.67803 0.199 0.11106 0.6005 0.0233 0.8923-0.1951 0.2919-0.21837 2.4912-0.83429 4.8874-1.3687 5.609-1.251 14.77-3.6438 24.609-6.4282 4.2928-1.2148 8.0818-2.1838 8.4198-2.1533 0.3381 0.0305 0.7269-0.0788 0.8641-0.24294 0.1373-0.1641 3.8828-1.32 8.3235-2.5686 16.034-4.5084 27.579-7.431 28.134-7.1215 0.1836 0.10249 0.4227 0.08 0.5314-0.05 0.1088-0.12997 0.3022-0.14893 0.43-0.0421 0.1277 0.10681 0.219 0.0523 0.2028-0.12108-0.035-0.3801 3.4401-1.2108 3.8016-0.90857 0.1398 0.11693 0.4114 0.0558 0.6034-0.13585 0.4542-0.45321 6.0305-1.6296 6.4952-1.3702 0.196 0.10942 0.4722 0.0549 0.6138-0.1212 0.3348-0.41635 7.2895-1.6639 7.7725-1.3943 0.2032 0.11347 0.3873 0.083 0.409-0.0677 0.022-0.15073 0.1556-0.17685 0.2977-0.058 0.1421 0.11879 0.4868 0.065 0.766-0.11963 0.6591-0.43582 6.3908-1.2724 6.7366-0.98322 0.1458 0.12184 0.4927 0.0758 0.7709-0.1023 0.5918-0.37878 3.0548-0.66393 3.3808-0.39139 0.123 0.10286 0.5225 0.0503 0.8877-0.11693 1.3815-0.63235 12.274-1.1803 19.823-0.99717 6.2503 0.15163 20.574 2.0938 20.052 2.7188-0.075 0.0895 0.3255 0.18485 0.8897 0.21185 1.437 0.0688 8.3829 2.4453 8.8728 3.0359 0.2195 0.26466 0.5413 0.41931 0.7151 0.34367 0.7474-0.32537 9.1726 4.4465 9.073 5.1388-0.029 0.20183 0.1266 0.31417 0.3613 0.26083 0.7432-0.16887 6.354 4.7529 6.059 5.3149-0.097 0.18479 0.01 0.26546 0.2685 0.20627 0.5684-0.12916 5.4098 6.4143 5.2511 7.0972-0.063 0.27072 0.063 0.51233 0.2863 0.54808 0.2193 0.0352 0.3645 0.30398 0.3225 0.59735s0.069 0.52667 0.2459 0.51844c0.5984-0.0278 2.9475 5.8114 2.5932 6.4458-0.1077 0.19276-0.056 0.34142 0.1146 0.33034 0.4021-0.0261 1.5664 4.3561 1.3156 4.9515-0.1052 0.24972-0.079 0.40532 0.057 0.34579 0.5183-0.22564 1.3812 8.3677 0.9603 9.5644-0.1305 0.37109-0.142 0.80185-0.026 0.95724 0.8622 1.1516-1.4028 16.926-3.4903 24.308-1.6929 5.9868-2.4579 8.2445-2.8153 8.3091-0.1746 0.0316-0.2799 0.33642-0.2422 0.70113 0.076 0.73861-0.2471 1.6986-2.9748 8.8264-1.086 2.8379-2.1836 5.3364-2.439 5.5522-0.2555 0.21581-0.4069 0.52458-0.3365 0.68617 0.1788 0.4103-0.7685 2.6822-1.317 3.1589-0.2494 0.21668-0.3924 0.53401-0.3178 0.70517 0.1703 0.39114-2.7233 7.0117-3.1961 7.3126-0.1919 0.1221-0.3365 0.42764-0.3212 0.67898 0.04 0.66684-4.7375 10.788-5.2261 11.071-0.2278 0.13174-0.3497 0.3256-0.2709 0.43079 0.079 0.10518-0.03 0.34768-0.2413 0.53888-0.2115 0.1912-0.3238 0.48713-0.2495 0.65762 0.1686 0.38709-1.3952 3.5895-2.0128 4.1219-0.2511 0.21643-0.3993 0.52488-0.3294 0.68543 0.1639 0.37624-9.9648 21.451-10.56 21.973-0.2475 0.21695-0.392 0.52756-0.3211 0.69022 0.1699 0.39005-2.6405 6.4585-3.2258 6.9654-0.2501 0.21658-0.3946 0.53171-0.3212 0.70029 0.1509 0.34639-1.4448 4.1205-1.9328 4.5715-0.1747 0.16142-0.4248 0.77923-0.5559 1.3729-0.1312 0.59368-0.4579 1.2614-0.7262 1.4838-0.2683 0.22241-0.4215 0.49289-0.3405 0.60105s-0.026 0.3531-0.2373 0.5443c-0.2115 0.19119-0.328 0.47732-0.259 0.63584 0.1614 0.37036-0.722 2.5991-1.3056 3.2943-0.2465 0.29355-0.4096 0.70334-0.3624 0.91065 0.1083 0.47616-2.725 7.6102-3.189 8.0297-0.1895 0.17135-0.3041 0.4897-0.2546 0.70743 0.119 0.52305-1.6942 5.5422-2.0247 5.6048-0.1413 0.0268-0.2158 0.22954-0.1655 0.45059 0.1442 0.63396-2.156 7.7046-2.4315 7.4742-0.1401-0.11712-0.1749-0.0511-0.084 0.15857 0.1746 0.40092-1.3101 6.4002-1.537 6.2104-0.1774-0.14833-0.3887 1.0646-2.1946 12.598-0.7909 5.0511-1.365 9.3168-1.2758 9.4794 0.2265 0.41229 0.1852 4.9739-0.048 5.252-0.1047 0.12518-0.055 0.63641 0.1107 1.1361 0.1656 0.49966 0.2003 1.1476 0.077 1.4398-0.1231 0.29222-0.078 0.84312 0.1001 1.2242 0.1782 0.38113 0.2235 0.98449 0.1007 1.3408-0.1227 0.35633-0.1232 0.66226-9e-4 0.67984 0.3167 0.0456 0.6997 3.0424 0.4467 3.4954-0.1351 0.24188-0.091 0.32549 0.122 0.23265 0.2264-0.0986 0.2583 0.0321 0.1 0.4085-0.1392 0.33036-0.109 0.57288 0.075 0.6017 0.3992 0.0626 1.1508 3.3414 0.878 3.8299-0.1148 0.20547-0.083 0.3191 0.069 0.25252 0.153-0.0666 0.6161 0.88824 1.0291 2.1218 0.9517 2.8422 2.9369 6.9748 4.4133 9.1875 0.6282 0.9414 1.0876 1.8593 1.0209 2.0398-0.067 0.18052 0.02 0.35407 0.1922 0.38566 0.1723 0.0316 0.9196 0.75711 1.6606 1.6122s1.7243 1.9568 2.1851 2.4482c0.4607 0.49136 0.818 1.0327 0.7939 1.203-0.024 0.17028 0.144 0.33866 0.3735 0.37418 0.6088 0.0942 1.7607 1.1816 1.5361 1.4502-0.1056 0.12622-0.023 0.191 0.1845 0.14394 0.2071-0.0471 1.2539 0.5986 2.3263 1.4348 1.0723 0.8362 2.2098 1.6286 2.5277 1.7608 0.3179 0.13226 0.5546 0.40371 0.5259 0.60323-0.029 0.1995 0.1187 0.32387 0.3277 0.2764 0.209-0.0475 1.2208 0.39616 2.2486 0.98586 1.0278 0.58971 2.3592 1.2829 2.9587 1.5405 0.5994 0.25758 1.0038 0.57131 0.8985 0.69717s-0.01 0.18708 0.2169 0.13605c0.2246-0.051 0.4616 0.0293 0.5266 0.17845 0.065 0.14919 0.4292 0.25694 0.8094 0.23946 0.3902-0.018 0.9574 0.20298 1.3025 0.50739 0.3362 0.29655 0.7283 0.48826 0.8712 0.42603 0.143-0.0622 1.7032 0.35298 3.4672 0.92269 2.3329 0.75341 4.8559 1.3122 9.254 2.0495 6.4263 1.0773 10.525 1.4082 16.325 1.3179 1.8607-0.029 3.5953 0.0499 3.8547 0.17519 0.2777 0.13422 0.4902 0.0981 0.5169-0.0879 0.028-0.19394 0.2631-0.22408 0.6097-0.0781 0.3103 0.13069 0.7113 0.14753 0.891 0.0374 0.3936-0.24115 11.089-1.4539 12.043-1.3656 0.3695 0.0342 0.8282-0.0875 1.0193-0.27048 0.1991-0.19067 0.5777-0.23567 0.887-0.10545 0.2967 0.12497 0.5955 0.11545 0.664-0.0211 0.1656-0.33026 7.5031-1.9355 8.4123-1.8403 0.3916 0.041 0.6711-0.0195 0.621-0.1345-0.1297-0.2977 1.9194-0.78511 2.2254-0.52934 0.1397 0.11683 0.4132 0.0497 0.6077-0.14909 0.4739-0.4845 7.9249-2.6602 8.332-2.4329 0.1764 0.0985 0.3431 0.0233 0.3705-0.16701 0.056-0.39113 2.8162-1.309 3.3399-1.1107 0.1875 0.071 0.3665-0.0258 0.3979-0.21495 0.072-0.43281 6.5687-2.906 6.902-2.6274 0.1351 0.11296 0.2707 0.0311 0.3014-0.18185 0.062-0.42949 0.8268-0.69437 1.172-0.40579 0.1216 0.10167 0.2437 0.0276 0.2714-0.16461 0.066-0.45853 5.7766-3.0236 6.1104-2.7446 0.1413 0.11817 0.2447 0.0662 0.2297-0.11552-0.015-0.1817 0.1307-0.36379 0.3237-0.40463 0.2744-0.0581 0.1573 1.2726-0.5368 6.0972-0.5821 4.0464-0.9714 6.1015-1.1308 5.9683-0.1337-0.11176-0.2658-0.0448-0.2937 0.14873-0.059 0.41032-4.5338 2.3515-5.2738 2.2877-0.2758-0.0238-0.5063 0.0637-0.5123 0.19438-0.016 0.35862-2.4123 1.2255-2.7957 1.0114-0.1839-0.10267-0.3565-0.0325-0.3836 0.15594-0.056 0.39158-3.3795 1.5019-3.9058 1.305-0.191-0.0715-0.3728 0.0472-0.404 0.26379-0.059 0.40889-0.7273 0.60482-1.9263 0.56455-0.3841-0.0129-0.8688 0.15078-1.0771 0.36372-0.5201 0.53165-5.8282 2.1111-6.1607 1.8331-0.1476-0.12341-0.4552-0.0335-0.6835 0.19992-0.2283 0.23337-0.5812 0.33153-0.7843 0.21813-0.2032-0.1134-0.4514-0.0592-0.5518 0.12045-0.2585 0.46281-3.7176 1.2526-4.3394 0.99081-0.3145-0.13245-0.742-0.0461-1.0895 0.22014-0.7481 0.5732-2.2897 0.93557-2.7905 0.65594-0.2177-0.12149-0.344-0.10224-0.2808 0.0428 0.1333 0.30611-1.6987 0.68987-2.1662 0.45375-0.1733-0.0875-0.458-0.0173-0.6327 0.15604-0.8062 0.80007-18.641 2.5553-22.262 2.1909-0.8275-0.0833-1.6332-0.0954-1.7904-0.027-0.9071 0.39488-6.0076-0.11997-15.245-1.5388-8.1942-1.2586-10.567-1.7085-12.457-2.3616-4.2058-1.4534-6.8535-2.5582-6.6665-2.7817 0.101-0.12076-0.013-0.17483-0.2538-0.12016-0.5966 0.13557-1.7896-0.37949-1.548-0.66831 0.1075-0.12863 0-0.18956-0.2323-0.13599-0.5551 0.12614-5.1663-2.1832-5.6504-2.8298-0.2046-0.27325-0.624-0.53717-0.9321-0.58649-0.3082-0.0493-0.5107-0.23126-0.4502-0.4043 0.061-0.17303-0.065-0.27489-0.2783-0.22635-0.8273 0.18798-7.605-5.0432-7.498-5.7871 0.032-0.22281-0.1065-0.36721-0.3083-0.32135-0.8501 0.19317-5.8545-5.5824-8.4211-9.7189-2.601-4.1918-5.1843-9.7605-4.8257-10.403 0.1056-0.18894 0.033-0.36642-0.1619-0.39441-0.7045-0.10135-3.2215-10.338-2.7924-11.357 0.1044-0.24769 0.077-0.40141-0.06-0.3416-0.1374 0.0598-0.3038-0.36204-0.3698-0.93746-0.3299-2.8764-0.3612-3.6925-0.1555-4.0607 0.1232-0.22071 0.086-0.58541-0.082-0.81043-0.3618-0.48317-0.5119-4.2943-0.1985-5.0382 0.1195-0.28364 0.1245-0.56555 0.011-0.62646-0.8241-0.44276 1.35-18.487 3.0561-25.364 1.4022-5.652 3.6223-13.193 4.0869-13.882 0.2448-0.36302 0.4307-0.97164 0.4131-1.3525-0.017-0.38085 0.2027-1.0311 0.4894-1.4451s0.4962-0.9733 0.4657-1.243c-0.077-0.67869 3.496-10.18 4.0834-10.859 0.2625-0.30332 0.4173-0.68891 0.3442-0.85687-0.1722-0.3953 3.6707-9.5182 4.2085-9.9908 0.225-0.19771 0.3799-0.61649 0.3443-0.93062-0.036-0.31413 0.1285-0.7158 0.3648-0.8926s0.4014-0.47753 0.3669-0.66829c-0.034-0.19076 0.074-0.32711 0.242-0.303 0.1675 0.0241 0.2411-0.10218 0.1633-0.28064-0.1951-0.44805 0.9033-3.131 1.3207-3.2259 0.1866-0.0424 0.3141-0.29874 0.2834-0.56964-0.071-0.62908 1.5871-4.1961 1.8492-3.9771 0.1082 0.0905 0.1694-0.0765 0.136-0.37101-0.074-0.64814 0.7123-2.3274 1.3432-2.8702 0.2515-0.21637 0.3957-0.53487 0.3203-0.70778-0.176-0.4041 0.6803-2.1415 0.9461-1.9193 0.1104 0.0923 0.1759-0.0507 0.1456-0.3178-0.07-0.61359 3.4201-7.999 4.0167-8.5007 0.2441-0.20523 0.4072-0.54923 0.3625-0.76444-0.1044-0.50301 5.5298-12.058 5.9133-12.127 0.1589-0.0287 0.2487-0.22928 0.1995-0.44568-0.1048-0.46087 1.0583-2.9216 1.623-3.4337 0.2138-0.19381 0.356-0.50911 0.3162-0.70068-0.097-0.4653 0.7453-2.1618 1.3171-2.6538 0.2515-0.21638 0.397-0.53184 0.3233-0.70103-0.074-0.16919 0.5033-1.6556 1.2823-3.3032 0.7789-1.6476 1.5079-3.1985 1.6199-3.4466 0.112-0.24806 0.2949-0.37468 0.4065-0.28139 0.1116 0.0933 0.1776-0.053 0.1468-0.3252-0.031-0.27214 0.8438-2.5044 1.9437-4.9605 1.0999-2.4561 2.207-4.9565 2.46-5.5563 0.2531-0.59984 0.5643-1.0756 0.6916-1.0573 0.1274 0.0183 0.2058-0.19333 0.1744-0.47032-0.071-0.62891 1.538-4.553 1.8936-4.6173 0.1439-0.026 0.2373-0.26075 0.2077-0.52167-0.03-0.26092 0.5527-2.0769 1.294-4.0354 1.3586-3.5893 3.8675-11.223 4.608-14.02 0.2201-0.83118 0.4957-1.4313 0.6125-1.3336 0.1169 0.0977 0.1978-0.10337 0.18-0.44678-0.055-1.0582 1.4314-8.434 1.661-8.2421 0.1187 0.0992 0.1925-0.1088 0.164-0.46229-0.029-0.35348 0.1019-2.5804 0.2899-4.9487 0.1879-2.3683 0.3313-4.9542 0.3187-5.7465-0.014-0.85572 0.086-1.4878 0.2444-1.557 0.1471-0.064 0.097-0.36885-0.1105-0.6774-0.244-0.36211-0.2944-0.84227-0.1424-1.3544 0.1296-0.43639 0.141-0.80704 0.025-0.82368-0.2946-0.0424-0.5255-2.2042-0.2682-2.5118 0.1162-0.13896 0.039-0.50902-0.1725-0.82235-0.2111-0.31333-0.3591-0.95218-0.329-1.4197 0.03-0.46749-0.056-0.94492-0.1909-1.061-0.3878-0.33291-1.0568-3.1208-0.8176-3.4068 0.1186-0.14181 0.059-0.28278-0.1328-0.31328-0.1916-0.0305-0.8521-1.1973-1.4678-2.5928-0.7011-1.5894-1.9318-3.6204-3.2939-5.4361-1.196-1.5943-2.1612-3.0192-2.1449-3.1666 0.016-0.14736-0.1527-0.2964-0.3757-0.33121-0.223-0.0348-1.1122-0.66505-1.976-1.4005s-1.9355-1.5969-2.3814-1.9143-0.7242-0.6805-0.6185-0.80691c0.1057-0.1264 0.017-0.19012-0.1961-0.1416-0.5901 0.1341-1.8076-0.62638-1.5314-0.95656 0.1404-0.16785 0.1081-0.22571-0.08-0.14371-0.1734 0.0755-0.377-4e-3 -0.4524-0.17769-0.075-0.17321-0.3105-0.27555-0.5223-0.22743-0.2117 0.0481-1.0445-0.25165-1.8506-0.66615-4.9943-2.5683-9.5875-3.9103-17.188-5.0218-6.6821-0.97721-12.42-1.6144-12.318-1.3679 0.097 0.23263-6.4223 0.19534-6.7018-0.0383-0.1322-0.11058-0.4354-0.0816-0.6737 0.0644-0.2382 0.14599-0.6649 0.16788-0.948 0.0486-0.2831-0.11924-0.5292-0.11654-0.5469 6e-3 -0.018 0.12255-0.7417 0.25899-1.6091 0.30321-0.8675 0.0442-3.8553 0.30619-6.6397 0.58214-2.7844 0.27596-5.2296 0.40844-5.4339 0.29442-0.2042-0.11403-0.3191-0.0875-0.2554 0.0588 0.064 0.14639-0.1046 0.29639-0.3741 0.33334-0.2696 0.037-1.7764 0.26363-3.3484 0.50374-1.5721 0.24011-2.9706 0.3427-3.1078 0.22799s-0.4393-0.0923-0.6712 0.0498c-0.232 0.14212-0.5528 0.14883-0.713 0.0149-0.1754-0.14665-0.2377-0.12059-0.1566 0.0655 0.158 0.36266-4.8424 1.3545-5.2233 1.0361-0.1357-0.11348-0.4031-0.0553-0.5941 0.12937-0.4271 0.41277-10.47 2.6149-11.457 2.5122-0.3916-0.0408-0.6693 0.0241-0.6169 0.14424 0.1323 0.30374-1.3339 0.6007-1.6522 0.33461-0.1427-0.11932-0.4164-0.0618-0.6082 0.12775-0.4792 0.47385-9.5252 2.7378-9.9629 2.4934-0.194-0.10832-0.4517-0.0196-0.5728 0.19704-0.1295 0.23187-0.4131 0.31267-0.6893 0.19636-0.2581-0.10869-0.459-0.0849-0.4465 0.0528 0.031 0.33583-10.909 3.3273-11.219 3.068-0.134-0.11196-0.4067-0.0367-0.6062 0.1672-0.4686 0.47905-9.319 2.9965-9.7293 2.7675-0.1713-0.0957-0.4306-0.0184-0.5761 0.17177-0.3594 0.46962-13.724 4.2193-14.164 3.9739-0.1924-0.10741-0.632 0.0158-0.9768 0.27385-0.8109 0.60676-4.4949 1.5858-4.9698 1.3207-0.2008-0.1121-0.312-0.0821-0.2472 0.0666 0.1548 0.35553-2.4602 1.0836-3.0301 0.84363-0.2429-0.10229-0.433-0.062-0.4225 0.0894 0.039 0.55893-21.035 5.3839-22.781 5.216-0.4624-0.0444-1.024 0.0265-1.248 0.15765-0.6323 0.37034-2.4596 0.61794-2.7526 0.37298-0.1447-0.12098-0.4914-0.0697-0.7705 0.11386-0.6232 0.41008-6.9581 1.1802-7.4498 0.90565-0.1953-0.10901-0.6434-0.0654-0.9958 0.0969-0.6427 0.29602-4.3007 0.52607-9.3961 0.59091-4.9433 0.0629-20.035-2.0366-19.473-2.7089 0.1015-0.12132-0.2058-0.19551-0.6984-0.16865-0.5985 0.0326-0.8093-0.0361-0.6596-0.21501 0.1474-0.17623-0.093-0.26908-0.7294-0.2815-1.1883-0.0232-5.8697-1.7366-6.372-2.3321-0.2054-0.2435-0.5574-0.40092-0.7823-0.34982-1.6181 0.36768-16.295-9.4408-16.105-10.763 0.033-0.23085-0.1144-0.33959-0.3793-0.27939-0.276 0.0627-0.3864-0.0305-0.3035-0.25635 0.072-0.19519-0.068-0.38513-0.3112-0.42209-0.6134-0.0934-2.6548-2.1023-2.5225-2.4824 0.059-0.17106-0.087-0.34085-0.3247-0.3773-0.609-0.0932-3.5787-3.4351-3.3792-3.8026 0.09-0.16651 0.01-0.26768-0.1787-0.22481-0.1886 0.0429-0.8497-0.60967-1.469-1.4501-0.6193-0.84039-1.0258-1.5136-0.9033-1.496 0.1225 0.0176 0.1-0.16799-0.05-0.41246-0.1499-0.24448-0.3745-0.40013-0.4991-0.34591-0.5884 0.25614-8.4789-12.037-8.1286-12.664 0.099-0.17672 0.011-0.34553-0.1947-0.37514-0.4896-0.0704-3.464-5.6857-3.2318-6.1014 0.098-0.17578 0.039-0.31057-0.1324-0.29954-0.4171 0.0269-4.5084-8.3645-4.2787-8.7758 0.099-0.17773 0.011-0.34749-0.1956-0.37724-0.4567-0.0657-0.6775-0.52147-0.6216-1.2833 0.023-0.31318-0.081-0.56507-0.2318-0.55977-0.3876 0.01367-5.6164-11.529-5.361-11.834 0.116-0.13857 0.047-0.2755-0.1532-0.3043-0.4668-0.06715-5.3717-10.193-5.0967-10.521 0.1176-0.14054 0.034-0.20777-0.1939-0.15599-0.3978 0.09041-0.7091-0.5519-0.6475-1.3361 0.017-0.22167-0.1009-0.42241-0.2628-0.4461-0.162-0.02369-1.0563-1.3775-1.9874-3.0085-2.0466-3.5851-4.266-7.1533-6.1716-9.9223-0.7785-1.1313-1.3486-2.1878-1.2667-2.3477 0.082-0.15994-0.07-0.30422-0.3366-0.32062-0.301-0.01848-0.4484-0.19736-0.3879-0.47059 0.058-0.26069-0.052-0.40682-0.268-0.35768-0.3366 0.07647-0.7397-0.58754-0.7527-1.2397 0-0.15014-0.1995-0.26109-0.4367-0.24656-0.3003 0.01839-0.3618-0.09814-0.2024-0.38349 0.1357-0.24291 0.1099-0.35811-0.063-0.28276-0.3342 0.14549-4.8041-5.3267-4.7447-5.8087 0.021-0.1743-0.179-0.32985-0.4455-0.34568-0.3208-0.01905-0.4155-0.15236-0.2801-0.39468 0.1188-0.21277 0.079-0.31131-0.095-0.23545-0.3861 0.16807-1.9699-1.4351-1.8257-1.848 0.06-0.1724-0.073-0.34192-0.2954-0.37671-0.6089-0.09513-1.9597-1.4805-1.8933-1.9417 0.032-0.22224-0.099-0.37335-0.292-0.33579-0.4656 0.09078-3.8463-3.073-3.7795-3.5369 0.029-0.19951-0.1314-0.35317-0.3558-0.34146-0.5436 0.02836-3.0911-2.1731-3.029-2.6174 0.027-0.1921-0.082-0.29214-0.2428-0.22231-0.3764 0.16386-2.2553-1.2721-2.1327-1.6299 0.051-0.14956-0.1112-0.30703-0.3608-0.34994-0.7089-0.12182-6.1474-4.1234-6.0999-4.4882 0.023-0.17909-0.1345-0.28544-0.3506-0.23634-0.4246 0.09649-3.4431-1.8934-3.6849-2.4293-0.081-0.17948-0.4194-0.38202-0.7521-0.45011-0.3326-0.06808-2.3538-1.1667-4.4916-2.4414-2.1377-1.2747-5.6236-3.2147-7.7464-4.3112s-3.7811-2.0875-3.6851-2.2023c0.096-0.11475-0.026-0.16298-0.272-0.10717-0.5824 0.13233-2.6502-0.78466-2.9791-1.3211-0.1407-0.22952-0.4578-0.38388-0.7046-0.34302-0.5731 0.094897-5.7976-2.1943-5.8656-2.5701-0.028-0.15529-0.2255-0.24272-0.4387-0.19427-0.2132 0.04844-1.7261-0.42104-3.3619-1.0433s-3.0458-1.1417-3.1332-1.1542c-0.087-0.01257-0.084-0.11241 0.01-0.22186 0.091-0.10945-0.1807-0.19802-0.605-0.19683-0.4244 0.0012-1.033-0.19419-1.3526-0.43418-0.3196-0.23999-0.8559-0.44269-1.1917-0.45045-0.3358-0.0078-0.5926-0.13893-0.5707-0.2915 0.022-0.15256-0.1383-0.23689-0.3562-0.18738-0.2179 0.0495-2.8967-0.70518-5.9529-1.6771-5.5128-1.7531-15.547-4.574-17.028-4.787-0.4242-0.06102-0.7023-0.1929-0.6181-0.29306 0.084-0.10016-0.576-0.24478-1.4672-0.32137-0.9342-0.08028-1.5417-0.23329-1.4347-0.36128 0.1023-0.12229-0.1641-0.22103-0.593-0.21983-0.4283 0.0012-2.601-0.39377-4.8283-0.87772s-6.2289-1.2748-8.8924-1.7574-4.8282-0.97872-4.8104-1.1025c0.018-0.12377-0.095-0.24333-0.2501-0.26568-0.1554-0.02235-0.2256 0.09004-0.156 0.24975 0.083 0.19038-1.9865-0.01358-6.0088-0.5922-3.9919-0.57425-6.1816-0.98897-6.2679-1.1871-0.0911-0.2092-0.26078-0.22598-0.5421-0.05362-0.2689 0.16476-1.4073 0.07561-3.3163-0.2597-1.5988-0.28082-2.8639-0.41254-2.8115-0.29272 0.0524 0.11982-0.0318 0.19958-0.18714 0.17722-0.42136-0.06061 1.0424-9.9797 1.5261-10.342 0.42867-0.32075 23.289 2.9507 29.959 4.2874z" style="fill:#f9e5cf"/><path d="m46.264 376.01c-0.55584-0.22798-1.0106-0.58707-1.0106-0.79798s-0.11712-0.31112-0.26026-0.22267c-0.54119 0.33438-7.2857-3.6807-7.2857-4.3372 0-0.22204-0.12667-0.32545-0.28149-0.22979-0.84113 0.5197-13.853-11.148-13.346-11.968 0.1039-0.16807 5e-3 -0.29817-0.226-0.29817-0.68583 0-5.9462-6.6121-5.9517-7.4811-2e-3 -0.25598-0.15382-0.46573-0.33822-0.46611-0.94824-2e-3 -9.5173-14.899-9.1382-15.887 0.0707-0.18411-0.0773-0.51093-0.32892-0.72628-0.54295-0.46475-2.7463-5.874-2.8157-6.9125-0.0266-0.39773-0.18652-0.84439-0.35544-0.99257-0.43311-0.37993-0.97996-2.2212-0.76362-2.5712 0.0992-0.16041-2e-3 -0.49619-0.22526-0.74617-0.5031-0.5638-1.0831-2.6645-0.88105-3.191 0.0823-0.21444 0.0399-0.32209-0.0942-0.23923-0.30202 0.1866-1.4699-4.819-1.2873-5.5172 0.0729-0.2788 0.0152-0.54602-0.12824-0.59383-0.58855-0.19613-2.0253-13.801-1.4922-14.131 0.12072-0.0746 0.0736-0.31136-0.10471-0.52615-0.5865-0.70649 0.0635-12.752 1.1177-20.711 0.15701-1.1854 1.1326-7.3566 2.168-13.714 2.177-13.367 3.0455-19.961 3.4986-26.565 0.67663-9.8616-0.3606-19.094-2.975-26.479-0.46064-1.3013-0.75266-2.5137-0.64894-2.6942s0.0876-0.23658-0.0359-0.12456c-0.12347 0.11202-0.80739-0.89958-1.5198-2.248-4.7931-9.0717-12.428-14.912-20.71-15.841l-1.4822-0.16626-0.0829-1.145c-0.0801-1.1068-0.0564-1.145 0.71135-1.145 0.43682 0 1.7899 0.18882 3.0068 0.4196 10.312 1.9556 18.796 9.9252 22.878 21.49 2.2278 6.3118 2.989 11.03 3.1809 19.716 0.22263 10.079-0.27258 15.15-3.2762 33.543-1.8318 11.218-2.58 16.375-3.1462 21.688-0.53136 4.9862-0.42933 21.347 0.14368 23.041 0.25431 0.75148 1.5952 8.2113 1.6214 9.0206 0.0144 0.44454 0.11287 0.87339 0.2188 0.95299 0.10594 0.0796 0.62667 1.638 1.1572 3.463 4.1716 14.351 12.942 29.23 23.421 39.736 5.6867 5.7009 11.413 9.9066 17.877 13.13 1.8158 0.90551 3.3014 1.7613 3.3014 1.9017 0 0.14042 0.12365 0.1789 0.27477 0.0855 0.3504-0.2165 2.1507 0.36753 2.1507 0.6977 0 0.42446-5.4087 0.24375-6.5353-0.21834zm49.386 0.23464c0-0.19319 2.5297-0.84545 3.2789-0.84545 0.12351 0 0.22455 0.24248 0.22455 0.53884 0 0.48358-0.17966 0.53884-1.7517 0.53884-0.96346 0-1.7517-0.1045-1.7517-0.23223zm69.8-9.5e-4c0-0.3916 3.8929-3.4794 7.0194-5.5677 4.8085-3.2118 11.939-6.6233 17.986-8.6054 1.228-0.40251 2.4167-0.66124 2.6416-0.57497 0.22489 0.0863 0.3409 0.0469 0.2578-0.0876-0.19316-0.31244 1.3532-0.66202 1.7752-0.4013 0.18267 0.11286 0.24638 0.0809 0.14989-0.0752-0.20657-0.33414 4.7236-1.5466 5.4823-1.3482 0.29257 0.0765 0.47249 0.0429 0.39981-0.0747-0.13532-0.21889 1.9915-0.57253 6.7019-1.1144 3.9637-0.45593 13.766-0.16143 17.819 0.53534 10.096 1.7358 18.934 5.3476 27.624 11.289 3.1638 2.1632 7.5459 5.646 7.5459 5.9972 0 0.14346-0.74769 0.26084-1.6615 0.26084-1.5862 0-1.745-0.0635-3.5035-1.3999-1.0131-0.76996-1.842-1.5652-1.842-1.7671s-0.1135-0.29709-0.25221-0.21138c-0.13872 0.0857-1.4424-0.62218-2.8971-1.5731s-4.0395-2.4951-5.7441-3.4315c-1.7046-0.93642-3.2324-1.8766-3.3952-2.0894-0.16279-0.21273-0.4146-0.3135-0.55957-0.22393-0.14496 0.0896-1.4285-0.31666-2.8523-0.90274-5.6246-2.3153-12.096-3.7835-18.972-4.3044-9.3455-0.70798-20.323 0.99712-30.458 4.7308-5.8324 2.1488-14.725 7.0354-18.788 10.324-0.92967 0.75259-1.2408 0.84811-2.7624 0.84811-0.94307 0-1.7147-0.10493-1.7147-0.23318zm142.39-0.17498c-0.0862-0.22448-0.0937-0.64899-0.0167-0.94334 0.0871-0.33293 0.0329-0.46901-0.14345-0.36006-0.18187 0.11237-0.2351-0.0777-0.14854-0.53032 0.0826-0.43204 0.0303-0.64082-0.13498-0.5387-0.16886 0.10433-0.2049-0.0921-0.0963-0.5247 0.0955-0.38029 0.065-0.73178-0.0676-0.78109-0.30773-0.11438-4.1723-14.659-4.158-15.649 6e-3 -0.4075-0.088-0.7409-0.20864-0.7409-0.12067 0-0.47428-0.87899-0.78578-1.9533-0.3115-1.0743-1.0557-3.4426-1.6538-5.2628-0.59805-1.8202-1.0167-3.4936-0.93036-3.7185 0.0863-0.22497 0.057-0.34726-0.0652-0.27175-0.12222 0.0755-0.80366-1.4034-1.5143-3.2864-0.71065-1.883-1.76-4.4378-2.3318-5.6773s-0.96193-2.3793-0.86691-2.533c0.095-0.1537-0.0121-0.41459-0.23805-0.57976-0.22594-0.16517-1.048-1.4501-1.8268-2.8554-6.0028-10.832-13.275-17.975-21.965-21.576-1.1858-0.49135-2.2425-1.0198-2.3483-1.1743s-0.53022-0.29095-0.94324-0.30318c-0.41303-0.0122-1.7212-0.28822-2.9069-0.6133-3.5592-0.97575-6.7577-1.4091-11.616-1.5739-7.4747-0.25353-15.026 0.65667-24.986 3.0116-1.6033 0.37909-3.0082 0.63175-3.1219 0.56147-0.11375-0.0703-0.71073 0.12146-1.3266 0.4261-0.6159 0.30463-1.6055 0.57215-2.1991 0.59449-0.59362 0.0223-1.08 0.1242-1.0808 0.22637s-1.0627 0.50572-2.3596 0.89678c-1.297 0.39106-4.5712 1.4362-7.276 2.3226-2.7048 0.88636-5.0319 1.5411-5.1713 1.455-0.13937-0.0861-0.35182 9e-3 -0.47209 0.21107-0.27182 0.45697-2.7462 1.3122-3.123 1.0794-0.1522-0.094-0.40992 9e-3 -0.57272 0.22818-0.36616 0.4938-2.8222 1.3525-3.2002 1.1189-0.1522-0.094-0.40992 5e-3 -0.57272 0.21975-0.16279 0.2149-2.9034 1.3784-6.0902 2.5856-3.1868 1.2072-9.2699 3.5357-13.518 5.1744-4.292 1.6557-7.9132 2.9068-8.15 2.816-0.2582-0.099-0.49286 0.01-0.59519 0.2766-0.10643 0.27727-0.34915 0.38293-0.65601 0.28556-0.27797-0.0882-0.58245 0.01-0.70921 0.22832-0.27767 0.47859-4.0903 1.8689-4.5946 1.6755-0.20445-0.0784-0.30393-0.0329-0.22106 0.10112 0.19927 0.32232-3.2521 1.463-3.6614 1.2101-0.18914-0.11686-0.246-0.0805-0.14062 0.09 0.20783 0.33619-2.9837 1.4914-3.4036 1.232-0.15139-0.0935-0.42627 0.0364-0.61084 0.28875-0.18982 0.25952-0.76413 0.48622-1.3222 0.52191-0.54262 0.0347-1.0705 0.18421-1.1731 0.33224-0.37319 0.53837-13.047 4.2961-13.676 4.0549-0.21449-0.0823-0.38998-0.018-0.38998 0.14279 0 0.16081-0.24255 0.22898-0.53899 0.15147-0.29645-0.0775-0.539-0.042-0.539 0.0788 0 0.47548-12.451 3.1183-13.63 2.8931-0.34901-0.0667-0.66912-0.0196-0.71135 0.10457-0.0422 0.12422-1.714 0.42987-3.715 0.67922-5.1834 0.64591-16.702 0.64904-21.285 6e-3 -4.0764-0.57211-7.0124-1.2174-7.0124-1.5411 0-0.13166-0.17725-0.17137-0.39389-0.0883-0.54243 0.20809-4.5231-0.99374-4.8878-1.4757-0.16279-0.21515-0.42471-0.31164-0.58205-0.21443-0.3311 0.20458-1.1922-0.066-1.0334-0.32472 0.0587-0.0956-0.23205-0.18608-0.64609-0.20104-1.1182-0.0404-8.0808-3.5528-11.322-5.7114-5.7223-3.8113-10.638-8.479-14.952-14.199-2.9111-3.8595-6.6982-10.1-6.5781-10.839 0.0831-0.5116-0.0502-0.90043-0.2635-0.76862-0.31947 0.19739-2.5335-4.6277-2.2981-5.0084 0.1036-0.16759 8e-3 -0.43786-0.21289-0.60061-0.62064-0.45768-2.6395-6.0257-3.9659-10.938-1.8761-6.948-3.819-19.888-3.4618-23.055 0.0739-0.65582 0.0466-1.1924-0.0607-1.1924-0.37568 0-0.55324-10.973-0.28554-17.647 0.32074-7.996 0.80529-14.79 1.062-14.89 0.1013-0.0394 0.13627-0.48187 0.0777-0.98329-0.14502-1.2419 1.2815-14.55 1.571-14.656 0.12726-0.0466 0.16457-0.25884 0.0829-0.47161-0.21971-0.57238 0.48807-6.8599 0.75373-6.6958 0.12504 0.0773 0.15511-0.0477 0.0668-0.27778-0.21656-0.56419 0.45997-6.9012 0.71964-6.7408 0.11292 0.0698 0.14611-0.0994 0.0738-0.37604-0.0724-0.27659 0.1203-2.9743 0.42811-5.995 1.2282-12.052 1.4401-15.671 1.4763-25.204 0.0198-5.2104-0.0565-9.4163-0.16958-9.3465-0.11304 0.0698-0.20619-0.33482-0.20699-0.89924-5e-3 -3.5565-1.9882-13.037-3.6672-17.532-3.3586-8.9906-9.1205-15.867-16.334-19.493-1.1528-0.57948-2.0964-1.1432-2.0967-1.2526-3.4e-4 -0.10949-0.36088-0.21181-0.80121-0.22738-0.44032-0.0156-1.0028-0.19612-1.25-0.40122-0.24719-0.20509-0.76589-0.3965-1.1526-0.42535-0.38677-0.0288-1.5521-0.24057-2.5897-0.47051-5.1294-1.1367-10.923-1.1365-16.423 5.2e-4 -1.1378 0.23524-2.2437 0.36059-2.4576 0.27855-0.21385-0.082-0.38881-0.0187-0.38881 0.14064 0 0.15938-0.19945 0.21327-0.44322 0.11975-0.24377-0.0935-0.63791-8e-3 -0.87587 0.19009-0.23796 0.19807-1.6454 0.76161-3.1276 1.2523-3.744 1.2395-8.367 3.3601-11.968 5.4896-1.6755 0.991-3.0943 1.8018-3.1528 1.8018-0.0585 0-0.10632-1.0887-0.10632-2.4193v-2.4193l1.3851-0.79083c0.7618-0.43496 1.5501-0.72754 1.7517-0.65018 0.20324 0.078 0.36664-0.0301 0.36664-0.2424 0-0.40976 0.52909-0.69814 4.6866-2.5545 1.466-0.65455 2.8366-1.1244 3.0458-1.0442 0.20924 0.0803 0.31341 0.0375 0.23148-0.095-0.18605-0.30095 2.2429-1.1528 2.621-0.91923 0.1522 0.094 0.40992-0.0104 0.57272-0.23207 0.31976-0.43541 4.4774-1.6099 8.0508-2.2743 2.4356-0.45286 11.185-0.82766 11.967-0.51263 0.27002 0.10881 1.2792 0.23778 2.2427 0.28659 3.2042 0.16235 10.862 2.5574 11.228 3.5118 0.0745 0.19415 0.2932 0.29251 0.48595 0.21857 0.48453-0.18588 3.8055 1.8446 6.3738 3.897 6.4563 5.1595 11.45 13.622 13.936 23.618 1.1078 4.4536 1.749 8.2623 1.7755 10.546 0.0123 1.0587 0.10091 1.8776 0.19692 1.8197 0.35714-0.21525 0.5691 7.553 0.4161 15.25-0.18713 9.4129-0.69414 15.457-3.0057 35.833-0.94981 8.3723-1.8104 16.071-1.9125 17.108-0.10205 1.0373-0.23961 1.9788-0.30568 2.0923-0.0661 0.11349-0.16686 1.3865-0.22398 2.8289-0.0571 1.4424-0.23504 4.1381-0.3954 5.9903-0.48749 5.6308-0.65196 19.799-0.29399 25.326 0.51478 7.9471 1.59 15.466 3.0219 21.132 0.29714 1.1757 0.48264 2.358 0.41221 2.6272-0.0704 0.26923-0.0357 0.43245 0.0772 0.36271 0.29068-0.1796 1.3961 3.7638 1.199 4.2772-0.0962 0.25073 7e-3 0.48969 0.25283 0.58391 0.22866 0.0877 0.49515 0.52096 0.59222 0.96275 0.0971 0.44179 0.65292 1.9739 1.2352 3.4046 0.58233 1.4308 0.99922 2.7565 0.92644 2.9461-0.0728 0.18961-0.018 0.34474 0.1218 0.34474 0.38348 0 1.137 1.609 0.96429 2.059-0.0831 0.2166-0.0495 0.33098 0.0748 0.25419 0.12428-0.0768 0.92699 1.1575 1.7838 2.7428 1.7431 3.2252 4.1197 6.8727 6.1738 9.4752 0.7526 0.95352 1.3704 1.8918 1.3729 2.085 0.0025 0.19323 0.09165 0.32237 0.19813 0.28698 0.34363-0.11421 3.4579 3.1495 3.3281 3.4878-0.06904 0.17986 0.02261 0.2702 0.20368 0.20074 0.33942-0.13021 2.6856 2.0751 2.6387 2.4803-0.0145 0.125 0.12428 0.22855 0.30829 0.23011 0.50334 4e-3 4.2423 2.902 4.2423 3.2878 0 0.18735 0.17837 0.26687 0.40425 0.18021 0.25964-0.0996 0.40425 5e-3 0.40425 0.29378 0 0.24687 0.11045 0.38061 0.24545 0.2972 0.13501-0.0834 1.172 0.39597 2.3044 1.0653 2.7406 1.6198 5.2344 2.8478 7.691 3.7872 1.1117 0.42508 2.1078 0.89809 2.2135 1.0511 0.10576 0.15304 0.53022 0.29016 0.94324 0.30471 0.41303 0.0145 2.1456 0.39776 3.8502 0.85158 12.254 3.2625 26.875 2.5783 45.342-2.1218 2.3337-0.59397 4.3651-1.0046 4.5141-0.91254 0.14903 0.0921 0.27096 0.0442 0.27096-0.1065 0-0.36069 3.6937-1.4552 4.0883-1.2114 0.16801 0.1038 0.43867 0.0187 0.60146-0.1892 0.32556-0.41569 8.8183-3.294 9.8057-3.3233 0.33894-0.01 0.70276-0.15048 0.8085-0.31208 0.26599-0.40656 2.7572-1.2169 3.0965-1.0072 0.1522 0.094 0.40992-0.01 0.57272-0.23124 0.38268-0.52002 3.0173-1.3954 3.4308-1.1399 0.18857 0.1165 0.24562 0.0802 0.14068-0.0895-0.20831-0.33696 4.3094-2.0475 4.855-1.8382 0.19731 0.0757 0.35874 0.014 0.35874-0.13709 0-0.37615 1.8578-1.1241 2.3362-0.94061 0.21273 0.0816 0.3222 0.0439 0.24327-0.0838-0.17597-0.28464 3.7647-1.7559 4.1181-1.5376 0.1391 0.0859 0.32772-0.0387 0.41916-0.2769 0.10294-0.26817 0.36368-0.38154 0.68458-0.29765 0.30668 0.0802 0.58011-0.0255 0.66966-0.25876 0.0832-0.21685 0.36393-0.35059 0.62377-0.2972 0.25984 0.0534 0.59371-0.0444 0.74194-0.21733 0.14822-0.17292 1.7854-0.88735 3.6382-1.5876s4.9256-1.8671 6.8285-2.593c1.9029-0.72587 3.5888-1.24 3.7465-1.1426 0.1577 0.0974 0.42477-0.0115 0.59347-0.2422 0.38607-0.52783 11.668-4.5878 12.066-4.3421 0.16138 0.0997 0.44444-0.0252 0.62901-0.27752 0.18982-0.25952 0.76413-0.48622 1.3222-0.52191 0.54262-0.0347 1.0705-0.18421 1.1731-0.33224 0.37701-0.54389 13.872-4.5406 14.648-4.3379 0.27325 0.0714 0.43799 0.0347 0.36608-0.0816-0.0719-0.11632 0.20079-0.2821 0.606-0.36839 0.40521-0.0863 2.3739-0.53096 4.375-0.98813 2.001-0.45718 3.8532-0.7757 4.1159-0.70782 0.2627 0.0679 0.80843-0.0367 1.2127-0.2325 0.95508-0.46243 6.1107-1.1419 11.38-1.4999 4.1407-0.28127 11.69-0.0955 11.457 0.2819-0.0667 0.10793 0.18019 0.13862 0.54868 0.0682 0.91235-0.17436 5.0008 0.48207 4.8203 0.77394-0.0796 0.12872 0.0437 0.16178 0.27388 0.0735 0.57662-0.2212 4.2574 0.68466 4.6218 1.1374 0.16287 0.20242 0.36736 0.29684 0.4544 0.20982 0.26191-0.26183 3.7247 1.002 4.17 1.522 0.22764 0.26578 0.56568 0.425 0.75122 0.35383 0.90946-0.3489 9.6339 5.1071 9.4788 5.9278-0.0323 0.17101 0.15236 0.3122 0.41038 0.31376 0.67429 4e-3 5.2764 4.6636 7.6426 7.7379 1.1098 1.442 2.8119 3.9274 3.7824 5.5231 2.3119 3.8013 5.2718 9.7851 5.1249 10.36-0.0637 0.24975 0.0408 0.5142 0.23232 0.58767 0.69433 0.26637 5.9472 14.9 5.6948 15.865-0.0679 0.25953-0.0222 0.40932 0.10157 0.33287 0.12372-0.0765 0.28837 0.0749 0.36588 0.3364 0.9344 3.1523 1.5173 5.6036 1.4031 5.901-0.0775 0.20183-9e-3 0.36695 0.15162 0.36695 0.16086 0 0.23057 0.23667 0.1549 0.52593-0.0757 0.28926-0.0175 0.56594 0.12929 0.61485 0.34394 0.11461 2.687 9.0804 2.5358 9.7034-0.0629 0.25932-0.0195 0.47149 0.0965 0.47149 0.16501 0 1.8946 6.2654 1.8946 6.8632 0 0.078-0.974 0.14178-2.1644 0.14178-1.6848 0-2.1992-0.0904-2.3211-0.40816zm195.42-9.7384c-0.74112-0.0445-3.4698-0.20749-6.0637-0.36231-11.502-0.68649-24.013-2.2489-34.765-4.3417-5.7744-1.1239-11.049-2.3932-11.049-2.6589 0-0.12204-0.21223-0.16963-0.47162-0.10574-0.63247 0.15577-6.3658-1.4095-6.4863-1.7709-0.0523-0.15678-0.21554-0.2106-0.36282-0.11961-0.35402 0.21874-2.6784-0.43808-2.5106-0.70944 0.0716-0.11586-0.0822-0.15616-0.34177-0.0895-0.49604 0.12727-7.8709-2.2968-12.804-4.2086-1.8005-0.69774-2.832-1.2338-2.7207-1.4138 0.11092-0.17942 0.0517-0.21115-0.15538-0.0832-0.44617 0.27568-3.8404-1.1728-3.6125-1.5416 0.10735-0.17364 0.0422-0.20017-0.16981-0.0692-0.43503 0.26878-4.0895-1.466-3.8624-1.8334 0.0962-0.15555 0.0238-0.17855-0.17504-0.0557-0.45 0.27803-2.9784-0.91642-2.9784-1.407 0-0.20929-0.15159-0.32678-0.33687-0.26109-0.91086 0.32296-15.012-8.0628-14.621-8.695 0.0898-0.14533 5e-3 -0.20562-0.18752-0.13399-0.39839 0.14788-5.8793-3.8845-9.5138-6.9995-3.3092-2.8362-6.8953-6.3527-6.7379-6.6073 0.0711-0.11511-0.0209-0.19266-0.2046-0.17235-0.73029 0.0808-10.62-11.042-10.537-11.852 0.0206-0.20325-0.11644-0.36954-0.3045-0.36954-0.45834 0-2.632-2.903-2.4247-3.2383 0.0898-0.14531-0.0113-0.2642-0.22481-0.2642-0.46038 0-5.185-6.5807-5.1314-7.1474 0.0203-0.21485-0.0708-0.32404-0.20258-0.24264-0.29884 0.18464-7.0812-10.082-7.0872-10.729-2e-3 -0.25932-0.12999-0.47235-0.28351-0.47341-0.41103-3e-3 -5.337-7.746-5.1353-8.0722 0.0945-0.15284-0.0302-0.2779-0.27719-0.2779-0.28837 0-0.39349-0.14456-0.29386-0.40413 0.0856-0.22289 8e-3 -0.40435-0.17329-0.40461-0.38612-5.7e-4 -1.9334-2.3566-1.9405-2.9547-3e-3 -0.22613-0.14884-0.41146-0.32478-0.41185-0.17594-3.8e-4 -1.0747-1.0918-1.9973-2.4255-4.334-6.2652-8.4427-11.306-13.031-15.988-4.0476-4.1303-7.1983-6.8269-11.012-9.4246-1.3058-0.88951-2.3683-1.7188-2.3611-1.8429 7e-3 -0.12407-0.1372-0.23072-0.32082-0.23701-0.18362-6e-3 -1.8498-0.75086-3.7026-1.6546-1.8528-0.90376-3.6434-1.7257-3.979-1.8266-0.34361-0.10324-0.5315-0.31082-0.42999-0.47502 0.10441-0.16889 0.0552-0.21437-0.11686-0.10805-0.40806 0.25213-5.1775-1.2272-4.981-1.545 0.0896-0.14494 0.0125-0.16538-0.17861-0.0473-0.35493 0.21929-3.5199-0.34975-3.5199-0.63286 0-0.0909-0.51541-0.17496-1.1454-0.18684-2.2284-0.042-6.9396-0.46666-6.9399-0.62555-4.8e-4 -0.23367-3.342-0.1578-3.7346 0.0848-0.18227 0.11262-1.2053 0.17677-2.2733 0.14255-1.0681-0.0342-2.1238 2e-3 -2.3462 0.0797-0.67052 0.23542-9.5034 1.6514-10.417 1.6699-0.46757 0.01-0.81073 0.081-0.76258 0.15888 0.0481 0.0779-1.5097 0.54484-3.4618 1.0377s-5.9555 1.6811-8.8963 2.6405c-2.9408 0.95944-5.415 1.6764-5.4981 1.5934-0.0831-0.0831-0.28437 9e-3 -0.44725 0.20354-0.16288 0.19503-2.1759 1.0581-4.4734 1.9179-5.2295 1.9571-13.842 5.5744-23.446 9.848-4.0762 1.8137-7.6885 3.3123-8.0274 3.3302-0.33894 0.018-0.70827 0.18154-0.82074 0.36351-0.63405 1.0259-38.624 17.026-39.567 16.665-0.21562-0.0827-0.32613-0.0438-0.24557 0.0865 0.25037 0.40498-14.664 5.5788-15.337 5.3205-0.20774-0.0797-0.418-0.024-0.46726 0.12371-0.12207 0.36609-6.1607 2.1807-6.7505 2.0285-0.2596-0.067-0.41199-0.0247-0.33864 0.0939 0.18524 0.29965-3.53 1.1785-3.932 0.93011-0.18601-0.11493-0.25659-0.0888-0.16414 0.0607 0.0913 0.14765-0.68588 0.4682-1.7775 0.73315-16.028 3.8902-31.171 4.937-42.903 2.9656-3.7059-0.6227-6.083-1.2039-5.9308-1.4501 0.0756-0.12221-0.075-0.16686-0.33463-0.0992-0.2596 0.0676-1.9084-0.37241-3.6639-0.97784-5.0168-1.7301-9.193-3.9831-13.275-7.1617-2.5389-1.9769-6.6517-6.2627-6.4683-6.7405 0.0692-0.18021-0.12414-0.39299-0.42959-0.47284-0.36769-0.0961-0.50084-0.28718-0.39405-0.56539 0.0987-0.25713 0.0151-0.4202-0.21535-0.4202-0.91612 0-4.6208-7.1229-6.1807-11.884-1.1301-3.449-2.1586-8.1469-1.9544-8.9275 0.0834-0.3189 0.0393-0.71513-0.098-0.88051-0.46733-0.56293-0.80139-5.1027-0.80268-10.908-1e-3 -6.4361 0.24454-9.7783 1.2237-16.627 1.0729-7.5046 4.232-22.056 4.7226-21.753 0.1336 0.0825 0.17616-0.0238 0.0946-0.23637-0.18577-0.48398 0.58754-3.5128 0.92564-3.6255 0.13731-0.0457 0.19739-0.28954 0.13352-0.54176-0.21054-0.83141 6.0188-21.691 6.4062-21.452 0.12592 0.0778 0.15837-0.0424 0.0721-0.2671-0.19095-0.49747 0.88707-3.8879 1.437-4.5194 0.21769-0.24998 0.32046-0.57638 0.22837-0.72534-0.21579-0.34907 6.8089-22.651 7.3242-23.253 0.21405-0.24998 0.31239-0.57874 0.21853-0.73057-0.21349-0.34532 1.9028-7.4026 2.255-7.5199 0.14193-0.0473 0.19516-0.24983 0.11829-0.45008-0.18675-0.48652 2.053-8.5031 2.5371-9.0812 0.20938-0.24998 0.30486-0.57717 0.21218-0.72708-0.21811-0.35281 0.34093-2.6802 0.83434-3.4735 0.20997-0.33759 0.30737-0.73414 0.21644-0.88122-0.21517-0.34805 1.7563-8.6083 2.0545-8.6083 0.12512 0 0.16332-0.16718 0.0849-0.3715-0.0784-0.20433 0.23436-2.2917 0.69508-4.6385 2.3656-12.05 3.0493-18.529 3.1107-29.476 0.027-4.8159-0.0404-8.8774-0.14965-9.0256-0.28689-0.38898-0.88526-4.9166-0.71009-5.3729 0.0812-0.21166 0.0189-0.42775-0.13849-0.4802-0.15741-0.05246-0.30918-0.64031-0.33725-1.3064-0.0281-0.66604-0.13988-1.3547-0.24846-1.5303s-0.54885-1.5658-0.97837-3.0891c-1.9165-6.7973-5.5137-13.684-9.4234-18.042-0.75581-0.84236-1.3412-1.6855-1.301-1.8737 0.0403-0.18817-0.07-0.34764-0.24512-0.35437-0.17511-0.0067-1.0181-0.61844-1.8733-1.3594-0.85522-0.74091-1.9853-1.6914-2.5114-2.1121-0.52604-0.42075-0.95675-0.9057-0.95713-1.0777-3.8e-4 -0.17198-0.18229-0.31685-0.40425-0.32194-0.22195-0.0051-1.5733-0.70958-3.0029-1.5655-3.277-1.9619-8.0959-4.012-11.942-5.0803-1.6367-0.45462-3.014-0.92466-3.0606-1.0446-0.04663-0.11989-0.2349-0.16039-0.41837-0.09001-0.18347 0.07038-1.8432-0.13028-3.6882-0.44593-2.4511-0.41933-5.0054-0.61223-9.484-0.71624-6.5387-0.15185-10.588 0.10311-16.46 1.0365-1.9004 0.30205-3.6349 0.4803-3.8544 0.39612-0.25429-0.09755-0.32985-0.04123-0.20834 0.15533 0.13444 0.21746-0.0485 0.26057-0.62044 0.14622-0.44611-0.08919-0.92485-0.04845-1.0639 0.09054-0.13903 0.13899-2.2294 0.73977-4.6454 1.3351-5.2759 1.3-10.577 2.9985-16.153 5.1756-2.2707 0.88659-4.199 1.5414-4.2853 1.4552-0.0863-0.08624-0.2901 0.01447-0.45298 0.2238-0.16288 0.20933-1.5538 0.94109-3.0909 1.6261-1.5371 0.68504-3.9983 1.8493-5.4694 2.5873-1.471 0.73798-2.7905 1.2702-2.9321 1.1827-0.14162-0.0875-0.26164-3.87e-4 -0.2667 0.19358-5e-3 0.19397-1.5351 1.1994-3.4 2.2344-1.865 1.0349-4.9836 2.8984-6.9304 4.141-1.9467 1.2426-3.6911 2.3183-3.8764 2.3905-0.2637 0.10276-0.33581-1.2354-0.33203-6.1616l5e-3 -6.2929 2.6804-1.5711c1.4742-0.8641 2.806-1.4935 2.9596-1.3986 0.15359 0.0949 0.27926 0.0073 0.27926-0.19472 0-0.47409 6.3606-3.804 6.7759-3.5474 0.19077 0.11787 0.24201 0.07725 0.13037-0.10334-0.21814-0.35286 0.64405-0.86281 1.6648-0.98466 0.39962-0.0477 0.82469-0.10056 0.94461-0.11745 0.11991-0.0169 0.1532-0.13558 0.074-0.26374-0.19739-0.3193 5.7349-3.0718 6.2196-2.8858 0.2137 0.08198 0.32331 0.04352 0.24356-0.08547-0.19475-0.31503 5.1726-2.5254 5.5564-2.2883 0.16601 0.10257 0.43816 1.06e-4 0.60478-0.2277 1.0856-1.4842 22.926-7.4081 27.902-7.5681 0.82105-0.02639 1.5534-0.12629 1.6276-0.222 0.64437-0.83212 21.208-1.1054 26.376-0.35057 15.265 2.2297 27.974 8.5945 36.439 18.249 7.6863 8.7661 12.37 19.877 14.335 34.004 0.75894 5.4574 0.81489 19.557 0.1037 26.134-0.63553 5.877-1.7453 13.185-2.0159 13.276-0.12208 0.0407-0.17011 0.42716-0.10673 0.85885 0.0634 0.43169-0.0687 1.1535-0.29348 1.6039-0.22479 0.45047-0.35254 1.0339-0.28389 1.2965 0.16973 0.64931-2.0067 10.567-2.4815 11.308-0.20874 0.32564-0.31411 0.7625-0.23416 0.97079 0.18726 0.48785-2.4758 10.527-2.8232 10.643-0.14434 0.0481-0.19683 0.25838-0.11665 0.46729 0.17764 0.46277-3.6513 13.798-4.0869 14.233-0.17036 0.17031-0.26275 0.45061-0.2053 0.62289 0.15887 0.47649-3.4772 11.943-3.7364 11.783-0.12444-0.0769-0.16076 0.0308-0.0807 0.2394 0.18477 0.48135-6.0176 20.103-6.5477 20.714-0.21687 0.24998-0.31491 0.58294-0.21787 0.73991 0.097 0.15697-0.24751 1.6498-0.76568 3.3174-6.2486 20.11-10.407 39.964-10.407 49.686 0 1.1044-0.0931 1.9505-0.2069 1.8802-0.2115-0.13068-0.0288 3.1937 0.47923 8.7175 0.15671 1.7041 0.59037 4.4636 0.9637 6.1322 0.37332 1.6686 0.6046 3.1538 0.51396 3.3004-0.0906 0.14663-0.0568 0.2666 0.0751 0.2666 0.13196 0 0.69482 1.149 1.2508 2.5533 1.8129 4.5792 4.5294 8.6084 7.8921 11.706 1.0824 0.99704 1.9679 1.9621 1.9679 2.1446s0.10894 0.26454 0.24208 0.18228c0.13315-0.0823 1.2752 0.49889 2.538 1.2914 1.2628 0.79256 3.091 1.7788 4.0627 2.1917 0.99278 0.42182 1.6926 0.87057 1.5976 1.0244-0.0978 0.15824-0.0352 0.19089 0.14849 0.0774 0.17472-0.10796 1.2546 0.11002 2.3997 0.4844 6.068 1.9838 9.6822 2.4606 18.521 2.4434 6.1666-0.012 7.9753-0.11252 11.858-0.65901 2.5198-0.35467 5.0059-0.65518 5.5247-0.6678 0.51879-0.0126 1.0769-0.10614 1.2402-0.20784 0.16332-0.10169 2.0431-0.55441 4.1772-1.006 4.4838-0.94888 8.5858-2.009 13.684-3.5363 1.9827-0.59401 3.7715-1.0161 3.9751-0.938 0.20362 0.0781 0.37022 0.0346 0.37022-0.0967 0-0.35106 5.8602-2.2434 6.2334-2.0129 0.18505 0.11433 0.24648 0.0809 0.14703-0.0799-0.10115-0.16363 1.0082-0.68903 2.7207-1.2885 1.5903-0.55673 4.5707-1.6634 6.6231-2.4594 2.0524-0.79592 3.8596-1.3681 4.016-1.2714 0.1564 0.0966 0.41756-1e-3 0.58036-0.2173 0.16279-0.21615 1.8726-1.0359 3.7995-1.8216 1.9269-0.78576 6.755-2.8225 10.729-4.5261 3.9741-1.7036 7.2971-3.026 7.3845-2.9386 0.0874 0.0874 0.29222-0.0118 0.4551-0.22047 0.36313-0.46519 8.796-4.2342 9.1821-4.1039 0.15232 0.0514 0.39822-0.0644 0.54645-0.25744 0.40121-0.52244 13.621-6.3222 13.949-6.1196 0.155 0.0958 0.42821-0.026 0.60711-0.27059 0.86-1.1758 29.187-12.315 30.265-11.901 0.21885 0.084 0.59261-0.0168 0.83057-0.22391 0.59855-0.52097 2.3902-1.0656 2.8832-0.87647 0.23107 0.0887 0.33593 0.041 0.24248-0.11015-0.0906-0.14648-0.10025-0.26633-0.0215-0.26633 0.0787 0 1.7428-0.43331 3.6981-0.96291s3.7719-0.90619 4.0371-0.83686c0.26517 0.0693 0.52017 0.0119 0.56667-0.12751 0.092-0.27584 4.869-1.2874 9.3737-1.985 4.8896-0.75715 20.265-0.86795 19.817-0.1428-0.0698 0.11293 0.17327 0.14796 0.5402 0.0778 0.36692-0.0701 0.83298 0.0101 1.0357 0.17828 0.2027 0.16817 0.56109 0.2319 0.79643 0.14162 0.55456-0.21274 6.0504 0.94366 6.4678 1.3609 0.17554 0.17548 0.47451 0.26729 0.66437 0.20402 0.65584-0.21855 6.4002 1.9538 10.16 3.8425 4.4309 2.2255 8.2197 4.6048 8.2197 5.162 0 0.21675 0.12362 0.31771 0.27471 0.22435 0.36913-0.22806 2.9593 1.6953 2.9593 2.1974 0 0.2184 0.12534 0.31964 0.27853 0.22499 0.1532-0.0947 1.275 0.67705 2.4929 1.7149 2.4619 2.098 4.7377 4.3527 4.3934 4.3527-0.12312 0-0.074 0.18052 0.10918 0.40116 0.18316 0.22064 0.42576 0.34387 0.5391 0.27385 0.26393-0.16308 3.8419 3.5636 6.5946 6.8688 4.7875 5.7483 14.573 19.712 14.304 20.412-0.0762 0.19861-0.03 0.29399 0.10281 0.21195 0.13279-0.0821 1.5481 1.8818 3.1451 4.3641 3.027 4.7051 8.9952 13.676 10.799 16.233 0.57504 0.815 1.0431 1.6637 1.0401 1.8859-3e-3 0.22228 0.12851 0.40414 0.29219 0.40414 0.16367 0 1.2416 1.2124 2.3955 2.6942 2.8457 3.6545 5.5144 6.7978 8.0407 9.4705 1.1604 1.2277 2.0333 2.3558 1.9399 2.507-0.10042 0.16243 1e-3 0.20915 0.24905 0.11418 0.28839-0.11064 0.52378 0.0866 0.75511 0.63269 0.20577 0.48573 0.48341 0.74397 0.71593 0.6659 0.26498-0.089 0.32702 0.01 0.20521 0.32737-0.1039 0.27069-0.0659 0.38771 0.0939 0.28898 0.32423-0.20033 5.65 4.7042 5.6525 5.2055 9.8e-4 0.19398 0.12373 0.27734 0.27277 0.18525 0.34079-0.21056 2.6973 1.693 2.6176 2.1144-0.0324 0.17121 0.12818 0.31343 0.3568 0.31604 0.22863 3e-3 1.502 0.79928 2.8297 1.7704 5.8126 4.2513 9.874 6.7378 16.902 10.348 2.9287 1.5044 5.2734 2.7869 5.2103 2.85-0.0631 0.0631 0.14809 0.12821 0.46924 0.1448 0.32116 0.0166 2.5243 0.84387 4.8959 1.8384 2.3716 0.99451 6.8587 2.6587 9.9714 3.6983s5.6976 1.9937 5.7442 2.1204c0.0466 0.12671 0.24437 0.16917 0.43942 0.0943 0.19505-0.0748 2.1579 0.35239 4.3619 0.94937 12.571 3.405 27.612 5.8316 44.567 7.1901 5.8812 0.47122 35.362 0.9588 35.128 0.58098-0.0689-0.11114 3e-3 -0.20207 0.16018-0.20207 0.4257 0 0.38926 10.026-0.038 10.454-0.24394 0.24386-3.5053 0.31137-13.273 0.27474-7.1222-0.0267-13.556-0.0849-14.297-0.12938z" style="fill:#f9e5cf"/></svg>
