<?xml version="1.0" encoding="UTF-8" standalone="no"?>
<svg
   width="1115.9091"
   zoomAndPan="magnify"
   viewBox="0 0 836.93179 836.93179"
   height="1115.9091"
   preserveAspectRatio="xMidYMid"
   version="1.2"
   id="svg8"
   sodipodi:docname="esg.svg"
   inkscape:version="1.4 (e7c3feb100, 2024-10-09)"
   xml:space="preserve"
   xmlns:inkscape="http://www.inkscape.org/namespaces/inkscape"
   xmlns:sodipodi="http://sodipodi.sourceforge.net/DTD/sodipodi-0.dtd"
   xmlns="http://www.w3.org/2000/svg"
   xmlns:svg="http://www.w3.org/2000/svg"><sodipodi:namedview
     id="namedview8"
     pagecolor="#ffffff"
     bordercolor="#000000"
     borderopacity="0.25"
     inkscape:showpageshadow="2"
     inkscape:pageopacity="0.0"
     inkscape:pagecheckerboard="0"
     inkscape:deskcolor="#d1d1d1"
     inkscape:zoom="0.2491242"
     inkscape:cx="945.31162"
     inkscape:cy="572.00385"
     inkscape:window-width="1920"
     inkscape:window-height="1008"
     inkscape:window-x="1366"
     inkscape:window-y="0"
     inkscape:window-maximized="1"
     inkscape:current-layer="svg8"
     showgrid="false" /><defs
     id="defs4"><clipPath
       id="2bd689f087"><path
         d="m 202.5,202.5 h 405 v 405 h -405 z m 0,0"
         id="path1" /></clipPath><clipPath
       id="e1c5bb51cb"><path
         d="m 405,202.5 c 111.83594,0 202.5,90.66406 202.5,202.5 0,111.83594 -90.66406,202.5 -202.5,202.5 -111.83594,0 -202.5,-90.66406 -202.5,-202.5 0,-111.83594 90.66406,-202.5 202.5,-202.5 v 81 c -67.10156,0 -121.5,54.39844 -121.5,121.5 0,67.10156 54.39844,121.5 121.5,121.5 67.10156,0 121.5,-54.39844 121.5,-121.5 0,-67.10156 -54.39844,-121.5 -121.5,-121.5 z m 0,0"
         id="path2" /></clipPath><clipPath
       id="1a592c07e2"><path
         d="M 404,207.24609 H 608 V 523.65234 H 404 Z m 0,0"
         id="path3" /></clipPath><clipPath
       id="5d5a9ac903"><path
         d="m 455.625,208.92969 c 60.50391,15.62109 110.40234,58.30078 135.21875,115.64843 24.81641,57.34766 21.76953,122.9375 -8.26172,177.73829 -6.95312,12.6875 -20.14453,20.70312 -34.61328,21.02734 -14.46484,0.32031 -28.00391,-7.09766 -35.51563,-19.46484 -7.51171,-12.36719 -7.85546,-27.80079 -0.90234,-40.48829 18.01563,-32.8789 19.84766,-72.23437 4.95703,-106.64453 -14.89062,-34.40625 -44.83203,-60.01562 -81.13281,-69.38672 -21.65625,-5.59375 -34.67969,-27.68359 -29.08984,-49.33984 5.59375,-21.65625 27.68359,-34.67969 49.33984,-29.08984 z m 0,0"
         id="path4" /></clipPath><clipPath
       clipPathUnits="userSpaceOnUse"
       id="clipPath12"><path
         d="M 404,207.24609 H 608 V 523.65234 H 404 Z m 0,0"
         id="path13"
         style="stroke-width:0.999997" /></clipPath></defs><rect
     style="fill:none;stroke-width:1.42973;stroke-linecap:round;stroke-dashoffset:500.787"
     id="rect1"
     width="836.93176"
     height="836.93176"
     x="0"
     y="0" /><g
     id="g1"
     transform="translate(-502.55888,-926.92028)"><path
       id="path198"
       style="fill:#782a1b;fill-opacity:1;stroke-linecap:round;stroke-dashoffset:500.787"
       d="m 620.93008,1263.7604 a 108.812,108.812 0 0 0 -98.71143,118.0503 c 15.26116,171.062 139.08573,313.9914 306.22705,353.4741 66.73954,15.7655 134.66878,13.6413 197.9561,-3.8452 a 126.52245,126.52245 0 0 1 -108.15678,-125.1548 126.52245,126.52245 0 0 1 28.62744,-79.8149 c -22.27582,3.2371 -45.41315,2.4493 -68.39502,-2.9795 -76.73051,-18.1256 -132.49109,-82.4882 -139.49707,-161.0186 a 108.812,108.812 0 0 0 -118.05029,-98.7114 z" /><circle
       style="fill:#782a1b;fill-opacity:1;stroke:none;stroke-width:2836.42;stroke-linecap:round;stroke-dasharray:none;stroke-dashoffset:500.787"
       id="circle198"
       cx="920.88043"
       cy="1349.2622"
       r="137.57552" /><path
       id="path199"
       style="fill:#b85d43;fill-opacity:1;stroke-linecap:round;stroke-dashoffset:500.787"
       d="m 914.16553,944.88867 c -81.53324,1.26312 -162.68281,27.30906 -231.25342,77.94723 -96.96283,71.6054 -154.2567,181.7248 -161.36571,297.545 a 126.52245,126.52245 0 0 1 111.03515,-66.5391 126.52245,126.52245 0 0 1 108.01904,60.6841 c 7.51657,-45.6265 32.40161,-87.686 71.59276,-116.628 62.94526,-46.484 147.37935,-47.793 211.73435,-3.2812 a 108.812,108.812 0 0 0 151.3887,-27.5932 108.812,108.812 0 0 0 -27.5947,-151.3888 C 1077.6153,967.14503 995.69878,943.62554 914.16553,944.88867 Z" /><path
       id="path200"
       style="fill:#de7b5f;fill-opacity:1;stroke-linecap:round;stroke-dashoffset:500.787"
       d="m 1202.2461,1061.02 a 126.52245,126.52245 0 0 1 6.7207,40.5791 126.52245,126.52245 0 0 1 -126.523,126.5215 126.52245,126.52245 0 0 1 -23.5165,-2.4858 c 22.423,26.08 37.5711,58.6135 42.3955,94.749 1.4033,10.5109 1.8396,20.9502 1.4619,31.2495 0,9e-4 0,0.01 0,0.01 -0.6727,17.0801 -3.7063,33.6695 -8.8257,49.4033 -0.074,0.2274 -0.1435,0.4556 -0.2182,0.6826 -1.2355,3.7466 -2.5946,7.4412 -4.065,11.0845 -0.1091,0.2702 -0.2192,0.5403 -0.3296,0.81 -1.5044,3.6765 -3.1172,7.3022 -4.8545,10.8618 -0.042,0.086 -0.087,0.1713 -0.1289,0.2579 -8.7088,17.7717 -20.3252,33.9723 -34.3169,48.0351 -0.8579,0.86 -1.6929,1.7401 -2.5693,2.5839 -2.0239,1.9541 -4.1272,3.8323 -6.2461,5.6954 -1.3535,1.1867 -2.7136,2.3649 -4.106,3.5142 -1.9174,1.5872 -3.8729,3.1359 -5.8608,4.6479 -1.7773,1.3481 -3.5918,2.6542 -5.4258,3.9419 -1.8006,1.2677 -3.6024,2.5335 -5.4551,3.7398 -2.3258,1.5104 -4.7222,2.9375 -7.1308,4.3505 -1.5142,0.8902 -2.9973,1.8223 -4.5425,2.6719 -4.0488,2.222 -8.1809,4.337 -12.44382,6.2768 a 108.812,108.812 0 0 0 -62.26321,116.9386 108.812,108.812 0 0 0 8.28954,27.1699 108.812,108.812 0 0 0 88.54979,63.2373 108.812,108.812 0 0 0 28.3887,-0.9741 108.812,108.812 0 0 0 27.1685,-8.2911 c 7.8133,-3.5554 15.4216,-7.4096 22.9145,-11.4184 1.1873,-0.6351 2.3876,-1.2478 3.5669,-1.8941 7.0842,-3.883 14.0049,-7.979 20.7862,-12.2505 1.3771,-0.8671 2.7397,-1.7494 4.1044,-2.6323 6.7285,-4.3546 13.3339,-8.8559 19.7461,-13.5776 1.008,-0.7416 1.9807,-1.5214 2.981,-2.272 5.885,-4.4197 11.634,-8.9863 17.2383,-13.7022 1.0299,-0.8656 2.0893,-1.6967 3.1098,-2.5722 5.6825,-4.8808 11.1674,-9.9523 16.5455,-15.1246 1.6719,-1.6056 3.3423,-3.2066 4.9848,-4.8398 4.9635,-4.9426 9.7953,-10.0011 14.48,-15.1831 1.8489,-2.0419 3.6438,-4.1223 5.4492,-6.2006 3.7901,-4.3703 7.491,-8.8088 11.083,-13.3316 2.4055,-3.0238 4.737,-6.0952 7.0533,-9.1861 2.7647,-3.6951 5.4682,-7.4326 8.102,-11.2177 2.4249,-3.4797 4.8042,-6.9818 7.1177,-10.5366 2.7946,-4.3001 5.5112,-8.6482 8.1386,-13.0503 1.9784,-3.3108 3.9151,-6.6385 5.7979,-10.0064 2.791,-4.9969 5.4968,-10.0402 8.0727,-15.1523 0.015,-0.03 0.03,-0.061 0.045,-0.091 1.7973,-3.5673 3.4885,-7.1822 5.1797,-10.8047 1.5342,-3.2866 3.0049,-6.6018 4.4502,-9.9302 2.3278,-5.3614 4.5399,-10.7676 6.6343,-16.2363 1.3598,-3.5474 2.6794,-7.1102 3.939,-10.6978 1.3655,-3.8947 2.7132,-7.7895 3.9594,-11.7319 1.7409,-5.4954 3.344,-11.0368 4.8487,-16.6128 0.8875,-3.2992 1.7404,-6.6054 2.5444,-9.9331 1.5451,-6.3707 2.9596,-12.778 4.1924,-19.2364 0.5054,-2.6621 0.9354,-5.3413 1.3872,-8.0185 1.1107,-6.5405 2.092,-13.1104 2.877,-19.7241 0.2237,-1.9018 0.4332,-3.8048 0.6299,-5.7129 0.7607,-7.3104 1.2914,-14.6616 1.6464,-22.043 0.05,-1.0636 0.1955,-2.1091 0.2373,-3.1743 a 108.812,108.812 0 0 0 -0.01,-1.3638 c 0.8136,-22.2091 -0.1883,-44.6856 -3.1992,-67.2378 -11.9545,-89.5408 -53.6124,-169.8157 -114.7896,-230.5649 z" /><circle
       style="fill:#ffffff;stroke:none;stroke-width:523.693;stroke-linecap:round;stroke-dasharray:none;stroke-dashoffset:500.787;stroke-opacity:1"
       id="circle200"
       cx="1081.1671"
       cy="1102.1199"
       r="94.596107" /><circle
       style="fill:#ffffff;stroke:none;stroke-width:523.693;stroke-linecap:round;stroke-dasharray:none;stroke-dashoffset:500.787;stroke-opacity:1"
       id="circle201"
       cx="1047.4811"
       cy="1606.2573"
       r="94.596107"
       inkscape:transform-center-x="-105.36913"
       inkscape:transform-center-y="-526.84566" /><circle
       style="fill:#ffffff;stroke:none;stroke-width:523.693;stroke-linecap:round;stroke-dasharray:none;stroke-dashoffset:500.787;stroke-opacity:1"
       id="circle202"
       cx="631.80524"
       cy="1377.2354"
       r="94.596107"
       inkscape:transform-center-x="-105.36913"
       inkscape:transform-center-y="-526.84566" /><text
       xml:space="preserve"
       style="font-style:normal;font-variant:normal;font-weight:bold;font-stretch:normal;font-size:86.7439px;line-height:1.2em;font-family:Poppins;-inkscape-font-specification:'Poppins Bold';text-align:start;letter-spacing:0px;writing-mode:lr-tb;direction:ltr;text-anchor:start;fill:#ffffff;fill-opacity:1;stroke:none;stroke-width:2.86129;stroke-linecap:round;stroke-dasharray:none;stroke-dashoffset:500.787;stroke-opacity:1"
       x="836.43524"
       y="1379.8394"
       id="text202"><tspan
         sodipodi:role="line"
         id="tspan202"
         style="font-size:86.7439px;letter-spacing:0px;fill:#ffffff;fill-opacity:1;stroke:none;stroke-width:2.86129"
         x="836.43524"
         y="1379.8394">ESG</tspan></text><circle
       style="fill:none;stroke:none;stroke-width:1.31278;stroke-linecap:round;stroke-dasharray:none;stroke-dashoffset:500.787;stroke-opacity:1"
       id="circle203"
       cx="912.56842"
       cy="1345.1858"
       r="296.22961" /><path
       style="font-weight:bold;font-size:38px;line-height:1.2em;font-family:Poppins;-inkscape-font-specification:'Poppins Bold';letter-spacing:3.75px;fill:#ffffff;stroke-width:10.0671;stroke-linecap:round;stroke-dashoffset:500.787"
       d="m 703.45971,1134.6503 q -1.45595,-0.4127 -2.90113,0.088 -1.4458,0.447 -2.72025,1.7519 -2.20374,2.2564 -2.03609,5.076 0.14046,2.793 2.61433,5.2091 2.63698,2.5755 5.51283,2.6222 2.8752,-0.01 5.3179,-2.5082 1.67271,-1.7126 1.94448,-3.7313 0.29831,-2.0457 -0.8018,-4.1825 l -5.76156,5.8992 -3.42535,-3.3454 9.87697,-10.113 4.32247,4.2216 q 1.2354,2.2158 1.50924,4.9267 0.3004,2.6836 -0.63386,5.4893 -0.93427,2.8057 -3.27076,5.198 -2.7613,2.8273 -6.16183,3.8617 -3.40115,0.9807 -6.82452,0.081 -3.39681,-0.9273 -6.22409,-3.6886 -2.82727,-2.7613 -3.8345,-6.1353 -1.00785,-3.4277 -0.0806,-6.8245 0.90011,-3.4234 3.66141,-6.2506 3.34543,-3.4254 7.28712,-4.1437 3.96825,-0.7455 7.6477,1.3608 z m 33.79283,-5.4567 q -2.91275,2.3809 -6.46103,3.0235 -3.51884,0.6186 -6.93252,-0.6155 -3.40833,-1.2877 -5.88538,-4.3181 -2.47705,-3.0305 -3.03684,-6.5974 -0.53034,-3.591 0.77599,-6.9164 1.33575,-3.3495 4.24851,-5.7304 2.91276,-2.3808 6.4316,-2.9995 3.54826,-0.6426 6.90312,0.6397 3.38426,1.2582 5.86132,4.2886 2.47705,3.0305 3.06087,6.6268 0.55979,3.567 -0.74655,6.8924 -1.30633,3.3254 -4.21909,5.7063 z m -3.75165,-4.5898 q 2.47143,-2.0201 2.59577,-4.8702 0.15376,-2.8741 -2.05874,-5.5809 -2.23657,-2.7363 -5.05978,-3.1279 -2.81783,-0.4452 -5.28927,1.5749 -2.50085,2.0442 -2.67866,4.8889 -0.1484,2.8206 2.11222,5.5863 2.23656,2.7362 5.0544,3.1814 2.8232,0.3917 5.32406,-1.6525 z m 26.67417,-44.5119 6.57678,27.5297 -6.82272,4.4249 -22.45396,-17.2324 5.8025,-3.7633 16.50635,13.2996 -5.37957,-20.5159 z m 16.05261,-2.6875 2.49739,4.7833 7.7139,-4.0275 2.32151,4.4464 -7.71389,4.0275 2.70844,5.1875 8.72445,-4.5551 2.40946,4.6149 -14.48461,7.5625 -12.34627,-23.6469 14.48461,-7.5626 2.40945,4.6149 z m 38.43249,5.8411 -8.97427,-7.1866 -1.43983,0.5952 3.84711,9.3061 -6.00511,2.4825 -10.1912,-24.6525 10.07875,-4.1665 q 2.91475,-1.205 5.37258,-1.0286 2.49295,0.1619 4.25174,1.5319 1.74428,1.3349 2.64437,3.5122 1.01621,2.4582 0.40996,4.9704 -0.57113,2.4976 -2.94129,4.4232 l 9.72489,7.4108 z m -12.17068,-10.8407 3.72246,-1.5388 q 1.65053,-0.6823 2.12434,-1.8239 0.50892,-1.1562 -0.10081,-2.6311 -0.58069,-1.4047 -1.75742,-1.864 -1.1416,-0.4738 -2.79213,0.2085 l -3.72247,1.5389 z m 48.97124,-1.3593 -6.22799,1.8537 -15.11022,-12.67 4.69381,15.7703 -6.22799,1.8536 -7.60983,-25.5675 6.22799,-1.8537 15.1319,12.7429 -4.71549,-15.8432 6.22799,-1.8537 z m 23.73694,-9.5878 -9.79314,1.7935 -0.7211,4.9224 -6.69073,1.2252 4.68885,-27.9783 7.40092,-1.3553 14.29938,24.501 -6.76549,1.239 z m -2.5482,-4.6327 -5.01111,-9.0108 -1.45536,10.195 z m 42.18698,5.2336 -6.48072,0.4736 -12.03849,-15.618 1.19941,16.4102 -6.48072,0.4737 -1.94453,-26.605 6.48071,-0.4737 12.04404,15.6938 -1.20495,-16.486 6.48072,-0.4737 z m 20.91822,-5.4097 q 1.86073,0.069 3.33592,-0.7517 1.51316,-0.8189 2.37215,-2.4604 l 7.13916,0.2629 q -1.16654,3.7977 -4.06614,6.1245 -2.86022,2.2903 -6.86709,2.6751 l -0.0545,1.481 q 1.97465,0.073 3.4165,1.1906 1.44045,1.1557 1.36074,3.3203 -0.0797,2.1645 -1.67721,3.2084 -1.5989,1.0819 -3.76343,1.0022 l -5.84804,-0.2153 0.13145,-3.5696 4.97463,0.1832 q 0.75948,0.028 1.14762,-0.1859 0.38813,-0.2139 0.40771,-0.7455 0.0196,-0.5317 -0.35178,-0.7735 -0.37276,-0.2038 -1.13223,-0.2318 l -2.69618,-0.099 0.1734,-4.7088 q -3.40369,-0.5056 -5.95819,-2.3869 -2.5531,-1.9192 -3.88845,-4.8964 -1.33534,-2.9772 -1.2025,-6.5847 0.14544,-3.9493 1.96755,-6.9623 1.82351,-3.051 4.92438,-4.6479 3.14024,-1.6336 7.01361,-1.491 4.74679,0.1748 8.03421,2.8056 3.28741,2.6308 4.26722,7.0018 l -7.13916,-0.2629 q -0.73593,-1.7003 -2.18477,-2.6282 -1.41085,-0.9266 -3.27159,-0.9951 -2.99997,-0.1104 -4.93762,1.9096 -1.93765,2.0201 -2.0663,5.5137 -0.12865,3.4936 1.65516,5.6508 1.78383,2.1571 4.78381,2.2675 z m 37.34804,4.6837 -9.85064,-1.4446 -2.26282,4.4306 -6.73001,-0.987 13.42053,-24.9932 7.44437,1.0917 5.67917,27.7942 -6.80521,-0.998 z m -0.92649,-5.2055 -1.85397,-10.1423 -4.65046,9.1884 z"
       id="path203"
       inkscape:transform-center-x="86.819001"
       inkscape:transform-center-y="-251.91692"
       aria-label="GOVERNANÇA" /><circle
       style="fill:none;stroke:none;stroke-width:1.31278;stroke-linecap:round;stroke-dasharray:none;stroke-dashoffset:500.787;stroke-opacity:1"
       id="circle204"
       cx="912.10394"
       cy="-1346.4193"
       r="296.22961"
       transform="scale(1,-1)" /><path
       d="m 1147.9026,1526.3316 -6.3025,7.7071 2.6373,4.2184 -4.3059,5.2655 -14.5403,-24.3587 4.763,-5.8245 26.7605,9.4152 -4.3541,5.3244 z m -4.9414,-1.881 -9.6529,-3.6231 5.4913,8.7121 z m 11.6732,-46.8806 22.5065,14.3202 -3.4883,5.4824 -13.4974,-8.5881 10.2947,13.6216 -2.8151,4.4243 -16.7526,-3.5429 13.5296,8.6085 -3.4883,5.4823 -22.5064,-14.3203 4.1206,-6.4762 19.6,3.5981 -11.6035,-16.1658 z m 21.1472,-13.6978 q 1.4584,-1.8682 3.7137,-2.3344 2.2212,-0.4829 4.3055,0.5313 3.007,1.4632 3.7529,4.4462 0.7285,2.9323 -1.1004,6.691 l -5.4369,11.1735 -23.987,-11.6718 5.2539,-10.7976 q 1.779,-3.6561 4.451,-4.8916 2.6885,-1.2696 5.5587,0.127 2.1185,1.0308 2.9708,2.8401 0.8689,1.7751 0.5178,3.8863 z m -6.205,7.7147 1.8622,-3.827 q 0.6983,-1.4351 0.449,-2.4861 -0.2668,-1.1018 -1.4969,-1.7004 -1.2301,-0.5985 -2.2617,-0.1285 -1.015,0.4358 -1.7133,1.8709 l -1.8622,3.827 z m 11.6625,0.35 q 0.7149,-1.4692 0.4481,-2.5711 -0.2844,-1.1525 -1.5486,-1.7677 -1.2643,-0.6152 -2.3975,-0.1101 -1.1166,0.4709 -1.8316,1.9402 l -2.0616,4.237 5.2963,2.5771 z m -10.5189,-29.5924 24.7828,9.8701 -2.4042,6.0369 -24.7829,-9.8702 z m 9.3687,-10.8289 5.1343,1.6601 2.6772,-8.2799 4.7727,1.5432 -2.6772,8.28 5.5681,1.8004 3.028,-9.3647 4.9535,1.6017 -5.0271,15.5475 -25.3822,-8.2071 5.0271,-15.5475 4.9535,1.6017 z m 30.8495,-33.7209 -1.3999,6.3454 -18.409,7.068 16.0676,3.5448 -1.3999,6.3454 -26.0496,-5.747 1.3999,-6.3454 18.4832,-7.0516 -16.1418,-3.5612 1.3999,-6.3454 z m -22.9577,-30.5871 5.1696,0.6146 -0.8345,7.0186 21.3198,2.5348 -0.7671,6.4526 -21.3199,-2.5348 -0.8344,7.0185 -5.1696,-0.6146 z m 22.6716,-20.561 -0.2042,9.9539 4.6783,1.6923 -0.1394,6.8006 -26.4725,-10.1969 0.1542,-7.5224 26.8683,-9.1031 -0.141,6.8766 z m -5.0493,1.5688 -9.8317,3.1051 9.697,3.4676 z m 4.0059,-22.7534 -0.5955,-8.4911 5.0037,-0.351 1.0501,14.9732 -26.6106,1.8664 -0.4546,-6.4821 z"
       id="path204"
       style="font-weight:bold;font-size:38px;line-height:1.2em;font-family:Poppins;-inkscape-font-specification:'Poppins Bold';letter-spacing:3.75px;fill:#ffffff;stroke-width:1.5;stroke-linecap:round;stroke-dashoffset:500.787"
       inkscape:transform-center-x="-242.33948"
       inkscape:transform-center-y="86.230585"
       aria-label="AMBIENTAL" /><path
       d="m 672.85154,1499.7091 q -1.48385,-2.5218 -1.84058,-5.0014 -0.35673,-2.4796 0.53506,-4.6356 0.91107,-2.1233 3.13236,-3.5185 l 3.50726,5.9607 q -1.20021,0.8826 -1.44477,2.0405 -0.21179,1.1387 0.50122,2.3505 0.73225,1.2446 1.71301,1.6375 1.01348,0.3736 2.02876,-0.2238 0.85152,-0.501 1.06144,-1.4181 0.22917,-0.8844 0.0884,-1.9479 -0.1215,-1.0308 -0.56871,-2.8399 -0.62263,-2.6317 -0.76349,-4.4447 -0.14086,-1.813 0.60454,-3.6184 0.74542,-1.8054 2.90699,-3.0772 3.20962,-1.8885 6.37915,-0.6231 3.20229,1.2462 5.39915,4.9798 2.23539,3.7991 1.76954,7.2036 -0.4331,3.3853 -3.57911,5.4568 l -3.56508,-6.059 q 1.07501,-0.7207 1.25405,-1.8401 0.2118,-1.1387 -0.48195,-2.3177 -0.59734,-1.0153 -1.5203,-1.31 -0.89016,-0.3139 -1.90544,0.2835 -1.11352,0.6552 -1.11916,2.0694 -0.006,1.4141 0.58427,4.0652 0.55713,2.6703 0.67872,4.4505 0.14086,1.813 -0.57179,3.5991 -0.71266,1.7861 -2.77599,3.0002 -1.96508,1.1562 -4.16727,1.0852 -2.18293,-0.038 -4.25041,-1.379 -2.06749,-1.3407 -3.58986,-3.9281 z m 16.58808,25.1147 q -2.22959,-3.0301 -2.69093,-6.6065 -0.43881,-3.5457 0.96743,-6.8922 1.45937,-3.3384 4.6119,-5.6581 3.15254,-2.3197 6.74333,-2.6973 3.61333,-0.347 6.86799,1.1268 3.27719,1.5044 5.50679,4.5346 2.2296,3.0301 2.66841,6.5758 0.46134,3.5764 -0.98994,6.8617 -1.42877,3.3158 -4.5813,5.6355 -3.15253,2.3197 -6.77394,2.7198 -3.5908,0.3776 -6.84547,-1.0962 -3.25466,-1.4738 -5.48427,-4.5039 z m 4.77471,-3.5133 q 1.89179,2.571 4.73185,2.8402 2.86257,0.2997 5.67842,-1.7722 2.84647,-2.0945 3.38127,-4.8941 0.58795,-2.7916 -1.30384,-5.3626 -1.91431,-2.6016 -4.74628,-2.9239 -2.80945,-0.2916 -5.68651,1.8253 -2.84646,2.0945 -3.4344,4.8861 -0.53481,2.7996 1.37949,5.4012 z m 17.3659,10.0902 q 2.90156,-2.6831 6.3224,-3.5174 3.44875,-0.8601 6.76819,0.2109 3.37314,1.0731 6.00468,3.9189 3.22494,3.4874 3.67971,7.6733 0.45478,4.1858 -1.95179,7.9639 l -4.8503,-5.2451 q 0.6858,-1.7211 0.32131,-3.4025 -0.33869,-1.6536 -1.6029,-3.0207 -2.03816,-2.204 -4.83681,-2.1522 -2.79865,0.052 -5.36542,2.4255 -2.56675,2.3735 -2.83706,5.1596 -0.2703,2.786 1.76785,4.9901 1.26417,1.3671 2.88625,1.8339 1.64786,0.4947 3.41724,-0.055 l 4.8503,5.2451 q -3.95454,2.1042 -8.09206,1.3239 -4.10963,-0.8061 -7.33457,-4.2936 -2.63154,-2.8457 -3.46581,-6.2666 -0.78057,-3.4187 0.31831,-6.764 1.0989,-3.3452 4.00045,-6.0284 z m 36.48164,18.193 -18.0666,19.6267 -4.78086,-4.4009 18.0666,-19.6266 z m 4.14411,31.9054 -7.83343,-6.1449 -4.16399,2.7224 -5.35185,-4.1982 24.05873,-15.0316 5.91991,4.6439 -8.87025,26.946 -5.41165,-4.2451 z m 1.78034,-4.9786 3.42643,-9.7244 -8.59888,5.6669 z m 15.7794,16.8754 7.14479,4.6267 -2.72643,4.2103 -12.59907,-8.1587 14.49967,-22.3912 5.45428,3.5319 z"
       id="path205"
       style="font-weight:bold;font-size:38px;line-height:1.2em;font-family:Poppins;-inkscape-font-specification:'Poppins Bold';letter-spacing:3.75px;fill:#ffffff;stroke-width:1.5;stroke-linecap:round;stroke-dashoffset:500.787"
       inkscape:transform-center-x="195.22881"
       inkscape:transform-center-y="184.95261"
       aria-label="SOCIAL" /><text
       xml:space="preserve"
       style="font-style:normal;font-variant:normal;font-weight:bold;font-stretch:normal;font-size:140px;line-height:1.2em;font-family:Poppins;-inkscape-font-specification:'Poppins Bold';text-align:start;letter-spacing:11.5449px;writing-mode:lr-tb;direction:ltr;text-anchor:start;fill:#782a1b;fill-opacity:1;stroke:none;stroke-width:4.61798;stroke-linecap:round;stroke-dasharray:none;stroke-dashoffset:500.787;stroke-opacity:1"
       x="1008.7011"
       y="1655.3973"
       id="text205"><tspan
         sodipodi:role="line"
         id="tspan205"
         style="font-size:140px;fill:#782a1b;fill-opacity:1;stroke:none;stroke-width:4.61798"
         x="1008.7011"
         y="1655.3973">E</tspan></text><text
       xml:space="preserve"
       style="font-style:normal;font-variant:normal;font-weight:bold;font-stretch:normal;font-size:140px;line-height:1.2em;font-family:Poppins;-inkscape-font-specification:'Poppins Bold';text-align:start;letter-spacing:11.5449px;writing-mode:lr-tb;direction:ltr;text-anchor:start;fill:#782a1b;fill-opacity:1;stroke:none;stroke-width:4.61798;stroke-linecap:round;stroke-dasharray:none;stroke-dashoffset:500.787;stroke-opacity:1"
       x="588.82526"
       y="1426.5853"
       id="text206"><tspan
         sodipodi:role="line"
         id="tspan206"
         style="font-size:140px;fill:#782a1b;fill-opacity:1;stroke:none;stroke-width:4.61798"
         x="588.82526"
         y="1426.5853">S</tspan></text><text
       xml:space="preserve"
       style="font-style:normal;font-variant:normal;font-weight:bold;font-stretch:normal;font-size:140px;line-height:1.2em;font-family:Poppins;-inkscape-font-specification:'Poppins Bold';text-align:start;letter-spacing:11.5449px;writing-mode:lr-tb;direction:ltr;text-anchor:start;fill:#782a1b;fill-opacity:1;stroke:none;stroke-width:4.61798;stroke-linecap:round;stroke-dasharray:none;stroke-dashoffset:500.787;stroke-opacity:1"
       x="1027.8271"
       y="1151.4698"
       id="text207"><tspan
         sodipodi:role="line"
         id="tspan207"
         style="font-size:140px;fill:#782a1b;fill-opacity:1;stroke:none;stroke-width:4.61798"
         x="1027.8271"
         y="1151.4698">G</tspan></text><path
       style="fill:#ffffff;stroke-width:0.421032"
       d="m 1183.3583,1289.085 c -0.5749,-0.5749 -0.6316,-1.0527 -0.6316,-5.3209 v -4.6892 l -2.1315,-0.888 c -3.2019,-1.3341 -12.0317,-5.7756 -13.5264,-6.804 -1.4139,-0.9728 -2.7366,-2.9351 -6.3728,-9.4546 -4.9008,-8.7867 -5.1493,-9.6233 -3.7103,-12.49 0.9943,-1.9809 2.44,-2.9742 4.6323,-3.1829 1.3595,-0.1295 1.9646,-0.018 3.105,0.5722 1.651,0.8543 2.4378,1.8725 5.8064,7.5134 l 2.4861,4.1633 0.9369,-1.1365 c 2.0583,-2.4972 3.8895,-2.6326 10.3902,-0.7681 6.9187,1.9843 9.5186,3.5675 11.6385,7.0872 1.9575,3.2499 2.1798,4.7964 2.2003,15.3019 0.015,7.9482 -0.054,9.4276 -0.4733,10.0259 -0.5689,0.8121 -1.914,0.9324 -2.8427,0.2541 -0.5785,-0.4225 -0.6218,-1.0126 -0.7708,-10.4995 -0.1785,-11.3609 -0.2246,-11.5966 -2.8211,-14.4135 -1.5173,-1.6459 -2.8824,-2.2837 -8.1809,-3.8222 -4.7542,-1.3804 -5.6139,-1.4249 -6.1185,-0.3175 -0.5675,1.2457 -0.058,1.7022 3.3096,2.9629 1.6741,0.6267 3.1455,1.2412 3.2697,1.3654 0.1242,0.1242 0.4672,0.2259 0.7622,0.2259 0.9377,0 2.2008,1.2395 2.1956,2.1544 -0.01,1.0207 -0.2519,1.4261 -1.1526,1.9002 -0.5483,0.2885 -1.0614,0.224 -2.5886,-0.3255 -1.0476,-0.3769 -1.8192,-0.8238 -1.7147,-0.993 0.1046,-0.1691 0.029,-0.2076 -0.1691,-0.085 -0.4966,0.3068 -8.2674,-2.6154 -9.0918,-3.419 -0.5793,-0.5648 -3.696,-5.5356 -7.2875,-11.6233 -1.1389,-1.9305 -2.0608,-2.4563 -3.2197,-1.836 -0.9846,0.5269 -1.1476,1.7154 -0.4243,3.0935 1.7461,3.3266 5.9218,10.7869 6.8492,12.2366 1.2474,1.9501 1.9005,2.4449 5.8136,4.4053 l 2.9563,1.481 -0.7459,0.8475 -0.7459,0.8474 0.8627,-0.7601 0.8626,-0.7602 4.761,2.1577 c 2.6185,1.1868 4.8946,2.4076 5.0581,2.713 0.1634,0.3054 0.2972,3.0198 0.2972,6.0319 0,4.4456 -0.092,5.6086 -0.4916,6.1783 -0.6256,0.8931 -2.1238,0.9285 -2.9819,0.07 z m 5.526,-29.3671 c 0.3143,-0.3473 0.5005,-0.6315 0.4137,-0.6315 -0.087,0 -0.4151,0.2842 -0.7295,0.6315 -0.3143,0.3473 -0.5005,0.6315 -0.4136,0.6315 0.087,0 0.415,-0.2842 0.7294,-0.6315 z m 14.6835,29.3671 c -0.6041,-0.6041 -0.6312,-1.0471 -0.6238,-10.1838 0.01,-5.2825 0.1504,-10.1711 0.3269,-10.9369 0.4435,-1.9235 1.7769,-4.5436 3.0975,-6.0865 1.8465,-2.1572 3.9777,-3.2719 9.5432,-4.9914 7.027,-2.1712 8.7807,-2.1241 11.0148,0.2958 l 1.1272,1.221 2.9932,-4.8979 c 1.6463,-2.6938 3.5151,-5.3716 4.1528,-5.9508 3.0185,-2.7411 8.325,-1.0564 9.4142,2.9888 0.6627,2.4607 0.4401,3.0125 -5.4844,13.5955 -3.7112,6.6294 -4.2821,7.137 -12.569,11.1749 -3.7016,1.8037 -7.04,3.3728 -7.4187,3.4872 -0.6627,0.2 -0.6922,0.3899 -0.7894,5.0751 -0.092,4.4321 -0.1575,4.9099 -0.7325,5.3439 -0.8684,0.6552 -2.1641,0.6141 -2.8002,-0.089 -0.4634,-0.5121 -0.519,-1.3329 -0.4437,-6.5524 l 0.086,-5.9669 1.8876,-1.0023 c 1.0382,-0.5513 1.9618,-0.9823 2.0526,-0.9577 0.091,0.024 3.1136,-1.4087 6.7176,-3.185 7.5007,-3.6967 6.9824,-3.216 10.7943,-10.0112 4.904,-8.7419 5.0931,-9.1482 4.6796,-10.0557 -0.4165,-0.914 -1.7992,-1.4207 -2.5627,-0.9391 -0.2696,0.17 -2.2939,3.2784 -4.4984,6.9076 -2.2046,3.6291 -4.2712,6.7704 -4.5924,6.9805 -0.3212,0.2102 -3.2422,1.3845 -6.4909,2.6096 -6.4037,2.415 -7.1887,2.4968 -7.8277,0.8161 -0.6234,-1.6397 0.056,-2.2296 4.5474,-3.9522 2.2741,-0.872 4.3479,-1.705 4.6084,-1.8511 1.2275,-0.6878 0.3736,-2.5692 -1.166,-2.5692 -1.3033,0 -9.6272,2.5534 -10.832,3.3229 -0.6087,0.3886 -1.4495,1.077 -1.8685,1.5299 -0.633,0.684 -0.8466,0.7572 -1.2631,0.4325 -0.4303,-0.3354 -0.4466,-0.3206 -0.1155,0.1044 0.306,0.3929 0.2968,0.622 -0.045,1.1095 -1.2275,1.7524 -1.4464,3.7644 -1.4464,13.294 0,8.837 -0.029,9.2868 -0.6316,9.8896 -0.3473,0.3473 -0.9868,0.6315 -1.421,0.6315 -0.4342,0 -1.0736,-0.2842 -1.421,-0.6315 z m -7.2628,-33.5262 c -0.9552,-0.1473 -1.9499,-0.3588 -2.2104,-0.4701 -0.2605,-0.1113 -0.7312,-0.2524 -1.046,-0.3137 -0.3148,-0.062 -1.5635,-0.5333 -2.7748,-1.0488 -5.9213,-2.5197 -10.9963,-7.6557 -13.4818,-13.6436 -6.1116,-14.7241 2.1799,-31.1259 17.7762,-35.1642 9.6692,-2.5036 21.0181,1.6582 26.865,9.852 3.3446,4.6871 4.8704,9.4691 4.8704,15.2647 0,8.9345 -4.0201,16.5238 -11.3499,21.4266 -5.5132,3.6877 -12.0247,5.1183 -18.6487,4.0971 z m 2.842,-0.381 c 0,-0.066 -0.2487,-0.3142 -0.5526,-0.5526 -0.5009,-0.3928 -0.512,-0.3816 -0.1193,0.1193 0.4126,0.5259 0.6719,0.6932 0.6719,0.4333 z m 2.5902,-4.2226 c 1.0531,-1.1238 1.912,-2.8649 2.7424,-5.5594 1.0889,-3.5333 1.3659,-3.2965 -3.9117,-3.3436 -3.5495,-0.032 -4.5787,0.051 -4.5787,0.3664 0,0.6847 1.154,4.4889 1.8087,5.9624 0.7129,1.6044 2.1754,3.4425 2.739,3.4425 0.2126,0 0.7528,-0.3907 1.2003,-0.8683 z m -7.3961,-0.3158 c -0.7573,-1.4711 -1.3238,-3.0867 -1.9379,-5.5268 l -0.735,-2.9201 -4.4821,-0.034 c -2.6683,-0.021 -4.4421,0.086 -4.3833,0.2624 0.2047,0.6141 2.6427,3.3167 4.0191,4.4556 0.787,0.6509 2.6887,1.8173 4.226,2.5918 2.7105,1.3654 3.5461,1.6627 3.2932,1.1713 z m 17.1211,-1.7439 c 2.1474,-1.2975 3.9644,-2.8104 5.4471,-4.5354 0.8249,-0.9599 1.4999,-1.8622 1.4999,-2.0054 0,-0.1431 -1.9854,-0.279 -4.4119,-0.3019 l -4.4119,-0.042 -0.1858,0.8801 c -0.1023,0.484 -0.6359,2.3011 -1.186,4.0379 -0.55,1.7367 -1.0496,3.3375 -1.1102,3.5573 -0.1289,0.4673 2.6021,-0.5295 4.3588,-1.5909 z m -4.8945,-6.861 c 0.3143,-0.3473 0.5005,-0.6315 0.4136,-0.6315 -0.087,0 -0.4151,0.2842 -0.7294,0.6315 -0.3144,0.3474 -0.5005,0.6316 -0.4137,0.6316 0.087,0 0.4151,-0.2842 0.7295,-0.6316 z m 2.5262,-2.5261 c 0.3143,-0.3474 0.5005,-0.6316 0.4136,-0.6316 -0.087,0 -0.4151,0.2842 -0.7294,0.6316 -0.3144,0.3473 -0.5005,0.6315 -0.4137,0.6315 0.087,0 0.4151,-0.2842 0.7295,-0.6315 z m -18.315,-9.3876 v -8.138 l -5.2809,0.093 -5.2809,0.093 -0.3098,1.1698 c -0.7781,2.9378 -0.9546,4.2025 -0.9568,6.8538 0,3.004 0.8905,7.3192 1.606,7.7614 0.2167,0.1339 2.6054,0.2571 5.3082,0.2738 l 4.9142,0.03 z m 15.1813,7.7697 c 0.3407,-0.5513 0.5616,-9.9333 0.3061,-13.001 l -0.229,-2.7487 h -5.4673 -5.4673 l -0.2326,3.3946 c -0.2327,3.3959 0,11.863 0.3434,12.4163 0.27,0.4368 10.4749,0.3787 10.7467,-0.062 z m 15.4437,-1.5399 c 0.8814,-2.4436 0.9172,-10.0897 0.059,-12.552 l -0.5779,-1.6578 h -5.2639 -5.2638 v 8.0595 8.0595 l 5.2103,-0.087 5.2102,-0.086 z m 2.8471,-11.9994 c 0.3144,-0.3474 0.5005,-0.6316 0.4137,-0.6316 -0.087,0 -0.4151,0.2842 -0.7294,0.6316 -0.3144,0.3474 -0.5005,0.6316 -0.4137,0.6316 0.087,0 0.4151,-0.2842 0.7294,-0.6316 z m -31.8841,-9.3176 c 0.4054,-1.5644 1.0299,-3.5275 1.3878,-4.3625 l 0.6508,-1.5181 -0.7081,0.2148 c -2.4547,0.7449 -5.9281,2.9765 -8.3656,5.3745 -1.4328,1.4098 -2.6051,2.7169 -2.6051,2.905 0,0.2317 1.4337,0.3239 4.4516,0.2862 l 4.4515,-0.055 z m 12.7798,2.4038 c 0,-0.329 -0.3004,-1.5724 -0.6675,-2.763 -1.2936,-4.1951 -3.187,-6.9279 -4.3202,-6.2355 -1.0195,0.623 -2.4942,3.211 -3.3325,5.8484 -1.2869,4.0491 -1.587,3.7484 3.7414,3.7484 4.2834,0 4.5788,-0.038 4.5788,-0.5983 z m 13.2625,0.269 c 0,-0.3048 -2.3886,-3.0738 -3.4735,-4.0266 -1.6592,-1.4571 -7.4739,-4.6957 -7.8163,-4.3534 -0.047,0.047 0.4083,1.6347 1.0113,3.5288 0.603,1.8941 1.1756,3.8345 1.2726,4.3121 l 0.1763,0.8684 h 4.4148 c 2.8536,0 4.4148,-0.1165 4.4148,-0.3293 z"
       id="path207"
       sodipodi:nodetypes="sscssssscscsssssssssssssssssssssssscccccsssssssssssssssscscsssssssscscssssssssscsssssssssssssssssssssssssscsssscsccsssccsssscssssssssssssssccccssssccsscccssssscccccccsssssssscsssscsssssssssssscss" /><path
       style="fill:#ffffff;stroke-width:0.421032"
       d="m 812.83301,1664.3138 c -0.68383,-0.6371 -0.69108,-0.7528 -0.69108,-11.0101 v -10.3664 l -1.23755,-0.8189 c -1.51363,-1.0016 -2.61127,-2.4344 -3.31577,-4.3278 -0.46684,-1.2548 -0.52078,-2.6776 -0.43689,-11.5258 l 0.0957,-10.0943 0.86219,-1.4666 c 1.03822,-1.7661 2.43366,-2.9908 4.33831,-3.8072 1.29274,-0.5541 2.09195,-0.5983 9.18564,-0.5086 l 7.76969,0.098 1.54216,0.9542 c 1.79967,1.1133 3.45433,3.1477 3.91787,4.8167 0.1915,0.6896 0.32738,5.1051 0.32841,10.6721 0.002,11.425 -0.0154,11.5079 -3.02356,14.3219 l -2.02707,1.8962 -0.005,10.1945 c -0.003,5.607 -0.10922,10.3509 -0.23683,10.542 -0.28008,0.4195 -1.47567,1.0736 -1.96235,1.0736 -0.19299,0 -0.69967,-0.3488 -1.12597,-0.7752 l -0.77508,-0.775 v -7.8455 c 0,-5.8392 0.10095,-7.9544 0.39472,-8.2709 0.31578,-0.3401 0.31578,-0.3807 0,-0.2024 -0.3037,0.1715 -0.39472,-0.4684 -0.39472,-2.7751 0,-3.7103 0.24356,-4.3927 1.79112,-5.0181 0.6648,-0.2686 1.63503,-0.9371 2.15606,-1.4853 l 0.94732,-0.997 0.0922,-9.6509 c 0.0919,-9.6134 0.0894,-9.655 -0.63155,-10.7146 -1.27251,-1.8703 -1.94449,-2.0139 -9.41802,-2.0139 -10.25339,0 -9.84429,-0.5442 -9.7129,12.9185 l 0.0922,9.4515 0.78943,0.8456 c 0.43418,0.4651 1.44667,1.1803 2.24996,1.5892 0.80327,0.409 1.54929,0.975 1.65781,1.2577 0.10851,0.2828 0.1973,5.5535 0.1973,11.7127 v 11.1985 l -0.77509,0.7751 c -0.94384,0.9438 -1.72497,0.9826 -2.63889,0.1312 z m 14.82213,-18.2236 c 0.39278,-0.5009 0.38162,-0.5121 -0.11922,-0.1193 -0.30394,0.2384 -0.55261,0.487 -0.55261,0.5526 0,0.2599 0.25931,0.093 0.67183,-0.4333 z m 15.57621,18.0923 c -0.69154,-0.6915 -0.77509,-1.0427 -0.77509,-3.2587 0,-2.2749 -0.0683,-2.5429 -0.81318,-3.1906 -1.58016,-1.3739 -2.01561,-2.9572 -2.00799,-7.3012 0.009,-5.4006 0.59743,-6.9137 3.20332,-8.2437 0.9924,-0.5065 1.8815,-0.598 5.81408,-0.598 4.40328,0 4.71312,0.041 6.01281,0.8031 0.85528,0.5012 1.63717,1.3024 2.08029,2.1315 0.63543,1.1889 0.70996,1.7758 0.70996,5.5913 0,2.3447 -0.11019,4.6574 -0.24485,5.1394 -0.13466,0.4819 -0.76312,1.45 -1.39658,2.1512 -1.09576,1.2128 -1.15746,1.4004 -1.26959,3.8602 -0.0973,2.1348 -0.2315,2.6818 -0.76988,3.138 -0.8429,0.7144 -1.59383,0.6994 -2.52067,-0.051 -0.68483,-0.5541 -0.75072,-0.8618 -0.81001,-3.7835 -0.077,-3.7877 0.23285,-4.8834 1.53258,-5.4218 1.27911,-0.5299 1.53182,-1.3578 1.53182,-5.0185 0,-4.366 -0.10838,-4.4756 -4.42366,-4.469 -1.82205,0 -3.55134,0.012 -3.84286,0.02 -1.26369,0.034 -1.52248,0.8373 -1.52248,4.7245 0,3.2008 0.0803,3.7906 0.57746,4.2404 0.31761,0.2874 0.72189,0.5226 0.89838,0.5226 0.1765,0 0.55608,0.2599 0.84351,0.5776 0.42277,0.467 0.52169,1.2664 0.51778,4.184 -0.006,3.8214 -0.0725,4.0927 -1.15857,4.6644 -0.98574,0.5188 -1.29439,0.4601 -2.16658,-0.4121 z m 27.64461,0.1436 c -0.56931,-0.5694 -0.63155,-1.0526 -0.63155,-4.9044 0,-3.7924 -0.0621,-4.2926 -0.55261,-4.4476 -2.99203,-0.9462 -5.08184,-2.8991 -5.7833,-5.4044 -0.39052,-1.3949 -0.2679,-2.5771 1.74427,-16.8182 1.24677,-8.824 2.41,-15.9873 2.74384,-16.8968 0.75303,-2.0515 2.3726,-3.7795 4.4481,-4.7458 1.52481,-0.7099 2.04553,-0.7743 6.28063,-0.7772 5.14728,0 6.44432,0.2883 8.45053,1.9005 2.56861,2.0642 2.72421,2.6339 4.98521,18.2501 2.40695,16.6245 2.49667,17.4814 2.01619,19.2572 -0.59274,2.1904 -2.97268,4.4601 -5.34125,5.0935 -0.7394,0.1977 -0.74791,0.2474 -0.70893,4.1361 0.0435,4.338 -0.22689,5.3132 -1.60782,5.7988 -0.63078,0.2219 -1.03787,0.1629 -1.65111,-0.2389 l -0.81391,-0.5333 v -5.9435 c 0,-6.7978 -0.003,-6.7905 2.64121,-7.0716 1.8393,-0.1956 3.09503,-1.0522 3.47269,-2.3691 0.38552,-1.3442 -3.73844,-30.4546 -4.50617,-31.8084 -0.29516,-0.5205 -1.01181,-1.2664 -1.59254,-1.6578 -0.96306,-0.649 -1.4225,-0.7115 -5.22547,-0.7115 -3.8046,0 -4.26346,0.062 -5.24251,0.7146 -0.59014,0.3931 -1.30814,1.2102 -1.59558,1.8157 -0.32131,0.6769 -1.33821,6.8508 -2.64017,16.0293 -1.85482,13.0758 -2.06737,15.0495 -1.71299,15.905 0.53088,1.2817 2.0243,2.1625 3.6687,2.164 1.05786,0 1.45262,0.1709 1.99315,0.8581 0.63916,0.8125 0.66894,1.1408 0.57552,6.344 -0.0957,5.3292 -0.11995,5.5045 -0.84397,6.0901 -0.95655,0.7738 -1.77701,0.7646 -2.57016,-0.028 z m -24.33307,-25.8771 c -4.71126,-1.4296 -7.0205,-6.6465 -4.86062,-10.9808 1.36812,-2.7454 3.97905,-4.2698 7.11956,-4.1564 2.45009,0.088 3.96348,0.8023 5.57011,2.6275 2.96668,3.3704 2.465,8.397 -1.11018,11.1239 -2.00829,1.5318 -4.52618,2.0511 -6.71887,1.3858 z m 3.43634,-4.1494 c 0.54228,-0.189 1.27397,-0.8097 1.626,-1.3793 1.58225,-2.5601 -0.12261,-5.5398 -3.16972,-5.5398 -1.76706,0 -3.45305,1.5935 -3.45305,3.2635 0,1.6556 0.49266,2.6608 1.64994,3.3664 1.17437,0.7161 1.9341,0.7817 3.34683,0.2892 z m -7.16692,-3.3666 c 0.39279,-0.5008 0.38162,-0.5121 -0.11922,-0.1192 -0.30393,0.2383 -0.5526,0.487 -0.5526,0.5525 0,0.2599 0.2593,0.093 0.67182,-0.4333 z m 1.69649,-1.6578 c 0.31435,-0.3474 0.5005,-0.6316 0.41365,-0.6316 -0.0868,0 -0.41507,0.2842 -0.72942,0.6316 -0.31436,0.3473 -0.50051,0.6314 -0.41366,0.6314 0.0868,0 0.41507,-0.2841 0.72943,-0.6314 z m 2.40858,-2.4473 c 0.39279,-0.5008 0.38161,-0.512 -0.11921,-0.1193 -0.30394,0.2384 -0.55261,0.4871 -0.55261,0.5526 0,0.26 0.2593,0.093 0.67182,-0.4333 z m -28.86963,-21.3755 c -5.23349,-1.8669 -7.81967,-7.4616 -5.86461,-12.6869 1.70655,-4.5612 6.90488,-7.083 11.71688,-5.6841 6.85263,1.9921 9.15966,10.872 4.13103,15.9006 -2.62564,2.6258 -6.7127,3.6371 -9.9833,2.4704 z m 5.74459,-4.3055 c 1.45454,-0.8867 1.87166,-1.3428 2.41303,-2.6386 2.22582,-5.3271 -4.28791,-10.1833 -8.59119,-6.405 -3.99235,3.5054 -1.65682,9.6439 3.6852,9.6859 0.89756,0.01 1.81585,-0.2295 2.49296,-0.6423 z m 51.32826,3.8555 c -8.06409,-3.8151 -6.95567,-15.5798 1.6883,-17.9196 6.42167,-1.7383 12.47524,3.2757 11.99524,9.9353 -0.49259,6.8343 -7.48726,10.9156 -13.68354,7.9843 z m 6.95891,-3.9217 c 2.31456,-1.3109 3.3246,-4.4119 2.2639,-6.9506 -0.23465,-0.5615 -0.93913,-1.471 -1.56556,-2.021 -2.30704,-2.0256 -5.85717,-1.5953 -7.92171,0.9602 -0.86184,1.0669 -0.98032,1.4512 -0.98032,3.1808 0,3.4339 2.03682,5.5361 5.36815,5.5403 1.05888,0 1.99276,-0.2324 2.83554,-0.7097 z m -8.95285,-0.4621 c 0.39279,-0.5008 0.38161,-0.512 -0.11922,-0.1192 -0.30394,0.2383 -0.5526,0.4871 -0.5526,0.5526 0,0.2599 0.2593,0.093 0.67182,-0.4334 z"
       id="path208"
       sodipodi:nodetypes="sscssscssscssssccssscsssssscsssscsssscssssssssssssssssssssssssccssssssssscsssscssssssscsssssssssscssssssssssssssssssssssssssssssssssssssssssssssssscsssss" /><path
       style="fill:#ffffff;stroke-width:0.421032"
       d="m 616.86626,1241.6097 c -0.69522,-0.6952 -0.77508,-1.0384 -0.77508,-3.3299 0,-2.2917 0.0798,-2.6349 0.77508,-3.33 0.72493,-0.725 0.99056,-0.7752 4.10507,-0.7752 h 3.32999 l 0.005,-2.6051 c 0.005,-1.4328 0.13912,-2.8183 0.30328,-3.0788 0.21965,-0.3486 1.11468,-0.5154 3.38973,-0.6316 l 3.09131,-0.1578 0.0831,-10.6574 0.0831,-10.6574 h -4.54307 -4.54311 l -1.94638,1.7368 c -2.12193,1.8933 -3.0868,2.1513 -4.13299,1.1052 -1.15661,-1.1567 -0.7318,-2.2421 1.73676,-4.4376 0.86838,-0.7723 1.6499,-1.4787 1.73675,-1.5696 0.17153,-0.1795 11.11232,-10.1179 27.76277,-25.219 5.80414,-5.2641 10.88748,-9.7234 11.29622,-9.9097 0.98521,-0.4489 1.21173,-0.2735 9.81919,7.603 6.17933,5.6545 6.98843,6.5038 6.63127,6.9609 -0.36252,0.464 -0.34714,0.4739 0.14134,0.091 0.57993,-0.4546 1.3577,0.1997 13.83437,11.6387 2.17905,1.9978 5.3042,4.8402 6.94471,6.3165 7.05996,6.3529 7.28993,6.6307 6.58904,7.9613 -0.91241,1.7322 -1.96753,1.5904 -4.61106,-0.6196 l -2.17194,-1.8156 -4.33428,0.096 -4.33424,0.096 0.0831,10.6402 0.0831,10.6403 2.83181,0.092 c 3.7741,0.1229 3.95733,0.2963 3.95733,3.7459 v 2.6352 h 3.28064 c 4.34805,0 4.71035,0.2618 4.86933,3.5182 0.13279,2.7194 -0.24235,3.924 -1.38385,4.4441 -0.66565,0.3033 -0.98741,0.2854 -1.66417,-0.093 -0.68717,-0.384 -0.86754,-0.7526 -0.99688,-2.0377 l -0.15789,-1.5688 -3.57895,-0.1578 c -4.37751,-0.1932 -4.47329,-0.2753 -4.47329,-3.8378 v -2.454 l -2.92092,-0.091 c -1.60649,-0.05 -15.4703,-0.02 -30.80842,0.067 l -27.88752,0.1578 -0.0586,2.592 c -0.0775,3.4342 -0.22083,3.5423 -4.7162,3.5556 l -3.39458,0.01 v 1.421 c 0,2.4542 -1.77001,3.4689 -3.32999,1.909 z m 64.11656,-13.119 c -0.56284,-0.6219 -0.55155,-0.6316 0.74051,-0.6316 h 1.31202 v -10.7362 -10.7364 h -1.89465 -1.89464 l -0.0177,8.2102 c -0.01,4.5155 -0.0177,9.1337 -0.0177,10.2626 0,3.009 0,2.9998 0.4598,2.9998 0.23359,0 0.68191,0.2842 0.99625,0.6316 0.31434,0.3474 0.64257,0.6316 0.72944,0.6316 0.0868,0 -0.0993,-0.2842 -0.41366,-0.6316 z m -41.84012,-5.3682 c 0.0868,-2.5182 0.11655,-7.3141 0.066,-10.6573 l -0.0918,-6.0787 h -1.8715 -1.87146 l -0.0892,8.1312 c -0.049,4.4721 -0.0477,9.3104 0.005,10.7517 l 0.0919,2.6205 1.80269,-0.094 1.80265,-0.094 z m 13.81943,-5.9617 c 0.0771,-9.7601 0.0421,-10.571 -0.47366,-10.9519 -0.34537,-0.2552 -0.67088,-0.2995 -0.85689,-0.1169 -0.165,0.162 -2.11884,0.2945 -4.34189,0.2945 h -4.04191 v 10.5259 c 0,5.7891 0.0983,10.6241 0.2186,10.7443 0.12024,0.1203 2.28721,0.1794 4.81556,0.1316 l 4.59696,-0.087 z m 8.21002,-0.1169 0.0831,-10.6574 -1.26731,-0.039 c -0.69698,-0.022 -1.48043,-0.039 -1.74093,-0.039 -0.26054,0 -0.61576,0.018 -0.78943,0.039 -0.36411,0.046 -0.45383,20.9531 -0.0915,21.3154 0.12336,0.1234 1.01148,0.1825 1.97358,0.1316 l 1.74931,-0.093 z m 13.90442,8.3322 0.0935,-2.325 0.69593,0.5861 c 0.69041,0.5814 0.69032,0.5796 -0.0147,-0.2215 -0.69732,-0.7926 -0.7105,-0.9574 -0.7105,-8.9029 v -8.0954 l -4.89492,-0.094 -4.89496,-0.094 -0.0152,3.1578 c -0.0426,8.7439 0.0656,17.9812 0.21334,18.2203 0.0915,0.1479 2.25152,0.2297 4.80015,0.1818 l 4.63393,-0.087 z m 3.53795,0.7849 c 0,-0.066 -0.24872,-0.3142 -0.55262,-0.5526 -0.50085,-0.3927 -0.51201,-0.3815 -0.11923,0.1193 0.41253,0.526 0.67185,0.6933 0.67185,0.4333 z m -14.84141,-14.8311 c 0,-0.06 -0.31973,-0.3796 -0.71049,-0.7105 l -0.7105,-0.6015 0.60154,0.7105 c 0.56532,0.6677 0.81945,0.8543 0.81945,0.6015 z m -8.99957,-8.1012 c 0.31434,-0.3472 0.50048,-0.6315 0.41367,-0.6315 -0.0869,0 -0.4151,0.2843 -0.72944,0.6315 -0.31435,0.3474 -0.50053,0.6316 -0.41367,0.6316 0.0868,0 0.4151,-0.2842 0.72944,-0.6316 z m 36.45072,-1.1841 c -0.0118,-0.1302 -3.63818,-3.5051 -8.05889,-7.4996 -10.22516,-9.2394 -11.38671,-10.293 -18.18904,-16.4993 -3.09331,-2.8222 -5.70519,-5.1313 -5.80413,-5.1313 -0.099,0 -5.46316,4.8057 -11.92041,10.6794 -6.45728,5.8736 -13.58777,12.348 -15.84555,14.3875 -2.2578,2.0394 -4.15244,3.8413 -4.21033,4.0041 -0.065,0.183 12.14956,0.296 31.97216,0.296 17.64256,0 32.06786,-0.1066 32.05619,-0.2368 z m -43.83142,-6.2573 c -0.4281,-0.5444 -0.5494,-1.0211 -0.40095,-1.5762 0.12783,-0.478 2.41799,-2.8065 5.734,-5.83 4.23803,-3.8643 5.71872,-5.0356 6.37114,-5.0402 0.56975,0 1.41182,0.4887 2.55374,1.494 3.19876,2.8161 8.91069,8.0667 9.3062,8.5545 0.57842,0.7134 0.48142,2.0844 -0.19051,2.6925 -0.52527,0.4754 -1.72038,0.5274 -11.6725,0.5076 l -11.08734,-0.022 z m 16.24424,-3.5753 c -0.0953,-0.1542 -1.13877,-1.1363 -2.3188,-2.1824 l -2.14549,-1.9022 -2.35754,2.1688 -2.35748,2.1687 4.67627,0.014 c 2.6475,0.01 4.60113,-0.1078 4.50304,-0.2666 z m -22.59973,-3.6281 c 0,-0.066 -0.2487,-0.3142 -0.5526,-0.5526 -0.50086,-0.3928 -0.51202,-0.3816 -0.11924,0.1192 0.41253,0.526 0.67184,0.6933 0.67184,0.4334 z"
       id="path209"
       sodipodi:nodetypes="csssccsscccccssssssssssssscccccsscssssscsscsscsscscccscccccssssscccscccscccccsssscssscscccscssccccscsccccssccsssssscssssssssssssssssssscsssscsssccccssssss" /></g></svg>
