<?xml version="1.0" encoding="UTF-8" standalone="no"?>
<!-- Created with Inkscape (http://www.inkscape.org/) -->

<svg
   version="1.1"
   id="svg1"
   width="756.20117"
   height="314.1788"
   viewBox="0 0 756.20116 314.1788"
   xmlns="http://www.w3.org/2000/svg"
   xmlns:svg="http://www.w3.org/2000/svg">
  <defs
     id="defs1">
    <clipPath
       clipPathUnits="userSpaceOnUse"
       id="clipPath4">
      <path
         d="M 0,595.28 H 841.89 V 0 H 0 Z"
         transform="translate(-514.12661,-374.06851)"
         id="path4" />
    </clipPath>
    <clipPath
       clipPathUnits="userSpaceOnUse"
       id="clipPath6">
      <path
         d="M 0,595.28 H 841.89 V 0 H 0 Z"
         transform="translate(-517.88332,-365.30591)"
         id="path6" />
    </clipPath>
    <clipPath
       clipPathUnits="userSpaceOnUse"
       id="clipPath8">
      <path
         d="M 0,595.28 H 841.89 V 0 H 0 Z"
         transform="translate(-537.40361,-368.86571)"
         id="path8" />
    </clipPath>
    <clipPath
       clipPathUnits="userSpaceOnUse"
       id="clipPath10">
      <path
         d="M 0,595.28 H 841.89 V 0 H 0 Z"
         id="path10" />
    </clipPath>
    <clipPath
       clipPathUnits="userSpaceOnUse"
       id="clipPath12">
      <path
         d="M 0,595.28 H 841.89 V 0 H 0 Z"
         transform="translate(-562.00991,-368.86571)"
         id="path12" />
    </clipPath>
    <clipPath
       clipPathUnits="userSpaceOnUse"
       id="clipPath14">
      <path
         d="M 0,595.28 H 841.89 V 0 H 0 Z"
         transform="translate(-592.99162,-381.93091)"
         id="path14" />
    </clipPath>
    <clipPath
       clipPathUnits="userSpaceOnUse"
       id="clipPath16">
      <path
         d="M 0,595.28 H 841.89 V 0 H 0 Z"
         transform="translate(-598.89922,-368.86571)"
         id="path16" />
    </clipPath>
    <clipPath
       clipPathUnits="userSpaceOnUse"
       id="clipPath18">
      <path
         d="M 0,595.28 H 841.89 V 0 H 0 Z"
         transform="translate(-626.36062,-372.34731)"
         id="path18" />
    </clipPath>
    <clipPath
       clipPathUnits="userSpaceOnUse"
       id="clipPath20">
      <path
         d="M 0,595.28 H 841.89 V 0 H 0 Z"
         transform="translate(-153.55941,-187.7856)"
         id="path20" />
    </clipPath>
    <clipPath
       clipPathUnits="userSpaceOnUse"
       id="clipPath22">
      <path
         d="M 0,595.28 H 841.89 V 0 H 0 Z"
         transform="translate(-180.77391,-191.4942)"
         id="path22" />
    </clipPath>
    <clipPath
       clipPathUnits="userSpaceOnUse"
       id="clipPath24">
      <path
         d="M 0,595.28 H 841.89 V 0 H 0 Z"
         transform="translate(-193.6174,-200.13861)"
         id="path24" />
    </clipPath>
    <clipPath
       clipPathUnits="userSpaceOnUse"
       id="clipPath26">
      <path
         d="M 0,595.28 H 841.89 V 0 H 0 Z"
         transform="translate(-212.65141,-191.4942)"
         id="path26" />
    </clipPath>
    <clipPath
       clipPathUnits="userSpaceOnUse"
       id="clipPath28">
      <path
         d="M 0,595.28 H 841.89 V 0 H 0 Z"
         transform="translate(-220.5049,-192.7214)"
         id="path28" />
    </clipPath>
    <clipPath
       clipPathUnits="userSpaceOnUse"
       id="clipPath30">
      <path
         d="M 0,595.28 H 841.89 V 0 H 0 Z"
         transform="translate(-241.06561,-194.5484)"
         id="path30" />
    </clipPath>
    <clipPath
       clipPathUnits="userSpaceOnUse"
       id="clipPath32">
      <path
         d="M 0,595.28 H 841.89 V 0 H 0 Z"
         transform="translate(-271.8799,-191.576)"
         id="path32" />
    </clipPath>
    <clipPath
       clipPathUnits="userSpaceOnUse"
       id="clipPath34">
      <path
         d="M 0,595.28 H 841.89 V 0 H 0 Z"
         id="path34" />
    </clipPath>
    <clipPath
       clipPathUnits="userSpaceOnUse"
       id="clipPath36">
      <path
         d="M 0,595.28 H 841.89 V 0 H 0 Z"
         transform="translate(-285.8413,-192.7214)"
         id="path36" />
    </clipPath>
    <clipPath
       clipPathUnits="userSpaceOnUse"
       id="clipPath38">
      <path
         d="M 0,595.28 H 841.89 V 0 H 0 Z"
         transform="translate(-299.6938,-188.90351)"
         id="path38" />
    </clipPath>
    <clipPath
       clipPathUnits="userSpaceOnUse"
       id="clipPath40">
      <path
         d="M 0,595.28 H 841.89 V 0 H 0 Z"
         id="path40" />
    </clipPath>
    <clipPath
       clipPathUnits="userSpaceOnUse"
       id="clipPath42">
      <path
         d="M 0,595.28 H 841.89 V 0 H 0 Z"
         transform="translate(-327.48151,-198.22991)"
         id="path42" />
    </clipPath>
    <clipPath
       clipPathUnits="userSpaceOnUse"
       id="clipPath44">
      <path
         d="M 0,595.28 H 841.89 V 0 H 0 Z"
         transform="translate(-339.88911,-191.4942)"
         id="path44" />
    </clipPath>
    <clipPath
       clipPathUnits="userSpaceOnUse"
       id="clipPath46">
      <path
         d="M 0,595.28 H 841.89 V 0 H 0 Z"
         transform="translate(-345.72421,-187.9491)"
         id="path46" />
    </clipPath>
    <clipPath
       clipPathUnits="userSpaceOnUse"
       id="clipPath48">
      <path
         d="M 0,595.28 H 841.89 V 0 H 0 Z"
         transform="translate(-359.79531,-204.31061)"
         id="path48" />
    </clipPath>
    <clipPath
       clipPathUnits="userSpaceOnUse"
       id="clipPath50">
      <path
         d="M 0,595.28 H 841.89 V 0 H 0 Z"
         transform="translate(-385.67381,-191.4942)"
         id="path50" />
    </clipPath>
    <clipPath
       clipPathUnits="userSpaceOnUse"
       id="clipPath52">
      <path
         d="M 0,595.28 H 841.89 V 0 H 0 Z"
         transform="translate(-403.34381,-198.22991)"
         id="path52" />
    </clipPath>
    <clipPath
       clipPathUnits="userSpaceOnUse"
       id="clipPath54">
      <path
         d="M 0,595.28 H 841.89 V 0 H 0 Z"
         transform="translate(-406.58901,-191.576)"
         id="path54" />
    </clipPath>
    <clipPath
       clipPathUnits="userSpaceOnUse"
       id="clipPath56">
      <path
         d="M 0,595.28 H 841.89 V 0 H 0 Z"
         transform="translate(-432.03081,-191.4942)"
         id="path56" />
    </clipPath>
    <clipPath
       clipPathUnits="userSpaceOnUse"
       id="clipPath58">
      <path
         d="M 0,595.28 H 841.89 V 0 H 0 Z"
         transform="translate(-444.16531,-184.10411)"
         id="path58" />
    </clipPath>
    <clipPath
       clipPathUnits="userSpaceOnUse"
       id="clipPath60">
      <path
         d="M 0,595.28 H 841.89 V 0 H 0 Z"
         transform="translate(-462.84471,-191.4942)"
         id="path60" />
    </clipPath>
    <clipPath
       clipPathUnits="userSpaceOnUse"
       id="clipPath62">
      <path
         d="M 0,595.28 H 841.89 V 0 H 0 Z"
         transform="translate(-479.66961,-191.576)"
         id="path62" />
    </clipPath>
    <clipPath
       clipPathUnits="userSpaceOnUse"
       id="clipPath64">
      <path
         d="M 0,595.28 H 841.89 V 0 H 0 Z"
         transform="translate(-494.31271,-192.7214)"
         id="path64" />
    </clipPath>
    <clipPath
       clipPathUnits="userSpaceOnUse"
       id="clipPath66">
      <path
         d="M 0,595.28 H 841.89 V 0 H 0 Z"
         transform="translate(-514.87342,-194.5484)"
         id="path66" />
    </clipPath>
    <clipPath
       clipPathUnits="userSpaceOnUse"
       id="clipPath68">
      <path
         d="M 0,595.28 H 841.89 V 0 H 0 Z"
         transform="translate(-545.68762,-191.576)"
         id="path68" />
    </clipPath>
    <clipPath
       clipPathUnits="userSpaceOnUse"
       id="clipPath70">
      <path
         d="M 0,595.28 H 841.89 V 0 H 0 Z"
         transform="translate(-571.78391,-192.7214)"
         id="path70" />
    </clipPath>
    <clipPath
       clipPathUnits="userSpaceOnUse"
       id="clipPath72">
      <path
         d="M 0,595.28 H 841.89 V 0 H 0 Z"
         transform="translate(-587.02751,-198.22991)"
         id="path72" />
    </clipPath>
    <clipPath
       clipPathUnits="userSpaceOnUse"
       id="clipPath74">
      <path
         d="M 0,595.28 H 841.89 V 0 H 0 Z"
         transform="translate(-602.92552,-192.8303)"
         id="path74" />
    </clipPath>
    <clipPath
       clipPathUnits="userSpaceOnUse"
       id="clipPath76">
      <path
         d="M 0,595.28 H 841.89 V 0 H 0 Z"
         id="path76" />
    </clipPath>
    <clipPath
       clipPathUnits="userSpaceOnUse"
       id="clipPath78">
      <path
         d="M 0,595.28 H 841.89 V 0 H 0 Z"
         transform="translate(-612.90592,-191.576)"
         id="path78" />
    </clipPath>
    <clipPath
       clipPathUnits="userSpaceOnUse"
       id="clipPath80">
      <path
         d="M 0,595.28 H 841.89 V 0 H 0 Z"
         transform="translate(-638.34782,-191.4942)"
         id="path80" />
    </clipPath>
    <clipPath
       clipPathUnits="userSpaceOnUse"
       id="clipPath82">
      <path
         d="M 0,595.28 H 841.89 V 0 H 0 Z"
         transform="translate(-650.48261,-184.10411)"
         id="path82" />
    </clipPath>
    <clipPath
       clipPathUnits="userSpaceOnUse"
       id="clipPath84">
      <path
         d="M 0,595.28 H 841.89 V 0 H 0 Z"
         transform="translate(-669.16162,-191.4942)"
         id="path84" />
    </clipPath>
    <clipPath
       clipPathUnits="userSpaceOnUse"
       id="clipPath86">
      <path
         d="M 0,595.28 H 841.89 V 0 H 0 Z"
         transform="translate(-685.98622,-191.576)"
         id="path86" />
    </clipPath>
    <clipPath
       clipPathUnits="userSpaceOnUse"
       id="clipPath88">
      <path
         d="M 0,595.28 H 841.89 V 0 H 0 Z"
         transform="translate(-451.54031,-301.89051)"
         id="path88" />
    </clipPath>
    <clipPath
       clipPathUnits="userSpaceOnUse"
       id="clipPath90">
      <path
         d="M 0,595.28 H 841.89 V 0 H 0 Z"
         transform="translate(-489.31301,-344.63161)"
         id="path90" />
    </clipPath>
    <clipPath
       clipPathUnits="userSpaceOnUse"
       id="clipPath92">
      <path
         d="M 0,595.28 H 841.89 V 0 H 0 Z"
         transform="translate(-563.95861,-249.81911)"
         id="path92" />
    </clipPath>
    <clipPath
       clipPathUnits="userSpaceOnUse"
       id="clipPath94">
      <path
         d="M 0,595.28 H 841.89 V 0 H 0 Z"
         transform="translate(-629.87471,-344.63161)"
         id="path94" />
    </clipPath>
    <clipPath
       clipPathUnits="userSpaceOnUse"
       id="clipPath96">
      <path
         d="M 0,595.28 H 841.89 V 0 H 0 Z"
         transform="translate(-177.88761,-319.07461)"
         id="path96" />
    </clipPath>
    <clipPath
       clipPathUnits="userSpaceOnUse"
       id="clipPath98">
      <path
         d="M 0,595.28 H 841.89 V 0 H 0 Z"
         transform="translate(-278.41731,-251.80301)"
         id="path98" />
    </clipPath>
    <clipPath
       clipPathUnits="userSpaceOnUse"
       id="clipPath100">
      <path
         d="M 0,595.28 H 841.89 V 0 H 0 Z"
         transform="translate(-278.8696,-311.17361)"
         id="path100" />
    </clipPath>
    <clipPath
       clipPathUnits="userSpaceOnUse"
       id="clipPath102">
      <path
         d="M 0,595.28 H 841.89 V 0 H 0 Z"
         transform="translate(-181.85541,-317.09071)"
         id="path102" />
    </clipPath>
    <clipPath
       clipPathUnits="userSpaceOnUse"
       id="clipPath104">
      <path
         d="M 0,595.28 H 841.89 V 0 H 0 Z"
         transform="translate(-282.38511,-249.81911)"
         id="path104" />
    </clipPath>
    <clipPath
       clipPathUnits="userSpaceOnUse"
       id="clipPath106">
      <path
         d="M 0,595.28 H 841.89 V 0 H 0 Z"
         transform="translate(-368.31721,-242.59521)"
         id="path106" />
    </clipPath>
    <clipPath
       clipPathUnits="userSpaceOnUse"
       id="clipPath108">
      <path
         d="M 0,595.28 H 841.89 V 0 H 0 Z"
         transform="translate(-233.593,-386.80741)"
         id="path108" />
    </clipPath>
    <clipPath
       clipPathUnits="userSpaceOnUse"
       id="clipPath110">
      <path
         d="M 0,595.28 H 841.89 V 0 H 0 Z"
         transform="translate(-261.68011,-386.48211)"
         id="path110" />
    </clipPath>
    <clipPath
       clipPathUnits="userSpaceOnUse"
       id="clipPath112">
      <path
         d="M 0,595.28 H 841.89 V 0 H 0 Z"
         transform="translate(-243.68941,-399.14481)"
         id="path112" />
    </clipPath>
    <clipPath
       clipPathUnits="userSpaceOnUse"
       id="clipPath114">
      <path
         d="M 0,595.28 H 841.89 V 0 H 0 Z"
         transform="translate(-207.86551,-330.55711)"
         id="path114" />
    </clipPath>
    <clipPath
       clipPathUnits="userSpaceOnUse"
       id="clipPath116">
      <path
         d="M 0,595.28 H 841.89 V 0 H 0 Z"
         transform="translate(-230.0341,-370.48511)"
         id="path116" />
    </clipPath>
    <clipPath
       clipPathUnits="userSpaceOnUse"
       id="clipPath118">
      <path
         d="M 0,595.28 H 841.89 V 0 H 0 Z"
         transform="translate(-265.8259,-353.45391)"
         id="path118" />
    </clipPath>
    <clipPath
       clipPathUnits="userSpaceOnUse"
       id="clipPath120">
      <path
         d="M 0,595.28 H 841.89 V 0 H 0 Z"
         transform="translate(-282.83671,-309.19011)"
         id="path120" />
    </clipPath>
    <clipPath
       clipPathUnits="userSpaceOnUse"
       id="clipPath122">
      <path
         d="M 0,595.28 H 841.89 V 0 H 0 Z"
         transform="translate(-254.9926,-320.69871)"
         id="path122" />
    </clipPath>
    <clipPath
       clipPathUnits="userSpaceOnUse"
       id="clipPath124">
      <path
         d="M 0,595.28 H 841.89 V 0 H 0 Z"
         transform="translate(-233.593,-386.80741)"
         id="path124" />
    </clipPath>
    <clipPath
       clipPathUnits="userSpaceOnUse"
       id="clipPath126">
      <path
         d="M 0,595.28 H 841.89 V 0 H 0 Z"
         transform="translate(-213.97911,-281.67581)"
         id="path126" />
    </clipPath>
    <clipPath
       clipPathUnits="userSpaceOnUse"
       id="clipPath128">
      <path
         d="M 0,595.28 H 841.89 V 0 H 0 Z"
         transform="translate(-214.06911,-353.77921)"
         id="path128" />
    </clipPath>
    <clipPath
       clipPathUnits="userSpaceOnUse"
       id="clipPath130">
      <path
         d="M 0,595.28 H 841.89 V 0 H 0 Z"
         transform="translate(-258.60691,-329.35651)"
         id="path130" />
    </clipPath>
    <clipPath
       clipPathUnits="userSpaceOnUse"
       id="clipPath132">
      <path
         d="M 0,595.28 H 841.89 V 0 H 0 Z"
         transform="translate(-234.00871,-366.67501)"
         id="path132" />
    </clipPath>
    <clipPath
       clipPathUnits="userSpaceOnUse"
       id="clipPath134">
      <path
         d="M 0,595.28 H 841.89 V 0 H 0 Z"
         transform="translate(-224.3407,-353.78141)"
         id="path134" />
    </clipPath>
    <clipPath
       clipPathUnits="userSpaceOnUse"
       id="clipPath136">
      <path
         d="M 0,595.28 H 841.89 V 0 H 0 Z"
         transform="translate(-253.1056,-352.04021)"
         id="path136" />
    </clipPath>
    <clipPath
       clipPathUnits="userSpaceOnUse"
       id="clipPath138">
      <path
         d="M 0,595.28 H 841.89 V 0 H 0 Z"
         transform="translate(-251.18721,-386.57811)"
         id="path138" />
    </clipPath>
    <clipPath
       clipPathUnits="userSpaceOnUse"
       id="clipPath140">
      <path
         d="M 0,595.28 H 841.89 V 0 H 0 Z"
         transform="translate(-243.68941,-399.14481)"
         id="path140" />
    </clipPath>
    <clipPath
       clipPathUnits="userSpaceOnUse"
       id="clipPath142">
      <path
         d="M 0,595.28 H 841.89 V 0 H 0 Z"
         transform="translate(-246.26371,-391.66291)"
         id="path142" />
    </clipPath>
    <clipPath
       clipPathUnits="userSpaceOnUse"
       id="clipPath144">
      <path
         d="M 0,595.28 H 841.89 V 0 H 0 Z"
         transform="translate(-244.252,-397.72921)"
         id="path144" />
    </clipPath>
    <clipPath
       clipPathUnits="userSpaceOnUse"
       id="clipPath146">
      <path
         d="M 0,595.28 H 841.89 V 0 H 0 Z"
         transform="translate(-250.48251,-381.97521)"
         id="path146" />
    </clipPath>
    <clipPath
       clipPathUnits="userSpaceOnUse"
       id="clipPath148">
      <path
         d="M 0,595.28 H 841.89 V 0 H 0 Z"
         transform="translate(-260.44981,-386.12781)"
         id="path148" />
    </clipPath>
    <clipPath
       clipPathUnits="userSpaceOnUse"
       id="clipPath150">
      <path
         d="M 0,595.28 H 841.89 V 0 H 0 Z"
         transform="translate(-262.11511,-387.02521)"
         id="path150" />
    </clipPath>
    <clipPath
       clipPathUnits="userSpaceOnUse"
       id="clipPath152">
      <path
         d="M 0,595.28 H 841.89 V 0 H 0 Z"
         transform="translate(-234.56061,-370.02691)"
         id="path152" />
    </clipPath>
    <clipPath
       clipPathUnits="userSpaceOnUse"
       id="clipPath154">
      <path
         d="M 0,595.28 H 841.89 V 0 H 0 Z"
         transform="translate(-240.19981,-375.82991)"
         id="path154" />
    </clipPath>
    <clipPath
       clipPathUnits="userSpaceOnUse"
       id="clipPath156">
      <path
         d="M 0,595.28 H 841.89 V 0 H 0 Z"
         transform="translate(-234.56061,-370.02691)"
         id="path156" />
    </clipPath>
  </defs>
  <g
     id="g1"
     transform="translate(-183.15973,-239.76373)">
    <path
       id="path2"
       d="m 646.80132,272.88668 h 6.31066 v 37.032 h -6.31066 z"
       style="fill:#3f1413;fill-opacity:1;fill-rule:nonzero;stroke:none;stroke-width:1.33333" />
    <path
       id="path3"
       d="m 0,0 v -11.227 h -4.381 v 10.092 c 0,4.03 -1.526,5.321 -4.146,5.321 -2.974,0 -4.93,-2.074 -4.93,-5.829 v -9.584 h -4.381 V 7.862 h 4.381 v -2.66 h 0.04 c 1.603,1.917 3.95,2.934 6.415,2.934 C -2.817,8.136 0,5.75 0,0"
       style="fill:#3f1413;fill-opacity:1;fill-rule:nonzero;stroke:none"
       transform="matrix(1.3333333,0,0,-1.3333333,685.50213,294.94867)"
       clip-path="url(#clipPath4)" />
    <path
       id="path5"
       d="m 0,0 2.19,3.286 c 1.526,-1.487 3.169,-2.23 5.516,-2.23 1.682,0 2.66,0.743 2.66,1.878 0,0.978 -1.252,1.447 -3.756,2.308 -3.129,1.095 -5.828,2.503 -5.828,6.259 0,3.129 2.817,5.398 6.728,5.398 2.426,0 4.616,-0.665 6.728,-2.386 l -2.19,-3.443 c -1.525,1.448 -3.286,2.034 -4.772,2.034 -0.861,0 -2.074,-0.469 -2.074,-1.643 0,-0.938 1.174,-1.603 3.013,-2.307 4.068,-1.604 6.611,-2.347 6.611,-6.142 0,-3.208 -2.269,-5.789 -7.12,-5.789 C 4.616,-2.777 1.995,-1.76 0,0"
       style="fill:#3f1413;fill-opacity:1;fill-rule:nonzero;stroke:none"
       transform="matrix(1.3333333,0,0,-1.3333333,690.51107,306.63213)"
       clip-path="url(#clipPath6)" />
    <path
       id="path7"
       d="m 0,0 v 9.349 h -2.347 v 3.716 H 0 v 6.337 l 4.381,0.47 V 13.065 H 9.975 V 9.349 H 4.381 V 0.43 c 0,-1.956 0.587,-2.66 1.839,-2.66 0.743,0 1.799,0.274 2.816,0.821 l 1.135,-3.794 C 9.036,-5.829 7.824,-6.337 5.32,-6.337 2.034,-6.337 0,-4.264 0,0"
       style="fill:#3f1413;fill-opacity:1;fill-rule:nonzero;stroke:none"
       transform="matrix(1.3333333,0,0,-1.3333333,716.53813,301.88573)"
       clip-path="url(#clipPath8)" />
    <path
       id="path9"
       d="m 551.448,381.931 h 4.381 v -19.089 h -4.381 z m -0.744,5.75 c 0,1.565 1.291,2.895 2.934,2.895 1.643,0 2.973,-1.33 2.973,-2.895 0,-1.604 -1.33,-2.933 -2.973,-2.933 -1.643,0 -2.934,1.329 -2.934,2.933"
       style="fill:#3f1413;fill-opacity:1;fill-rule:nonzero;stroke:none"
       transform="matrix(1.3333333,0,0,-1.3333333,0,793.70667)"
       clip-path="url(#clipPath10)" />
    <path
       id="path11"
       d="m 0,0 v 9.349 h -2.347 v 3.716 H 0 v 6.337 l 4.381,0.47 V 13.065 H 9.975 V 9.349 H 4.381 V 0.43 c 0,-1.956 0.587,-2.66 1.839,-2.66 0.743,0 1.799,0.274 2.816,0.821 L 10.17,-5.203 C 9.036,-5.829 7.823,-6.337 5.32,-6.337 2.034,-6.337 0,-4.264 0,0"
       style="fill:#3f1413;fill-opacity:1;fill-rule:nonzero;stroke:none"
       transform="matrix(1.3333333,0,0,-1.3333333,749.34653,301.88573)"
       clip-path="url(#clipPath12)" />
    <path
       id="path13"
       d="m 0,0 v -19.089 h -4.381 v 2.503 c -1.526,-1.838 -3.678,-2.816 -5.907,-2.816 -4.225,0 -7.159,2.112 -7.159,7.784 V 0 h 4.381 v -10.444 c 0,-3.795 1.174,-4.968 3.795,-4.968 2.543,0 4.89,2.151 4.89,6.258 V 0 Z"
       style="fill:#3f1413;fill-opacity:1;fill-rule:nonzero;stroke:none"
       transform="matrix(1.3333333,0,0,-1.3333333,790.65547,284.46547)"
       clip-path="url(#clipPath14)" />
    <path
       id="path15"
       d="m 0,0 v 9.349 h -2.347 v 3.716 H 0 v 6.337 l 4.381,0.47 V 13.065 H 9.975 V 9.349 H 4.381 V 0.43 c 0,-1.956 0.587,-2.66 1.839,-2.66 0.743,0 1.799,0.274 2.816,0.821 l 1.135,-3.794 C 9.036,-5.829 7.824,-6.337 5.32,-6.337 2.034,-6.337 0,-4.264 0,0"
       style="fill:#3f1413;fill-opacity:1;fill-rule:nonzero;stroke:none"
       transform="matrix(1.3333333,0,0,-1.3333333,798.53227,301.88573)"
       clip-path="url(#clipPath16)" />
    <path
       id="path17"
       d="M 0,0 C 0,3.52 -2.425,5.907 -5.555,5.907 -8.88,5.907 -11.11,3.325 -11.11,0 c 0,-3.247 2.27,-5.829 5.555,-5.829 C -2.464,-5.829 0,-3.442 0,0 m -15.569,0 c 0,5.633 3.99,9.858 10.014,9.858 C 0.313,9.858 4.46,5.868 4.46,0 c 0,-5.789 -4.147,-9.819 -10.015,-9.819 -6.024,0 -10.014,4.225 -10.014,9.819"
       style="fill:#3f1413;fill-opacity:1;fill-rule:nonzero;stroke:none"
       transform="matrix(1.3333333,0,0,-1.3333333,835.14747,297.2436)"
       clip-path="url(#clipPath18)" />
    <path
       id="path19"
       d="m 0,0 1.527,1.8 c 1.391,-1.718 3.49,-2.563 5.372,-2.563 2.372,0 3.954,1.118 3.954,2.972 0,2.181 -1.745,2.754 -4.336,3.736 -2.863,1.063 -5.781,2.29 -5.781,5.644 0,2.891 2.618,5.1 5.917,5.127 2.155,0 4.282,-0.791 6.136,-2.263 L 11.344,12.598 C 9.817,13.88 8.099,14.507 6.653,14.507 4.854,14.507 3.218,13.526 3.218,11.699 3.191,9.844 4.936,9.19 7.335,8.235 10.608,6.981 13.334,6.081 13.334,2.454 13.334,-1.118 10.199,-3 6.872,-3 4.444,-3 1.936,-2.072 0,0"
       style="fill:#3f1413;fill-opacity:1;fill-rule:nonzero;stroke:none"
       transform="matrix(1.3333333,0,0,-1.3333333,204.74587,543.32587)"
       clip-path="url(#clipPath20)" />
    <path
       id="path21"
       d="m 0,0 c 0,2.727 -1.882,4.854 -4.445,4.854 -2.509,0 -4.499,-1.909 -4.499,-4.854 0,-2.672 1.772,-4.69 4.472,-4.69 C -2.072,-4.69 0,-2.809 0,0 M 2.127,6.736 V -6.545 H 0 v 2.1 h -0.027 c -1.064,-1.418 -2.7,-2.263 -4.636,-2.263 -3.681,0 -6.517,2.645 -6.517,6.708 0,3.927 2.727,6.899 6.49,6.899 1.826,0 3.463,-0.764 4.581,-2.154 h 0.027 v 1.991 z"
       style="fill:#3f1413;fill-opacity:1;fill-rule:nonzero;stroke:none"
       transform="matrix(1.3333333,0,0,-1.3333333,241.03187,538.38107)"
       clip-path="url(#clipPath22)" />
    <path
       id="path23"
       d="m 0,0 h -2.318 l 3.191,3.845 2.508,0.027 z m 4.663,-1.909 v -13.28 H 2.454 v 2.209 H 2.427 c -1.063,-1.527 -2.645,-2.372 -4.363,-2.372 -3.054,0 -4.99,1.745 -4.99,5.535 v 7.908 h 2.208 V -9.19 c 0,-3.027 1.118,-4.145 3.246,-4.145 2.099,0 3.926,1.828 3.926,4.991 v 6.435 z"
       style="fill:#3f1413;fill-opacity:1;fill-rule:nonzero;stroke:none"
       transform="matrix(1.3333333,0,0,-1.3333333,258.15653,526.8552)"
       clip-path="url(#clipPath24)" />
    <path
       id="path25"
       d="m 0,0 c 0,2.727 -1.882,4.854 -4.39,4.854 -2.509,0 -4.5,-1.909 -4.5,-4.854 0,-2.672 1.773,-4.69 4.472,-4.69 C -2.072,-4.69 0,-2.809 0,0 M 2.127,13.526 V -6.545 h -2.1 v 2.1 h -0.054 c -1.064,-1.418 -2.673,-2.263 -4.582,-2.263 -3.681,0 -6.517,2.645 -6.517,6.708 0,3.927 2.727,6.899 6.49,6.899 1.8,0 3.436,-0.764 4.527,-2.154 h 0.027 v 8.781 z"
       style="fill:#3f1413;fill-opacity:1;fill-rule:nonzero;stroke:none"
       transform="matrix(1.3333333,0,0,-1.3333333,283.5352,538.38107)"
       clip-path="url(#clipPath26)" />
    <path
       id="path27"
       d="M 0,0 H 8.017 C 7.662,2.182 6.272,3.627 4.145,3.627 2.072,3.627 0.409,2.263 0,0 M 10.144,-1.827 H -0.082 c 0.3,-2.481 2.045,-4.091 4.445,-4.091 1.663,0 2.918,0.764 3.736,1.8 L 9.653,-5.454 C 8.508,-6.926 6.708,-7.935 4.281,-7.935 c -3.763,0 -6.599,2.754 -6.599,6.79 0,4.008 2.754,6.817 6.354,6.817 3.708,0 6.163,-2.781 6.163,-6.599 0,-0.355 -0.055,-0.818 -0.055,-0.9"
       style="fill:#3f1413;fill-opacity:1;fill-rule:nonzero;stroke:none"
       transform="matrix(1.3333333,0,0,-1.3333333,294.00653,536.7448)"
       clip-path="url(#clipPath28)" />
    <path
       id="path29"
       d="m 0,0 c 0,5.508 3.436,9.953 9.653,9.953 2.672,0 5.454,-1.09 7.554,-3.708 L 15.434,4.772 C 13.962,6.626 11.889,7.69 9.653,7.69 5.236,7.69 2.481,4.499 2.481,0 c 0,-4.608 3.082,-7.472 7.172,-7.472 2.509,0 4.418,1.2 5.781,2.891 l 1.773,-1.5 C 15.516,-8.181 13.062,-9.735 9.653,-9.735 4.417,-9.735 0,-6.326 0,0"
       style="fill:#3f1413;fill-opacity:1;fill-rule:nonzero;stroke:none"
       transform="matrix(1.3333333,0,0,-1.3333333,321.4208,534.3088)"
       clip-path="url(#clipPath30)" />
    <path
       id="path31"
       d="m 0,0 c 0,2.836 -2.018,4.772 -4.582,4.772 -2.781,0 -4.635,-2.127 -4.635,-4.772 0,-2.645 1.882,-4.772 4.635,-4.772 C -2.018,-4.772 0,-2.808 0,0 m -11.453,0 c 0,3.818 2.727,6.817 6.871,6.817 3.9,0 6.818,-2.781 6.818,-6.817 0,-4.036 -2.918,-6.79 -6.818,-6.79 -4.144,0 -6.871,2.973 -6.871,6.79"
       style="fill:#3f1413;fill-opacity:1;fill-rule:nonzero;stroke:none"
       transform="matrix(1.3333333,0,0,-1.3333333,362.50653,538.272)"
       clip-path="url(#clipPath32)" />
    <path
       id="path33"
       d="m 277.715,205.02 h 2.209 v -20.07 h -2.209 z"
       style="fill:#3f1413;fill-opacity:1;fill-rule:nonzero;stroke:none"
       transform="matrix(1.3333333,0,0,-1.3333333,0,793.70667)"
       clip-path="url(#clipPath34)" />
    <path
       id="path35"
       d="M 0,0 H 8.017 C 7.663,2.182 6.272,3.627 4.145,3.627 2.073,3.627 0.409,2.263 0,0 M 10.144,-1.827 H -0.082 c 0.3,-2.481 2.045,-4.091 4.445,-4.091 1.664,0 2.918,0.764 3.736,1.8 L 9.653,-5.454 C 8.508,-6.926 6.708,-7.935 4.281,-7.935 c -3.763,0 -6.599,2.754 -6.599,6.79 0,4.008 2.754,6.817 6.354,6.817 3.709,0 6.163,-2.781 6.163,-6.599 0,-0.355 -0.055,-0.818 -0.055,-0.9"
       style="fill:#3f1413;fill-opacity:1;fill-rule:nonzero;stroke:none"
       transform="matrix(1.3333333,0,0,-1.3333333,381.12173,536.7448)"
       clip-path="url(#clipPath36)" />
    <path
       id="path37"
       d="M 0,0 V 7.417 H -1.691 V 9.326 H 0 v 4.527 l 2.209,0.245 V 9.326 H 6.626 V 7.417 H 2.209 v -7.09 c 0,-1.581 0.381,-2.372 1.636,-2.372 0.791,0 1.609,0.327 2.236,0.682 l 0.6,-1.936 C 5.945,-3.709 5.018,-4.117 3.463,-4.117 1.091,-4.117 0,-2.672 0,0"
       style="fill:#3f1413;fill-opacity:1;fill-rule:nonzero;stroke:none"
       transform="matrix(1.3333333,0,0,-1.3333333,399.59173,541.83533)"
       clip-path="url(#clipPath38)" />
    <path
       id="path39"
       d="m 309.347,198.23 h 2.209 v -13.28 h -2.209 z m -0.463,4.008 c 0,0.845 0.681,1.555 1.582,1.555 0.872,0 1.581,-0.71 1.581,-1.555 0,-0.872 -0.709,-1.554 -1.581,-1.554 -0.901,0 -1.582,0.682 -1.582,1.554"
       style="fill:#3f1413;fill-opacity:1;fill-rule:nonzero;stroke:none"
       transform="matrix(1.3333333,0,0,-1.3333333,0,793.70667)"
       clip-path="url(#clipPath40)" />
    <path
       id="path41"
       d="M 0,0 -5.399,-13.28 H -7.526 L -12.953,0 h 2.372 l 4.091,-10.471 h 0.082 L -2.4,0 Z"
       style="fill:#3f1413;fill-opacity:1;fill-rule:nonzero;stroke:none"
       transform="matrix(1.3333333,0,0,-1.3333333,436.642,529.40013)"
       clip-path="url(#clipPath42)" />
    <path
       id="path43"
       d="m 0,0 c 0,2.727 -1.882,4.854 -4.445,4.854 -2.509,0 -4.499,-1.909 -4.499,-4.854 0,-2.672 1.772,-4.69 4.472,-4.69 C -2.073,-4.69 0,-2.809 0,0 M 2.127,6.736 V -6.545 H 0 v 2.1 h -0.027 c -1.064,-1.418 -2.7,-2.263 -4.636,-2.263 -3.681,0 -6.517,2.645 -6.517,6.708 0,3.927 2.726,6.899 6.49,6.899 1.827,0 3.463,-0.764 4.581,-2.154 h 0.027 v 1.991 z"
       style="fill:#3f1413;fill-opacity:1;fill-rule:nonzero;stroke:none"
       transform="matrix(1.3333333,0,0,-1.3333333,453.18547,538.38107)"
       clip-path="url(#clipPath44)" />
    <path
       id="path45"
       d="M 0,0 H 2.427 L 0.764,-6.545 h -1.637 z"
       style="fill:#3f1413;fill-opacity:1;fill-rule:nonzero;stroke:none"
       transform="matrix(1.3333333,0,0,-1.3333333,460.9656,543.10787)"
       clip-path="url(#clipPath46)" />
    <path
       id="path47"
       d="M 0,0 H 11.862 V -2.182 H 2.399 v -6.462 h 7.772 v -2.182 H 2.399 v -6.353 h 10.035 v -2.182 H 0 Z"
       style="fill:#3f1413;fill-opacity:1;fill-rule:nonzero;stroke:none"
       transform="matrix(1.3333333,0,0,-1.3333333,479.72707,521.29253)"
       clip-path="url(#clipPath48)" />
    <path
       id="path49"
       d="M 0,0 C 0,2.727 -1.882,4.854 -4.391,4.854 -6.899,4.854 -8.89,2.945 -8.89,0 c 0,-2.672 1.773,-4.69 4.472,-4.69 C -2.073,-4.69 0,-2.809 0,0 M 2.127,13.526 V -6.545 h -2.1 v 2.1 h -0.055 c -1.063,-1.418 -2.672,-2.263 -4.581,-2.263 -3.681,0 -6.517,2.645 -6.517,6.708 0,3.927 2.727,6.899 6.49,6.899 1.8,0 3.436,-0.764 4.527,-2.154 h 0.027 v 8.781 z"
       style="fill:#3f1413;fill-opacity:1;fill-rule:nonzero;stroke:none"
       transform="matrix(1.3333333,0,0,-1.3333333,514.23173,538.38107)"
       clip-path="url(#clipPath50)" />
    <path
       id="path51"
       d="m 0,0 v -13.28 h -2.209 v 2.208 h -0.027 c -1.063,-1.527 -2.645,-2.372 -4.363,-2.372 -3.054,0 -4.99,1.745 -4.99,5.536 V 0 h 2.209 v -7.281 c 0,-3.027 1.118,-4.145 3.245,-4.145 2.099,0 3.926,1.827 3.926,4.99 V 0 Z"
       style="fill:#3f1413;fill-opacity:1;fill-rule:nonzero;stroke:none"
       transform="matrix(1.3333333,0,0,-1.3333333,537.79173,529.40013)"
       clip-path="url(#clipPath52)" />
    <path
       id="path53"
       d="m 0,0 c 0,4.009 2.754,6.817 6.654,6.817 1.99,0 4.036,-0.818 5.344,-2.372 L 10.471,3.109 C 9.653,4.118 8.344,4.772 6.763,4.772 4.091,4.772 2.236,2.809 2.236,0 c 0,-2.836 1.855,-4.772 4.527,-4.772 1.554,0 2.945,0.682 3.763,1.581 l 1.527,-1.363 C 10.935,-5.808 8.944,-6.79 6.572,-6.79 2.754,-6.79 0,-4.036 0,0"
       style="fill:#3f1413;fill-opacity:1;fill-rule:nonzero;stroke:none"
       transform="matrix(1.3333333,0,0,-1.3333333,542.11867,538.272)"
       clip-path="url(#clipPath54)" />
    <path
       id="path55"
       d="m 0,0 c 0,2.727 -1.882,4.854 -4.445,4.854 -2.509,0 -4.499,-1.909 -4.499,-4.854 0,-2.672 1.772,-4.69 4.472,-4.69 C -2.072,-4.69 0,-2.809 0,0 M 2.127,6.736 V -6.545 H 0 v 2.1 h -0.027 c -1.064,-1.418 -2.7,-2.263 -4.636,-2.263 -3.681,0 -6.517,2.645 -6.517,6.708 0,3.927 2.727,6.899 6.49,6.899 1.827,0 3.463,-0.764 4.581,-2.154 h 0.027 v 1.991 z"
       style="fill:#3f1413;fill-opacity:1;fill-rule:nonzero;stroke:none"
       transform="matrix(1.3333333,0,0,-1.3333333,576.04107,538.38107)"
       clip-path="url(#clipPath56)" />
    <path
       id="path57"
       d="M 0,0 0.027,-0.054 C 1.445,-0.136 2.4,-0.9 2.4,-2.209 c 0,-1.145 -0.9,-2.072 -2.918,-2.072 -0.655,0 -1.118,0.082 -1.527,0.164 v 1.199 c 0.355,-0.109 0.736,-0.19 1.309,-0.19 0.791,0 1.527,0.3 1.527,1.008 0,0.6 -0.736,1.146 -2.263,1.146 v 0.818 L -1.118,0.6 v 0.137 c -3.326,0.408 -5.644,3.026 -5.644,6.735 0,4.008 2.754,6.817 6.653,6.817 1.991,0 4.036,-0.818 5.345,-2.372 L 3.709,10.581 C 2.891,11.59 1.582,12.244 0,12.244 -2.672,12.244 -4.527,10.281 -4.527,7.472 -4.527,4.636 -2.672,2.7 0,2.7 1.555,2.7 2.945,3.382 3.763,4.281 L 5.291,2.918 C 4.254,1.745 2.454,0.818 0.327,0.709 Z"
       style="fill:#3f1413;fill-opacity:1;fill-rule:nonzero;stroke:none"
       transform="matrix(1.3333333,0,0,-1.3333333,592.2204,548.23453)"
       clip-path="url(#clipPath58)" />
    <path
       id="path59"
       d="m 0,0 c 0,2.727 -1.882,4.854 -4.445,4.854 -2.508,0 -4.499,-1.909 -4.499,-4.854 0,-2.672 1.772,-4.69 4.472,-4.69 C -2.073,-4.69 0,-2.809 0,0 m -7.717,8.89 -1.418,0.627 c 0.491,1.636 1.418,2.7 2.809,2.7 0.981,0 1.608,-0.41 2.236,-0.791 0.572,-0.382 1.09,-0.818 1.717,-0.818 0.655,0 1.255,0.518 1.582,1.5 L 0.627,11.644 C 0.136,9.817 -0.9,8.781 -2.1,8.781 c -0.954,0 -1.718,0.518 -2.399,0.981 -0.546,0.328 -1.064,0.628 -1.582,0.628 -0.736,0 -1.282,-0.573 -1.636,-1.5 M 2.127,6.736 V -6.545 H 0 v 2.1 h -0.027 c -1.064,-1.418 -2.7,-2.263 -4.636,-2.263 -3.681,0 -6.517,2.645 -6.517,6.708 0,3.927 2.727,6.899 6.49,6.899 1.827,0 3.463,-0.764 4.581,-2.154 h 0.027 v 1.991 z"
       style="fill:#3f1413;fill-opacity:1;fill-rule:nonzero;stroke:none"
       transform="matrix(1.3333333,0,0,-1.3333333,617.12627,538.38107)"
       clip-path="url(#clipPath60)" />
    <path
       id="path61"
       d="m 0,0 c 0,2.836 -2.018,4.772 -4.582,4.772 -2.781,0 -4.635,-2.127 -4.635,-4.772 0,-2.645 1.882,-4.772 4.635,-4.772 C -2.018,-4.772 0,-2.808 0,0 m -11.453,0 c 0,3.818 2.727,6.817 6.871,6.817 3.9,0 6.818,-2.781 6.818,-6.817 0,-4.036 -2.918,-6.79 -6.818,-6.79 -4.144,0 -6.871,2.973 -6.871,6.79"
       style="fill:#3f1413;fill-opacity:1;fill-rule:nonzero;stroke:none"
       transform="matrix(1.3333333,0,0,-1.3333333,639.55947,538.272)"
       clip-path="url(#clipPath62)" />
    <path
       id="path63"
       d="M 0,0 H 8.017 C 7.663,2.182 6.272,3.627 4.145,3.627 2.072,3.627 0.409,2.263 0,0 M 10.144,-1.827 H -0.082 c 0.3,-2.481 2.045,-4.091 4.445,-4.091 1.664,0 2.918,0.764 3.736,1.8 L 9.653,-5.454 C 8.508,-6.926 6.708,-7.935 4.281,-7.935 c -3.763,0 -6.599,2.754 -6.599,6.79 0,4.008 2.754,6.817 6.354,6.817 3.708,0 6.163,-2.781 6.163,-6.599 0,-0.355 -0.055,-0.818 -0.055,-0.9"
       style="fill:#3f1413;fill-opacity:1;fill-rule:nonzero;stroke:none"
       transform="matrix(1.3333333,0,0,-1.3333333,659.0836,536.7448)"
       clip-path="url(#clipPath64)" />
    <path
       id="path65"
       d="m 0,0 c 0,5.508 3.436,9.953 9.653,9.953 2.673,0 5.454,-1.09 7.554,-3.708 L 15.434,4.772 C 13.962,6.626 11.89,7.69 9.653,7.69 5.236,7.69 2.481,4.499 2.481,0 c 0,-4.608 3.082,-7.472 7.172,-7.472 2.509,0 4.418,1.2 5.781,2.891 l 1.773,-1.5 C 15.516,-8.181 13.062,-9.735 9.653,-9.735 4.418,-9.735 0,-6.326 0,0"
       style="fill:#3f1413;fill-opacity:1;fill-rule:nonzero;stroke:none"
       transform="matrix(1.3333333,0,0,-1.3333333,686.49787,534.3088)"
       clip-path="url(#clipPath66)" />
    <path
       id="path67"
       d="m 0,0 c 0,2.836 -2.018,4.772 -4.581,4.772 -2.782,0 -4.636,-2.127 -4.636,-4.772 0,-2.645 1.881,-4.772 4.636,-4.772 C -2.018,-4.772 0,-2.808 0,0 m -11.453,0 c 0,3.818 2.727,6.817 6.872,6.817 3.899,0 6.817,-2.781 6.817,-6.817 0,-4.036 -2.918,-6.79 -6.817,-6.79 -4.145,0 -6.872,2.973 -6.872,6.79"
       style="fill:#3f1413;fill-opacity:1;fill-rule:nonzero;stroke:none"
       transform="matrix(1.3333333,0,0,-1.3333333,727.58347,538.272)"
       clip-path="url(#clipPath68)" />
    <path
       id="path69"
       d="M 0,0 V -7.772 H -2.209 V -0.6 c 0,3 -1.009,4.227 -3.108,4.227 -2.046,0 -3.709,-1.827 -3.709,-4.8 v -6.599 h -2.209 v 7.199 c 0,2.945 -1.091,4.2 -3.163,4.2 -2.154,0 -3.845,-1.827 -3.845,-4.8 v -6.599 h -2.181 v 13.28 h 2.181 v -2.29 h 0.027 c 1.091,1.581 2.755,2.454 4.473,2.454 2.045,0 3.517,-0.846 4.226,-2.618 h 0.027 c 1.064,1.691 2.809,2.618 4.827,2.618 C -1.636,5.672 0,3.927 0,0"
       style="fill:#3f1413;fill-opacity:1;fill-rule:nonzero;stroke:none"
       transform="matrix(1.3333333,0,0,-1.3333333,762.37853,536.7448)"
       clip-path="url(#clipPath70)" />
    <path
       id="path71"
       d="m 0,0 v -13.28 h -2.209 v 2.208 h -0.027 c -1.063,-1.527 -2.645,-2.372 -4.363,-2.372 -3.054,0 -4.99,1.745 -4.99,5.536 V 0 h 2.209 v -7.281 c 0,-3.027 1.118,-4.145 3.245,-4.145 2.099,0 3.926,1.827 3.926,4.99 V 0 Z"
       style="fill:#3f1413;fill-opacity:1;fill-rule:nonzero;stroke:none"
       transform="matrix(1.3333333,0,0,-1.3333333,782.70333,529.40013)"
       clip-path="url(#clipPath72)" />
    <path
       id="path73"
       d="m 0,0 v -7.881 h -2.209 v 7.254 c 0,3.109 -1.309,4.145 -3.245,4.145 -2.508,0 -4.172,-1.773 -4.172,-4.772 v -6.627 h -2.209 V 5.4 h 2.209 V 3.082 h 0.027 c 1.118,1.581 2.863,2.481 4.827,2.481 C -1.909,5.563 0,3.791 0,0"
       style="fill:#3f1413;fill-opacity:1;fill-rule:nonzero;stroke:none"
       transform="matrix(1.3333333,0,0,-1.3333333,803.90067,536.5996)"
       clip-path="url(#clipPath74)" />
    <path
       id="path75"
       d="m 607.098,198.23 h 2.209 v -13.28 h -2.209 z m -0.464,4.008 c 0,0.845 0.682,1.555 1.581,1.555 0.873,0 1.582,-0.71 1.582,-1.555 0,-0.872 -0.709,-1.554 -1.582,-1.554 -0.899,0 -1.581,0.682 -1.581,1.554"
       style="fill:#3f1413;fill-opacity:1;fill-rule:nonzero;stroke:none"
       transform="matrix(1.3333333,0,0,-1.3333333,0,793.70667)"
       clip-path="url(#clipPath76)" />
    <path
       id="path77"
       d="m 0,0 c 0,4.009 2.754,6.817 6.654,6.817 1.99,0 4.035,-0.818 5.344,-2.372 L 10.471,3.109 C 9.653,4.118 8.344,4.772 6.762,4.772 4.09,4.772 2.236,2.809 2.236,0 c 0,-2.836 1.854,-4.772 4.526,-4.772 1.555,0 2.946,0.682 3.764,1.581 l 1.527,-1.363 C 10.935,-5.808 8.944,-6.79 6.572,-6.79 2.754,-6.79 0,-4.036 0,0"
       style="fill:#3f1413;fill-opacity:1;fill-rule:nonzero;stroke:none"
       transform="matrix(1.3333333,0,0,-1.3333333,817.20787,538.272)"
       clip-path="url(#clipPath78)" />
    <path
       id="path79"
       d="m 0,0 c 0,2.727 -1.881,4.854 -4.445,4.854 -2.508,0 -4.499,-1.909 -4.499,-4.854 0,-2.672 1.772,-4.69 4.472,-4.69 C -2.072,-4.69 0,-2.809 0,0 M 2.127,6.736 V -6.545 H 0 v 2.1 h -0.027 c -1.064,-1.418 -2.7,-2.263 -4.636,-2.263 -3.681,0 -6.517,2.645 -6.517,6.708 0,3.927 2.727,6.899 6.49,6.899 1.827,0 3.463,-0.764 4.581,-2.154 h 0.027 v 1.991 z"
       style="fill:#3f1413;fill-opacity:1;fill-rule:nonzero;stroke:none"
       transform="matrix(1.3333333,0,0,-1.3333333,851.1304,538.38107)"
       clip-path="url(#clipPath80)" />
    <path
       id="path81"
       d="m 0,0 0.027,-0.054 c 1.418,-0.082 2.372,-0.846 2.372,-2.155 0,-1.145 -0.899,-2.072 -2.917,-2.072 -0.655,0 -1.118,0.082 -1.528,0.164 v 1.199 c 0.355,-0.109 0.737,-0.19 1.309,-0.19 0.791,0 1.527,0.3 1.527,1.008 0,0.6 -0.736,1.146 -2.263,1.146 v 0.818 L -1.118,0.6 v 0.137 c -3.327,0.408 -5.645,3.026 -5.645,6.735 0,4.008 2.754,6.817 6.654,6.817 1.99,0 4.036,-0.818 5.345,-2.372 L 3.708,10.581 C 2.89,11.59 1.581,12.244 0,12.244 -2.673,12.244 -4.527,10.281 -4.527,7.472 -4.527,4.636 -2.673,2.7 0,2.7 1.554,2.7 2.945,3.382 3.763,4.281 L 5.29,2.918 C 4.254,1.745 2.454,0.818 0.327,0.709 Z"
       style="fill:#3f1413;fill-opacity:1;fill-rule:nonzero;stroke:none"
       transform="matrix(1.3333333,0,0,-1.3333333,867.31013,548.23453)"
       clip-path="url(#clipPath82)" />
    <path
       id="path83"
       d="m 0,0 c 0,2.727 -1.882,4.854 -4.445,4.854 -2.509,0 -4.499,-1.909 -4.499,-4.854 0,-2.672 1.772,-4.69 4.472,-4.69 C -2.073,-4.69 0,-2.809 0,0 m -7.717,8.89 -1.418,0.627 c 0.491,1.636 1.418,2.7 2.809,2.7 0.981,0 1.608,-0.41 2.236,-0.791 0.572,-0.382 1.09,-0.818 1.717,-0.818 0.655,0 1.255,0.518 1.582,1.5 L 0.627,11.644 C 0.136,9.817 -0.9,8.781 -2.1,8.781 c -0.954,0 -1.718,0.518 -2.399,0.981 -0.546,0.328 -1.064,0.628 -1.582,0.628 -0.736,0 -1.282,-0.573 -1.636,-1.5 M 2.127,6.736 V -6.545 H 0 v 2.1 h -0.027 c -1.064,-1.418 -2.7,-2.263 -4.636,-2.263 -3.681,0 -6.517,2.645 -6.517,6.708 0,3.927 2.727,6.899 6.49,6.899 1.827,0 3.463,-0.764 4.581,-2.154 h 0.027 v 1.991 z"
       style="fill:#3f1413;fill-opacity:1;fill-rule:nonzero;stroke:none"
       transform="matrix(1.3333333,0,0,-1.3333333,892.21547,538.38107)"
       clip-path="url(#clipPath84)" />
    <path
       id="path85"
       d="m 0,0 c 0,2.836 -2.018,4.772 -4.581,4.772 -2.781,0 -4.636,-2.127 -4.636,-4.772 0,-2.645 1.882,-4.772 4.636,-4.772 C -2.018,-4.772 0,-2.808 0,0 m -11.453,0 c 0,3.818 2.727,6.817 6.872,6.817 3.899,0 6.818,-2.781 6.818,-6.817 0,-4.036 -2.919,-6.79 -6.818,-6.79 -4.145,0 -6.872,2.973 -6.872,6.79"
       style="fill:#3f1413;fill-opacity:1;fill-rule:nonzero;stroke:none"
       transform="matrix(1.3333333,0,0,-1.3333333,914.64827,538.272)"
       clip-path="url(#clipPath86)" />
    <path
       id="path87"
       d="m 0,0 c 0.2,-1.806 0.475,-3.186 0.828,-4.139 0.35,-0.954 0.726,-1.655 1.128,-2.107 0.4,-0.451 0.878,-0.778 1.43,-0.978 0.55,-0.202 1.129,-0.451 1.731,-0.752 0.4,1.103 0.701,2.13 0.903,3.085 0.2,0.952 0.4,1.829 0.602,2.634 C 7.323,1.054 7.299,3.537 6.547,5.192 5.794,6.848 4.891,7.751 3.838,7.901 2.784,8.052 1.806,7.45 0.903,6.095 0,4.741 -0.301,2.709 0,0 m -8.428,25.283 c 1.303,-0.202 2.432,-0.627 3.386,-1.279 0.953,-0.654 1.705,-1.354 2.258,-2.107 0.55,-0.752 0.926,-1.43 1.129,-2.031 0.199,-0.602 0.199,-0.903 0,-0.903 -2.009,-0.203 -4.064,-1.331 -6.171,-3.386 -2.107,-2.058 -4.19,-4.718 -6.245,-7.977 -2.058,-3.261 -3.989,-6.923 -5.794,-10.986 -1.806,-4.063 -3.363,-8.228 -4.666,-12.491 -1.305,-4.266 -2.332,-8.454 -3.085,-12.567 -0.752,-4.115 -1.03,-7.825 -0.828,-11.136 0,-1.004 0.076,-2.234 0.226,-3.687 0.151,-1.456 0.426,-2.912 0.828,-4.365 0.4,-1.455 1.001,-2.761 1.806,-3.913 0.802,-1.154 1.956,-1.881 3.461,-2.182 1.806,-0.301 3.763,0.602 5.869,2.709 2.107,2.107 4.214,4.891 6.321,8.352 2.107,3.462 4.162,7.323 6.171,11.589 2.005,4.263 3.762,8.451 5.267,12.566 -1.606,1.002 -2.986,2.307 -4.139,3.913 -1.154,1.604 -2.158,3.386 -3.01,5.343 -0.853,1.956 -1.53,3.988 -2.031,6.095 -0.503,2.107 -0.903,4.214 -1.204,6.321 -0.402,3.209 -0.127,5.994 0.827,8.352 0.953,2.356 2.307,4.139 4.064,5.343 1.754,1.204 3.687,1.78 5.794,1.73 2.107,-0.051 4.139,-0.853 6.095,-2.407 1.956,-1.557 3.612,-3.914 4.966,-7.074 1.355,-3.16 2.131,-7.2 2.333,-12.115 v -3.386 c 0,-1.154 -0.052,-2.333 -0.15,-3.537 2.506,0.301 5.015,1.002 7.524,2.107 2.507,1.103 4.816,2.533 6.923,4.289 2.107,1.755 3.861,3.688 5.268,5.794 1.403,2.107 2.356,4.313 2.859,6.622 0.602,2.709 1.329,4.715 2.182,6.02 0.851,1.303 1.63,1.856 2.333,1.656 0.701,-0.202 1.279,-1.155 1.731,-2.86 0.451,-1.707 0.625,-4.115 0.526,-7.224 -0.101,-3.31 -1.079,-6.546 -2.934,-9.707 -1.858,-3.16 -4.214,-6.019 -7.074,-8.578 -2.859,-2.558 -6.095,-4.665 -9.707,-6.321 -3.612,-1.655 -7.223,-2.633 -10.835,-2.934 -1.204,-6.321 -3.01,-12.468 -5.418,-18.436 -2.408,-5.971 -5.244,-11.163 -8.503,-15.576 -3.262,-4.416 -6.848,-7.826 -10.761,-10.234 -3.913,-2.408 -7.976,-3.259 -12.19,-2.558 -4.315,0.703 -7.826,2.332 -10.535,4.891 -2.708,2.558 -4.891,5.467 -6.546,8.728 -1.656,3.259 -2.909,6.622 -3.763,10.084 -0.851,3.461 -1.479,6.494 -1.881,9.105 -0.301,1.904 -0.376,4.815 -0.225,8.728 0.15,3.913 0.677,8.226 1.58,12.943 0.903,4.715 2.234,9.481 3.988,14.297 1.756,4.816 4.063,9.129 6.923,12.943 2.859,3.811 6.344,6.821 10.459,9.029 4.113,2.206 8.978,3.01 14.598,2.408"
       style="fill:#782a1c;fill-opacity:1;fill-rule:nonzero;stroke:none"
       transform="matrix(1.3333333,0,0,-1.3333333,602.05373,391.186)"
       clip-path="url(#clipPath88)" />
    <path
       id="path89"
       d="m 0,0 c 1.604,0.099 2.984,-0.402 4.139,-1.505 1.152,-1.105 1.93,-2.81 2.332,-5.117 0.2,-1.105 0.151,-2.709 -0.15,-4.816 -0.301,-2.107 -0.602,-4.214 -0.903,-6.321 -0.402,-2.509 -0.854,-5.116 -1.355,-7.825 0.701,-1.204 2.107,-1.757 4.214,-1.656 2.107,0.099 4.463,0.452 7.074,1.053 2.607,0.603 5.29,1.28 8.051,2.032 2.758,0.753 5.14,1.178 7.149,1.28 1.505,0.098 2.758,-0.353 3.762,-1.355 1.002,-1.004 1.754,-2.234 2.257,-3.687 0.501,-1.456 0.776,-2.986 0.828,-4.59 0.05,-1.606 -0.075,-2.911 -0.376,-3.913 -0.202,-0.602 -0.677,-2.434 -1.43,-5.493 -0.752,-3.062 -1.58,-6.723 -2.483,-10.987 -0.903,-4.265 -1.757,-8.803 -2.558,-13.619 -0.805,-4.816 -1.331,-9.307 -1.581,-13.47 -0.251,-4.164 -0.126,-7.701 0.377,-10.61 0.501,-2.911 1.603,-4.566 3.311,-4.966 0.903,-0.202 2.281,0.753 4.138,2.859 1.856,2.107 3.937,4.941 6.246,8.504 2.307,3.56 4.74,7.698 7.299,12.415 2.558,4.715 4.966,9.557 7.224,14.523 2.257,4.967 4.289,9.881 6.095,14.749 1.806,4.865 3.108,9.255 3.913,13.168 0.199,1.002 0.677,1.705 1.429,2.107 0.753,0.4 1.555,0.426 2.408,0.075 0.852,-0.352 1.604,-1.053 2.258,-2.107 0.651,-1.053 0.978,-2.535 0.978,-4.439 0,-0.504 -0.376,-2.107 -1.129,-4.816 -0.752,-2.709 -1.806,-6.071 -3.16,-10.083 -1.355,-4.014 -2.987,-8.454 -4.891,-13.319 -1.907,-4.868 -4.064,-9.759 -6.472,-14.674 -2.408,-4.917 -4.992,-9.631 -7.75,-14.146 -2.761,-4.515 -5.67,-8.404 -8.729,-11.663 -3.062,-3.262 -6.222,-5.644 -9.481,-7.149 -3.262,-1.505 -6.599,-1.754 -10.008,-0.753 -4.416,1.305 -7.652,3.887 -9.707,7.751 -2.058,3.861 -3.386,8.301 -3.988,13.319 -0.602,5.015 -0.602,10.309 0,15.877 0.602,5.569 1.378,10.709 2.332,15.426 0.953,4.715 1.882,8.729 2.785,12.04 0.903,3.31 1.453,5.215 1.655,5.718 0.602,1.404 0.55,2.507 -0.15,3.312 -0.704,0.801 -1.606,0.952 -2.709,0.451 -1.004,-0.602 -2.46,-1.129 -4.365,-1.58 -1.907,-0.452 -3.913,-0.301 -6.02,0.451 -2.106,0.753 -4.089,2.307 -5.944,4.666 -1.858,2.356 -3.236,6.095 -4.139,11.211 -0.301,1.505 -0.428,3.485 -0.376,5.945 0.049,2.457 0.35,4.839 0.903,7.149 0.55,2.306 1.354,4.289 2.408,5.944 C -3.236,-0.978 -1.806,-0.101 0,0"
       style="fill:#782a1c;fill-opacity:1;fill-rule:nonzero;stroke:none"
       transform="matrix(1.3333333,0,0,-1.3333333,652.41733,334.19787)"
       clip-path="url(#clipPath90)" />
    <path
       id="path91"
       d="m 0,0 c 1.303,0.099 2.859,0.802 4.665,2.107 1.806,1.303 3.612,3.059 5.418,5.267 1.806,2.206 3.485,4.79 5.042,7.751 1.554,2.958 2.784,6.194 3.687,9.707 0.501,4.214 1.077,8.376 1.731,12.491 0.651,4.113 1.378,8.075 2.182,11.889 0,3.109 -0.327,5.568 -0.978,7.374 -0.654,1.806 -1.43,3.161 -2.333,4.064 -0.903,0.903 -1.806,1.505 -2.709,1.806 -0.903,0.301 -1.606,0.451 -2.107,0.451 -1.406,0.099 -2.911,-0.703 -4.515,-2.408 C 8.477,58.792 6.847,56.459 5.192,53.501 3.537,50.541 1.956,47.154 0.451,43.343 -1.053,39.529 -2.384,35.616 -3.537,31.604 -4.691,27.59 -5.568,23.677 -6.17,19.865 -6.772,16.051 -6.998,12.642 -6.848,9.632 -6.697,6.622 -6.095,4.237 -5.042,2.483 -3.988,0.727 -2.309,-0.101 0,0 m 38.828,83.224 c 1.404,0 2.582,-0.376 3.537,-1.129 0.952,-0.752 1.73,-1.655 2.332,-2.709 0.602,-1.053 1.054,-2.132 1.355,-3.235 0.301,-1.105 0.451,-2.008 0.451,-2.709 0,-2.008 -0.277,-4.541 -0.828,-7.6 C 45.123,62.78 44.42,59.394 43.569,55.684 42.715,51.97 41.763,48.057 40.709,43.945 39.656,39.83 38.701,35.743 37.85,31.679 36.996,27.616 36.244,23.703 35.592,19.941 c -0.654,-3.763 -1.03,-7.1 -1.129,-10.008 -0.101,-4.616 1.103,-5.319 3.612,-2.107 2.206,2.408 4.489,5.568 6.848,9.481 2.356,3.913 4.639,8.127 6.848,12.642 2.205,4.515 4.312,9.053 6.32,13.62 2.006,4.564 3.763,8.702 5.268,12.416 1.505,3.71 2.732,6.795 3.687,9.255 0.952,2.457 1.528,3.837 1.73,4.139 0.302,0.301 0.727,0.451 1.28,0.451 0.55,0 1.103,-0.176 1.655,-0.527 0.55,-0.353 1.002,-0.853 1.355,-1.505 0.35,-0.653 0.425,-1.43 0.225,-2.332 C 73.19,64.763 72.739,63.081 71.937,60.424 71.133,57.764 70.03,54.428 68.626,50.416 67.22,46.402 65.541,41.962 63.584,37.097 61.628,32.229 59.469,27.263 57.113,22.198 54.755,17.131 52.196,12.214 49.438,7.449 46.677,2.683 43.844,-1.606 40.935,-5.418 c -0.503,-0.503 -1.279,-1.305 -2.333,-2.408 -1.053,-1.105 -2.283,-2.158 -3.687,-3.16 -1.406,-1.004 -2.961,-1.806 -4.665,-2.408 -1.708,-0.602 -3.462,-0.753 -5.268,-0.452 -2.911,0.602 -4.917,2.86 -6.02,6.773 C 17.857,-3.161 17.356,1.705 17.458,7.525 16.253,5.117 14.622,2.683 12.566,0.226 10.509,-2.234 8.352,-4.44 6.095,-6.396 3.838,-8.353 1.58,-9.984 -0.677,-11.287 c -2.258,-1.305 -4.24,-2.006 -5.945,-2.107 -2.709,-0.099 -5.117,0.428 -7.224,1.58 -2.107,1.152 -3.913,2.709 -5.418,4.665 -1.504,1.957 -2.732,4.139 -3.687,6.547 -0.952,2.408 -1.58,4.816 -1.881,7.224 -0.501,3.409 -0.726,7.299 -0.677,11.663 0.052,4.365 0.451,8.88 1.204,13.545 0.752,4.665 1.881,9.305 3.386,13.921 1.505,4.613 3.438,8.902 5.794,12.867 2.356,3.962 5.166,7.374 8.428,10.234 3.259,2.859 7.047,4.891 11.362,6.095 5.317,1.404 9.757,0.877 13.319,-1.58 3.56,-2.46 6.194,-5.745 7.901,-9.858 1.103,4.816 1.957,8.226 2.559,10.234 0.802,2.909 1.73,5.041 2.784,6.396 1.053,1.354 2.081,2.258 3.085,2.709 1.002,0.451 1.931,0.625 2.784,0.527 0.851,-0.101 1.43,-0.151 1.731,-0.151"
       style="fill:#782a1c;fill-opacity:1;fill-rule:nonzero;stroke:none"
       transform="matrix(1.3333333,0,0,-1.3333333,751.9448,460.61453)"
       clip-path="url(#clipPath92)" />
    <path
       id="path93"
       d="m 0,0 c 1.604,0.099 2.984,-0.402 4.139,-1.505 1.152,-1.105 1.93,-2.81 2.332,-5.117 0.2,-1.105 0.151,-2.709 -0.15,-4.816 -0.301,-2.107 -0.602,-4.214 -0.903,-6.321 -0.402,-2.509 -0.854,-5.116 -1.355,-7.825 0.701,-1.204 2.107,-1.757 4.214,-1.656 2.107,0.099 4.463,0.452 7.074,1.053 2.607,0.603 5.29,1.28 8.051,2.032 2.758,0.753 5.14,1.178 7.149,1.28 1.505,0.098 2.758,-0.353 3.762,-1.355 1.002,-1.004 1.754,-2.234 2.258,-3.687 0.5,-1.456 0.775,-2.986 0.827,-4.59 0.05,-1.606 -0.075,-2.911 -0.376,-3.913 -0.202,-0.602 -0.677,-2.434 -1.43,-5.493 -0.752,-3.062 -1.58,-6.723 -2.483,-10.987 -0.903,-4.265 -1.756,-8.803 -2.558,-13.619 -0.805,-4.816 -1.331,-9.307 -1.58,-13.47 -0.252,-4.164 -0.127,-7.701 0.376,-10.61 0.501,-2.911 1.603,-4.566 3.311,-4.966 0.903,-0.202 2.281,0.753 4.138,2.859 1.856,2.107 3.937,4.941 6.246,8.504 2.307,3.56 4.74,7.698 7.299,12.415 2.558,4.715 4.966,9.557 7.224,14.523 2.257,4.967 4.289,9.881 6.095,14.749 1.806,4.865 3.108,9.255 3.913,13.168 0.2,1.002 0.677,1.705 1.429,2.107 0.753,0.4 1.555,0.426 2.408,0.075 0.852,-0.352 1.604,-1.053 2.258,-2.107 0.651,-1.053 0.978,-2.535 0.978,-4.439 0,-0.504 -0.376,-2.107 -1.129,-4.816 -0.752,-2.709 -1.806,-6.071 -3.16,-10.083 -1.355,-4.014 -2.987,-8.454 -4.891,-13.319 -1.907,-4.868 -4.064,-9.759 -6.472,-14.674 -2.408,-4.917 -4.992,-9.631 -7.75,-14.146 -2.761,-4.515 -5.67,-8.404 -8.729,-11.663 -3.062,-3.262 -6.222,-5.644 -9.481,-7.149 -3.262,-1.505 -6.598,-1.754 -10.008,-0.753 -4.416,1.305 -7.652,3.887 -9.707,7.751 -2.058,3.861 -3.386,8.301 -3.988,13.319 -0.602,5.015 -0.602,10.309 0,15.877 0.602,5.569 1.378,10.709 2.332,15.426 0.953,4.715 1.882,8.729 2.785,12.04 0.903,3.31 1.453,5.215 1.655,5.718 0.602,1.404 0.55,2.507 -0.15,3.312 -0.703,0.801 -1.606,0.952 -2.709,0.451 -1.004,-0.602 -2.46,-1.129 -4.365,-1.58 -1.907,-0.452 -3.913,-0.301 -6.02,0.451 -2.106,0.753 -4.089,2.307 -5.944,4.666 -1.858,2.356 -3.236,6.095 -4.139,11.211 -0.301,1.505 -0.428,3.485 -0.376,5.945 0.049,2.457 0.35,4.839 0.903,7.149 0.55,2.306 1.354,4.289 2.408,5.944 C -3.236,-0.978 -1.806,-0.101 0,0"
       style="fill:#782a1c;fill-opacity:1;fill-rule:nonzero;stroke:none"
       transform="matrix(1.3333333,0,0,-1.3333333,839.83293,334.19787)"
       clip-path="url(#clipPath94)" />
    <path
       id="path95"
       d="m 0,0 c -3.612,-0.503 -6.749,-2.333 -9.406,-5.493 -2.66,-3.161 -4.917,-6.873 -6.772,-11.137 -1.858,-4.266 -3.311,-8.705 -4.365,-13.319 -1.053,-4.616 -1.782,-8.728 -2.182,-12.34 2.307,0.802 4.967,2.081 7.976,3.837 3.01,1.755 5.945,3.937 8.804,6.547 2.86,2.608 5.442,5.592 7.751,8.954 2.307,3.361 3.962,6.999 4.966,10.911 0.301,1.204 0.4,2.559 0.301,4.064 C 6.972,-6.471 6.645,-5.117 6.095,-3.913 5.542,-2.709 4.764,-1.731 3.762,-0.978 2.758,-0.226 1.505,0.099 0,0 M -3.461,10.986 C -1.256,11.085 0.701,10.859 2.408,10.309 4.113,9.756 5.618,9.004 6.923,8.052 8.226,7.097 9.279,6.02 10.083,4.816 10.885,3.612 11.536,2.507 12.04,1.505 c 1.302,-3.212 2.055,-5.921 2.257,-8.127 0.2,-2.208 0.2,-4.315 0,-6.321 -0.503,-4.815 -1.707,-9.131 -3.612,-12.942 -1.907,-3.814 -4.115,-7.201 -6.622,-10.159 -2.509,-2.96 -5.218,-5.443 -8.126,-7.449 -2.912,-2.009 -5.644,-3.687 -8.202,-5.042 -2.559,-1.354 -4.793,-2.333 -6.697,-2.935 -1.908,-0.602 -3.161,-0.902 -3.763,-0.902 0.2,-2.611 0.527,-5.042 0.978,-7.3 0.452,-2.257 1.077,-4.19 1.882,-5.794 0.801,-1.606 1.78,-2.859 2.934,-3.762 1.152,-0.903 2.582,-1.305 4.289,-1.204 4.614,0.301 8.854,1.731 12.717,4.289 3.861,2.559 7.374,5.818 10.535,9.782 3.16,3.963 5.994,8.402 8.503,13.319 2.507,4.915 4.79,9.782 6.847,14.598 2.056,4.816 1.507,-0.539 3.113,3.776 1.604,4.312 2.266,4.75 3.571,7.661 0.399,0.903 0.952,1.404 1.655,1.505 0.701,0.099 1.378,-0.101 2.032,-0.602 0.651,-0.503 1.178,-1.229 1.58,-2.182 0.4,-0.955 0.452,-2.032 0.151,-3.236 -0.402,-1.406 -0.437,-1.115 -1.69,-5.479 -1.256,-4.364 -0.58,0.514 -2.736,-5.205 -2.159,-5.719 -4.767,-11.689 -7.826,-17.909 -3.062,-6.222 -6.622,-11.941 -10.685,-17.157 -4.064,-5.218 -8.654,-9.481 -13.771,-12.792 -5.116,-3.311 -10.736,-4.865 -16.855,-4.665 -3.612,0.101 -6.798,0.879 -9.557,2.332 -2.76,1.456 -5.116,3.41 -7.073,5.87 -1.956,2.457 -3.586,5.392 -4.891,8.804 -1.303,3.41 -2.257,7.123 -2.859,11.137 -0.602,3.811 -0.776,8.126 -0.527,12.942 0.251,4.816 0.903,9.681 1.956,14.598 1.054,4.915 2.559,9.731 4.515,14.448 1.957,4.715 4.365,8.928 7.224,12.642 2.859,3.71 6.22,6.746 10.083,9.105 3.861,2.356 8.252,3.635 13.169,3.837"
       style="fill:#782a1c;fill-opacity:1;fill-rule:nonzero;stroke:none"
       transform="matrix(1.3333333,0,0,-1.3333333,-171.51209,901.42706)"
       clip-path="url(#clipPath96)" />
    <path
       id="path97"
       d="m 0,0 c 1.303,0.099 2.859,0.802 4.665,2.107 1.806,1.303 3.612,3.059 5.418,5.267 1.806,2.206 3.485,4.79 5.042,7.751 1.554,2.958 2.784,6.194 3.687,9.707 0.501,4.214 1.077,8.376 1.731,12.491 0.651,4.113 1.378,8.075 2.182,11.889 0,3.109 -0.327,5.568 -0.978,7.374 -0.654,1.806 -1.43,3.161 -2.333,4.064 -0.903,0.903 -1.806,1.505 -2.709,1.806 -0.903,0.301 -1.606,0.451 -2.107,0.451 -1.406,0.099 -2.911,-0.703 -4.515,-2.408 C 8.477,58.792 6.848,56.459 5.192,53.501 3.537,50.541 1.956,47.154 0.451,43.343 -1.053,39.529 -2.384,35.616 -3.537,31.604 -4.691,27.59 -5.568,23.677 -6.17,19.865 -6.772,16.051 -6.998,12.642 -6.848,9.632 -6.697,6.622 -6.095,4.237 -5.042,2.483 -3.988,0.727 -2.309,-0.101 0,0 m 38.828,83.224 c 1.404,0 2.582,-0.376 3.537,-1.129 0.952,-0.752 1.73,-1.655 2.332,-2.709 0.602,-1.053 1.054,-2.132 1.355,-3.235 0.301,-1.105 0.451,-2.008 0.451,-2.709 0,-2.008 -0.277,-4.541 -0.827,-7.6 C 45.123,62.78 44.42,59.394 43.569,55.684 42.715,51.97 41.763,48.057 40.709,43.945 39.656,39.83 38.701,35.743 37.85,31.679 36.996,27.616 36.244,23.703 35.592,19.941 c -0.653,-3.763 -1.03,-7.1 -1.128,-10.008 -0.102,-4.616 1.102,-5.319 3.611,-2.107 2.206,2.408 4.489,5.568 6.848,9.481 2.356,3.913 4.639,8.127 6.848,12.642 2.205,4.515 4.312,9.053 6.32,13.62 2.006,4.564 3.763,8.702 5.268,12.416 1.505,3.71 2.732,6.795 3.687,9.255 0.952,2.457 1.528,3.837 1.731,4.139 0.301,0.301 0.726,0.451 1.279,0.451 0.55,0 1.103,-0.176 1.655,-0.527 0.55,-0.353 1.002,-0.853 1.355,-1.505 0.35,-0.653 0.425,-1.43 0.225,-2.332 C 73.19,64.763 72.739,63.081 71.937,60.424 71.133,57.764 70.03,54.428 68.626,50.416 67.22,46.402 65.541,41.962 63.585,37.097 61.628,32.229 59.469,27.263 57.113,22.198 54.755,17.131 52.196,12.214 49.438,7.449 46.677,2.683 43.844,-1.606 40.935,-5.418 c -0.503,-0.503 -1.279,-1.305 -2.333,-2.408 -1.053,-1.105 -2.283,-2.158 -3.687,-3.16 -1.406,-1.004 -2.961,-1.806 -4.665,-2.408 -1.708,-0.602 -3.462,-0.753 -5.268,-0.452 -2.911,0.602 -4.917,2.86 -6.02,6.773 C 17.857,-3.161 17.356,1.705 17.458,7.525 16.254,5.117 14.622,2.683 12.566,0.226 10.509,-2.234 8.352,-4.44 6.095,-6.396 3.838,-8.353 1.58,-9.984 -0.677,-11.287 c -2.258,-1.305 -4.24,-2.006 -5.945,-2.107 -2.709,-0.099 -5.117,0.428 -7.224,1.58 -2.107,1.152 -3.913,2.709 -5.418,4.665 -1.504,1.957 -2.732,4.139 -3.687,6.547 -0.952,2.408 -1.58,4.816 -1.881,7.224 -0.501,3.409 -0.726,7.299 -0.677,11.663 0.052,4.365 0.451,8.88 1.204,13.545 0.752,4.665 1.881,9.305 3.386,13.921 1.505,4.613 3.438,8.902 5.794,12.867 2.356,3.962 5.166,7.374 8.428,10.234 3.259,2.859 7.047,4.891 11.362,6.095 5.317,1.404 9.757,0.877 13.319,-1.58 3.56,-2.46 6.194,-5.745 7.901,-9.858 1.103,4.816 1.957,8.226 2.559,10.234 0.802,2.909 1.73,5.041 2.784,6.396 1.053,1.354 2.081,2.258 3.085,2.709 1.002,0.451 1.931,0.625 2.784,0.527 0.851,-0.101 1.43,-0.151 1.731,-0.151"
       style="fill:#782a1c;fill-opacity:1;fill-rule:nonzero;stroke:none"
       transform="matrix(1.3333333,0,0,-1.3333333,-37.472496,991.12252)"
       clip-path="url(#clipPath98)" />
    <path
       id="path99"
       d="M 0,0 C -0.503,1.253 -1.129,2.156 -1.881,2.709 -2.634,3.259 -3.438,3.36 -4.289,3.01 -5.143,2.657 -5.82,1.731 -6.321,0.226 -6.523,-0.278 -7.2,-2.535 -8.353,-6.547 c -1.154,-4.013 -2.708,-8.855 -4.665,-14.522 -1.956,-5.67 -4.24,-11.739 -6.848,-18.21 -2.61,-6.472 -5.394,-12.393 -8.352,-17.759 -2.96,-5.368 -6.072,-9.733 -9.331,-13.093 -3.261,-3.36 -6.497,-4.84 -9.707,-4.44 -2.309,0.301 -4.265,1.806 -5.869,4.515 -1.606,2.709 -2.885,6.295 -3.838,10.761 -0.954,4.463 -1.632,9.681 -2.031,15.651 -0.402,5.968 -0.504,12.364 -0.301,19.188 4.714,1.404 8.48,5.174 13.544,8.579 6.496,4.368 8.277,9.556 11.889,15.726 3.612,6.171 6.822,12.943 9.632,20.317 2.808,7.375 5.091,14.848 6.848,22.424 1.754,7.574 2.883,14.949 3.386,22.123 0.501,7.172 0.301,13.568 -0.602,19.188 -0.402,2.608 -1.03,5.117 -1.881,7.525 -0.854,2.408 -1.908,4.539 -3.161,6.396 -1.255,1.856 -2.709,3.36 -4.364,4.515 -1.656,1.153 -3.537,1.78 -5.644,1.881 -5.319,0.4 -10.158,-1.029 -14.523,-4.289 -4.364,-3.261 -8.303,-7.826 -11.813,-13.695 -3.514,-5.869 -6.599,-12.769 -9.256,-20.693 -2.66,-7.927 -4.868,-16.355 -6.622,-25.283 -1.756,-8.931 -3.137,-18.06 -4.139,-27.39 -0.142,-1.332 -0.275,-2.655 -0.402,-3.974 0.717,1.107 1.435,2.212 2.141,3.331 0.892,1.415 2.256,3.144 2.976,4.538 0.043,0.085 0.043,0.203 0.086,0.293 0.92,1.16 1.867,2.42 2.718,3.659 0.837,1.217 1.678,2.489 2.502,3.722 0.504,0.754 1.467,1.791 1.725,2.677 0.456,0.276 0.742,0.823 1.079,1.275 1.017,1.362 1.91,2.854 2.891,4.245 1.865,2.643 3.797,5.188 5.609,7.904 1.737,2.603 3.255,5.091 4.872,7.8 0.858,1.438 1.86,2.821 2.674,4.309 1.411,2.58 2.993,5.581 4.091,8.348 0.108,0.272 0.165,0.594 0.258,0.879 0.241,0.011 0.291,0.287 0.388,0.523 0.309,0.753 0.612,1.517 0.903,2.281 0.624,1.636 1.141,3.246 1.675,4.918 0.339,1.061 0.631,2.154 0.944,3.224 0.029,0.098 0.058,0.195 0.086,0.293 0.084,0.293 0.176,0.585 0.257,0.879 0.445,1.594 0.711,2.919 1.071,4.46 0.068,0.295 0.192,0.584 0.257,0.879 0.022,0.099 0.065,0.194 0.086,0.293 0.314,1.469 0.546,2.82 0.767,4.23 0.363,2.308 0.622,4.143 0.718,6.472 l 0.086,0.293 0.217,-0.063 c 0.751,-3.024 2.086,-5.781 2.841,-8.787 0.236,-0.938 0.071,-2.358 0.745,-3.082 -0.229,-1.122 0.087,-1.043 0.091,-1.299 0.025,-1.945 0.189,-3.834 0.19,-5.783 0,-0.984 0.051,-2.244 0.009,-3.185 -0.019,-0.42 -0.176,-1.016 -0.212,-1.528 -0.08,-1.141 -0.028,-2.778 -0.163,-3.771 -0.025,-0.186 -0.141,-0.397 -0.171,-0.586 -0.223,-1.414 -0.724,-3.053 -1.071,-4.46 -0.169,-0.687 -0.435,-1.364 -0.6,-2.051 -0.024,-0.099 -0.065,-0.195 -0.086,-0.293 -0.129,-0.608 -0.214,-0.562 -0.126,-1.236 l -0.086,-0.293 c -0.042,-0.194 -0.139,-0.395 -0.172,-0.586 -0.656,-3.799 1.39,-7.345 2.715,-10.022 0.052,-0.105 0.074,-0.248 0.131,-0.357 0.773,-1.473 1.49,-2.244 2.263,-3.526 0.265,-0.439 1.069,-1.858 1.22,-2.266 0.526,-1.432 0.367,-3.456 -0.506,-4.943 -0.492,-0.271 -1.164,-1.406 -1.728,-1.879 -0.381,-0.32 -1.277,-0.888 -1.772,-1.233 -0.116,-0.081 -0.339,-0.008 -0.822,-0.396 -1.631,-1.309 -1.752,-4.232 -1.574,-6.323 0.105,-1.24 0.685,-1.95 0.82,-2.683 0.219,-1.183 -0.796,-3.414 -1.503,-4.333 -0.788,-1.024 -2.567,-0.721 -2.205,-1.609 0.463,-1.134 0.688,-1.095 0.701,-2.724 0.01,-1.315 0.131,-2.198 -0.841,-3.248 -0.285,-0.309 -0.745,-0.385 -1.011,-0.664 -0.158,-0.166 -0.285,-0.279 -0.388,-0.523 -1.23,-0.5 -2.049,-2.317 -2.285,-3.786 -0.108,-0.669 0.213,-2.08 0.181,-2.598 -0.028,-0.438 -0.119,-1.9 -0.167,-2.178 -0.033,-0.191 -0.13,-0.392 -0.172,-0.587 -0.021,-0.098 -0.061,-0.194 -0.086,-0.293 -0.278,-1.084 -0.553,-1.892 -1.074,-2.867 -0.112,-0.209 -0.364,-0.665 -0.474,-0.816 -0.943,-1.287 -3.02,-2.454 -4.282,-2.564 -0.308,-0.027 -0.204,-0.12 -1.17,0.024 -0.668,0.099 -1.313,0.35 -1.951,0.571 -1.228,0.426 -2.528,0.752 -3.685,1.079 -0.073,0.02 -0.144,0.043 -0.217,0.063 l -0.217,0.064 c -0.073,0.019 -0.144,0.045 -0.217,0.063 l -0.216,0.064 c -0.073,0.018 -0.144,0.045 -0.217,0.063 l -0.217,0.064 c -0.51,0.121 -1.003,0.342 -1.517,0.444 -1.112,0.221 -2.21,0.505 -3.338,0.659 -1.235,0.168 -2.477,0.107 -3.726,0.136 -1.123,0.026 -2.145,0.124 -3.292,0.009 -2.77,-0.276 -4.992,-0.964 -7.705,-2.199 -1.266,-0.576 -1.964,-0.965 -2.967,-1.628 -0.065,-1.641 -0.121,-3.275 -0.158,-4.896 -0.2,-8.729 0,-16.855 0.602,-24.38 0.602,-7.525 1.554,-13.947 2.859,-19.264 1.604,-6.622 3.586,-11.84 5.945,-15.651 2.356,-3.812 4.689,-6.672 6.998,-8.578 2.306,-1.905 4.463,-3.109 6.471,-3.612 2.006,-0.501 3.511,-0.802 4.515,-0.903 3.511,-0.301 6.923,0.602 10.234,2.709 3.31,2.107 6.471,4.966 9.481,8.578 3.01,3.612 5.869,7.8 8.578,12.566 2.709,4.764 5.192,9.681 7.45,14.749 2.257,5.065 4.312,10.083 6.17,15.049 1.855,4.967 3.435,9.482 4.741,13.545 1.302,4.063 2.306,7.424 3.009,10.083 0.701,2.657 1.103,4.238 1.204,4.741 C 0.651,-2.784 0.501,-1.256 0,0"
       style="fill:#782a1c;fill-opacity:1;fill-rule:nonzero;stroke:none"
       transform="matrix(1.3333333,0,0,-1.3333333,-36.869436,911.96172)"
       clip-path="url(#clipPath100)" />
    <path
       id="path101"
       d="m 0,0 c -3.612,-0.503 -6.749,-2.333 -9.406,-5.493 -2.66,-3.161 -4.917,-6.873 -6.772,-11.137 -1.858,-4.266 -3.311,-8.705 -4.365,-13.319 -1.053,-4.616 -1.782,-8.728 -2.182,-12.34 2.307,0.802 4.967,2.081 7.976,3.837 3.01,1.755 5.945,3.937 8.804,6.547 2.86,2.608 5.442,5.592 7.751,8.954 2.307,3.361 3.962,6.999 4.966,10.911 0.301,1.204 0.4,2.559 0.301,4.064 C 6.972,-6.471 6.645,-5.117 6.095,-3.913 5.542,-2.709 4.764,-1.731 3.762,-0.978 2.758,-0.226 1.505,0.099 0,0 M -3.461,10.986 C -1.256,11.085 0.701,10.859 2.408,10.309 4.113,9.756 5.618,9.004 6.923,8.052 8.226,7.097 9.279,6.02 10.083,4.816 10.885,3.612 11.536,2.507 12.04,1.505 c 1.302,-3.212 2.055,-5.921 2.257,-8.127 0.2,-2.208 0.2,-4.315 0,-6.321 -0.503,-4.815 -1.707,-9.131 -3.612,-12.942 -1.907,-3.814 -4.115,-7.201 -6.622,-10.159 -2.509,-2.96 -5.218,-5.443 -8.126,-7.449 -2.912,-2.009 -5.644,-3.687 -8.202,-5.042 -2.559,-1.354 -4.793,-2.333 -6.697,-2.935 -1.908,-0.602 -3.161,-0.902 -3.763,-0.902 0.2,-2.611 0.527,-5.042 0.978,-7.3 0.452,-2.257 1.077,-4.19 1.882,-5.794 0.801,-1.606 1.78,-2.859 2.934,-3.762 1.152,-0.903 2.582,-1.305 4.289,-1.204 4.614,0.301 8.854,1.731 12.717,4.289 3.861,2.559 7.374,5.818 10.535,9.782 3.16,3.963 5.994,8.402 8.503,13.319 2.507,4.915 4.79,9.782 6.847,14.598 2.056,4.816 1.507,-0.539 3.113,3.776 1.604,4.312 2.266,4.75 3.571,7.661 0.399,0.903 0.952,1.404 1.655,1.505 0.701,0.099 1.378,-0.101 2.032,-0.602 0.651,-0.503 1.178,-1.229 1.58,-2.182 0.4,-0.955 0.452,-2.032 0.151,-3.236 -0.402,-1.406 -0.437,-1.115 -1.69,-5.479 -1.256,-4.364 -0.58,0.514 -2.736,-5.205 -2.159,-5.719 -4.767,-11.689 -7.826,-17.909 -3.062,-6.222 -6.622,-11.941 -10.685,-17.157 -4.064,-5.218 -8.654,-9.481 -13.771,-12.792 -5.116,-3.311 -10.736,-4.865 -16.855,-4.665 -3.612,0.101 -6.798,0.879 -9.557,2.332 -2.76,1.456 -5.116,3.41 -7.073,5.87 -1.956,2.457 -3.586,5.392 -4.891,8.804 -1.303,3.41 -2.257,7.123 -2.859,11.137 -0.602,3.811 -0.776,8.126 -0.527,12.942 0.251,4.816 0.903,9.681 1.956,14.598 1.054,4.915 2.559,9.731 4.515,14.448 1.957,4.715 4.365,8.928 7.224,12.642 2.859,3.71 6.22,6.746 10.083,9.105 3.861,2.356 8.252,3.635 13.169,3.837"
       style="fill:#de7b5f;fill-opacity:1;fill-rule:nonzero;stroke:none"
       transform="matrix(1.3333333,0,0,-1.3333333,-166.22169,904.07226)"
       clip-path="url(#clipPath102)" />
    <path
       id="path103"
       d="m 0,0 c 1.303,0.099 2.859,0.802 4.665,2.107 1.806,1.303 3.612,3.059 5.418,5.267 1.806,2.206 3.485,4.79 5.042,7.751 1.554,2.958 2.784,6.194 3.687,9.707 0.501,4.214 1.077,8.376 1.731,12.491 0.651,4.113 1.378,8.075 2.182,11.889 0,3.109 -0.327,5.568 -0.978,7.374 -0.654,1.806 -1.43,3.161 -2.333,4.064 -0.903,0.903 -1.806,1.505 -2.709,1.806 -0.903,0.301 -1.606,0.451 -2.107,0.451 -1.406,0.099 -2.911,-0.703 -4.515,-2.408 C 8.477,58.792 6.848,56.459 5.192,53.501 3.537,50.541 1.956,47.154 0.451,43.343 -1.053,39.529 -2.384,35.616 -3.537,31.604 -4.691,27.59 -5.568,23.677 -6.17,19.865 -6.772,16.051 -6.998,12.642 -6.848,9.632 -6.697,6.622 -6.095,4.237 -5.042,2.483 -3.988,0.727 -2.309,-0.101 0,0 m 38.828,83.224 c 1.404,0 2.582,-0.376 3.537,-1.129 0.952,-0.752 1.73,-1.655 2.332,-2.709 0.602,-1.053 1.054,-2.132 1.355,-3.235 0.301,-1.105 0.451,-2.008 0.451,-2.709 0,-2.008 -0.277,-4.541 -0.827,-7.6 C 45.123,62.78 44.42,59.394 43.569,55.684 42.715,51.97 41.763,48.057 40.709,43.945 39.656,39.83 38.701,35.743 37.85,31.679 36.996,27.616 36.244,23.703 35.592,19.941 c -0.653,-3.763 -1.03,-7.1 -1.128,-10.008 -0.102,-4.616 1.102,-5.319 3.611,-2.107 2.206,2.408 4.489,5.568 6.848,9.481 2.356,3.913 4.639,8.127 6.848,12.642 2.205,4.515 4.312,9.053 6.32,13.62 2.006,4.564 3.763,8.702 5.268,12.416 1.505,3.71 2.732,6.795 3.687,9.255 0.952,2.457 1.528,3.837 1.731,4.139 0.301,0.301 0.726,0.451 1.279,0.451 0.55,0 1.103,-0.176 1.655,-0.527 0.55,-0.353 1.002,-0.853 1.355,-1.505 0.35,-0.653 0.425,-1.43 0.225,-2.332 C 73.19,64.763 72.739,63.081 71.937,60.424 71.133,57.764 70.03,54.428 68.626,50.416 67.22,46.402 65.541,41.962 63.585,37.097 61.628,32.229 59.469,27.263 57.113,22.198 54.755,17.131 52.196,12.214 49.438,7.449 46.677,2.683 43.844,-1.606 40.935,-5.418 c -0.503,-0.503 -1.279,-1.305 -2.333,-2.408 -1.053,-1.105 -2.283,-2.158 -3.687,-3.16 -1.406,-1.004 -2.961,-1.806 -4.665,-2.408 -1.708,-0.602 -3.462,-0.753 -5.268,-0.452 -2.911,0.602 -4.917,2.86 -6.02,6.773 C 17.857,-3.161 17.356,1.705 17.458,7.525 16.254,5.117 14.622,2.683 12.566,0.226 10.509,-2.234 8.352,-4.44 6.095,-6.396 3.838,-8.353 1.58,-9.984 -0.677,-11.287 c -2.258,-1.305 -4.24,-2.006 -5.945,-2.107 -2.709,-0.099 -5.117,0.428 -7.224,1.58 -2.107,1.152 -3.913,2.709 -5.418,4.665 -1.504,1.957 -2.732,4.139 -3.687,6.547 -0.952,2.408 -1.58,4.816 -1.881,7.224 -0.501,3.409 -0.726,7.299 -0.677,11.663 0.052,4.365 0.451,8.88 1.204,13.545 0.752,4.665 1.881,9.305 3.386,13.921 1.505,4.613 3.438,8.902 5.794,12.867 2.356,3.962 5.166,7.374 8.428,10.234 3.259,2.859 7.047,4.891 11.362,6.095 5.317,1.404 9.757,0.877 13.319,-1.58 3.56,-2.46 6.194,-5.745 7.901,-9.858 1.103,4.816 1.957,8.226 2.559,10.234 0.802,2.909 1.73,5.041 2.784,6.396 1.053,1.354 2.081,2.258 3.085,2.709 1.002,0.451 1.931,0.625 2.784,0.527 0.851,-0.101 1.43,-0.151 1.731,-0.151"
       style="fill:#de7b5f;fill-opacity:1;fill-rule:nonzero;stroke:none"
       transform="matrix(1.3333333,0,0,-1.3333333,-32.182096,993.76772)"
       clip-path="url(#clipPath104)" />
    <path
       id="path105"
       d="m 0,0 c 0.903,0.099 1.829,0.903 2.784,2.408 0.953,1.505 1.881,3.461 2.784,5.869 0.903,2.408 1.78,5.216 2.634,8.428 0.851,3.21 1.63,6.57 2.333,10.083 C 5.818,23.075 1.98,19.339 -0.978,15.577 -3.939,11.814 -5.169,8.075 -4.665,4.364 -4.364,2.458 -3.913,1.152 -3.311,0.452 -2.709,-0.252 -1.606,-0.402 0,0 m 13.244,83.676 c 3.51,-0.703 6.52,-2.585 9.029,-5.644 2.507,-3.061 4.565,-7.6 6.171,-13.62 0.301,-1.305 0.576,-2.96 0.827,-4.966 0.25,-2.008 0.426,-4.266 0.527,-6.772 6.119,3.71 11.664,7.198 16.63,10.459 4.966,3.259 8.352,6.596 10.158,10.008 0.301,0.501 0.852,0.701 1.656,0.602 0.802,-0.101 1.58,-0.503 2.333,-1.204 0.752,-0.703 1.279,-1.681 1.58,-2.935 0.301,-1.255 0.099,-2.784 -0.602,-4.59 C 60.85,63.209 59.469,61.327 57.414,59.371 55.357,57.414 52.899,55.382 50.04,53.276 47.18,51.169 43.994,49.01 40.483,46.804 36.97,44.596 33.41,42.339 29.798,40.032 29.497,34.412 28.82,28.618 27.766,22.65 26.713,16.679 25.081,11.212 22.875,6.246 20.667,1.279 17.782,-2.859 14.222,-6.17 10.659,-9.481 6.269,-11.186 1.053,-11.287 c -2.309,0 -4.265,0.553 -5.869,1.655 -1.606,1.105 -2.911,2.484 -3.913,4.139 -1.004,1.655 -1.756,3.36 -2.257,5.117 -0.503,1.754 -0.753,3.236 -0.753,4.439 -0.101,3.913 0.501,7.601 1.806,11.062 1.303,3.461 3.06,6.746 5.268,9.857 2.205,3.109 4.816,6.02 7.825,8.729 3.01,2.709 6.171,5.267 9.482,7.675 0.399,4.113 0.651,8.101 0.752,11.965 0.099,3.861 -0.052,7.247 -0.451,10.158 -0.402,2.909 -1.08,5.242 -2.032,6.998 C 9.956,72.262 8.677,73.141 7.073,73.141 5.568,73.04 3.838,71.862 1.881,69.604 -0.075,67.347 -2.058,64.612 -4.063,61.402 -6.072,58.19 -8.028,54.755 -9.933,51.093 -11.84,47.43 -13.495,44.194 -14.899,41.386 -16.907,29.445 -17.86,19.663 -17.758,12.04 c 0.098,-7.626 1.203,-12.341 3.31,-14.147 0.602,-0.602 0.828,-1.256 0.678,-1.956 -0.151,-0.703 -0.579,-1.378 -1.28,-2.032 -0.703,-0.651 -1.606,-1.204 -2.708,-1.655 -1.106,-0.452 -2.31,-0.678 -3.612,-0.678 -1.708,0 -3.563,1.004 -5.569,3.01 -2.006,2.006 -3.259,4.915 -3.762,8.729 -0.903,6.42 -1.178,13.643 -0.828,21.671 0.353,8.026 1.054,16.228 2.107,24.606 1.054,8.376 2.356,16.68 3.913,24.908 1.554,8.225 3.085,15.776 4.59,22.649 1.505,6.871 5.611,29.034 6.766,33.951 1.152,4.915 1.93,8.278 2.332,10.084 0.602,2.709 1.303,4.715 2.107,6.019 0.802,1.303 1.679,2.183 2.634,2.634 0.952,0.452 1.905,0.626 2.859,0.527 0.953,-0.101 1.882,-0.15 2.785,-0.15 1.603,0 3.085,-0.403 4.439,-1.204 1.355,-0.805 2.507,-1.757 3.462,-2.86 0.952,-1.105 1.655,-2.208 2.107,-3.311 0.451,-1.105 0.576,-2.008 0.376,-2.709 -3.513,-10.737 -9.376,-37.262 -12.033,-47.044 -2.66,-9.782 -4.992,-19.09 -6.998,-27.917 1.505,2.507 3.21,4.966 5.117,7.374 1.904,2.408 3.887,4.489 5.944,6.246 2.055,1.754 4.113,3.108 6.171,4.063 2.055,0.952 4.086,1.228 6.095,0.828"
       style="fill:#782a1c;fill-opacity:1;fill-rule:nonzero;stroke:none"
       transform="matrix(1.3333333,0,0,-1.3333333,491.0896,470.2464)"
       clip-path="url(#clipPath106)" />
    <path
       id="path107"
       d="M 0,0 C 0.094,0.046 0.187,0.093 0.281,0.139 0.165,0.107 0.064,0.058 -0.028,-0.001 -0.018,-0.001 -0.009,0 0,0"
       style="fill:#de7b5f;fill-opacity:1;fill-rule:nonzero;stroke:none"
       transform="matrix(1.3333333,0,0,-1.3333333,-97.238232,811.11666)"
       clip-path="url(#clipPath108)" />
    <path
       id="path109"
       d="M 0,0 C 0.143,0.185 0.288,0.365 0.435,0.543 -0.118,0.24 -0.673,-0.06 -1.23,-0.354 -0.819,-0.242 -0.408,-0.126 0,0"
       style="fill:#d3522f;fill-opacity:1;fill-rule:nonzero;stroke:none"
       transform="matrix(1.3333333,0,0,-1.3333333,-59.788762,811.55039)"
       clip-path="url(#clipPath110)" />
    <path
       id="path111"
       d="M 0,0 C 0.018,0.474 0.061,0.931 0.132,1.353 0.893,5.874 2.452,10.229 4.788,14.119 1.286,13.624 -1.984,12.244 -5.023,9.974 -5.76,9.424 -6.483,8.833 -7.195,8.209 -3.73,6.746 -1.464,3.43 0,0"
       style="fill:#de7b5f;fill-opacity:1;fill-rule:nonzero;stroke:none"
       transform="matrix(1.3333333,0,0,-1.3333333,-83.776362,794.66679)"
       clip-path="url(#clipPath112)" />
    <path
       id="path113"
       d="m 0,0 c -0.377,-2.815 -0.723,-5.647 -1.029,-8.499 -0.143,-1.332 -0.276,-2.655 -0.402,-3.974 0.716,1.107 1.434,2.212 2.14,3.331 0.892,1.415 2.257,3.144 2.976,4.538 0.044,0.085 0.043,0.202 0.086,0.293 0.92,1.16 1.867,2.42 2.718,3.659 C 7.326,0.565 8.168,1.837 8.991,3.07 9.001,3.085 9.013,3.101 9.023,3.116 6.11,2.106 3.196,1.097 0.282,0.087 0.187,0.054 0.093,0.026 0,0"
       style="fill:#de7b5f;fill-opacity:1;fill-rule:nonzero;stroke:none"
       transform="matrix(1.3333333,0,0,-1.3333333,-131.54156,886.11706)"
       clip-path="url(#clipPath114)" />
    <path
       id="path115"
       d="m 0,0 c -0.002,0.417 0.042,0.832 0.132,1.222 -0.071,0.024 -0.142,0.047 -0.213,0.073 -3.445,1.243 -6.727,3.039 -9.798,5.071 -0.209,0.045 -0.422,0.102 -0.642,0.178 -0.346,0.119 -0.665,0.272 -0.961,0.453 -0.324,-0.903 -0.643,-1.819 -0.955,-2.751 -0.637,-1.897 -1.246,-3.824 -1.83,-5.779 4.297,0.682 8.62,1.178 12.964,1.448 C -0.877,-0.059 -0.441,-0.027 0,0"
       style="fill:#de7b5f;fill-opacity:1;fill-rule:nonzero;stroke:none"
       transform="matrix(1.3333333,0,0,-1.3333333,-101.98343,832.87972)"
       clip-path="url(#clipPath116)" />
    <path
       id="path117"
       d="m 0,0 c 0.479,2.174 0.91,4.332 1.285,6.473 -3.9,-2.149 -7.8,-4.298 -11.7,-6.446 -0.857,-0.473 -1.657,-0.527 -2.383,-0.304 -0.013,-0.009 -0.025,-0.018 -0.037,-0.028 -0.48,-0.368 -0.945,-0.634 -1.394,-0.815 0.108,-0.202 0.214,-0.389 0.32,-0.568 3.249,1.68 6.803,2.816 10.568,3.324 C -1.938,1.825 -0.831,1.093 0,0"
       style="fill:#de7b5f;fill-opacity:1;fill-rule:nonzero;stroke:none"
       transform="matrix(1.3333333,0,0,-1.3333333,-54.261036,855.58799)"
       clip-path="url(#clipPath118)" />
    <path
       id="path119"
       d="M 0,0 C -0.503,1.253 -1.129,2.156 -1.881,2.709 -2.634,3.259 -3.438,3.36 -4.289,3.01 -5.143,2.657 -5.82,1.731 -6.321,0.226 -6.523,-0.278 -7.2,-2.535 -8.353,-6.547 c -1.154,-4.013 -2.708,-8.855 -4.665,-14.522 -1.956,-5.67 -4.24,-11.739 -6.848,-18.21 -2.61,-6.472 -5.394,-12.393 -8.352,-17.759 -2.96,-5.368 -6.072,-9.733 -9.331,-13.093 -3.261,-3.36 -6.497,-4.84 -9.707,-4.44 -2.309,0.301 -4.265,1.806 -5.869,4.515 -1.606,2.709 -2.885,6.295 -3.838,10.761 -0.954,4.463 -1.632,9.681 -2.031,15.651 -0.369,5.48 -0.482,11.325 -0.342,17.527 -3.097,-0.694 -6.28,-1.133 -9.522,-1.397 -3.002,-0.245 -5.964,-0.402 -8.925,-0.091 0.106,-3.797 0.296,-7.466 0.579,-10.997 0.602,-7.525 1.554,-13.947 2.859,-19.264 1.604,-6.622 3.586,-11.84 5.945,-15.651 2.356,-3.812 4.689,-6.672 6.998,-8.578 2.306,-1.905 4.463,-3.109 6.471,-3.612 2.006,-0.501 3.511,-0.802 4.515,-0.903 3.511,-0.301 6.923,0.602 10.234,2.709 3.31,2.107 6.471,4.966 9.481,8.578 3.01,3.612 5.869,7.8 8.578,12.566 2.709,4.764 5.192,9.681 7.45,14.749 2.257,5.065 4.312,10.083 6.17,15.049 1.855,4.967 3.435,9.482 4.741,13.545 1.302,4.063 2.306,7.424 3.009,10.083 0.701,2.657 1.103,4.238 1.204,4.741 C 0.651,-2.784 0.501,-1.256 0,0"
       style="fill:#de7b5f;fill-opacity:1;fill-rule:nonzero;stroke:none"
       transform="matrix(1.3333333,0,0,-1.3333333,-31.579966,914.60639)"
       clip-path="url(#clipPath120)" />
    <path
       id="path121"
       d="m 0,0 c -2.735,-1.055 -5.636,-1.583 -8.56,-1.53 -0.049,-0.666 -0.231,-1.253 -0.834,-1.905 -0.285,-0.308 -0.744,-0.384 -1.01,-0.664 -0.159,-0.166 -0.285,-0.278 -0.389,-0.522 -1.23,-0.5 -2.049,-2.318 -2.285,-3.786 -0.087,-0.542 0.104,-1.562 0.164,-2.209 2.443,-0.007 4.886,-0.104 7.324,-0.294 C -3.603,-7.458 -1.74,-3.822 0,0"
       style="fill:#3d1514;fill-opacity:1;fill-rule:nonzero;stroke:none"
       transform="matrix(1.3333333,0,0,-1.3333333,-68.705432,899.26159)"
       clip-path="url(#clipPath122)" />
    <path
       id="path123"
       d="M 0,0 C -0.009,0 -0.018,-0.001 -0.028,-0.001 0.064,0.058 0.165,0.107 0.281,0.139 0.187,0.093 0.094,0.046 0,0 m 12.248,5.321 c -1.631,1.746 -2.242,4.629 -2.152,7.016 -1.464,3.43 -3.729,6.746 -7.195,8.209 -3.508,-3.076 -6.723,-7.05 -9.642,-11.929 -3.1,-5.179 -5.866,-11.162 -8.3,-17.942 0.296,-0.181 0.615,-0.334 0.961,-0.454 0.22,-0.075 0.433,-0.133 0.642,-0.178 3.071,-2.031 6.354,-3.827 9.798,-5.07 0.071,-0.026 0.142,-0.049 0.213,-0.074 0.266,1.146 0.934,2.064 2.022,2.096 2.855,0.085 5.458,0.752 8.012,2.027 0.781,0.391 1.358,0.232 1.777,-0.216 0.362,1.048 0.702,2.097 1.045,3.173 0.339,1.061 0.631,2.154 0.944,3.224 0.028,0.098 0.057,0.195 0.086,0.293 0.084,0.293 0.175,0.585 0.257,0.879 0.444,1.594 0.71,2.919 1.07,4.46 0.069,0.294 0.193,0.584 0.257,0.879 0.022,0.099 0.065,0.194 0.086,0.293 0.002,0.009 0.004,0.017 0.006,0.026 -0.11,1.031 -0.081,2.172 0.113,3.288"
       style="fill:#fbcbbf;fill-opacity:1;fill-rule:nonzero;stroke:none"
       transform="matrix(1.3333333,0,0,-1.3333333,-97.238232,811.11666)"
       clip-path="url(#clipPath124)" />
    <path
       id="path125"
       d="m 0,0 c 3.241,0.264 6.425,0.703 9.522,1.397 0.012,0.553 0.024,1.104 0.04,1.662 4.715,1.404 9.23,4.263 13.545,8.578 4.312,4.313 8.277,9.556 11.889,15.727 0.144,0.247 0.284,0.5 0.427,0.749 -2.437,0.189 -4.88,0.287 -7.324,0.294 0.014,-0.153 0.024,-0.291 0.017,-0.39 -0.027,-0.438 -0.118,-1.9 -0.167,-2.178 -0.033,-0.19 -0.129,-0.392 -0.171,-0.586 -0.022,-0.099 -0.061,-0.195 -0.086,-0.293 -0.278,-1.085 -0.554,-1.893 -1.075,-2.868 -0.112,-0.209 -0.364,-0.665 -0.474,-0.815 -0.942,-1.287 -3.02,-2.455 -4.281,-2.565 -0.309,-0.027 -0.194,0.071 -1.17,0.024 -0.675,-0.032 -1.313,0.35 -1.951,0.571 -1.228,0.426 -2.529,0.752 -3.686,1.079 -0.072,0.021 -0.144,0.044 -0.216,0.064 l -0.217,0.063 c -0.073,0.019 -0.144,0.045 -0.217,0.063 l -0.217,0.064 c -0.073,0.018 -0.143,0.045 -0.217,0.063 l -0.216,0.064 c -0.511,0.121 -1.004,0.342 -1.518,0.444 -1.111,0.221 -2.21,0.505 -3.338,0.659 C 7.665,22.039 6.422,21.977 5.174,22.006 4.051,22.032 3.028,22.13 1.881,22.016 -0.889,21.74 -3.11,21.052 -5.824,19.817 -7.09,19.24 -7.787,18.851 -8.79,18.188 -8.855,16.547 -8.911,14.913 -8.949,13.292 -9.055,8.66 -9.045,4.202 -8.925,-0.091 -5.964,-0.401 -3.003,-0.245 0,0"
       style="fill:#d3522f;fill-opacity:1;fill-rule:nonzero;stroke:none"
       transform="matrix(1.3333333,0,0,-1.3333333,-123.39009,951.29212)"
       clip-path="url(#clipPath126)" />
    <path
       id="path127"
       d="m 0,0 c -0.717,0.411 -1.323,0.992 -1.823,1.682 -0.446,-1.98 -0.872,-3.982 -1.271,-6.014 -0.11,-0.559 -0.214,-1.121 -0.321,-1.682 1.514,0.524 3.028,1.047 4.542,1.573 C 0.442,-3.074 0.101,-1.456 0,0"
       style="fill:#d3522f;fill-opacity:1;fill-rule:nonzero;stroke:none"
       transform="matrix(1.3333333,0,0,-1.3333333,-123.27009,855.15426)"
       clip-path="url(#clipPath128)" />
    <path
       id="path129"
       d="m 0,0 c 2.808,7.374 5.091,14.847 6.847,22.424 0.13,0.56 0.249,1.116 0.372,1.673 C 6.388,25.191 5.281,25.923 3.878,25.733 0.113,25.226 -3.441,24.09 -6.69,22.41 c 0.635,-1.071 1.244,-1.791 1.892,-2.866 0.264,-0.438 1.069,-1.857 1.219,-2.266 0.527,-1.431 0.368,-3.456 -0.505,-4.943 C -4.577,12.065 -5.248,10.93 -5.812,10.456 -6.193,10.137 -7.09,9.568 -7.584,9.224 -7.7,9.143 -7.923,9.216 -8.406,8.828 -10.037,7.518 -10.158,4.596 -9.98,2.504 c 0.105,-1.239 0.684,-1.949 0.82,-2.683 0.219,-1.182 -0.796,-3.413 -1.504,-4.332 -0.787,-1.024 -2.566,-0.721 -2.204,-1.61 0.463,-1.133 0.688,-1.094 0.701,-2.723 0.004,-0.5 0.023,-0.937 -0.007,-1.344 2.924,-0.053 5.825,0.475 8.56,1.53 C -2.345,-5.869 -1.138,-2.986 0,0"
       style="fill:#fbcbbf;fill-opacity:1;fill-rule:nonzero;stroke:none"
       transform="matrix(1.3333333,0,0,-1.3333333,-63.886362,887.71786)"
       clip-path="url(#clipPath130)" />
    <path
       id="path131"
       d="M 0,0 C -0.116,0.152 -0.217,0.319 -0.305,0.497 -0.753,0.456 -1.203,0.426 -1.655,0.412 -3.18,0.367 -3.966,2.096 -3.975,3.81 -4.416,3.784 -4.852,3.751 -5.277,3.725 -9.621,3.455 -13.944,2.959 -18.242,2.278 c -0.775,-2.59 -1.501,-5.235 -2.184,-7.925 1.794,0.102 3.587,0.272 5.377,0.526 3.742,0.532 5.242,-5.196 5.381,-7.773 0.178,-3.295 -1.35,-7.511 -4.993,-8.027 -3.057,-0.434 -6.121,-0.639 -9.187,-0.631 -0.873,-4.799 -1.637,-9.654 -2.295,-14.566 0.093,0.027 0.187,0.054 0.282,0.087 2.914,1.01 5.827,2.019 8.741,3.029 0.511,0.75 1.44,1.762 1.693,2.631 0.456,0.276 0.742,0.823 1.079,1.275 1.017,1.362 1.91,2.854 2.891,4.245 1.865,2.643 3.797,5.188 5.609,7.904 1.737,2.604 3.255,5.091 4.872,7.801 0.858,1.437 1.86,2.82 2.674,4.308 0.526,0.962 1.074,1.986 1.613,3.031 C 2.037,-1.786 0.857,-1.127 0,0"
       style="fill:#3d1514;fill-opacity:1;fill-rule:nonzero;stroke:none"
       transform="matrix(1.3333333,0,0,-1.3333333,-96.683962,837.95986)"
       clip-path="url(#clipPath132)" />
    <path
       id="path133"
       d="m 0,0 c -0.139,2.576 -1.639,8.304 -5.381,7.773 -1.79,-0.254 -3.583,-0.424 -5.377,-0.527 -0.466,-1.833 -0.913,-3.687 -1.337,-5.567 0.501,-0.689 1.106,-1.27 1.823,-1.681 0.101,-1.456 0.442,-3.074 1.127,-4.441 -1.513,-0.526 -3.028,-1.049 -4.542,-1.573 -0.168,-0.879 -0.333,-1.76 -0.493,-2.643 3.066,-0.007 6.13,0.197 9.187,0.631 C -1.35,-7.511 0.178,-3.295 0,0"
       style="fill:#d3522f;fill-opacity:1;fill-rule:nonzero;stroke:none"
       transform="matrix(1.3333333,0,0,-1.3333333,-109.57463,855.15132)"
       clip-path="url(#clipPath134)" />
    <path
       id="path135"
       d="m 0,0 c 0.727,-0.223 1.448,0.968 2.306,1.441 3.899,2.148 7.799,4.297 11.699,6.445 0.83,4.74 1.409,9.4 1.73,13.977 0.434,6.223 0.34,11.86 -0.282,16.915 C 13.341,37.45 11.194,36.184 9.009,34.985 8.863,34.807 8.717,34.627 8.575,34.442 8.167,34.316 7.756,34.2 7.344,34.088 4.73,32.707 2.067,31.414 -0.661,30.235 c -0.377,-0.164 -0.74,-0.26 -1.089,-0.304 0.011,-0.391 0.022,-0.782 0.022,-1.176 0,-0.984 0.051,-2.244 0.009,-3.185 -0.019,-0.42 -0.176,-1.016 -0.212,-1.528 -0.08,-1.141 -0.028,-2.778 -0.163,-3.771 -0.025,-0.186 -0.141,-0.397 -0.171,-0.586 -0.223,-1.414 -0.724,-3.054 -1.07,-4.46 -0.17,-0.687 -0.436,-1.364 -0.601,-2.051 -0.024,-0.099 -0.065,-0.195 -0.086,-0.293 -0.129,-0.608 -0.214,-0.563 -0.126,-1.236 L -4.234,11.352 C -4.276,11.157 -4.373,10.957 -4.406,10.766 -5.062,6.967 -3.016,3.421 -1.691,0.743 -1.639,0.639 -1.617,0.496 -1.56,0.387 -1.542,0.354 -1.526,0.326 -1.508,0.294 -1.19,-0.397 -1.273,-0.765 -0.794,-0.397 -0.781,-0.387 -0.012,-0.009 0,0"
       style="fill:#d3522f;fill-opacity:1;fill-rule:nonzero;stroke:none"
       transform="matrix(1.3333333,0,0,-1.3333333,-71.221432,857.47292)"
       clip-path="url(#clipPath136)" />
    <path
       id="path137"
       d="m 0,0 c -0.003,0.256 -0.319,0.177 -0.09,1.299 -0.674,0.724 -0.51,2.144 -0.746,3.082 -0.755,3.006 -2.09,5.763 -2.841,8.787 l -0.217,0.063 -0.085,-0.293 C -4.076,10.609 -4.335,8.774 -4.697,6.466 -4.77,6.001 -4.846,5.543 -4.923,5.085 c 0.849,-2.829 1.591,-5.692 2.221,-8.57 0.011,-0.05 0.018,-0.105 0.028,-0.156 0.575,-0.506 1.233,-0.858 1.969,-0.962 0.279,0.224 0.564,0.434 0.854,0.633 C 0.098,-2.648 0.017,-1.337 0,0"
       style="fill:#3d1514;fill-opacity:1;fill-rule:nonzero;stroke:none"
       transform="matrix(1.3333333,0,0,-1.3333333,-73.779292,811.42239)"
       clip-path="url(#clipPath138)" />
    <path
       id="path139"
       d="m 0,0 c 0.201,-0.471 0.39,-0.945 0.563,-1.416 0.73,-1.998 1.398,-4.023 2.011,-6.066 0.078,0.458 0.154,0.917 0.227,1.381 0.362,2.308 0.621,4.143 0.717,6.472 L 3.604,0.664 3.821,0.601 c 0.751,-3.024 2.086,-5.781 2.841,-8.787 0.236,-0.938 0.071,-2.358 0.746,-3.082 -0.229,-1.122 0.087,-1.043 0.09,-1.299 0.017,-1.337 0.098,-2.648 0.149,-3.969 2.373,1.627 5.121,2.46 7.948,3.208 0.388,0.102 0.777,0.205 1.165,0.311 0.558,0.295 1.113,0.594 1.666,0.897 1.705,2.068 3.699,3.653 6.402,4.108 -0.084,0.662 -0.176,1.317 -0.279,1.959 -0.402,2.607 -1.03,5.116 -1.881,7.524 -0.854,2.408 -1.907,4.539 -3.161,6.396 -1.255,1.856 -2.708,3.361 -4.364,4.515 C 13.488,13.535 11.606,14.163 9.5,14.264 7.885,14.385 6.314,14.335 4.788,14.119 2.452,10.229 0.893,5.874 0.132,1.353 0.061,0.931 0.018,0.474 0,0"
       style="fill:#3d1514;fill-opacity:1;fill-rule:nonzero;stroke:none"
       transform="matrix(1.3333333,0,0,-1.3333333,-83.776362,794.66679)"
       clip-path="url(#clipPath140)" />
    <path
       id="path141"
       d="m 0,0 c -0.157,-0.924 -0.328,-1.848 -0.536,-2.823 0.045,-0.423 0.11,-0.829 0.201,-1.204 C 0.044,-5.594 0.927,-7.561 2.25,-8.726 2.24,-8.675 2.232,-8.62 2.221,-8.57 1.591,-5.692 0.85,-2.829 0,0"
       style="fill:#3d1514;fill-opacity:1;fill-rule:nonzero;stroke:none"
       transform="matrix(1.3333333,0,0,-1.3333333,-80.343962,804.64266)"
       clip-path="url(#clipPath142)" />
    <path
       id="path143"
       d="M 0,0 C -0.172,0.471 -0.361,0.944 -0.563,1.416 -0.653,-0.972 -0.042,-3.855 1.589,-5.6 1.395,-6.717 1.366,-7.858 1.476,-8.889 1.684,-7.914 1.855,-6.99 2.012,-6.066 1.398,-4.024 0.73,-1.999 0,0"
       style="fill:#3d1514;fill-opacity:1;fill-rule:nonzero;stroke:none"
       transform="matrix(1.3333333,0,0,-1.3333333,-83.026232,796.55426)"
       clip-path="url(#clipPath144)" />
    <path
       id="path145"
       d="M 0,0 C 0.28,-0.04 0.571,-0.042 0.873,-0.004 0.867,0.209 0.862,0.421 0.854,0.633 0.563,0.434 0.278,0.224 0,0"
       style="fill:#3d1514;fill-opacity:1;fill-rule:nonzero;stroke:none"
       transform="matrix(1.3333333,0,0,-1.3333333,-74.718892,817.55959)"
       clip-path="url(#clipPath146)" />
    <path
       id="path147"
       d="m 0,0 c -0.389,-0.106 -0.778,-0.209 -1.166,-0.311 -2.826,-0.748 -5.574,-1.581 -7.948,-3.208 0.008,-0.212 0.014,-0.425 0.02,-0.638 0.349,0.044 0.711,0.141 1.089,0.304 C -5.278,-2.673 -2.614,-1.381 0,0"
       style="fill:#3d1514;fill-opacity:1;fill-rule:nonzero;stroke:none"
       transform="matrix(1.3333333,0,0,-1.3333333,-61.429162,812.02279)"
       clip-path="url(#clipPath148)" />
    <path
       id="path149"
       d="M 0,0 C 2.185,1.199 4.332,2.465 6.443,3.793 6.43,3.899 6.416,4.003 6.403,4.108 3.699,3.652 1.706,2.068 0,0"
       style="fill:#3d1514;fill-opacity:1;fill-rule:nonzero;stroke:none"
       transform="matrix(1.3333333,0,0,-1.3333333,-59.208762,810.82626)"
       clip-path="url(#clipPath150)" />
    <path
       id="path151"
       d="M 0,0 C 1.616,-0.652 2.798,-1.944 3.618,-3.455 4.211,-2.242 4.769,-1.021 5.237,0.158 5.345,0.43 5.402,0.752 5.495,1.037 5.736,1.048 5.786,1.324 5.883,1.56 6.186,2.3 6.483,3.049 6.77,3.799 6.422,4.076 6.101,4.408 5.81,4.775 4.926,3.516 3.799,2.433 2.445,1.751 0.251,0.645 -2.148,0.905 -4.394,1.68 -4.485,1.29 -4.529,0.875 -4.527,0.458 -2.999,0.55 -1.411,0.569 0,0"
       style="fill:#de7b5f;fill-opacity:1;fill-rule:nonzero;stroke:none"
       transform="matrix(1.3333333,0,0,-1.3333333,-95.948092,833.49066)"
       clip-path="url(#clipPath152)" />
    <path
       id="path153"
       d="m 0,0 c -2.554,-1.275 -5.157,-1.943 -8.011,-2.027 -1.089,-0.032 -1.757,-0.95 -2.023,-2.096 2.247,-0.775 4.646,-1.035 6.84,0.071 1.354,0.682 2.481,1.765 3.365,3.024 0.291,-0.367 0.612,-0.699 0.959,-0.976 0.006,0.014 0.012,0.028 0.017,0.042 0.223,0.584 0.429,1.164 0.63,1.745 C 1.359,0.231 0.781,0.39 0,0"
       style="fill:#fbcbbf;fill-opacity:1;fill-rule:nonzero;stroke:none"
       transform="matrix(1.3333333,0,0,-1.3333333,-88.429162,825.75332)"
       clip-path="url(#clipPath154)" />
    <path
       id="path155"
       d="m 0,0 c -1.411,0.569 -2.999,0.55 -4.527,0.458 0.01,-1.714 0.795,-3.443 2.32,-3.398 0.452,0.014 0.902,0.044 1.35,0.085 0.088,-0.178 0.189,-0.345 0.305,-0.497 0.857,-1.127 2.037,-1.786 3.311,-1.807 0.291,0.564 0.58,1.132 0.859,1.704 C 2.798,-1.944 1.616,-0.652 0,0"
       style="fill:#3d1514;fill-opacity:1;fill-rule:nonzero;stroke:none"
       transform="matrix(1.3333333,0,0,-1.3333333,-95.948092,833.49066)"
       clip-path="url(#clipPath156)" />
    <rect
       style="fill:#dd7c60;stroke:#ffffff;stroke-width:1.11288;stroke-dashoffset:500.787;fill-opacity:0.50196081"
       id="rect156"
       width="298.8862"
       height="124.10413"
       x="-605.77557"
       y="-250.87975" />
  </g>
</svg>
