<svg width="32mm" height="32mm" version="1.1" viewBox="0 0 32 32" xmlns="http://www.w3.org/2000/svg">
 <defs>
  <clipPath id="clipPath1178">
   <path transform="translate(-487.75 -307.55)" d="M 0,595.28 H 841.89 V 0 H 0 Z"/>
  </clipPath>
  <clipPath id="clipPath1180">
   <path transform="translate(-478.5 -323.01)" d="M 0,595.28 H 841.89 V 0 H 0 Z"/>
  </clipPath>
  <clipPath id="clipPath1182">
   <path transform="translate(-484.24 -322.94)" d="M 0,595.28 H 841.89 V 0 H 0 Z"/>
  </clipPath>
  <clipPath id="clipPath1184">
   <path transform="translate(-480.56 -325.53)" d="M 0,595.28 H 841.89 V 0 H 0 Z"/>
  </clipPath>
  <clipPath id="clipPath1186">
   <path transform="translate(-473.24 -311.51)" d="M 0,595.28 H 841.89 V 0 H 0 Z"/>
  </clipPath>
  <clipPath id="clipPath1188">
   <path transform="translate(-477.77 -319.67)" d="M 0,595.28 H 841.89 V 0 H 0 Z"/>
  </clipPath>
  <clipPath id="clipPath1190">
   <path transform="translate(-485.08 -316.19)" d="M 0,595.28 H 841.89 V 0 H 0 Z"/>
  </clipPath>
  <clipPath id="clipPath1192">
   <path transform="translate(-488.56 -307.15)" d="M 0,595.28 H 841.89 V 0 H 0 Z"/>
  </clipPath>
  <clipPath id="clipPath1194">
   <path transform="translate(-482.87 -309.5)" d="M 0,595.28 H 841.89 V 0 H 0 Z"/>
  </clipPath>
  <clipPath id="clipPath1196">
   <path transform="translate(-478.5 -323.01)" d="M 0,595.28 H 841.89 V 0 H 0 Z"/>
  </clipPath>
  <clipPath id="clipPath1198">
   <path transform="translate(-474.49 -301.53)" d="M 0,595.28 H 841.89 V 0 H 0 Z"/>
  </clipPath>
  <clipPath id="clipPath1200">
   <path transform="translate(-474.51 -316.26)" d="M 0,595.28 H 841.89 V 0 H 0 Z"/>
  </clipPath>
  <clipPath id="clipPath1202">
   <path transform="translate(-483.61 -311.27)" d="M 0,595.28 H 841.89 V 0 H 0 Z"/>
  </clipPath>
  <clipPath id="clipPath1204">
   <path transform="translate(-478.58 -318.89)" d="M 0,595.28 H 841.89 V 0 H 0 Z"/>
  </clipPath>
  <clipPath id="clipPath1206">
   <path transform="translate(-476.61 -316.26)" d="M 0,595.28 H 841.89 V 0 H 0 Z"/>
  </clipPath>
  <clipPath id="clipPath1208">
   <path transform="translate(-482.48 -315.9)" d="M 0,595.28 H 841.89 V 0 H 0 Z"/>
  </clipPath>
  <clipPath id="clipPath1210">
   <path transform="translate(-482.09 -322.96)" d="M 0,595.28 H 841.89 V 0 H 0 Z"/>
  </clipPath>
  <clipPath id="clipPath1212">
   <path transform="translate(-480.56 -325.53)" d="M 0,595.28 H 841.89 V 0 H 0 Z"/>
  </clipPath>
  <clipPath id="clipPath1214">
   <path transform="translate(-481.09 -324)" d="M 0,595.28 H 841.89 V 0 H 0 Z"/>
  </clipPath>
  <clipPath id="clipPath1216">
   <path transform="translate(-480.67 -325.24)" d="M 0,595.28 H 841.89 V 0 H 0 Z"/>
  </clipPath>
  <clipPath id="clipPath1218">
   <path transform="translate(-481.95 -322.02)" d="M 0,595.28 H 841.89 V 0 H 0 Z"/>
  </clipPath>
  <clipPath id="clipPath1220">
   <path transform="translate(-483.98 -322.87)" d="M 0,595.28 H 841.89 V 0 H 0 Z"/>
  </clipPath>
  <clipPath id="clipPath1222">
   <path transform="translate(-484.32 -323.05)" d="M 0,595.28 H 841.89 V 0 H 0 Z"/>
  </clipPath>
  <clipPath id="clipPath1224">
   <path transform="translate(-478.69 -319.58)" d="M 0,595.28 H 841.89 V 0 H 0 Z"/>
  </clipPath>
  <clipPath id="clipPath1226">
   <path transform="translate(-479.85 -320.76)" d="M 0,595.28 H 841.89 V 0 H 0 Z"/>
  </clipPath>
  <clipPath id="clipPath1228">
   <path transform="translate(-478.69 -319.58)" d="M 0,595.28 H 841.89 V 0 H 0 Z"/>
  </clipPath>
 </defs>
 <g transform="translate(-89,-132.5)">
  <rect x="89" y="132.5" width="32" height="32" style="fill:none;stroke-dashoffset:500.79;stroke-linecap:round;stroke-width:.52709"/>
  <g transform="matrix(.52573 0 0 .52573 -2634.3 -52.069)">
   <path transform="matrix(1.3333 0 0 -1.3333 5220.4 383.63)" d="m0 0c-0.103 0.256-0.231 0.441-0.384 0.553-0.154 0.113-0.318 0.134-0.492 0.062-0.175-0.072-0.313-0.261-0.415-0.569-0.042-0.103-0.18-0.564-0.416-1.384-0.235-0.82-0.553-1.809-0.953-2.967-0.399-1.158-0.866-2.398-1.399-3.72s-1.102-2.532-1.706-3.628c-0.605-1.097-1.241-1.989-1.907-2.676-0.666-0.686-1.327-0.988-1.983-0.907-0.472 0.062-0.871 0.369-1.199 0.923-0.328 0.553-0.59 1.286-0.784 2.198-0.195 0.912-0.334 1.978-0.415 3.198-0.082 1.219-0.103 2.526-0.062 3.92 0.964 0.287 1.733 1.057 2.768 1.753 1.327 0.893 1.691 1.953 2.429 3.213 0.738 1.261 1.393 2.645 1.968 4.151 0.573 1.507 1.04 3.034 1.399 4.582 0.358 1.547 0.589 3.054 0.691 4.52 0.103 1.465 0.062 2.772-0.123 3.92-0.082 0.533-0.21 1.045-0.384 1.537s-0.39 0.928-0.646 1.307-0.553 0.687-0.891 0.923c-0.339 0.235-0.723 0.363-1.153 0.384-1.087 0.082-2.076-0.21-2.968-0.876-0.891-0.667-1.696-1.599-2.413-2.798-0.718-1.2-1.348-2.609-1.891-4.228-0.544-1.62-0.995-3.342-1.353-5.166-0.359-1.825-0.641-3.69-0.846-5.596-0.029-0.272-0.056-0.542-0.082-0.812 0.146 0.226 0.293 0.452 0.437 0.681 0.183 0.289 0.461 0.642 0.608 0.927 9e-3 0.017 9e-3 0.041 0.018 0.06 0.188 0.237 0.381 0.494 0.555 0.747 0.171 0.249 0.343 0.509 0.512 0.761 0.102 0.154 0.299 0.366 0.352 0.547 0.093 0.056 0.152 0.168 0.221 0.26 0.207 0.278 0.39 0.583 0.59 0.867 0.381 0.541 0.776 1.06 1.146 1.615 0.355 0.532 0.665 1.04 0.996 1.594 0.175 0.294 0.38 0.576 0.546 0.88 0.288 0.528 0.611 1.141 0.836 1.706 0.022 0.055 0.033 0.121 0.052 0.18 0.05 2e-3 0.06 0.058 0.08 0.106 0.063 0.154 0.125 0.31 0.184 0.466 0.128 0.335 0.233 0.664 0.342 1.005 0.07 0.217 0.129 0.44 0.193 0.659l0.018 0.06c0.017 0.06 0.036 0.119 0.052 0.179 0.091 0.326 0.145 0.597 0.219 0.912 0.014 0.06 0.039 0.119 0.053 0.179 4e-3 0.02 0.013 0.04 0.017 0.06 0.064 0.3 0.112 0.576 0.157 0.864 0.074 0.472 0.127 0.847 0.147 1.323l0.017 0.059 0.044-0.012c0.154-0.618 0.427-1.181 0.581-1.796 0.048-0.191 0.015-0.481 0.152-0.629-0.047-0.23 0.018-0.213 0.019-0.266 5e-3 -0.397 0.038-0.783 0.038-1.181 1e-3 -0.201 0.011-0.459 2e-3 -0.651-3e-3 -0.086-0.036-0.208-0.043-0.312-0.016-0.233-6e-3 -0.568-0.033-0.771-5e-3 -0.038-0.029-0.081-0.035-0.119-0.046-0.289-0.148-0.624-0.219-0.912-0.034-0.14-0.089-0.278-0.123-0.419-4e-3 -0.02-0.013-0.039-0.017-0.06-0.026-0.124-0.044-0.114-0.026-0.252l-0.017-0.06c-9e-3 -0.04-0.029-0.081-0.036-0.12-0.134-0.776 0.284-1.5 0.555-2.047 0.011-0.022 0.015-0.051 0.027-0.073 0.158-0.301 0.304-0.459 0.462-0.721 0.054-0.089 0.219-0.379 0.249-0.463 0.108-0.292 0.075-0.706-0.103-1.009-0.1-0.056-0.238-0.288-0.353-0.384-0.078-0.066-0.261-0.182-0.362-0.252-0.024-0.017-0.069-2e-3 -0.168-0.081-0.333-0.268-0.358-0.865-0.321-1.292 0.021-0.253 0.139-0.398 0.167-0.548 0.045-0.242-0.163-0.698-0.307-0.886-0.161-0.209-0.525-0.147-0.45-0.328 0.094-0.232 0.14-0.224 0.143-0.557 2e-3 -0.268 0.026-0.449-0.172-0.663-0.058-0.063-0.152-0.079-0.207-0.136-0.032-0.034-0.058-0.057-0.079-0.107-0.251-0.102-0.419-0.473-0.467-0.773-0.022-0.137 0.044-0.425 0.037-0.531-5e-3 -0.09-0.024-0.388-0.034-0.445-7e-3 -0.039-0.026-0.08-0.035-0.12-4e-3 -0.02-0.012-0.04-0.018-0.06-0.056-0.221-0.113-0.387-0.219-0.586-0.023-0.043-0.075-0.136-0.097-0.166-0.193-0.263-0.617-0.502-0.875-0.524-0.063-6e-3 -0.041-0.025-0.239 5e-3 -0.136 0.02-0.268 0.071-0.398 0.116-0.251 0.087-0.517 0.154-0.753 0.221-0.015 4e-3 -0.03 9e-3 -0.045 0.013l-0.044 0.013c-0.015 3e-3 -0.029 9e-3 -0.044 0.013l-0.045 0.012c-0.014 4e-3 -0.029 0.01-0.044 0.013l-0.044 0.013c-0.104 0.025-0.205 0.07-0.31 0.091-0.227 0.045-0.452 0.103-0.682 0.135-0.252 0.034-0.506 0.022-0.761 0.028-0.23 5e-3 -0.439 0.025-0.673 2e-3 -0.566-0.057-1.02-0.197-1.574-0.45-0.259-0.117-0.401-0.197-0.606-0.332-0.014-0.336-0.025-0.67-0.033-1.001-0.041-1.783 0-3.443 0.123-4.981 0.123-1.537 0.318-2.849 0.584-3.936 0.328-1.353 0.733-2.419 1.215-3.197 0.481-0.779 0.958-1.363 1.43-1.753 0.471-0.389 0.912-0.635 1.322-0.738 0.41-0.102 0.717-0.164 0.922-0.184 0.718-0.062 1.415 0.122 2.091 0.553 0.677 0.43 1.322 1.015 1.937 1.753s1.2 1.593 1.753 2.567c0.554 0.973 1.061 1.978 1.522 3.013s0.881 2.06 1.261 3.075c0.379 1.015 0.702 1.937 0.968 2.767 0.266 0.831 0.472 1.517 0.615 2.061 0.143 0.543 0.226 0.865 0.246 0.968 0.041 0.369 0.01 0.681-0.092 0.938" clip-path="url(#clipPath1178)" style="fill:#3f1413"/>
   <path transform="matrix(1.3333 0 0 -1.3333 5208.1 363.03)" d="m0 0c0.019 9e-3 0.038 0.019 0.057 0.028-0.023-6e-3 -0.044-0.016-0.063-0.028h6e-3" clip-path="url(#clipPath1180)" style="fill:#de7b5f"/>
   <path transform="matrix(1.3333 0 0 -1.3333 5215.7 363.12)" d="m0 0c0.029 0.038 0.059 0.075 0.089 0.111-0.113-0.062-0.226-0.123-0.34-0.183 0.084 0.023 0.168 0.046 0.251 0.072" clip-path="url(#clipPath1182)" style="fill:#d3522f"/>
   <path transform="matrix(1.3333 0 0 -1.3333 5210.8 359.67)" d="m0 0c4e-3 0.097 0.012 0.19 0.027 0.276 0.156 0.924 0.474 1.814 0.951 2.609-0.715-0.101-1.383-0.383-2.004-0.847-0.151-0.113-0.299-0.233-0.444-0.361 0.708-0.299 1.171-0.976 1.47-1.677" clip-path="url(#clipPath1184)" style="fill:#de7b5f"/>
   <path transform="matrix(1.3333 0 0 -1.3333 5201.1 378.35)" d="m0 0c-0.077-0.575-0.148-1.154-0.21-1.737-0.03-0.271-0.057-0.542-0.082-0.811 0.146 0.226 0.293 0.452 0.437 0.68 0.182 0.289 0.461 0.642 0.608 0.927 9e-3 0.018 9e-3 0.042 0.017 0.06 0.188 0.237 0.382 0.495 0.556 0.748 0.171 0.249 0.343 0.508 0.511 0.76 2e-3 3e-3 5e-3 7e-3 7e-3 0.01-0.596-0.207-1.191-0.413-1.786-0.619-0.02-7e-3 -0.039-0.013-0.058-0.018" clip-path="url(#clipPath1186)" style="fill:#de7b5f"/>
   <path transform="matrix(1.3333 0 0 -1.3333 5207.1 367.48)" d="m0 0c0 0.085 9e-3 0.17 0.027 0.25-0.015 5e-3 -0.029 9e-3 -0.044 0.015-0.703 0.253-1.374 0.621-2.001 1.036-0.043 9e-3 -0.087 0.02-0.132 0.036-0.07 0.024-0.135 0.056-0.196 0.093-0.066-0.185-0.131-0.372-0.195-0.563-0.13-0.387-0.255-0.781-0.374-1.18 0.878 0.139 1.761 0.241 2.649 0.296 0.087 5e-3 0.176 0.012 0.266 0.017" clip-path="url(#clipPath1188)" style="fill:#de7b5f"/>
   <path transform="matrix(1.3333 0 0 -1.3333 5216.9 372.12)" d="m0 0c0.098 0.444 0.186 0.885 0.263 1.322l-2.391-1.317c-0.175-0.096-0.338-0.107-0.487-0.062-2e-3 -2e-3 -5e-3 -3e-3 -7e-3 -5e-3 -0.098-0.075-0.193-0.13-0.285-0.167 0.022-0.041 0.044-0.079 0.065-0.116 0.664 0.343 1.39 0.575 2.159 0.679 0.287 0.039 0.513-0.111 0.683-0.334" clip-path="url(#clipPath1190)" style="fill:#de7b5f"/>
   <path transform="matrix(1.3333 0 0 -1.3333 5221.5 384.18)" d="m0 0c-0.103 0.256-0.231 0.441-0.384 0.553-0.154 0.113-0.318 0.134-0.492 0.062-0.175-0.072-0.313-0.261-0.415-0.569-0.042-0.103-0.18-0.564-0.416-1.384-0.235-0.82-0.553-1.809-0.953-2.967-0.399-1.158-0.866-2.398-1.399-3.72s-1.102-2.532-1.706-3.628c-0.605-1.097-1.241-1.989-1.907-2.676-0.666-0.686-1.327-0.988-1.983-0.907-0.472 0.062-0.871 0.369-1.199 0.923-0.328 0.553-0.59 1.286-0.784 2.198-0.195 0.912-0.334 1.978-0.415 3.198-0.076 1.12-0.099 2.314-0.07 3.581-0.633-0.142-1.283-0.231-1.945-0.285-0.614-0.051-1.219-0.082-1.824-0.019 0.022-0.776 0.061-1.525 0.118-2.247 0.123-1.537 0.318-2.849 0.584-3.936 0.328-1.353 0.733-2.419 1.215-3.197 0.481-0.779 0.958-1.363 1.43-1.753 0.471-0.389 0.912-0.635 1.322-0.738 0.41-0.102 0.717-0.164 0.922-0.184 0.718-0.062 1.415 0.123 2.091 0.553 0.677 0.43 1.322 1.015 1.937 1.753s1.2 1.593 1.753 2.567c0.554 0.973 1.061 1.978 1.522 3.013s0.881 2.06 1.261 3.075c0.379 1.015 0.702 1.937 0.968 2.767 0.266 0.831 0.472 1.517 0.615 2.061 0.143 0.543 0.226 0.865 0.246 0.968 0.041 0.369 0.01 0.681-0.092 0.938" clip-path="url(#clipPath1192)" style="fill:#de7b5f"/>
   <path transform="matrix(1.3333 0 0 -1.3333 5213.9 381.04)" d="m0 0c-0.559-0.216-1.151-0.323-1.749-0.313-0.01-0.136-0.047-0.256-0.17-0.389-0.058-0.063-0.152-0.078-0.207-0.135-0.032-0.034-0.058-0.057-0.079-0.107-0.251-0.102-0.419-0.474-0.467-0.774-0.018-0.11 0.021-0.319 0.033-0.451 0.5-1e-3 0.999-0.021 1.497-0.06 0.406 0.705 0.787 1.448 1.142 2.229" clip-path="url(#clipPath1194)" style="fill:#3d1514"/>
   <path transform="matrix(1.3333 0 0 -1.3333 5208.1 363.03)" d="m0 0h-6e-3c0.019 0.012 0.04 0.022 0.063 0.028-0.019-9e-3 -0.038-0.019-0.057-0.028m2.502 1.087c-0.333 0.357-0.458 0.946-0.439 1.434-0.299 0.7-0.762 1.378-1.47 1.677-0.717-0.629-1.374-1.441-1.97-2.437-0.634-1.059-1.199-2.281-1.696-3.666 0.06-0.037 0.126-0.069 0.196-0.093 0.045-0.015 0.089-0.027 0.131-0.036 0.628-0.415 1.299-0.782 2.002-1.036 0.015-5e-3 0.029-0.01 0.044-0.015 0.054 0.234 0.191 0.421 0.413 0.428 0.583 0.017 1.115 0.154 1.637 0.414 0.159 0.08 0.277 0.047 0.363-0.044 0.074 0.214 0.143 0.428 0.213 0.648 0.07 0.217 0.129 0.44 0.193 0.659l0.018 0.06c0.017 0.06 0.036 0.119 0.052 0.179 0.091 0.326 0.146 0.597 0.219 0.912 0.014 0.06 0.039 0.119 0.053 0.179 4e-3 0.02 0.013 0.04 0.017 0.06 1e-3 2e-3 1e-3 4e-3 1e-3 5e-3 -0.022 0.211-0.016 0.444 0.023 0.672" clip-path="url(#clipPath1196)" style="fill:#fbcbbf"/>
   <path transform="matrix(1.3333 0 0 -1.3333 5202.7 391.67)" d="m0 0c0.662 0.054 1.313 0.144 1.945 0.285 3e-3 0.113 5e-3 0.226 9e-3 0.34 0.963 0.287 1.885 0.871 2.767 1.753 0.881 0.881 1.691 1.952 2.429 3.213 0.03 0.05 0.058 0.102 0.087 0.153-0.498 0.039-0.997 0.058-1.496 0.06 3e-3 -0.031 5e-3 -0.06 4e-3 -0.08-6e-3 -0.089-0.025-0.388-0.035-0.445-6e-3 -0.039-0.026-0.08-0.035-0.12-4e-3 -0.02-0.012-0.039-0.017-0.059-0.057-0.222-0.113-0.387-0.22-0.586-0.023-0.043-0.074-0.136-0.097-0.167-0.192-0.263-0.617-0.501-0.874-0.524-0.063-5e-3 -0.04 0.014-0.239 5e-3 -0.138-7e-3 -0.269 0.071-0.399 0.117-0.251 0.087-0.517 0.153-0.753 0.22-0.015 4e-3 -0.029 9e-3 -0.044 0.013l-0.045 0.013c-0.014 4e-3 -0.029 9e-3 -0.044 0.013l-0.044 0.013c-0.015 4e-3 -0.029 9e-3 -0.044 0.013l-0.045 0.013c-0.104 0.025-0.205 0.07-0.31 0.091-0.227 0.045-0.451 0.103-0.682 0.134-0.252 0.035-0.506 0.022-0.761 0.028-0.229 5e-3 -0.438 0.025-0.673 2e-3 -0.566-0.056-1.019-0.197-1.574-0.449-0.259-0.118-0.401-0.197-0.606-0.333-0.013-0.335-0.025-0.669-0.032-1-0.022-0.947-0.02-1.857 4e-3 -2.735 0.605-0.063 1.21-0.031 1.824 0.019" clip-path="url(#clipPath1198)" style="fill:#d3522f"/>
   <path transform="matrix(1.3333 0 0 -1.3333 5202.8 372.03)" d="m0 0c-0.147 0.084-0.27 0.203-0.373 0.344-0.091-0.405-0.178-0.814-0.259-1.229-0.023-0.114-0.044-0.229-0.066-0.344 0.31 0.107 0.619 0.214 0.928 0.322-0.14 0.279-0.209 0.61-0.23 0.907" clip-path="url(#clipPath1200)" style="fill:#d3522f"/>
   <path transform="matrix(1.3333 0 0 -1.3333 5214.9 378.68)" d="m0 0c0.574 1.507 1.04 3.034 1.399 4.581 0.026 0.115 0.051 0.228 0.076 0.342-0.17 0.224-0.396 0.373-0.683 0.335-0.769-0.104-1.495-0.336-2.159-0.679 0.13-0.219 0.254-0.366 0.387-0.586 0.054-0.089 0.218-0.379 0.249-0.463 0.107-0.292 0.075-0.706-0.103-1.01-0.101-0.055-0.238-0.287-0.353-0.384-0.078-0.065-0.261-0.181-0.363-0.252-0.023-0.016-0.069-1e-3 -0.167-0.08-0.334-0.268-0.358-0.865-0.322-1.292 0.021-0.254 0.14-0.399 0.168-0.549 0.044-0.241-0.163-0.697-0.308-0.885-0.161-0.209-0.524-0.147-0.45-0.329 0.094-0.231 0.141-0.223 0.143-0.556 1e-3 -0.102 5e-3 -0.191-1e-3 -0.275 0.597-0.01 1.19 0.098 1.749 0.313 0.259 0.57 0.505 1.159 0.738 1.769" clip-path="url(#clipPath1202)" style="fill:#fbcbbf"/>
   <path transform="matrix(1.3333 0 0 -1.3333 5208.2 368.52)" d="m0 0c-0.024 0.031-0.044 0.065-0.062 0.101-0.092-8e-3 -0.184-0.014-0.276-0.017-0.312-9e-3 -0.472 0.344-0.474 0.694-0.09-5e-3 -0.179-0.012-0.266-0.017-0.888-0.055-1.771-0.156-2.649-0.296-0.158-0.529-0.307-1.069-0.446-1.619 0.366 0.021 0.733 0.056 1.098 0.108 0.765 0.108 1.071-1.062 1.1-1.588 0.036-0.674-0.276-1.535-1.02-1.641-0.625-0.088-1.251-0.13-1.877-0.128-0.179-0.981-0.335-1.973-0.469-2.976 0.019 5e-3 0.038 0.011 0.057 0.018 0.596 0.206 1.191 0.412 1.786 0.618 0.105 0.153 0.294 0.36 0.346 0.538 0.093 0.056 0.152 0.168 0.221 0.26 0.207 0.279 0.39 0.583 0.59 0.868 0.381 0.54 0.776 1.06 1.146 1.614 0.355 0.532 0.665 1.041 0.996 1.594 0.175 0.294 0.38 0.577 0.546 0.881 0.107 0.196 0.219 0.405 0.329 0.619-0.26 4e-3 -0.501 0.139-0.676 0.369" clip-path="url(#clipPath1204)" style="fill:#3d1514"/>
   <path transform="matrix(1.3333 0 0 -1.3333 5205.6 372.03)" d="m0 0c-0.028 0.526-0.335 1.697-1.099 1.588-0.366-0.052-0.732-0.087-1.099-0.108-0.095-0.374-0.187-0.753-0.273-1.137 0.102-0.141 0.226-0.259 0.372-0.343 0.021-0.298 0.091-0.629 0.231-0.908-0.31-0.107-0.619-0.214-0.928-0.321-0.035-0.18-0.068-0.36-0.101-0.54 0.626-2e-3 1.252 0.04 1.877 0.129 0.744 0.105 1.056 0.967 1.02 1.64" clip-path="url(#clipPath1206)" style="fill:#d3522f"/>
   <path transform="matrix(1.3333 0 0 -1.3333 5213.4 372.5)" d="m0 0c0.148-0.046 0.296 0.198 0.471 0.294 0.797 0.439 1.594 0.878 2.39 1.317 0.17 0.969 0.288 1.921 0.354 2.856 0.089 1.271 0.069 2.423-0.058 3.456-0.431-0.272-0.87-0.53-1.316-0.775-0.03-0.037-0.06-0.073-0.089-0.111-0.083-0.026-0.167-0.05-0.252-0.073-0.534-0.282-1.078-0.546-1.635-0.787-0.077-0.033-0.151-0.053-0.222-0.062 2e-3 -0.08 4e-3 -0.159 4e-3 -0.24 0-0.201 0.01-0.459 2e-3 -0.651-4e-3 -0.086-0.036-0.207-0.044-0.312-0.016-0.233-5e-3 -0.568-0.033-0.77-5e-3 -0.038-0.029-0.081-0.035-0.12-0.045-0.289-0.148-0.624-0.218-0.911-0.035-0.141-0.089-0.279-0.123-0.419-5e-3 -0.021-0.013-0.04-0.018-0.06-0.026-0.124-0.044-0.115-0.026-0.253l-0.017-0.06c-9e-3 -0.039-0.028-0.08-0.035-0.119-0.134-0.777 0.284-1.501 0.555-2.048 0.01-0.022 0.015-0.051 0.026-0.073 4e-3 -7e-3 7e-3 -0.012 0.011-0.019 0.065-0.141 0.048-0.216 0.146-0.141 2e-3 2e-3 0.16 0.079 0.162 0.081" clip-path="url(#clipPath1208)" style="fill:#d3522f"/>
   <path transform="matrix(1.3333 0 0 -1.3333 5212.9 363.09)" d="m0 0c-1e-3 0.052-0.065 0.036-0.018 0.265-0.138 0.148-0.105 0.438-0.153 0.63-0.154 0.614-0.427 1.178-0.58 1.795l-0.045 0.013-0.017-0.06c-0.02-0.476-0.073-0.85-0.147-1.322-0.015-0.095-0.03-0.189-0.046-0.282 0.174-0.578 0.325-1.163 0.454-1.751 2e-3 -0.01 4e-3 -0.021 6e-3 -0.032 0.117-0.103 0.252-0.175 0.402-0.196 0.057 0.045 0.115 0.088 0.174 0.129-0.01 0.27-0.026 0.538-0.03 0.811" clip-path="url(#clipPath1210)" style="fill:#3d1514"/>
   <path transform="matrix(1.3333 0 0 -1.3333 5210.8 359.67)" d="m0 0c0.041-0.096 0.08-0.193 0.115-0.289 0.149-0.409 0.286-0.822 0.411-1.24 0.016 0.094 0.031 0.188 0.046 0.283 0.074 0.471 0.127 0.846 0.147 1.322l0.017 0.06 0.045-0.013c0.153-0.618 0.426-1.181 0.58-1.795 0.048-0.192 0.015-0.482 0.152-0.63-0.046-0.229 0.018-0.213 0.019-0.266 3e-3 -0.273 0.02-0.541 0.03-0.811 0.485 0.333 1.047 0.503 1.624 0.656 0.079 0.021 0.159 0.042 0.238 0.063 0.114 0.061 0.228 0.122 0.341 0.184 0.348 0.422 0.755 0.746 1.308 0.839-0.018 0.135-0.036 0.269-0.057 0.4-0.082 0.533-0.211 1.046-0.385 1.538s-0.389 0.927-0.645 1.306c-0.257 0.379-0.554 0.687-0.892 0.923-0.338 0.235-0.723 0.364-1.153 0.384-0.33 0.025-0.651 0.015-0.963-0.029-0.477-0.795-0.795-1.685-0.951-2.609-0.015-0.086-0.023-0.179-0.027-0.276" clip-path="url(#clipPath1212)" style="fill:#3d1514"/>
   <path transform="matrix(1.3333 0 0 -1.3333 5211.5 361.71)" d="m0 0c-0.032-0.189-0.067-0.378-0.11-0.577 0.01-0.086 0.023-0.169 0.042-0.246 0.077-0.32 0.257-0.722 0.528-0.96-2e-3 0.011-4e-3 0.022-6e-3 0.032-0.129 0.588-0.28 1.173-0.454 1.751" clip-path="url(#clipPath1214)" style="fill:#3d1514"/>
   <path transform="matrix(1.3333 0 0 -1.3333 5211 360.06)" d="m0 0c-0.035 0.096-0.074 0.193-0.115 0.289-0.018-0.488 0.106-1.077 0.44-1.433-0.04-0.228-0.046-0.462-0.024-0.672 0.043 0.199 0.078 0.388 0.11 0.577-0.125 0.417-0.262 0.831-0.411 1.239" clip-path="url(#clipPath1216)" style="fill:#3d1514"/>
   <path transform="matrix(1.3333 0 0 -1.3333 5212.7 364.35)" d="m0 0c0.057-8e-3 0.117-9e-3 0.178-1e-3 -1e-3 0.044-2e-3 0.087-4e-3 0.13-0.059-0.04-0.117-0.083-0.174-0.129" clip-path="url(#clipPath1218)" style="fill:#3d1514"/>
   <path transform="matrix(1.3333 0 0 -1.3333 5215.4 363.22)" d="m0 0c-0.079-0.022-0.159-0.043-0.238-0.064-0.578-0.152-1.139-0.323-1.624-0.655 2e-3 -0.043 3e-3 -0.087 4e-3 -0.13 0.071 9e-3 0.145 0.028 0.223 0.062 0.557 0.241 1.101 0.505 1.635 0.787" clip-path="url(#clipPath1220)" style="fill:#3d1514"/>
   <path transform="matrix(1.3333 0 0 -1.3333 5215.8 362.97)" d="M 0,0 C 0.446,0.245 0.885,0.504 1.316,0.775 1.314,0.797 1.311,0.818 1.308,0.839 0.756,0.746 0.348,0.423 0,0" clip-path="url(#clipPath1222)" style="fill:#3d1514"/>
   <path transform="matrix(1.3333 0 0 -1.3333 5208.3 367.6)" d="m0 0c0.33-0.133 0.572-0.397 0.739-0.706 0.121 0.248 0.235 0.497 0.331 0.738 0.022 0.056 0.034 0.122 0.053 0.18 0.049 2e-3 0.059 0.059 0.079 0.107 0.062 0.151 0.123 0.304 0.181 0.457-0.071 0.057-0.136 0.125-0.196 0.2-0.18-0.258-0.411-0.479-0.687-0.618-0.449-0.226-0.939-0.173-1.398-0.015-0.018-0.079-0.027-0.164-0.027-0.249 0.312 0.018 0.637 0.022 0.925-0.094" clip-path="url(#clipPath1224)" style="fill:#de7b5f"/>
   <path transform="matrix(1.3333 0 0 -1.3333 5209.9 366.02)" d="m0 0c-0.522-0.261-1.054-0.397-1.637-0.414-0.222-7e-3 -0.359-0.194-0.413-0.428 0.459-0.159 0.949-0.212 1.397 0.014 0.277 0.139 0.507 0.361 0.688 0.618 0.059-0.075 0.125-0.143 0.196-0.2l3e-3 9e-3c0.046 0.119 0.088 0.238 0.129 0.357-0.085 0.091-0.203 0.124-0.363 0.044" clip-path="url(#clipPath1226)" style="fill:#fbcbbf"/>
   <path transform="matrix(1.3333 0 0 -1.3333 5208.3 367.6)" d="m0 0c-0.288 0.116-0.613 0.112-0.925 0.094 2e-3 -0.351 0.163-0.704 0.474-0.695 0.092 3e-3 0.184 9e-3 0.276 0.018 0.018-0.037 0.039-0.071 0.062-0.102 0.175-0.23 0.416-0.365 0.677-0.369 0.059 0.115 0.118 0.231 0.175 0.348-0.167 0.309-0.409 0.573-0.739 0.706" clip-path="url(#clipPath1228)" style="fill:#3d1514"/>
  </g>
 </g>
</svg>
