<svg width="756.2" height="257.24" version="1.1" viewBox="0 0 756.2 257.24" xmlns="http://www.w3.org/2000/svg">
 <defs>
  <clipPath id="clipPath4">
   <path transform="translate(-514.13 -374.07)" d="M 0,595.28 H 841.89 V 0 H 0 Z"/>
  </clipPath>
  <clipPath id="clipPath6">
   <path transform="translate(-517.88 -365.31)" d="M 0,595.28 H 841.89 V 0 H 0 Z"/>
  </clipPath>
  <clipPath id="clipPath8">
   <path transform="translate(-537.4 -368.87)" d="M 0,595.28 H 841.89 V 0 H 0 Z"/>
  </clipPath>
  <clipPath id="clipPath10">
   <path d="M 0,595.28 H 841.89 V 0 H 0 Z"/>
  </clipPath>
  <clipPath id="clipPath12">
   <path transform="translate(-562.01 -368.87)" d="M 0,595.28 H 841.89 V 0 H 0 Z"/>
  </clipPath>
  <clipPath id="clipPath14">
   <path transform="translate(-592.99 -381.93)" d="M 0,595.28 H 841.89 V 0 H 0 Z"/>
  </clipPath>
  <clipPath id="clipPath16">
   <path transform="translate(-598.9 -368.87)" d="M 0,595.28 H 841.89 V 0 H 0 Z"/>
  </clipPath>
  <clipPath id="clipPath18">
   <path transform="translate(-626.36 -372.35)" d="M 0,595.28 H 841.89 V 0 H 0 Z"/>
  </clipPath>
  <clipPath id="clipPath88">
   <path transform="translate(-451.54 -301.89)" d="M 0,595.28 H 841.89 V 0 H 0 Z"/>
  </clipPath>
  <clipPath id="clipPath90">
   <path transform="translate(-489.31 -344.63)" d="M 0,595.28 H 841.89 V 0 H 0 Z"/>
  </clipPath>
  <clipPath id="clipPath92">
   <path transform="translate(-563.96 -249.82)" d="M 0,595.28 H 841.89 V 0 H 0 Z"/>
  </clipPath>
  <clipPath id="clipPath94">
   <path transform="translate(-629.87 -344.63)" d="M 0,595.28 H 841.89 V 0 H 0 Z"/>
  </clipPath>
  <clipPath id="clipPath96">
   <path transform="translate(-177.89 -319.07)" d="M 0,595.28 H 841.89 V 0 H 0 Z"/>
  </clipPath>
  <clipPath id="clipPath98">
   <path transform="translate(-278.42 -251.8)" d="M 0,595.28 H 841.89 V 0 H 0 Z"/>
  </clipPath>
  <clipPath id="clipPath100">
   <path transform="translate(-278.87 -311.17)" d="M 0,595.28 H 841.89 V 0 H 0 Z"/>
  </clipPath>
  <clipPath id="clipPath102">
   <path transform="translate(-181.86 -317.09)" d="M 0,595.28 H 841.89 V 0 H 0 Z"/>
  </clipPath>
  <clipPath id="clipPath104">
   <path transform="translate(-282.39 -249.82)" d="M 0,595.28 H 841.89 V 0 H 0 Z"/>
  </clipPath>
  <clipPath id="clipPath106">
   <path transform="translate(-368.32 -242.6)" d="M 0,595.28 H 841.89 V 0 H 0 Z"/>
  </clipPath>
  <clipPath id="clipPath108">
   <path transform="translate(-233.59 -386.81)" d="M 0,595.28 H 841.89 V 0 H 0 Z"/>
  </clipPath>
  <clipPath id="clipPath110">
   <path transform="translate(-261.68 -386.48)" d="M 0,595.28 H 841.89 V 0 H 0 Z"/>
  </clipPath>
  <clipPath id="clipPath112">
   <path transform="translate(-243.69 -399.14)" d="M 0,595.28 H 841.89 V 0 H 0 Z"/>
  </clipPath>
  <clipPath id="clipPath114">
   <path transform="translate(-207.87 -330.56)" d="M 0,595.28 H 841.89 V 0 H 0 Z"/>
  </clipPath>
  <clipPath id="clipPath116">
   <path transform="translate(-230.03 -370.49)" d="M 0,595.28 H 841.89 V 0 H 0 Z"/>
  </clipPath>
  <clipPath id="clipPath118">
   <path transform="translate(-265.83 -353.45)" d="M 0,595.28 H 841.89 V 0 H 0 Z"/>
  </clipPath>
  <clipPath id="clipPath120">
   <path transform="translate(-282.84 -309.19)" d="M 0,595.28 H 841.89 V 0 H 0 Z"/>
  </clipPath>
  <clipPath id="clipPath122">
   <path transform="translate(-254.99 -320.7)" d="M 0,595.28 H 841.89 V 0 H 0 Z"/>
  </clipPath>
  <clipPath id="clipPath124">
   <path transform="translate(-233.59 -386.81)" d="M 0,595.28 H 841.89 V 0 H 0 Z"/>
  </clipPath>
  <clipPath id="clipPath126">
   <path transform="translate(-213.98 -281.68)" d="M 0,595.28 H 841.89 V 0 H 0 Z"/>
  </clipPath>
  <clipPath id="clipPath128">
   <path transform="translate(-214.07 -353.78)" d="M 0,595.28 H 841.89 V 0 H 0 Z"/>
  </clipPath>
  <clipPath id="clipPath130">
   <path transform="translate(-258.61 -329.36)" d="M 0,595.28 H 841.89 V 0 H 0 Z"/>
  </clipPath>
  <clipPath id="clipPath132">
   <path transform="translate(-234.01 -366.68)" d="M 0,595.28 H 841.89 V 0 H 0 Z"/>
  </clipPath>
  <clipPath id="clipPath134">
   <path transform="translate(-224.34 -353.78)" d="M 0,595.28 H 841.89 V 0 H 0 Z"/>
  </clipPath>
  <clipPath id="clipPath136">
   <path transform="translate(-253.11 -352.04)" d="M 0,595.28 H 841.89 V 0 H 0 Z"/>
  </clipPath>
  <clipPath id="clipPath138">
   <path transform="translate(-251.19 -386.58)" d="M 0,595.28 H 841.89 V 0 H 0 Z"/>
  </clipPath>
  <clipPath id="clipPath140">
   <path transform="translate(-243.69 -399.14)" d="M 0,595.28 H 841.89 V 0 H 0 Z"/>
  </clipPath>
  <clipPath id="clipPath142">
   <path transform="translate(-246.26 -391.66)" d="M 0,595.28 H 841.89 V 0 H 0 Z"/>
  </clipPath>
  <clipPath id="clipPath144">
   <path transform="translate(-244.25 -397.73)" d="M 0,595.28 H 841.89 V 0 H 0 Z"/>
  </clipPath>
  <clipPath id="clipPath146">
   <path transform="translate(-250.48 -381.98)" d="M 0,595.28 H 841.89 V 0 H 0 Z"/>
  </clipPath>
  <clipPath id="clipPath148">
   <path transform="translate(-260.45 -386.13)" d="M 0,595.28 H 841.89 V 0 H 0 Z"/>
  </clipPath>
  <clipPath id="clipPath150">
   <path transform="translate(-262.12 -387.03)" d="M 0,595.28 H 841.89 V 0 H 0 Z"/>
  </clipPath>
  <clipPath id="clipPath152">
   <path transform="translate(-234.56 -370.03)" d="M 0,595.28 H 841.89 V 0 H 0 Z"/>
  </clipPath>
  <clipPath id="clipPath154">
   <path transform="translate(-240.2 -375.83)" d="M 0,595.28 H 841.89 V 0 H 0 Z"/>
  </clipPath>
  <clipPath id="clipPath156">
   <path transform="translate(-234.56 -370.03)" d="M 0,595.28 H 841.89 V 0 H 0 Z"/>
  </clipPath>
 </defs>
 <g transform="translate(-183.16 -239.76)">
  <path transform="matrix(1.3333 0 0 -1.3333 0 793.71)" d="m485.1 390.62h4.733v-27.774h-4.733z" style="fill:#3f1413"/>
  <path transform="matrix(1.3333 0 0 -1.3333 685.5 294.95)" d="m0 0v-11.227h-4.381v10.092c0 4.03-1.526 5.321-4.146 5.321-2.974 0-4.93-2.074-4.93-5.829v-9.584h-4.381v19.089h4.381v-2.66h0.04c1.603 1.917 3.95 2.934 6.415 2.934 4.185 0 7.002-2.386 7.002-8.136" clip-path="url(#clipPath4)" style="fill:#3f1413"/>
  <path transform="matrix(1.3333 0 0 -1.3333 690.51 306.63)" d="m0 0 2.19 3.286c1.526-1.487 3.169-2.23 5.516-2.23 1.682 0 2.66 0.743 2.66 1.878 0 0.978-1.252 1.447-3.756 2.308-3.129 1.095-5.828 2.503-5.828 6.259 0 3.129 2.817 5.398 6.728 5.398 2.426 0 4.616-0.665 6.728-2.386l-2.19-3.443c-1.525 1.448-3.286 2.034-4.772 2.034-0.861 0-2.074-0.469-2.074-1.643 0-0.938 1.174-1.603 3.013-2.307 4.068-1.604 6.611-2.347 6.611-6.142 0-3.208-2.269-5.789-7.12-5.789-3.09 0-5.711 1.017-7.706 2.777" clip-path="url(#clipPath6)" style="fill:#3f1413"/>
  <path transform="matrix(1.3333 0 0 -1.3333 716.54 301.89)" d="m0 0v9.349h-2.347v3.716h2.347v6.337l4.381 0.47v-6.807h5.594v-3.716h-5.594v-8.919c0-1.956 0.587-2.66 1.839-2.66 0.743 0 1.799 0.274 2.816 0.821l1.135-3.794c-1.135-0.626-2.347-1.134-4.851-1.134-3.286 0-5.32 2.073-5.32 6.337" clip-path="url(#clipPath8)" style="fill:#3f1413"/>
  <path transform="matrix(1.3333 0 0 -1.3333 0 793.71)" d="m551.45 381.93h4.381v-19.089h-4.381zm-0.744 5.75c0 1.565 1.291 2.895 2.934 2.895s2.973-1.33 2.973-2.895c0-1.604-1.33-2.933-2.973-2.933s-2.934 1.329-2.934 2.933" clip-path="url(#clipPath10)" style="fill:#3f1413"/>
  <path transform="matrix(1.3333 0 0 -1.3333 749.35 301.89)" d="m0 0v9.349h-2.347v3.716h2.347v6.337l4.381 0.47v-6.807h5.594v-3.716h-5.594v-8.919c0-1.956 0.587-2.66 1.839-2.66 0.743 0 1.799 0.274 2.816 0.821l1.134-3.794c-1.134-0.626-2.347-1.134-4.85-1.134-3.286 0-5.32 2.073-5.32 6.337" clip-path="url(#clipPath12)" style="fill:#3f1413"/>
  <path transform="matrix(1.3333 0 0 -1.3333 790.66 284.47)" d="m0 0v-19.089h-4.381v2.503c-1.526-1.838-3.678-2.816-5.907-2.816-4.225 0-7.159 2.112-7.159 7.784v11.618h4.381v-10.444c0-3.795 1.174-4.968 3.795-4.968 2.543 0 4.89 2.151 4.89 6.258v9.154z" clip-path="url(#clipPath14)" style="fill:#3f1413"/>
  <path transform="matrix(1.3333 0 0 -1.3333 798.53 301.89)" d="m0 0v9.349h-2.347v3.716h2.347v6.337l4.381 0.47v-6.807h5.594v-3.716h-5.594v-8.919c0-1.956 0.587-2.66 1.839-2.66 0.743 0 1.799 0.274 2.816 0.821l1.135-3.794c-1.135-0.626-2.347-1.134-4.851-1.134-3.286 0-5.32 2.073-5.32 6.337" clip-path="url(#clipPath16)" style="fill:#3f1413"/>
  <path transform="matrix(1.3333 0 0 -1.3333 835.15 297.24)" d="m0 0c0 3.52-2.425 5.907-5.555 5.907-3.325 0-5.555-2.582-5.555-5.907 0-3.247 2.27-5.829 5.555-5.829 3.091 0 5.555 2.387 5.555 5.829m-15.569 0c0 5.633 3.99 9.858 10.014 9.858 5.868 0 10.015-3.99 10.015-9.858 0-5.789-4.147-9.819-10.015-9.819-6.024 0-10.014 4.225-10.014 9.819" clip-path="url(#clipPath18)" style="fill:#3f1413"/>
  <path transform="matrix(1.3333 0 0 -1.3333 602.05 391.19)" d="m0 0c0.2-1.806 0.475-3.186 0.828-4.139 0.35-0.954 0.726-1.655 1.128-2.107 0.4-0.451 0.878-0.778 1.43-0.978 0.55-0.202 1.129-0.451 1.731-0.752 0.4 1.103 0.701 2.13 0.903 3.085 0.2 0.952 0.4 1.829 0.602 2.634 0.701 3.311 0.677 5.794-0.075 7.449-0.753 1.656-1.656 2.559-2.709 2.709-1.054 0.151-2.032-0.451-2.935-1.806-0.903-1.354-1.204-3.386-0.903-6.095m-8.428 25.283c1.303-0.202 2.432-0.627 3.386-1.279 0.953-0.654 1.705-1.354 2.258-2.107 0.55-0.752 0.926-1.43 1.129-2.031 0.199-0.602 0.199-0.903 0-0.903-2.009-0.203-4.064-1.331-6.171-3.386-2.107-2.058-4.19-4.718-6.245-7.977-2.058-3.261-3.989-6.923-5.794-10.986-1.806-4.063-3.363-8.228-4.666-12.491-1.305-4.266-2.332-8.454-3.085-12.567-0.752-4.115-1.03-7.825-0.828-11.136 0-1.004 0.076-2.234 0.226-3.687 0.151-1.456 0.426-2.912 0.828-4.365 0.4-1.455 1.001-2.761 1.806-3.913 0.802-1.154 1.956-1.881 3.461-2.182 1.806-0.301 3.763 0.602 5.869 2.709 2.107 2.107 4.214 4.891 6.321 8.352 2.107 3.462 4.162 7.323 6.171 11.589 2.005 4.263 3.762 8.451 5.267 12.566-1.606 1.002-2.986 2.307-4.139 3.913-1.154 1.604-2.158 3.386-3.01 5.343-0.853 1.956-1.53 3.988-2.031 6.095-0.503 2.107-0.903 4.214-1.204 6.321-0.402 3.209-0.127 5.994 0.827 8.352 0.953 2.356 2.307 4.139 4.064 5.343 1.754 1.204 3.687 1.78 5.794 1.73 2.107-0.051 4.139-0.853 6.095-2.407 1.956-1.557 3.612-3.914 4.966-7.074 1.355-3.16 2.131-7.2 2.333-12.115v-3.386c0-1.154-0.052-2.333-0.15-3.537 2.506 0.301 5.015 1.002 7.524 2.107 2.507 1.103 4.816 2.533 6.923 4.289 2.107 1.755 3.861 3.688 5.268 5.794 1.403 2.107 2.356 4.313 2.859 6.622 0.602 2.709 1.329 4.715 2.182 6.02 0.851 1.303 1.63 1.856 2.333 1.656 0.701-0.202 1.279-1.155 1.731-2.86 0.451-1.707 0.625-4.115 0.526-7.224-0.101-3.31-1.079-6.546-2.934-9.707-1.858-3.16-4.214-6.019-7.074-8.578-2.859-2.558-6.095-4.665-9.707-6.321-3.612-1.655-7.223-2.633-10.835-2.934-1.204-6.321-3.01-12.468-5.418-18.436-2.408-5.971-5.244-11.163-8.503-15.576-3.262-4.416-6.848-7.826-10.761-10.234s-7.976-3.259-12.19-2.558c-4.315 0.703-7.826 2.332-10.535 4.891-2.708 2.558-4.891 5.467-6.546 8.728-1.656 3.259-2.909 6.622-3.763 10.084-0.851 3.461-1.479 6.494-1.881 9.105-0.301 1.904-0.376 4.815-0.225 8.728 0.15 3.913 0.677 8.226 1.58 12.943 0.903 4.715 2.234 9.481 3.988 14.297 1.756 4.816 4.063 9.129 6.923 12.943 2.859 3.811 6.344 6.821 10.459 9.029 4.113 2.206 8.978 3.01 14.598 2.408" clip-path="url(#clipPath88)" style="fill:#833317"/>
  <path transform="matrix(1.3333 0 0 -1.3333 652.42 334.2)" d="m0 0c1.604 0.099 2.984-0.402 4.139-1.505 1.152-1.105 1.93-2.81 2.332-5.117 0.2-1.105 0.151-2.709-0.15-4.816l-0.903-6.321c-0.402-2.509-0.854-5.116-1.355-7.825 0.701-1.204 2.107-1.757 4.214-1.656 2.107 0.099 4.463 0.452 7.074 1.053 2.607 0.603 5.29 1.28 8.051 2.032 2.758 0.753 5.14 1.178 7.149 1.28 1.505 0.098 2.758-0.353 3.762-1.355 1.002-1.004 1.754-2.234 2.257-3.687 0.501-1.456 0.776-2.986 0.828-4.59 0.05-1.606-0.075-2.911-0.376-3.913-0.202-0.602-0.677-2.434-1.43-5.493-0.752-3.062-1.58-6.723-2.483-10.987-0.903-4.265-1.757-8.803-2.558-13.619-0.805-4.816-1.331-9.307-1.581-13.47-0.251-4.164-0.126-7.701 0.377-10.61 0.501-2.911 1.603-4.566 3.311-4.966 0.903-0.202 2.281 0.753 4.138 2.859 1.856 2.107 3.937 4.941 6.246 8.504 2.307 3.56 4.74 7.698 7.299 12.415 2.558 4.715 4.966 9.557 7.224 14.523 2.257 4.967 4.289 9.881 6.095 14.749 1.806 4.865 3.108 9.255 3.913 13.168 0.199 1.002 0.677 1.705 1.429 2.107 0.753 0.4 1.555 0.426 2.408 0.075 0.852-0.352 1.604-1.053 2.258-2.107 0.651-1.053 0.978-2.535 0.978-4.439 0-0.504-0.376-2.107-1.129-4.816-0.752-2.709-1.806-6.071-3.16-10.083-1.355-4.014-2.987-8.454-4.891-13.319-1.907-4.868-4.064-9.759-6.472-14.674-2.408-4.917-4.992-9.631-7.75-14.146-2.761-4.515-5.67-8.404-8.729-11.663-3.062-3.262-6.222-5.644-9.481-7.149-3.262-1.505-6.599-1.754-10.008-0.753-4.416 1.305-7.652 3.887-9.707 7.751-2.058 3.861-3.386 8.301-3.988 13.319-0.602 5.015-0.602 10.309 0 15.877 0.602 5.569 1.378 10.709 2.332 15.426 0.953 4.715 1.882 8.729 2.785 12.04 0.903 3.31 1.453 5.215 1.655 5.718 0.602 1.404 0.55 2.507-0.15 3.312-0.704 0.801-1.606 0.952-2.709 0.451-1.004-0.602-2.46-1.129-4.365-1.58-1.907-0.452-3.913-0.301-6.02 0.451-2.106 0.753-4.089 2.307-5.944 4.666-1.858 2.356-3.236 6.095-4.139 11.211-0.301 1.505-0.428 3.485-0.376 5.945 0.049 2.457 0.35 4.839 0.903 7.149 0.55 2.306 1.354 4.289 2.408 5.944 1.053 1.656 2.483 2.533 4.289 2.634" clip-path="url(#clipPath90)" style="fill:#833317"/>
  <path transform="matrix(1.3333 0 0 -1.3333 751.94 460.61)" d="m0 0c1.303 0.099 2.859 0.802 4.665 2.107 1.806 1.303 3.612 3.059 5.418 5.267 1.806 2.206 3.485 4.79 5.042 7.751 1.554 2.958 2.784 6.194 3.687 9.707 0.501 4.214 1.077 8.376 1.731 12.491 0.651 4.113 1.378 8.075 2.182 11.889 0 3.109-0.327 5.568-0.978 7.374-0.654 1.806-1.43 3.161-2.333 4.064s-1.806 1.505-2.709 1.806-1.606 0.451-2.107 0.451c-1.406 0.099-2.911-0.703-4.515-2.408-1.606-1.707-3.236-4.04-4.891-6.998-1.655-2.96-3.236-6.347-4.741-10.158-1.504-3.814-2.835-7.727-3.988-11.739-1.154-4.014-2.031-7.927-2.633-11.739-0.602-3.814-0.828-7.223-0.678-10.233 0.151-3.01 0.753-5.395 1.806-7.149 1.054-1.756 2.733-2.584 5.042-2.483m38.828 83.224c1.404 0 2.582-0.376 3.537-1.129 0.952-0.752 1.73-1.655 2.332-2.709 0.602-1.053 1.054-2.132 1.355-3.235 0.301-1.105 0.451-2.008 0.451-2.709 0-2.008-0.277-4.541-0.828-7.6-0.552-3.062-1.255-6.448-2.106-10.158-0.854-3.714-1.806-7.627-2.86-11.739-1.053-4.115-2.008-8.202-2.859-12.266-0.854-4.063-1.606-7.976-2.258-11.738-0.654-3.763-1.03-7.1-1.129-10.008-0.101-4.616 1.103-5.319 3.612-2.107 2.206 2.408 4.489 5.568 6.848 9.481 2.356 3.913 4.639 8.127 6.848 12.642 2.205 4.515 4.312 9.053 6.32 13.62 2.006 4.564 3.763 8.702 5.268 12.416 1.505 3.71 2.732 6.795 3.687 9.255 0.952 2.457 1.528 3.837 1.73 4.139 0.302 0.301 0.727 0.451 1.28 0.451 0.55 0 1.103-0.176 1.655-0.527 0.55-0.353 1.002-0.853 1.355-1.505 0.35-0.653 0.425-1.43 0.225-2.332-0.101-0.703-0.552-2.385-1.354-5.042-0.804-2.66-1.907-5.996-3.311-10.008-1.406-4.014-3.085-8.454-5.042-13.319-1.956-4.868-4.115-9.834-6.471-14.899-2.358-5.067-4.917-9.984-7.675-14.749-2.761-4.766-5.594-9.055-8.503-12.867-0.503-0.503-1.279-1.305-2.333-2.408-1.053-1.105-2.283-2.158-3.687-3.16-1.406-1.004-2.961-1.806-4.665-2.408-1.708-0.602-3.462-0.753-5.268-0.452-2.911 0.602-4.917 2.86-6.02 6.773-1.105 3.912-1.606 8.778-1.504 14.598-1.205-2.408-2.836-4.842-4.892-7.299-2.057-2.46-4.214-4.666-6.471-6.622-2.257-1.957-4.515-3.588-6.772-4.891-2.258-1.305-4.24-2.006-5.945-2.107-2.709-0.099-5.117 0.428-7.224 1.58s-3.913 2.709-5.418 4.665c-1.504 1.957-2.732 4.139-3.687 6.547-0.952 2.408-1.58 4.816-1.881 7.224-0.501 3.409-0.726 7.299-0.677 11.663 0.052 4.365 0.451 8.88 1.204 13.545 0.752 4.665 1.881 9.305 3.386 13.921 1.505 4.613 3.438 8.902 5.794 12.867 2.356 3.962 5.166 7.374 8.428 10.234 3.259 2.859 7.047 4.891 11.362 6.095 5.317 1.404 9.757 0.877 13.319-1.58 3.56-2.46 6.194-5.745 7.901-9.858 1.103 4.816 1.957 8.226 2.559 10.234 0.802 2.909 1.73 5.041 2.784 6.396 1.053 1.354 2.081 2.258 3.085 2.709 1.002 0.451 1.931 0.625 2.784 0.527 0.851-0.101 1.43-0.151 1.731-0.151" clip-path="url(#clipPath92)" style="fill:#833317"/>
  <path transform="matrix(1.3333 0 0 -1.3333 839.83 334.2)" d="m0 0c1.604 0.099 2.984-0.402 4.139-1.505 1.152-1.105 1.93-2.81 2.332-5.117 0.2-1.105 0.151-2.709-0.15-4.816l-0.903-6.321c-0.402-2.509-0.854-5.116-1.355-7.825 0.701-1.204 2.107-1.757 4.214-1.656 2.107 0.099 4.463 0.452 7.074 1.053 2.607 0.603 5.29 1.28 8.051 2.032 2.758 0.753 5.14 1.178 7.149 1.28 1.505 0.098 2.758-0.353 3.762-1.355 1.002-1.004 1.754-2.234 2.258-3.687 0.5-1.456 0.775-2.986 0.827-4.59 0.05-1.606-0.075-2.911-0.376-3.913-0.202-0.602-0.677-2.434-1.43-5.493-0.752-3.062-1.58-6.723-2.483-10.987-0.903-4.265-1.756-8.803-2.558-13.619-0.805-4.816-1.331-9.307-1.58-13.47-0.252-4.164-0.127-7.701 0.376-10.61 0.501-2.911 1.603-4.566 3.311-4.966 0.903-0.202 2.281 0.753 4.138 2.859 1.856 2.107 3.937 4.941 6.246 8.504 2.307 3.56 4.74 7.698 7.299 12.415 2.558 4.715 4.966 9.557 7.224 14.523 2.257 4.967 4.289 9.881 6.095 14.749 1.806 4.865 3.108 9.255 3.913 13.168 0.2 1.002 0.677 1.705 1.429 2.107 0.753 0.4 1.555 0.426 2.408 0.075 0.852-0.352 1.604-1.053 2.258-2.107 0.651-1.053 0.978-2.535 0.978-4.439 0-0.504-0.376-2.107-1.129-4.816-0.752-2.709-1.806-6.071-3.16-10.083-1.355-4.014-2.987-8.454-4.891-13.319-1.907-4.868-4.064-9.759-6.472-14.674-2.408-4.917-4.992-9.631-7.75-14.146-2.761-4.515-5.67-8.404-8.729-11.663-3.062-3.262-6.222-5.644-9.481-7.149-3.262-1.505-6.598-1.754-10.008-0.753-4.416 1.305-7.652 3.887-9.707 7.751-2.058 3.861-3.386 8.301-3.988 13.319-0.602 5.015-0.602 10.309 0 15.877 0.602 5.569 1.378 10.709 2.332 15.426 0.953 4.715 1.882 8.729 2.785 12.04 0.903 3.31 1.453 5.215 1.655 5.718 0.602 1.404 0.55 2.507-0.15 3.312-0.703 0.801-1.606 0.952-2.709 0.451-1.004-0.602-2.46-1.129-4.365-1.58-1.907-0.452-3.913-0.301-6.02 0.451-2.106 0.753-4.089 2.307-5.944 4.666-1.858 2.356-3.236 6.095-4.139 11.211-0.301 1.505-0.428 3.485-0.376 5.945 0.049 2.457 0.35 4.839 0.903 7.149 0.55 2.306 1.354 4.289 2.408 5.944 1.053 1.656 2.483 2.533 4.289 2.634" clip-path="url(#clipPath94)" style="fill:#833317"/>
  <path transform="matrix(1.3333 0 0 -1.3333 237.18 368.27)" d="m0 0c-3.612-0.503-6.749-2.333-9.406-5.493-2.66-3.161-4.917-6.873-6.772-11.137-1.858-4.266-3.311-8.705-4.365-13.319-1.053-4.616-1.782-8.728-2.182-12.34 2.307 0.802 4.967 2.081 7.976 3.837 3.01 1.755 5.945 3.937 8.804 6.547 2.86 2.608 5.442 5.592 7.751 8.954 2.307 3.361 3.962 6.999 4.966 10.911 0.301 1.204 0.4 2.559 0.301 4.064-0.101 1.505-0.428 2.859-0.978 4.063-0.553 1.204-1.331 2.182-2.333 2.935-1.004 0.752-2.257 1.077-3.762 0.978m-3.461 10.986c2.205 0.099 4.162-0.127 5.869-0.677 1.705-0.553 3.21-1.305 4.515-2.257 1.303-0.955 2.356-2.032 3.16-3.236 0.802-1.204 1.453-2.309 1.957-3.311 1.302-3.212 2.055-5.921 2.257-8.127 0.2-2.208 0.2-4.315 0-6.321-0.503-4.815-1.707-9.131-3.612-12.942-1.907-3.814-4.115-7.201-6.622-10.159-2.509-2.96-5.218-5.443-8.126-7.449-2.912-2.009-5.644-3.687-8.202-5.042-2.559-1.354-4.793-2.333-6.697-2.935-1.908-0.602-3.161-0.902-3.763-0.902 0.2-2.611 0.527-5.042 0.978-7.3 0.452-2.257 1.077-4.19 1.882-5.794 0.801-1.606 1.78-2.859 2.934-3.762 1.152-0.903 2.582-1.305 4.289-1.204 4.614 0.301 8.854 1.731 12.717 4.289 3.861 2.559 7.374 5.818 10.535 9.782 3.16 3.963 5.994 8.402 8.503 13.319 2.507 4.915 4.79 9.782 6.847 14.598 2.056 4.816 1.507-0.539 3.113 3.776 1.604 4.312 2.266 4.75 3.571 7.661 0.399 0.903 0.952 1.404 1.655 1.505 0.701 0.099 1.378-0.101 2.032-0.602 0.651-0.503 1.178-1.229 1.58-2.182 0.4-0.955 0.452-2.032 0.151-3.236-0.402-1.406-0.437-1.115-1.69-5.479-1.256-4.364-0.58 0.514-2.736-5.205-2.159-5.719-4.767-11.689-7.826-17.909-3.062-6.222-6.622-11.941-10.685-17.157-4.064-5.218-8.654-9.481-13.771-12.792-5.116-3.311-10.736-4.865-16.855-4.665-3.612 0.101-6.798 0.879-9.557 2.332-2.76 1.456-5.116 3.41-7.073 5.87-1.956 2.457-3.586 5.392-4.891 8.804-1.303 3.41-2.257 7.123-2.859 11.137-0.602 3.811-0.776 8.126-0.527 12.942 0.251 4.816 0.903 9.681 1.956 14.598 1.054 4.915 2.559 9.731 4.515 14.448 1.957 4.715 4.365 8.928 7.224 12.642 2.859 3.71 6.22 6.746 10.083 9.105 3.861 2.356 8.252 3.635 13.169 3.837" clip-path="url(#clipPath96)" style="fill:#782a1c"/>
  <path transform="matrix(1.3333 0 0 -1.3333 371.22 457.97)" d="m0 0c1.303 0.099 2.859 0.802 4.665 2.107 1.806 1.303 3.612 3.059 5.418 5.267 1.806 2.206 3.485 4.79 5.042 7.751 1.554 2.958 2.784 6.194 3.687 9.707 0.501 4.214 1.077 8.376 1.731 12.491 0.651 4.113 1.378 8.075 2.182 11.889 0 3.109-0.327 5.568-0.978 7.374-0.654 1.806-1.43 3.161-2.333 4.064s-1.806 1.505-2.709 1.806-1.606 0.451-2.107 0.451c-1.406 0.099-2.911-0.703-4.515-2.408-1.606-1.707-3.235-4.04-4.891-6.998-1.655-2.96-3.236-6.347-4.741-10.158-1.504-3.814-2.835-7.727-3.988-11.739-1.154-4.014-2.031-7.927-2.633-11.739-0.602-3.814-0.828-7.223-0.678-10.233 0.151-3.01 0.753-5.395 1.806-7.149 1.054-1.756 2.733-2.584 5.042-2.483m38.828 83.224c1.404 0 2.582-0.376 3.537-1.129 0.952-0.752 1.73-1.655 2.332-2.709 0.602-1.053 1.054-2.132 1.355-3.235 0.301-1.105 0.451-2.008 0.451-2.709 0-2.008-0.277-4.541-0.827-7.6-0.553-3.062-1.256-6.448-2.107-10.158-0.854-3.714-1.806-7.627-2.86-11.739-1.053-4.115-2.008-8.202-2.859-12.266-0.854-4.063-1.606-7.976-2.258-11.738-0.653-3.763-1.03-7.1-1.128-10.008-0.102-4.616 1.102-5.319 3.611-2.107 2.206 2.408 4.489 5.568 6.848 9.481 2.356 3.913 4.639 8.127 6.848 12.642 2.205 4.515 4.312 9.053 6.32 13.62 2.006 4.564 3.763 8.702 5.268 12.416 1.505 3.71 2.732 6.795 3.687 9.255 0.952 2.457 1.528 3.837 1.731 4.139 0.301 0.301 0.726 0.451 1.279 0.451 0.55 0 1.103-0.176 1.655-0.527 0.55-0.353 1.002-0.853 1.355-1.505 0.35-0.653 0.425-1.43 0.225-2.332-0.101-0.703-0.552-2.385-1.354-5.042-0.804-2.66-1.907-5.996-3.311-10.008-1.406-4.014-3.085-8.454-5.041-13.319-1.957-4.868-4.116-9.834-6.472-14.899-2.358-5.067-4.917-9.984-7.675-14.749-2.761-4.766-5.594-9.055-8.503-12.867-0.503-0.503-1.279-1.305-2.333-2.408-1.053-1.105-2.283-2.158-3.687-3.16-1.406-1.004-2.961-1.806-4.665-2.408-1.708-0.602-3.462-0.753-5.268-0.452-2.911 0.602-4.917 2.86-6.02 6.773-1.105 3.912-1.606 8.778-1.504 14.598-1.204-2.408-2.836-4.842-4.892-7.299-2.057-2.46-4.214-4.666-6.471-6.622-2.257-1.957-4.515-3.588-6.772-4.891-2.258-1.305-4.24-2.006-5.945-2.107-2.709-0.099-5.117 0.428-7.224 1.58s-3.913 2.709-5.418 4.665c-1.504 1.957-2.732 4.139-3.687 6.547-0.952 2.408-1.58 4.816-1.881 7.224-0.501 3.409-0.726 7.299-0.677 11.663 0.052 4.365 0.451 8.88 1.204 13.545 0.752 4.665 1.881 9.305 3.386 13.921 1.505 4.613 3.438 8.902 5.794 12.867 2.356 3.962 5.166 7.374 8.428 10.234 3.259 2.859 7.047 4.891 11.362 6.095 5.317 1.404 9.757 0.877 13.319-1.58 3.56-2.46 6.194-5.745 7.901-9.858 1.103 4.816 1.957 8.226 2.559 10.234 0.802 2.909 1.73 5.041 2.784 6.396 1.053 1.354 2.081 2.258 3.085 2.709 1.002 0.451 1.931 0.625 2.784 0.527 0.851-0.101 1.43-0.151 1.731-0.151" clip-path="url(#clipPath98)" style="fill:#782a1c"/>
  <path transform="matrix(1.3333 0 0 -1.3333 371.83 378.81)" d="m0 0c-0.503 1.253-1.129 2.156-1.881 2.709-0.753 0.55-1.557 0.651-2.408 0.301-0.854-0.353-1.531-1.279-2.032-2.784-0.202-0.504-0.879-2.761-2.032-6.773-1.154-4.013-2.708-8.855-4.665-14.522-1.956-5.67-4.24-11.739-6.848-18.21-2.61-6.472-5.394-12.393-8.352-17.759-2.96-5.368-6.072-9.733-9.331-13.093-3.261-3.36-6.497-4.84-9.707-4.44-2.309 0.301-4.265 1.806-5.869 4.515-1.606 2.709-2.885 6.295-3.838 10.761-0.954 4.463-1.632 9.681-2.031 15.651-0.402 5.968-0.504 12.364-0.301 19.188 4.714 1.404 8.48 5.174 13.544 8.579 6.496 4.368 8.277 9.556 11.889 15.726 3.612 6.171 6.822 12.943 9.632 20.317 2.808 7.375 5.091 14.848 6.848 22.424 1.754 7.574 2.883 14.949 3.386 22.123 0.501 7.172 0.301 13.568-0.602 19.188-0.402 2.608-1.03 5.117-1.881 7.525-0.854 2.408-1.908 4.539-3.161 6.396-1.255 1.856-2.709 3.36-4.364 4.515-1.656 1.153-3.537 1.78-5.644 1.881-5.319 0.4-10.158-1.029-14.523-4.289-4.364-3.261-8.303-7.826-11.813-13.695-3.514-5.869-6.599-12.769-9.256-20.693-2.66-7.927-4.868-16.355-6.622-25.283-1.756-8.931-3.137-18.06-4.139-27.39-0.142-1.332-0.275-2.655-0.402-3.974 0.717 1.107 1.435 2.212 2.141 3.331 0.892 1.415 2.256 3.144 2.976 4.538 0.043 0.085 0.043 0.203 0.086 0.293 0.92 1.16 1.867 2.42 2.718 3.659 0.837 1.217 1.678 2.489 2.502 3.722 0.504 0.754 1.467 1.791 1.725 2.677 0.456 0.276 0.742 0.823 1.079 1.275 1.017 1.362 1.91 2.854 2.891 4.245 1.865 2.643 3.797 5.188 5.609 7.904 1.737 2.603 3.255 5.091 4.872 7.8 0.858 1.438 1.86 2.821 2.674 4.309 1.411 2.58 2.993 5.581 4.091 8.348 0.108 0.272 0.165 0.594 0.258 0.879 0.241 0.011 0.291 0.287 0.388 0.523 0.309 0.753 0.612 1.517 0.903 2.281 0.624 1.636 1.141 3.246 1.675 4.918 0.339 1.061 0.631 2.154 0.944 3.224 0.029 0.098 0.058 0.195 0.086 0.293 0.084 0.293 0.176 0.585 0.257 0.879 0.445 1.594 0.711 2.919 1.071 4.46 0.068 0.295 0.192 0.584 0.257 0.879 0.022 0.099 0.065 0.194 0.086 0.293 0.314 1.469 0.546 2.82 0.767 4.23 0.363 2.308 0.622 4.143 0.718 6.472l0.086 0.293 0.217-0.063c0.751-3.024 2.086-5.781 2.841-8.787 0.236-0.938 0.071-2.358 0.745-3.082-0.229-1.122 0.087-1.043 0.091-1.299 0.025-1.945 0.189-3.834 0.19-5.783 0-0.984 0.051-2.244 9e-3 -3.185-0.019-0.42-0.176-1.016-0.212-1.528-0.08-1.141-0.028-2.778-0.163-3.771-0.025-0.186-0.141-0.397-0.171-0.586-0.223-1.414-0.724-3.053-1.071-4.46-0.169-0.687-0.435-1.364-0.6-2.051-0.024-0.099-0.065-0.195-0.086-0.293-0.129-0.608-0.214-0.562-0.126-1.236l-0.086-0.293c-0.042-0.194-0.139-0.395-0.172-0.586-0.656-3.799 1.39-7.345 2.715-10.022 0.052-0.105 0.074-0.248 0.131-0.357 0.773-1.473 1.49-2.244 2.263-3.526 0.265-0.439 1.069-1.858 1.22-2.266 0.526-1.432 0.367-3.456-0.506-4.943-0.492-0.271-1.164-1.406-1.728-1.879-0.381-0.32-1.277-0.888-1.772-1.233-0.116-0.081-0.339-8e-3 -0.822-0.396-1.631-1.309-1.752-4.232-1.574-6.323 0.105-1.24 0.685-1.95 0.82-2.683 0.219-1.183-0.796-3.414-1.503-4.333-0.788-1.024-2.567-0.721-2.205-1.609 0.463-1.134 0.688-1.095 0.701-2.724 0.01-1.315 0.131-2.198-0.841-3.248-0.285-0.309-0.745-0.385-1.011-0.664-0.158-0.166-0.285-0.279-0.388-0.523-1.23-0.5-2.049-2.317-2.285-3.786-0.108-0.669 0.213-2.08 0.181-2.598-0.028-0.438-0.119-1.9-0.167-2.178-0.033-0.191-0.13-0.392-0.172-0.587-0.021-0.098-0.061-0.194-0.086-0.293-0.278-1.084-0.553-1.892-1.074-2.867-0.112-0.209-0.364-0.665-0.474-0.816-0.943-1.287-3.02-2.454-4.282-2.564-0.308-0.027-0.204-0.12-1.17 0.024-0.668 0.099-1.313 0.35-1.951 0.571-1.228 0.426-2.528 0.752-3.685 1.079-0.073 0.02-0.144 0.043-0.217 0.063l-0.217 0.064c-0.073 0.019-0.144 0.045-0.217 0.063l-0.216 0.064c-0.073 0.018-0.144 0.045-0.217 0.063l-0.217 0.064c-0.51 0.121-1.003 0.342-1.517 0.444-1.112 0.221-2.21 0.505-3.338 0.659-1.235 0.168-2.477 0.107-3.726 0.136-1.123 0.026-2.145 0.124-3.292 9e-3 -2.77-0.276-4.992-0.964-7.705-2.199-1.266-0.576-1.964-0.965-2.967-1.628-0.065-1.641-0.121-3.275-0.158-4.896-0.2-8.729 0-16.855 0.602-24.38s1.554-13.947 2.859-19.264c1.604-6.622 3.586-11.84 5.945-15.651 2.356-3.812 4.689-6.672 6.998-8.578 2.306-1.905 4.463-3.109 6.471-3.612 2.006-0.501 3.511-0.802 4.515-0.903 3.511-0.301 6.923 0.602 10.234 2.709 3.31 2.107 6.471 4.966 9.481 8.578s5.869 7.8 8.578 12.566c2.709 4.764 5.192 9.681 7.45 14.749 2.257 5.065 4.312 10.083 6.17 15.049 1.855 4.967 3.435 9.482 4.741 13.545 1.302 4.063 2.306 7.424 3.009 10.083 0.701 2.657 1.103 4.238 1.204 4.741 0.2 1.806 0.05 3.334-0.451 4.59" clip-path="url(#clipPath100)" style="fill:#782a1c"/>
  <path transform="matrix(1.3333 0 0 -1.3333 242.47 370.92)" d="m0 0c-3.612-0.503-6.749-2.333-9.406-5.493-2.66-3.161-4.917-6.873-6.772-11.137-1.858-4.266-3.311-8.705-4.365-13.319-1.053-4.616-1.782-8.728-2.182-12.34 2.307 0.802 4.967 2.081 7.976 3.837 3.01 1.755 5.945 3.937 8.804 6.547 2.86 2.608 5.442 5.592 7.751 8.954 2.307 3.361 3.962 6.999 4.966 10.911 0.301 1.204 0.4 2.559 0.301 4.064-0.101 1.505-0.428 2.859-0.978 4.063-0.553 1.204-1.331 2.182-2.333 2.935-1.004 0.752-2.257 1.077-3.762 0.978m-3.461 10.986c2.205 0.099 4.162-0.127 5.869-0.677 1.705-0.553 3.21-1.305 4.515-2.257 1.303-0.955 2.356-2.032 3.16-3.236 0.802-1.204 1.453-2.309 1.957-3.311 1.302-3.212 2.055-5.921 2.257-8.127 0.2-2.208 0.2-4.315 0-6.321-0.503-4.815-1.707-9.131-3.612-12.942-1.907-3.814-4.115-7.201-6.622-10.159-2.509-2.96-5.218-5.443-8.126-7.449-2.912-2.009-5.644-3.687-8.202-5.042-2.559-1.354-4.793-2.333-6.697-2.935-1.908-0.602-3.161-0.902-3.763-0.902 0.2-2.611 0.527-5.042 0.978-7.3 0.452-2.257 1.077-4.19 1.882-5.794 0.801-1.606 1.78-2.859 2.934-3.762 1.152-0.903 2.582-1.305 4.289-1.204 4.614 0.301 8.854 1.731 12.717 4.289 3.861 2.559 7.374 5.818 10.535 9.782 3.16 3.963 5.994 8.402 8.503 13.319 2.507 4.915 4.79 9.782 6.847 14.598 2.056 4.816 1.507-0.539 3.113 3.776 1.604 4.312 2.266 4.75 3.571 7.661 0.399 0.903 0.952 1.404 1.655 1.505 0.701 0.099 1.378-0.101 2.032-0.602 0.651-0.503 1.178-1.229 1.58-2.182 0.4-0.955 0.452-2.032 0.151-3.236-0.402-1.406-0.437-1.115-1.69-5.479-1.256-4.364-0.58 0.514-2.736-5.205-2.159-5.719-4.767-11.689-7.826-17.909-3.062-6.222-6.622-11.941-10.685-17.157-4.064-5.218-8.654-9.481-13.771-12.792-5.116-3.311-10.736-4.865-16.855-4.665-3.612 0.101-6.798 0.879-9.557 2.332-2.76 1.456-5.116 3.41-7.073 5.87-1.956 2.457-3.586 5.392-4.891 8.804-1.303 3.41-2.257 7.123-2.859 11.137-0.602 3.811-0.776 8.126-0.527 12.942 0.251 4.816 0.903 9.681 1.956 14.598 1.054 4.915 2.559 9.731 4.515 14.448 1.957 4.715 4.365 8.928 7.224 12.642 2.859 3.71 6.22 6.746 10.083 9.105 3.861 2.356 8.252 3.635 13.169 3.837" clip-path="url(#clipPath102)" style="fill:#de7b5f"/>
  <path transform="matrix(1.3333 0 0 -1.3333 376.51 460.61)" d="m0 0c1.303 0.099 2.859 0.802 4.665 2.107 1.806 1.303 3.612 3.059 5.418 5.267 1.806 2.206 3.485 4.79 5.042 7.751 1.554 2.958 2.784 6.194 3.687 9.707 0.501 4.214 1.077 8.376 1.731 12.491 0.651 4.113 1.378 8.075 2.182 11.889 0 3.109-0.327 5.568-0.978 7.374-0.654 1.806-1.43 3.161-2.333 4.064s-1.806 1.505-2.709 1.806-1.606 0.451-2.107 0.451c-1.406 0.099-2.911-0.703-4.515-2.408-1.606-1.707-3.235-4.04-4.891-6.998-1.655-2.96-3.236-6.347-4.741-10.158-1.504-3.814-2.835-7.727-3.988-11.739-1.154-4.014-2.031-7.927-2.633-11.739-0.602-3.814-0.828-7.223-0.678-10.233 0.151-3.01 0.753-5.395 1.806-7.149 1.054-1.756 2.733-2.584 5.042-2.483m38.828 83.224c1.404 0 2.582-0.376 3.537-1.129 0.952-0.752 1.73-1.655 2.332-2.709 0.602-1.053 1.054-2.132 1.355-3.235 0.301-1.105 0.451-2.008 0.451-2.709 0-2.008-0.277-4.541-0.827-7.6-0.553-3.062-1.256-6.448-2.107-10.158-0.854-3.714-1.806-7.627-2.86-11.739-1.053-4.115-2.008-8.202-2.859-12.266-0.854-4.063-1.606-7.976-2.258-11.738-0.653-3.763-1.03-7.1-1.128-10.008-0.102-4.616 1.102-5.319 3.611-2.107 2.206 2.408 4.489 5.568 6.848 9.481 2.356 3.913 4.639 8.127 6.848 12.642 2.205 4.515 4.312 9.053 6.32 13.62 2.006 4.564 3.763 8.702 5.268 12.416 1.505 3.71 2.732 6.795 3.687 9.255 0.952 2.457 1.528 3.837 1.731 4.139 0.301 0.301 0.726 0.451 1.279 0.451 0.55 0 1.103-0.176 1.655-0.527 0.55-0.353 1.002-0.853 1.355-1.505 0.35-0.653 0.425-1.43 0.225-2.332-0.101-0.703-0.552-2.385-1.354-5.042-0.804-2.66-1.907-5.996-3.311-10.008-1.406-4.014-3.085-8.454-5.041-13.319-1.957-4.868-4.116-9.834-6.472-14.899-2.358-5.067-4.917-9.984-7.675-14.749-2.761-4.766-5.594-9.055-8.503-12.867-0.503-0.503-1.279-1.305-2.333-2.408-1.053-1.105-2.283-2.158-3.687-3.16-1.406-1.004-2.961-1.806-4.665-2.408-1.708-0.602-3.462-0.753-5.268-0.452-2.911 0.602-4.917 2.86-6.02 6.773-1.105 3.912-1.606 8.778-1.504 14.598-1.204-2.408-2.836-4.842-4.892-7.299-2.057-2.46-4.214-4.666-6.471-6.622-2.257-1.957-4.515-3.588-6.772-4.891-2.258-1.305-4.24-2.006-5.945-2.107-2.709-0.099-5.117 0.428-7.224 1.58s-3.913 2.709-5.418 4.665c-1.504 1.957-2.732 4.139-3.687 6.547-0.952 2.408-1.58 4.816-1.881 7.224-0.501 3.409-0.726 7.299-0.677 11.663 0.052 4.365 0.451 8.88 1.204 13.545 0.752 4.665 1.881 9.305 3.386 13.921 1.505 4.613 3.438 8.902 5.794 12.867 2.356 3.962 5.166 7.374 8.428 10.234 3.259 2.859 7.047 4.891 11.362 6.095 5.317 1.404 9.757 0.877 13.319-1.58 3.56-2.46 6.194-5.745 7.901-9.858 1.103 4.816 1.957 8.226 2.559 10.234 0.802 2.909 1.73 5.041 2.784 6.396 1.053 1.354 2.081 2.258 3.085 2.709 1.002 0.451 1.931 0.625 2.784 0.527 0.851-0.101 1.43-0.151 1.731-0.151" clip-path="url(#clipPath104)" style="fill:#de7b5f"/>
  <path transform="matrix(1.3333 0 0 -1.3333 491.09 470.25)" d="m0 0c0.903 0.099 1.829 0.903 2.784 2.408 0.953 1.505 1.881 3.461 2.784 5.869s1.78 5.216 2.634 8.428c0.851 3.21 1.63 6.57 2.333 10.083-4.717-3.713-8.555-7.449-11.513-11.211-2.961-3.763-4.191-7.502-3.687-11.213 0.301-1.906 0.752-3.212 1.354-3.912 0.602-0.704 1.705-0.854 3.311-0.452m13.244 83.676c3.51-0.703 6.52-2.585 9.029-5.644 2.507-3.061 4.565-7.6 6.171-13.62 0.301-1.305 0.576-2.96 0.827-4.966 0.25-2.008 0.426-4.266 0.527-6.772 6.119 3.71 11.664 7.198 16.63 10.459 4.966 3.259 8.352 6.596 10.158 10.008 0.301 0.501 0.852 0.701 1.656 0.602 0.802-0.101 1.58-0.503 2.333-1.204 0.752-0.703 1.279-1.681 1.58-2.935 0.301-1.255 0.099-2.784-0.602-4.59-0.703-1.805-2.084-3.687-4.139-5.643-2.057-1.957-4.515-3.989-7.374-6.095-2.86-2.107-6.046-4.266-9.557-6.472-3.513-2.208-7.073-4.465-10.685-6.772-0.301-5.62-0.978-11.414-2.032-17.382-1.053-5.971-2.685-11.438-4.891-16.404-2.208-4.967-5.093-9.105-8.653-12.416-3.563-3.311-7.953-5.016-13.169-5.117-2.309 0-4.265 0.553-5.869 1.655-1.606 1.105-2.911 2.484-3.913 4.139-1.004 1.655-1.756 3.36-2.257 5.117-0.503 1.754-0.753 3.236-0.753 4.439-0.101 3.913 0.501 7.601 1.806 11.062 1.303 3.461 3.06 6.746 5.268 9.857 2.205 3.109 4.816 6.02 7.825 8.729 3.01 2.709 6.171 5.267 9.482 7.675 0.399 4.113 0.651 8.101 0.752 11.965 0.099 3.861-0.052 7.247-0.451 10.158-0.402 2.909-1.08 5.242-2.032 6.998-0.955 1.755-2.234 2.634-3.838 2.634-1.505-0.101-3.235-1.279-5.192-3.537-1.956-2.257-3.939-4.992-5.944-8.202-2.009-3.212-3.965-6.647-5.87-10.309-1.907-3.663-3.562-6.899-4.966-9.707-2.008-11.941-2.961-21.723-2.859-29.346 0.098-7.626 1.203-12.341 3.31-14.147 0.602-0.602 0.828-1.256 0.678-1.956-0.151-0.703-0.579-1.378-1.28-2.032-0.703-0.651-1.606-1.204-2.708-1.655-1.106-0.452-2.31-0.678-3.612-0.678-1.708 0-3.563 1.004-5.569 3.01s-3.259 4.915-3.762 8.729c-0.903 6.42-1.178 13.643-0.828 21.671 0.353 8.026 1.054 16.228 2.107 24.606 1.054 8.376 2.356 16.68 3.913 24.908 1.554 8.225 3.085 15.776 4.59 22.649 1.505 6.871 5.611 29.034 6.766 33.951 1.152 4.915 1.93 8.278 2.332 10.084 0.602 2.709 1.303 4.715 2.107 6.019 0.802 1.303 1.679 2.183 2.634 2.634 0.952 0.452 1.905 0.626 2.859 0.527 0.953-0.101 1.882-0.15 2.785-0.15 1.603 0 3.085-0.403 4.439-1.204 1.355-0.805 2.507-1.757 3.462-2.86 0.952-1.105 1.655-2.208 2.107-3.311 0.451-1.105 0.576-2.008 0.376-2.709-3.513-10.737-9.376-37.262-12.033-47.044-2.66-9.782-4.992-19.09-6.998-27.917 1.505 2.507 3.21 4.966 5.117 7.374 1.904 2.408 3.887 4.489 5.944 6.246 2.055 1.754 4.113 3.108 6.171 4.063 2.055 0.952 4.086 1.228 6.095 0.828" clip-path="url(#clipPath106)" style="fill:#833317"/>
  <path transform="matrix(1.3333 0 0 -1.3333 311.46 277.96)" d="m0 0c0.094 0.046 0.187 0.093 0.281 0.139-0.116-0.032-0.217-0.081-0.309-0.14 0.01 0 0.019 1e-3 0.028 1e-3" clip-path="url(#clipPath108)" style="fill:#de7b5f"/>
  <path transform="matrix(1.3333 0 0 -1.3333 348.91 278.4)" d="m0 0c0.143 0.185 0.288 0.365 0.435 0.543-0.553-0.303-1.108-0.603-1.665-0.897 0.411 0.112 0.822 0.228 1.23 0.354" clip-path="url(#clipPath110)" style="fill:#d3522f"/>
  <path transform="matrix(1.3333 0 0 -1.3333 324.92 261.51)" d="m0 0c0.018 0.474 0.061 0.931 0.132 1.353 0.761 4.521 2.32 8.876 4.656 12.766-3.502-0.495-6.772-1.875-9.811-4.145-0.737-0.55-1.46-1.141-2.172-1.765 3.465-1.463 5.731-4.779 7.195-8.209" clip-path="url(#clipPath112)" style="fill:#de7b5f"/>
  <path transform="matrix(1.3333 0 0 -1.3333 277.15 352.96)" d="m0 0c-0.377-2.815-0.723-5.647-1.029-8.499-0.143-1.332-0.276-2.655-0.402-3.974 0.716 1.107 1.434 2.212 2.14 3.331 0.892 1.415 2.257 3.144 2.976 4.538 0.044 0.085 0.043 0.202 0.086 0.293 0.92 1.16 1.867 2.42 2.718 3.659 0.837 1.217 1.679 2.489 2.502 3.722 0.01 0.015 0.022 0.031 0.032 0.046-2.913-1.01-5.827-2.019-8.741-3.029-0.095-0.033-0.189-0.061-0.282-0.087" clip-path="url(#clipPath114)" style="fill:#de7b5f"/>
  <path transform="matrix(1.3333 0 0 -1.3333 306.71 299.73)" d="m0 0c-2e-3 0.417 0.042 0.832 0.132 1.222-0.071 0.024-0.142 0.047-0.213 0.073-3.445 1.243-6.727 3.039-9.798 5.071-0.209 0.045-0.422 0.102-0.642 0.178-0.346 0.119-0.665 0.272-0.961 0.453-0.324-0.903-0.643-1.819-0.955-2.751-0.637-1.897-1.246-3.824-1.83-5.779 4.297 0.682 8.62 1.178 12.964 1.448 0.426 0.026 0.862 0.058 1.303 0.085" clip-path="url(#clipPath116)" style="fill:#de7b5f"/>
  <path transform="matrix(1.3333 0 0 -1.3333 354.43 322.43)" d="m0 0c0.479 2.174 0.91 4.332 1.285 6.473-3.9-2.149-7.8-4.298-11.7-6.446-0.857-0.473-1.657-0.527-2.383-0.304-0.013-9e-3 -0.025-0.018-0.037-0.028-0.48-0.368-0.945-0.634-1.394-0.815 0.108-0.202 0.214-0.389 0.32-0.568 3.249 1.68 6.803 2.816 10.568 3.324 1.403 0.189 2.51-0.543 3.341-1.636" clip-path="url(#clipPath118)" style="fill:#de7b5f"/>
  <path transform="matrix(1.3333 0 0 -1.3333 377.12 381.45)" d="m0 0c-0.503 1.253-1.129 2.156-1.881 2.709-0.753 0.55-1.557 0.651-2.408 0.301-0.854-0.353-1.531-1.279-2.032-2.784-0.202-0.504-0.879-2.761-2.032-6.773-1.154-4.013-2.708-8.855-4.665-14.522-1.956-5.67-4.24-11.739-6.848-18.21-2.61-6.472-5.394-12.393-8.352-17.759-2.96-5.368-6.072-9.733-9.331-13.093-3.261-3.36-6.497-4.84-9.707-4.44-2.309 0.301-4.265 1.806-5.869 4.515-1.606 2.709-2.885 6.295-3.838 10.761-0.954 4.463-1.632 9.681-2.031 15.651-0.369 5.48-0.482 11.325-0.342 17.527-3.097-0.694-6.28-1.133-9.522-1.397-3.002-0.245-5.964-0.402-8.925-0.091 0.106-3.797 0.296-7.466 0.579-10.997 0.602-7.525 1.554-13.947 2.859-19.264 1.604-6.622 3.586-11.84 5.945-15.651 2.356-3.812 4.689-6.672 6.998-8.578 2.306-1.905 4.463-3.109 6.471-3.612 2.006-0.501 3.511-0.802 4.515-0.903 3.511-0.301 6.923 0.602 10.234 2.709 3.31 2.107 6.471 4.966 9.481 8.578s5.869 7.8 8.578 12.566c2.709 4.764 5.192 9.681 7.45 14.749 2.257 5.065 4.312 10.083 6.17 15.049 1.855 4.967 3.435 9.482 4.741 13.545 1.302 4.063 2.306 7.424 3.009 10.083 0.701 2.657 1.103 4.238 1.204 4.741 0.2 1.806 0.05 3.334-0.451 4.59" clip-path="url(#clipPath120)" style="fill:#de7b5f"/>
  <path transform="matrix(1.3333 0 0 -1.3333 339.99 366.11)" d="m0 0c-2.735-1.055-5.636-1.583-8.56-1.53-0.049-0.666-0.231-1.253-0.834-1.905-0.285-0.308-0.744-0.384-1.01-0.664-0.159-0.166-0.285-0.278-0.389-0.522-1.23-0.5-2.049-2.318-2.285-3.786-0.087-0.542 0.104-1.562 0.164-2.209 2.443-7e-3 4.886-0.104 7.324-0.294 1.987 3.452 3.85 7.088 5.59 10.91" clip-path="url(#clipPath122)" style="fill:#3d1514"/>
  <path transform="matrix(1.3333 0 0 -1.3333 311.46 277.96)" d="m0 0c-9e-3 0-0.018-1e-3 -0.028-1e-3 0.092 0.059 0.193 0.108 0.309 0.14-0.094-0.046-0.187-0.093-0.281-0.139m12.248 5.321c-1.631 1.746-2.242 4.629-2.152 7.016-1.464 3.43-3.729 6.746-7.195 8.209-3.508-3.076-6.723-7.05-9.642-11.929-3.1-5.179-5.866-11.162-8.3-17.942 0.296-0.181 0.615-0.334 0.961-0.454 0.22-0.075 0.433-0.133 0.642-0.178 3.071-2.031 6.354-3.827 9.798-5.07 0.071-0.026 0.142-0.049 0.213-0.074 0.266 1.146 0.934 2.064 2.022 2.096 2.855 0.085 5.458 0.752 8.012 2.027 0.781 0.391 1.358 0.232 1.777-0.216 0.362 1.048 0.702 2.097 1.045 3.173 0.339 1.061 0.631 2.154 0.944 3.224 0.028 0.098 0.057 0.195 0.086 0.293 0.084 0.293 0.175 0.585 0.257 0.879 0.444 1.594 0.71 2.919 1.07 4.46 0.069 0.294 0.193 0.584 0.257 0.879 0.022 0.099 0.065 0.194 0.086 0.293 2e-3 9e-3 4e-3 0.017 6e-3 0.026-0.11 1.031-0.081 2.172 0.113 3.288" clip-path="url(#clipPath124)" style="fill:#fbcbbf"/>
  <path transform="matrix(1.3333 0 0 -1.3333 285.31 418.14)" d="m0 0c3.241 0.264 6.425 0.703 9.522 1.397 0.012 0.553 0.024 1.104 0.04 1.662 4.715 1.404 9.23 4.263 13.545 8.578 4.312 4.313 8.277 9.556 11.889 15.727 0.144 0.247 0.284 0.5 0.427 0.749-2.437 0.189-4.88 0.287-7.324 0.294 0.014-0.153 0.024-0.291 0.017-0.39-0.027-0.438-0.118-1.9-0.167-2.178-0.033-0.19-0.129-0.392-0.171-0.586-0.022-0.099-0.061-0.195-0.086-0.293-0.278-1.085-0.554-1.893-1.075-2.868-0.112-0.209-0.364-0.665-0.474-0.815-0.942-1.287-3.02-2.455-4.281-2.565-0.309-0.027-0.194 0.071-1.17 0.024-0.675-0.032-1.313 0.35-1.951 0.571-1.228 0.426-2.529 0.752-3.686 1.079-0.072 0.021-0.144 0.044-0.216 0.064l-0.217 0.063c-0.073 0.019-0.144 0.045-0.217 0.063l-0.217 0.064c-0.073 0.018-0.143 0.045-0.217 0.063l-0.216 0.064c-0.511 0.121-1.004 0.342-1.518 0.444-1.111 0.221-2.21 0.505-3.338 0.659-1.234 0.169-2.477 0.107-3.725 0.136-1.123 0.026-2.146 0.124-3.293 0.01-2.77-0.276-4.991-0.964-7.705-2.199-1.266-0.577-1.963-0.966-2.966-1.629-0.065-1.641-0.121-3.275-0.159-4.896-0.106-4.632-0.096-9.09 0.024-13.383 2.961-0.31 5.922-0.154 8.925 0.091" clip-path="url(#clipPath126)" style="fill:#d3522f"/>
  <path transform="matrix(1.3333 0 0 -1.3333 285.43 322)" d="m0 0c-0.717 0.411-1.323 0.992-1.823 1.682-0.446-1.98-0.872-3.982-1.271-6.014-0.11-0.559-0.214-1.121-0.321-1.682 1.514 0.524 3.028 1.047 4.542 1.573-0.685 1.367-1.026 2.985-1.127 4.441" clip-path="url(#clipPath128)" style="fill:#d3522f"/>
  <path transform="matrix(1.3333 0 0 -1.3333 344.81 354.56)" d="m0 0c2.808 7.374 5.091 14.847 6.847 22.424 0.13 0.56 0.249 1.116 0.372 1.673-0.831 1.094-1.938 1.826-3.341 1.636-3.765-0.507-7.319-1.643-10.568-3.323 0.635-1.071 1.244-1.791 1.892-2.866 0.264-0.438 1.069-1.857 1.219-2.266 0.527-1.431 0.368-3.456-0.505-4.943-0.493-0.27-1.164-1.405-1.728-1.879-0.381-0.319-1.278-0.888-1.772-1.232-0.116-0.081-0.339-8e-3 -0.822-0.396-1.631-1.31-1.752-4.232-1.574-6.324 0.105-1.239 0.684-1.949 0.82-2.683 0.219-1.182-0.796-3.413-1.504-4.332-0.787-1.024-2.566-0.721-2.204-1.61 0.463-1.133 0.688-1.094 0.701-2.723 4e-3 -0.5 0.023-0.937-7e-3 -1.344 2.924-0.053 5.825 0.475 8.56 1.53 1.269 2.789 2.476 5.672 3.614 8.658" clip-path="url(#clipPath130)" style="fill:#fbcbbf"/>
  <path transform="matrix(1.3333 0 0 -1.3333 312.01 304.81)" d="m0 0c-0.116 0.152-0.217 0.319-0.305 0.497-0.448-0.041-0.898-0.071-1.35-0.085-1.525-0.045-2.311 1.684-2.32 3.398-0.441-0.026-0.877-0.059-1.302-0.085-4.344-0.27-8.667-0.766-12.965-1.447-0.775-2.59-1.501-5.235-2.184-7.925 1.794 0.102 3.587 0.272 5.377 0.526 3.742 0.532 5.242-5.196 5.381-7.773 0.178-3.295-1.35-7.511-4.993-8.027-3.057-0.434-6.121-0.639-9.187-0.631-0.873-4.799-1.637-9.654-2.295-14.566 0.093 0.027 0.187 0.054 0.282 0.087 2.914 1.01 5.827 2.019 8.741 3.029 0.511 0.75 1.44 1.762 1.693 2.631 0.456 0.276 0.742 0.823 1.079 1.275 1.017 1.362 1.91 2.854 2.891 4.245 1.865 2.643 3.797 5.188 5.609 7.904 1.737 2.604 3.255 5.091 4.872 7.801 0.858 1.437 1.86 2.82 2.674 4.308 0.526 0.962 1.074 1.986 1.613 3.031-1.274 0.021-2.454 0.68-3.311 1.807" clip-path="url(#clipPath132)" style="fill:#3d1514"/>
  <path transform="matrix(1.3333 0 0 -1.3333 299.12 322)" d="m0 0c-0.139 2.576-1.639 8.304-5.381 7.773-1.79-0.254-3.583-0.424-5.377-0.527-0.466-1.833-0.913-3.687-1.337-5.567 0.501-0.689 1.106-1.27 1.823-1.681 0.101-1.456 0.442-3.074 1.127-4.441-1.513-0.526-3.028-1.049-4.542-1.573-0.168-0.879-0.333-1.76-0.493-2.643 3.066-7e-3 6.13 0.197 9.187 0.631 3.643 0.517 5.171 4.733 4.993 8.028" clip-path="url(#clipPath134)" style="fill:#d3522f"/>
  <path transform="matrix(1.3333 0 0 -1.3333 337.47 324.32)" d="m0 0c0.727-0.223 1.448 0.968 2.306 1.441 3.899 2.148 7.799 4.297 11.699 6.445 0.83 4.74 1.409 9.4 1.73 13.977 0.434 6.223 0.34 11.86-0.282 16.915-2.112-1.328-4.259-2.594-6.444-3.793-0.146-0.178-0.292-0.358-0.434-0.543-0.408-0.126-0.819-0.242-1.231-0.354-2.614-1.381-5.277-2.674-8.005-3.853-0.377-0.164-0.74-0.26-1.089-0.304 0.011-0.391 0.022-0.782 0.022-1.176 0-0.984 0.051-2.244 9e-3 -3.185-0.019-0.42-0.176-1.016-0.212-1.528-0.08-1.141-0.028-2.778-0.163-3.771-0.025-0.186-0.141-0.397-0.171-0.586-0.223-1.414-0.724-3.054-1.07-4.46-0.17-0.687-0.436-1.364-0.601-2.051-0.024-0.099-0.065-0.195-0.086-0.293-0.129-0.608-0.214-0.563-0.126-1.236l-0.086-0.293c-0.042-0.195-0.139-0.395-0.172-0.586-0.656-3.799 1.39-7.345 2.715-10.023 0.052-0.104 0.074-0.247 0.131-0.356 0.018-0.033 0.034-0.061 0.052-0.093 0.318-0.691 0.235-1.059 0.714-0.691 0.013 0.01 0.782 0.388 0.794 0.397" clip-path="url(#clipPath136)" style="fill:#d3522f"/>
  <path transform="matrix(1.3333 0 0 -1.3333 334.92 278.27)" d="m0 0c-3e-3 0.256-0.319 0.177-0.09 1.299-0.674 0.724-0.51 2.144-0.746 3.082-0.755 3.006-2.09 5.763-2.841 8.787l-0.217 0.063-0.085-0.293c-0.097-2.329-0.356-4.164-0.718-6.472-0.073-0.465-0.149-0.923-0.226-1.381 0.849-2.829 1.591-5.692 2.221-8.57 0.011-0.05 0.018-0.105 0.028-0.156 0.575-0.506 1.233-0.858 1.969-0.962 0.279 0.224 0.564 0.434 0.854 0.633-0.051 1.322-0.132 2.633-0.149 3.97" clip-path="url(#clipPath138)" style="fill:#3d1514"/>
  <path transform="matrix(1.3333 0 0 -1.3333 324.92 261.51)" d="m0 0c0.201-0.471 0.39-0.945 0.563-1.416 0.73-1.998 1.398-4.023 2.011-6.066 0.078 0.458 0.154 0.917 0.227 1.381 0.362 2.308 0.621 4.143 0.717 6.472l0.086 0.293 0.217-0.063c0.751-3.024 2.086-5.781 2.841-8.787 0.236-0.938 0.071-2.358 0.746-3.082-0.229-1.122 0.087-1.043 0.09-1.299 0.017-1.337 0.098-2.648 0.149-3.969 2.373 1.627 5.121 2.46 7.948 3.208 0.388 0.102 0.777 0.205 1.165 0.311 0.558 0.295 1.113 0.594 1.666 0.897 1.705 2.068 3.699 3.653 6.402 4.108-0.084 0.662-0.176 1.317-0.279 1.959-0.402 2.607-1.03 5.116-1.881 7.524-0.854 2.408-1.907 4.539-3.161 6.396-1.255 1.856-2.708 3.361-4.364 4.515-1.655 1.153-3.537 1.781-5.643 1.882-1.615 0.121-3.186 0.071-4.712-0.145-2.336-3.89-3.895-8.245-4.656-12.766-0.071-0.422-0.114-0.879-0.132-1.353" clip-path="url(#clipPath140)" style="fill:#3d1514"/>
  <path transform="matrix(1.3333 0 0 -1.3333 328.35 271.49)" d="m0 0c-0.157-0.924-0.328-1.848-0.536-2.823 0.045-0.423 0.11-0.829 0.201-1.204 0.379-1.567 1.262-3.534 2.585-4.699-0.01 0.051-0.018 0.106-0.029 0.156-0.63 2.878-1.371 5.741-2.221 8.57" clip-path="url(#clipPath142)" style="fill:#3d1514"/>
  <path transform="matrix(1.3333 0 0 -1.3333 325.67 263.4)" d="m0 0c-0.172 0.471-0.361 0.944-0.563 1.416-0.09-2.388 0.521-5.271 2.152-7.016-0.194-1.117-0.223-2.258-0.113-3.289 0.208 0.975 0.379 1.899 0.536 2.823-0.614 2.042-1.282 4.067-2.012 6.066" clip-path="url(#clipPath144)" style="fill:#3d1514"/>
  <path transform="matrix(1.3333 0 0 -1.3333 333.98 284.41)" d="M 0,0 C 0.28,-0.04 0.571,-0.042 0.873,-0.004 0.867,0.209 0.862,0.421 0.854,0.633 0.563,0.434 0.278,0.224 0,0" clip-path="url(#clipPath146)" style="fill:#3d1514"/>
  <path transform="matrix(1.3333 0 0 -1.3333 347.27 278.87)" d="m0 0c-0.389-0.106-0.778-0.209-1.166-0.311-2.826-0.748-5.574-1.581-7.948-3.208 8e-3 -0.212 0.014-0.425 0.02-0.638 0.349 0.044 0.711 0.141 1.089 0.304 2.727 1.18 5.391 2.472 8.005 3.853" clip-path="url(#clipPath148)" style="fill:#3d1514"/>
  <path transform="matrix(1.3333 0 0 -1.3333 349.49 277.67)" d="M 0,0 C 2.185,1.199 4.332,2.465 6.443,3.793 6.43,3.899 6.416,4.003 6.403,4.108 3.699,3.652 1.706,2.068 0,0" clip-path="url(#clipPath150)" style="fill:#3d1514"/>
  <path transform="matrix(1.3333 0 0 -1.3333 312.75 300.34)" d="m0 0c1.616-0.652 2.798-1.944 3.618-3.455 0.593 1.213 1.151 2.434 1.619 3.613 0.108 0.272 0.165 0.594 0.258 0.879 0.241 0.011 0.291 0.287 0.388 0.523 0.303 0.74 0.6 1.489 0.887 2.239-0.348 0.277-0.669 0.609-0.96 0.976-0.884-1.259-2.011-2.342-3.365-3.024-2.194-1.106-4.593-0.846-6.839-0.071-0.091-0.39-0.135-0.805-0.133-1.222 1.528 0.092 3.116 0.111 4.527-0.458" clip-path="url(#clipPath152)" style="fill:#de7b5f"/>
  <path transform="matrix(1.3333 0 0 -1.3333 320.27 292.6)" d="m0 0c-2.554-1.275-5.157-1.943-8.011-2.027-1.089-0.032-1.757-0.95-2.023-2.096 2.247-0.775 4.646-1.035 6.84 0.071 1.354 0.682 2.481 1.765 3.365 3.024 0.291-0.367 0.612-0.699 0.959-0.976 6e-3 0.014 0.012 0.028 0.017 0.042 0.223 0.584 0.429 1.164 0.63 1.745-0.418 0.448-0.996 0.607-1.777 0.217" clip-path="url(#clipPath154)" style="fill:#fbcbbf"/>
  <path transform="matrix(1.3333 0 0 -1.3333 312.75 300.34)" d="m0 0c-1.411 0.569-2.999 0.55-4.527 0.458 0.01-1.714 0.795-3.443 2.32-3.398 0.452 0.014 0.902 0.044 1.35 0.085 0.088-0.178 0.189-0.345 0.305-0.497 0.857-1.127 2.037-1.786 3.311-1.807 0.291 0.564 0.58 1.132 0.859 1.704-0.82 1.511-2.002 2.803-3.618 3.455" clip-path="url(#clipPath156)" style="fill:#3d1514"/>
 </g>
</svg>
