<?xml version="1.0" encoding="UTF-8" standalone="no"?>
<!-- Created with Inkscape (http://www.inkscape.org/) -->

<svg
   width="107.15624mm"
   height="107.15625mm"
   viewBox="0 0 107.15624 107.15625"
   version="1.1"
   id="svg1"
   xml:space="preserve"
   inkscape:version="1.4 (e7c3feb100, 2024-10-09)"
   sodipodi:docname="qrcode-pix-cnpj.svg"
   xmlns:inkscape="http://www.inkscape.org/namespaces/inkscape"
   xmlns:sodipodi="http://sodipodi.sourceforge.net/DTD/sodipodi-0.dtd"
   xmlns="http://www.w3.org/2000/svg"
   xmlns:svg="http://www.w3.org/2000/svg"><sodipodi:namedview
     id="namedview1"
     pagecolor="#ffffff"
     bordercolor="#000000"
     borderopacity="0.25"
     inkscape:showpageshadow="2"
     inkscape:pageopacity="0.0"
     inkscape:pagecheckerboard="0"
     inkscape:deskcolor="#d1d1d1"
     inkscape:document-units="mm"
     inkscape:zoom="0.95875069"
     inkscape:cx="289.43917"
     inkscape:cy="128.81347"
     inkscape:window-width="1920"
     inkscape:window-height="1008"
     inkscape:window-x="1366"
     inkscape:window-y="0"
     inkscape:window-maximized="1"
     inkscape:current-layer="layer1" /><defs
     id="defs1" /><g
     inkscape:label="Layer 1"
     inkscape:groupmode="layer"
     id="layer1"
     transform="translate(-50.283411,-122.3656)"><path
       style="fill:#000000"
       d="m 50.283411,221.18748 v -8.33438 h 8.334375 8.334375 v 8.33438 8.33437 h -8.334375 -8.334375 z m 14.2875,0 v -5.95313 h -5.953125 -5.953125 v 5.95313 5.95312 h 5.953125 5.953125 z m -9.525,0 v -3.57188 h 3.571875 3.571875 v 3.57188 3.57187 h -3.571875 -3.571875 z m 14.2875,2.38125 v -5.95313 h 2.38125 2.38125 v 1.19063 1.19062 h -1.190625 -1.190625 v 4.7625 4.7625 h -1.190625 -1.190625 z m 4.7625,4.7625 v -1.19063 h 2.38125 2.38125 v -1.19062 -1.19063 h -2.38125 -2.38125 v -1.19062 -1.19063 h 2.38125 2.38125 v -1.19062 -1.19063 h -1.190625 -1.190625 v -2.38125 -2.38125 h -3.571875 -3.571875 v -3.57187 -3.57188 h 2.38125 2.38125 v -1.19062 -1.19063 h -1.190625 -1.190625 v -1.19062 -1.19063 h -1.190625 -1.190625 v 1.19063 1.19062 h -2.38125 -2.38125 v -1.19062 -1.19063 h 2.38125 2.38125 v -1.19062 -1.19063 h 1.190625 1.190625 v 1.19063 1.19062 h 1.190625 1.190625 v -1.19062 -1.19063 h 2.38125 2.38125 v -1.19062 -1.19063 h 1.190625 1.190625 v -1.19062 -1.19063 h -2.38125 -2.38125 v 1.19063 1.19062 h -3.571875 -3.571875 v -1.19062 -1.19063 h -2.38125 -2.38125 v 1.19063 1.19062 h 1.190625 1.190625 v 1.19063 1.19062 h -1.190625 -1.190625 v -1.19062 -1.19063 h -1.190625 -1.190625 v 1.19063 1.19062 h -1.190625 -1.190625 v 1.19063 1.19062 h 1.190625 1.190625 v 3.57188 3.57187 h -2.38125 -2.38125 v -1.19062 -1.19063 h -2.38125 -2.38125 v 1.19063 1.19062 h -1.190625 -1.190625 v -1.19062 -1.19063 h 1.190625 1.190625 v -1.19062 -1.19063 h 3.571875 3.571875 v -1.19062 -1.19063 h -1.190625 -1.190625 v -1.19062 -1.19063 h 1.190625 1.190625 v -1.19062 -1.19063 h -2.38125 -2.38125 v 1.19063 1.19062 h -1.190625 -1.190625 v 1.19063 1.19062 h -1.190625 -1.190625 v -1.19062 -1.19063 h 1.190625 1.190625 v -1.19062 -1.19063 h -1.190625 -1.190625 v -2.38125 -2.38125 h 1.190625 1.190625 v 1.19063 1.19062 h 1.190625 1.190625 v -3.57187 -3.57188 h -1.190625 -1.190625 v 1.19063 1.19062 h -1.190625 -1.190625 v -1.19062 -1.19063 h 1.190625 1.190625 v -1.19062 -1.19063 h 1.190625 1.190625 v 1.19063 1.19062 h 2.38125 2.38125 v -1.19062 -1.19063 h 1.190625 1.190625 v -1.19062 -1.19063 h -3.571875 -3.571875 v -1.19062 -1.19063 h -2.38125 -2.38125 v -1.19062 -1.19063 h 1.190625 1.190625 v -2.38125 -2.38125 h 3.571875 3.571875 v -1.19062 -1.19063 h -1.190625 -1.190625 v -1.19062 -1.19063 h 1.190625 1.190625 v -1.19062 -1.19063 h 1.190625 1.190625 v 1.19063 1.19062 h 2.38125 2.38125 v -1.19062 -1.19063 h -1.190625 -1.190625 v -1.19062 -1.19063 h -1.190625 -1.190625 v -1.19062 -1.19063 h -2.38125 -2.38125 v -3.57187 -3.57188 h -1.190625 -1.190625 v 1.19063 1.19062 h -1.190625 -1.190625 v 1.19063 1.19062 h -1.190625 -1.190625 v -1.19062 -1.19063 h 1.190625 1.190625 v -1.19062 -1.19063 h -1.190625 -1.190625 v -1.19062 -1.19063 h 3.571875 3.571875 v -1.19062 -1.19063 h -2.38125 -2.38125 v -3.57187 -3.57188 h -1.190625 -1.190625 v -1.19062 -1.19063 h 5.953125 5.953125 v 2.38125 2.38125 h 2.38125 2.38125 v -1.19062 -1.19063 h -1.190625 -1.190625 v -1.19062 -1.19063 h 5.953125 5.953125 v -1.19062 -1.19063 h -1.190625 -1.190625 v -1.19062 -1.19063 h -1.190625 -1.190625 v 1.19063 1.19062 h -1.190625 -1.190625 v -2.38125 -2.38125 h 1.190625 1.190625 v -1.19062 -1.19063 h -1.190625 -1.190625 v -1.19062 -1.19063 h 1.190625 1.190625 v 1.19063 1.19062 h 1.190625 1.190625 v -1.19062 -1.19063 h 1.190625 1.190625 v 1.19063 1.19062 h -1.190625 -1.190625 v 1.19063 1.19062 h 2.38125 2.38125 v -1.19062 -1.19063 h 4.762499 4.7625 v -1.19062 -1.19063 h 1.19063 1.19062 v -1.19062 -1.19063 h -3.57187 -3.57188 v 1.19063 1.19062 h -1.190624 -1.190625 v -1.19062 -1.19063 h 1.190625 1.190624 v -1.19062 -1.19063 h 1.19063 1.19062 v -1.19062 -1.19063 h 1.19063 1.19062 v 1.19063 1.19062 h 1.19063 1.19062 v 1.19063 1.19062 h 1.19063 1.19062 v -2.38125 -2.38125 h 2.38125 2.38125 v 1.19063 1.19062 h -1.19062 -1.19063 v 1.19063 1.19062 h 1.19063 1.19062 v 1.19063 1.19062 h 1.19063 1.19062 v -2.38125 -2.38125 h 1.19063 1.19062 v 2.38125 2.38125 h 1.19063 1.19062 v 1.19063 1.19062 h 1.19063 1.19062 v -3.57187 -3.57188 h -1.19062 -1.19063 v -1.19062 -1.19063 h 1.19063 1.19062 v 1.19063 1.19062 h 3.57188 3.57187 v -1.19062 -1.19063 h 1.19063 1.19062 v 1.19063 1.19062 h 2.38125 2.38125 v -1.19062 -1.19063 h 1.19063 1.19062 v 1.19063 1.19062 h -1.19062 -1.19063 v 1.19063 1.19062 h 3.57188 3.57187 v -1.19062 -1.19063 h 1.19063 1.19062 v 3.57188 3.57187 h 1.19063 1.19062 v -3.57187 -3.57188 h 1.19063 1.19062 v -1.19062 -1.19063 h 1.19063 1.19062 v 1.19063 1.19062 h -1.19062 -1.19063 v 2.38125 2.38125 h 1.19063 1.19062 v 2.38125 2.38125 h -3.57187 -3.57188 v -1.19062 -1.19063 h -1.19062 -1.19063 v 1.19063 1.19062 h -1.19062 -1.19063 v 1.19063 1.19062 h 1.19063 1.19062 v 2.38125 2.38125 h -2.38125 -2.38125 v 2.38125 2.38125 h -1.19062 -1.19063 v 1.19063 1.19062 h 2.38125 2.38125 v -1.19062 -1.19063 h 1.19063 1.19062 v 1.19063 1.19062 h 1.19063 1.19062 v -1.19062 -1.19063 h 1.19063 1.19062 v -1.19062 -1.19063 h -1.19062 -1.19063 v -3.57187 -3.57188 h 1.19063 1.19062 v 1.19063 1.19062 h 1.19063 1.19062 v -1.19062 -1.19063 h 1.19063 1.19062 v 2.38125 2.38125 h 1.19063 1.19062 v 1.19063 1.19062 h -1.19062 -1.19063 v 1.19063 1.19062 h 2.38125 2.38125 v -2.38125 -2.38125 h 1.19063 1.19062 v 3.57188 3.57187 h -3.57187 -3.57188 v 1.19063 1.19062 h -1.19062 -1.19063 v 1.19063 1.19062 h 1.19063 1.19062 v 3.57188 3.57187 h -2.38125 -2.38125 v 1.19063 1.19062 h 2.38125 2.38125 v 1.19063 1.19062 h 2.38125 2.38125 v -2.38125 -2.38125 h 1.19063 1.19062 v -1.19062 -1.19063 h -2.38125 -2.38125 v -1.19062 -1.19063 h 2.38125 2.38125 v 1.19063 1.19062 h 1.19063 1.19062 v 1.19063 1.19062 h 1.19063 1.19062 v -1.19062 -1.19063 h 3.57187 3.57187 v 3.57188 3.57187 h -2.38125 -2.38124 v 4.7625 4.7625 h 1.19062 1.19062 v 1.19063 1.19062 h -1.19062 -1.19062 v 1.19063 1.19062 h 1.19062 1.19062 v 1.19063 1.19062 h 1.19063 1.19062 v 1.19063 1.19062 h -2.38125 -2.38124 v 3.57188 3.57187 h 1.19062 1.19062 v 4.7625 4.7625 h 1.19063 1.19062 v 1.19063 1.19062 h -2.38125 -2.38124 v 3.57188 3.57187 h 1.19062 1.19062 v 2.38125 2.38125 h -1.19062 -1.19062 v 1.19063 1.19062 h 1.19062 1.19062 v 2.38125 2.38125 h 1.19063 1.19062 v 1.19063 1.19062 h -1.19062 -1.19063 v -1.19062 -1.19063 h -2.38124 -2.38125 v -1.19062 -1.19063 h -1.19062 -1.19063 v 1.19063 1.19062 h -1.19062 -1.19063 v 1.19063 1.19062 h 3.57188 3.57187 v 1.19063 1.19062 h 1.19062 1.19062 v 1.19063 1.19062 h -2.38124 -2.38125 v -1.19062 -1.19063 h -3.57187 -3.57188 v 1.19063 1.19062 h -1.19062 -1.19063 v -1.19062 -1.19063 h -1.19062 -1.19063 v 1.19063 1.19062 h -1.19062 -1.19063 v -1.19062 -1.19063 h -4.7625 -4.7625 v 1.19063 1.19062 h -1.19062 -1.19063 v -1.19062 -1.19063 h -1.19062 -1.19063 v -1.19062 -1.19063 h -1.19062 -1.19063 v 1.19063 1.19062 h -1.19062 -1.19063 v 1.19063 1.19062 h -1.19062 -1.19063 v -1.19062 -1.19063 h 1.19063 1.19062 v -1.19062 -1.19063 h -4.7625 -4.7625 v 1.19063 1.19062 h 1.19063 1.19062 v 1.19063 1.19062 h -1.19062 -1.19063 v -1.19062 -1.19063 h -1.19062 -1.19063 v -1.19062 -1.19063 h -1.19062 -1.19063 v 2.38125 2.38125 h -1.19062 -1.19063 v -1.19062 -1.19063 h -2.38125 -2.38125 v 1.19063 1.19062 h -1.19062 -1.19063 v -2.38125 -2.38125 h 1.19063 1.19062 v -2.38125 -2.38125 h -1.19062 -1.19063 v 1.19063 1.19062 h -1.19062 -1.19063 v -1.19062 -1.19063 h -1.19062 -1.19063 v 3.57188 3.57187 h 1.19063 1.19062 v 1.19063 1.19062 h -1.19062 -1.19063 v -1.19062 -1.19063 h -2.38125 -2.38125 v 1.19063 1.19062 h -4.762499 -4.7625 z m 52.387499,-2.38125 v -1.19063 h 1.19063 1.19062 v -1.19062 -1.19063 h 3.57188 3.57187 v -3.57187 -3.57188 h -2.38125 -2.38125 v 1.19063 1.19062 h -2.38125 -2.38125 v -1.19062 -1.19063 h 1.19063 1.19062 v -1.19062 -1.19063 h 3.57188 3.57187 v -2.38125 -2.38125 h 1.19063 1.19062 v -2.38125 -2.38125 h 1.19063 1.19062 v 2.38125 2.38125 h 2.38125 2.38125 v -2.38125 -2.38125 h 2.38125 2.38125 v -1.19062 -1.19063 h 1.19063 1.19062 v -1.19062 -1.19063 h -1.19062 -1.19063 v -1.19062 -1.19063 h -2.38125 -2.38125 v -1.19062 -1.19063 h 2.38125 2.38125 v -2.38125 -2.38125 h -1.19062 -1.19063 v -1.19062 -1.19063 h 1.19063 1.19062 v -1.19062 -1.19063 h 1.19063 1.19062 v -2.38125 -2.38125 h -1.19062 -1.19063 v -4.7625 -4.7625 h -1.19062 -1.19063 v -2.38125 -2.38125 h -2.38125 -2.38125 v 1.19063 1.19062 h -2.38125 -2.38125 v -1.19062 -1.19063 h -2.38125 -2.38125 v -1.19062 -1.19063 h -1.19062 -1.19063 v 1.19063 1.19062 h 1.19063 1.19062 v 1.19063 1.19062 h -1.19062 -1.19063 v 3.57188 3.57187 h -1.19062 -1.19063 v -2.38125 -2.38125 h -1.19062 -1.19063 v -2.38125 -2.38125 h 1.19063 1.19062 v -2.38125 -2.38125 h 2.38125 2.38125 v -1.19062 -1.19063 h 1.19063 1.19062 v -2.38125 -2.38125 h -1.19062 -1.19063 v -2.38125 -2.38125 h -1.19062 -1.19063 v 3.57188 3.57187 h -1.19062 -1.19063 v 2.38125 2.38125 h -1.19062 -1.19063 v 2.38125 2.38125 h -2.38125 -2.38125 v -1.19062 -1.19063 h -1.19062 -1.19063 v -1.19062 -1.19063 h 1.19063 1.19062 v -1.19062 -1.19063 h 1.19063 1.19062 v -1.19062 -1.19063 h -1.19062 -1.19063 v -1.19062 -1.19063 h 3.57188 3.57187 v -1.19062 -1.19063 h -3.57187 -3.57188 v -1.19062 -1.19063 h -4.7625 -4.7625 v 1.19063 1.19062 h -1.19062 -1.19063 v 1.19063 1.19062 h -1.19062 -1.19063 v -3.57187 -3.57188 h 3.57188 3.57187 v -2.38125 -2.38125 h 1.19063 1.19062 v 2.38125 2.38125 h 2.38125 2.38125 v -1.19062 -1.19063 h -1.19062 -1.19063 v -1.19062 -1.19063 h 1.19063 1.19062 v -2.38125 -2.38125 h 1.19063 1.19062 v 1.19063 1.19062 h 1.19063 1.19062 v -1.19062 -1.19063 h -1.19062 -1.19063 v -1.19062 -1.19063 h 1.19063 1.19062 v -1.19062 -1.19063 h 1.19063 1.19062 v -1.19062 -1.19063 h -3.57187 -3.57188 v -1.19062 -1.19063 h -2.38125 -2.38125 v 1.19063 1.19062 h -2.38125 -2.38125 v -1.19062 -1.19063 h -1.19062 -1.19063 v 1.19063 1.19062 h 1.19063 1.19062 v 3.57188 3.57187 h -1.19062 -1.19063 v 3.57188 3.57187 h -1.19062 -1.19063 v 1.19063 1.19062 h -1.19062 -1.19063 v -1.19062 -1.19063 h -3.57187 -3.57188 v -5.95312 -5.95313 h -2.38125 -2.38125 v -1.19062 -1.19063 h 1.19063 1.19062 v -1.19062 -1.19063 h -1.19062 -1.19063 v 1.19063 1.19062 h -1.19062 -1.19063 v 1.19063 1.19062 h -1.19062 -1.19063 v 1.19063 1.19062 h -1.19062 -1.19063 v 3.57188 3.57187 h 1.19063 1.19062 v 1.19063 1.19062 h -3.57187 -3.571879 v 1.19063 1.19062 h -1.190625 -1.190625 v -1.19062 -1.19063 h -3.571875 -3.571875 v 1.19063 1.19062 h -2.38125 -2.38125 v 1.19063 1.19062 h -2.38125 -2.38125 v -1.19062 -1.19063 h -1.190625 -1.190625 v -1.19062 -1.19063 h -2.38125 -2.38125 v 2.38125 2.38125 h 1.190625 1.190625 v 1.19063 1.19062 h 1.190625 1.190625 v -1.19062 -1.19063 h 1.190625 1.190625 v 1.19063 1.19062 h 2.38125 2.38125 v 1.19063 1.19062 h -1.190625 -1.190625 v 1.19063 1.19062 h 1.190625 1.190625 v 1.19063 1.19062 h -2.38125 -2.38125 v -2.38125 -2.38125 h -2.38125 -2.38125 v 1.19063 1.19062 h 1.190625 1.190625 v 2.38125 2.38125 h 1.190625 1.190625 v 1.19063 1.19062 h 1.190625 1.190625 v 1.19063 1.19062 h 1.190625 1.190625 v -1.19062 -1.19063 h -1.190625 -1.190625 v -1.19062 -1.19063 h 3.571875 3.571875 v 1.19063 1.19062 h -1.190625 -1.190625 v 2.38125 2.38125 h 1.190625 1.190625 v 1.19063 1.19062 h 2.38125 2.38125 v 3.57188 3.57187 h 1.190625 1.190625 v -1.19062 -1.19063 h 5.953129 5.95312 v 1.19063 1.19062 h -1.19062 -1.19063 v 1.19063 1.19062 h -1.19062 -1.19063 v 1.19063 1.19062 h -2.38125 -2.381249 v 2.38125 2.38125 h 1.190625 1.190624 v 2.38125 2.38125 h -1.190624 -1.190625 v 2.38125 2.38125 h 1.190625 1.190624 v 1.19063 1.19062 h -1.190624 -1.190625 v 1.19063 1.19062 h -1.190625 -1.190625 v 1.19063 1.19062 h -1.190625 -1.190625 v 1.19063 1.19062 h 1.190625 1.190625 v 1.19063 1.19062 h -2.38125 -2.38125 v 1.19063 1.19062 h -1.190625 -1.190625 v 1.19063 1.19062 h 2.38125 2.38125 v 1.19063 1.19062 h 1.190625 1.190625 v -1.19062 -1.19063 h -1.190625 -1.190625 v -1.19062 -1.19063 h 1.190625 1.190625 v -1.19062 -1.19063 h 2.38125 2.381249 v 2.38125 2.38125 h 1.19063 1.19062 v -1.19062 -1.19063 h 1.19063 1.19062 v 3.57188 3.57187 h -1.19062 -1.19063 v 1.19063 1.19062 h -2.38125 -2.381249 v 2.38125 2.38125 h 2.381249 2.38125 v -2.38125 -2.38125 h 1.19063 1.19062 v -1.19062 -1.19063 h 1.19063 1.19062 v 1.19063 1.19062 h 1.19063 1.19062 v -1.19062 -1.19063 h 1.19063 1.19062 v 1.19063 1.19062 h 1.19063 1.19062 v -2.38125 -2.38125 h -2.38125 -2.38125 v -1.19062 -1.19063 h 1.19063 1.19062 v -1.19062 -1.19063 h 1.19063 1.19062 v -1.19062 -1.19063 h 1.19063 1.19062 v -1.19062 -1.19063 h 1.19063 1.19062 v 1.19063 1.19062 h 2.38125 2.38125 v -1.19062 -1.19063 h 1.19063 1.19062 v 3.57188 3.57187 h 2.38125 2.38125 v 2.38125 2.38125 h -1.19062 -1.19063 v -1.19062 -1.19063 h -1.19062 -1.19063 v 1.19063 1.19062 h 1.19063 1.19062 v 1.19063 1.19062 h -2.38125 -2.38125 v 1.19063 1.19062 h -1.19062 -1.19063 v -1.19062 -1.19063 h -1.19062 -1.19063 v 1.19063 1.19062 h -2.38125 -2.38125 v 1.19063 1.19062 h 2.38125 2.38125 v -1.19062 -1.19063 h 1.19063 1.19062 v 1.19063 1.19062 h 1.19063 1.19062 v -1.19062 -1.19063 h 7.14375 7.14375 v 1.19063 1.19062 h 1.19063 1.19062 v 1.19063 1.19062 h 1.19063 1.19062 z m -4.7625,-4.7625 v -1.19063 h -1.19062 -1.19063 v -1.19062 -1.19063 h -1.19062 -1.19063 v 1.19063 1.19062 h -1.19062 -1.19063 v -1.19062 -1.19063 h 1.19063 1.19062 v -1.19062 -1.19063 h 1.19063 1.19062 v -1.19062 -1.19063 h 1.19063 1.19062 v -1.19062 -1.19063 h -1.19062 -1.19063 v -3.57187 -3.57188 h -1.19062 -1.19063 v -1.19062 -1.19063 h -1.19062 -1.19063 v -1.19062 -1.19063 h 1.19063 1.19062 v -1.19062 -1.19063 h -3.57187 -3.57188 v 1.19063 1.19062 h 1.19063 1.19062 v 1.19063 1.19062 h -1.19062 -1.19063 v 1.19063 1.19062 h 2.38125 2.38125 v 1.19063 1.19062 h 1.19063 1.19062 v 1.19063 1.19062 h -1.19062 -1.19063 v -1.19062 -1.19063 h -2.38125 -2.38125 v -1.19062 -1.19063 h -1.19062 -1.19063 v 1.19063 1.19062 h -1.19062 -1.19063 v -1.19062 -1.19063 h -1.19062 -1.19063 v -1.19062 -1.19063 h -2.38125 -2.38125 v 1.19063 1.19062 h -1.19062 -1.19063 v 3.57188 3.57187 h -1.19062 -1.19063 v 1.19063 1.19062 h -1.19062 -1.19063 v -1.19062 -1.19063 h -1.19062 -1.19063 v -1.19062 -1.19063 h 1.19063 1.19062 v -3.57187 -3.57188 h -1.19062 -1.19063 v 2.38125 2.38125 h -1.19062 -1.19063 v 1.19063 1.19062 h -1.19062 -1.19063 v -1.19062 -1.19063 h -1.190624 -1.190625 v -2.38125 -2.38125 h 1.190625 1.190624 v 1.19063 1.19062 h 1.19063 1.19062 v -1.19062 -1.19063 h 1.19063 1.19062 v -1.19062 -1.19063 h -1.19062 -1.19063 v -2.38125 -2.38125 h 2.38125 2.38125 v -1.19062 -1.19063 h 1.19063 1.19062 v -1.19062 -1.19063 h 1.19063 1.19062 v 1.19063 1.19062 h 1.19063 1.19062 v -3.57187 -3.57188 h -1.19062 -1.19063 v 1.19063 1.19062 h -2.38125 -2.38125 v 1.19063 1.19062 h -1.19062 -1.19063 v 1.19063 1.19062 h -1.19062 -1.19063 v -2.38125 -2.38125 h -1.19062 -1.19063 v -1.19062 -1.19063 h 1.19063 1.19062 v -1.19062 -1.19063 h 1.19063 1.19062 v -1.19062 -1.19063 h 1.19063 1.19062 v -1.19062 -1.19063 h 1.19063 1.19062 v -1.19062 -1.19063 h -1.19062 -1.19063 v -1.19062 -1.19063 h 1.19063 1.19062 v -2.38125 -2.38125 h 1.19063 1.19062 v -1.19062 -1.19063 h -1.19062 -1.19063 v -1.19062 -1.19063 h -1.19062 -1.19063 v -2.38125 -2.38125 h -1.19062 -1.19063 v 2.38125 2.38125 h -1.19062 -1.19063 v -3.57187 -3.57188 h -3.571874 -3.571875 v 1.19063 1.19062 h 2.38125 2.381249 v 1.19063 1.19062 h -1.190624 -1.190625 v 1.19063 1.19062 h 1.190625 1.190624 v 2.38125 2.38125 h -4.762499 -4.7625 v -5.95312 -5.95313 h -1.190625 -1.190625 v -1.19062 -1.19063 h 1.190625 1.190625 v 1.19063 1.19062 h 1.190625 1.190625 v -1.19062 -1.19063 h 5.953125 5.953124 v -1.19062 -1.19063 h -2.38125 -2.38125 v -1.19062 -1.19063 h 2.38125 2.38125 v -1.19062 -1.19063 h 1.19063 1.19062 v -3.57187 -3.57188 h -1.19062 -1.19063 v -1.19062 -1.19063 h 1.19063 1.19062 v 1.19063 1.19062 h 1.19063 1.19062 v -2.38125 -2.38125 h -1.19062 -1.19063 v -1.19062 -1.19063 h 1.19063 1.19062 v 1.19063 1.19062 h 1.19063 1.19062 v 5.95313 5.95312 h 3.57188 3.57187 v 2.38125 2.38125 h 1.19063 1.19062 v 1.19063 1.19062 h 1.19063 1.19062 v 1.19063 1.19062 h 1.19063 1.19062 v -1.19062 -1.19063 h 1.19063 1.19062 v 2.38125 2.38125 h -2.38125 -2.38125 v -1.19062 -1.19063 h -1.19062 -1.19063 v 1.19063 1.19062 h -1.19062 -1.19063 v 1.19063 1.19062 h 1.19063 1.19062 v 1.19063 1.19062 h 1.19063 1.19062 v -1.19062 -1.19063 h 1.19063 1.19062 v 1.19063 1.19062 h -1.19062 -1.19063 v 1.19063 1.19062 h 3.57188 3.57187 v 1.19063 1.19062 h -1.19062 -1.19063 v 4.7625 4.7625 h -1.19062 -1.19063 v 3.57188 3.57187 h 2.38125 2.38125 v -2.38125 -2.38125 h 1.19063 1.19062 v -2.38125 -2.38125 h -1.19062 -1.19063 v -1.19062 -1.19063 h 2.38125 2.38125 v -1.19062 -1.19063 h 3.57188 3.57187 v 2.38125 2.38125 h -2.38125 -2.38125 v 1.19063 1.19062 h 1.19063 1.19062 v 1.19063 1.19062 h 1.19063 1.19062 v -1.19062 -1.19063 h 1.19063 1.19062 v 1.19063 1.19062 h 1.19063 1.19062 v -2.38125 -2.38125 h 2.38125 2.38125 v -2.38125 -2.38125 h -1.19062 -1.19063 v -1.19062 -1.19063 h 1.19063 1.19062 v 1.19063 1.19062 h 3.57188 3.57187 v -1.19062 -1.19063 h 1.19063 1.19062 v 1.19063 1.19062 h 1.19063 1.19062 v 4.7625 4.7625 h 1.19063 1.19062 v 2.38125 2.38125 h -1.19062 -1.19063 v 1.19063 1.19062 h -1.19062 -1.19063 v 1.19063 1.19062 h 1.19063 1.19062 v 1.19063 1.19062 h -1.19062 -1.19063 v 1.19063 1.19062 h -1.19062 -1.19063 v -1.19062 -1.19063 h 1.19063 1.19062 v -1.19062 -1.19063 h -2.38125 -2.38125 v -1.19062 -1.19063 h 1.19063 1.19062 v -1.19062 -1.19063 h 2.38125 2.38125 v -1.19062 -1.19063 h -9.525 -9.525 v -1.19062 -1.19063 h -1.19062 -1.19063 v 1.19063 1.19062 h -1.19062 -1.19063 v 1.19063 1.19062 h -1.19062 -1.19063 v 1.19063 1.19062 h 1.19063 1.19062 v 1.19063 1.19062 h 1.19063 1.19062 v -1.19062 -1.19063 h 1.19063 1.19062 v -1.19062 -1.19063 h 2.38125 2.38125 v 1.19063 1.19062 h 1.19063 1.19062 v -1.19062 -1.19063 h 1.19063 1.19062 v 3.57188 3.57187 h 1.19063 1.19062 v 1.19063 1.19062 h -3.57187 -3.57188 v -1.19062 -1.19063 h -2.38125 -2.38125 v -1.19062 -1.19063 h -1.19062 -1.19063 v 2.38125 2.38125 h 1.19063 1.19062 v 1.19063 1.19062 h 1.19063 1.19062 v 1.19063 1.19062 h 1.19063 1.19062 v 1.19063 1.19062 h -2.38125 -2.38125 v 1.19063 1.19062 h 2.38125 2.38125 v 1.19063 1.19062 h 1.19063 1.19062 v 1.19063 1.19062 h -1.19062 -1.19063 v 1.19063 1.19062 h -2.38125 -2.38125 v -1.19062 -1.19063 h -1.19062 -1.19063 v 2.38125 2.38125 h -2.38125 -2.38125 v 1.19063 1.19062 h 1.19063 1.19062 v 1.19063 1.19062 h -1.19062 -1.19063 v 1.19063 1.19062 h 1.19063 1.19062 v 1.19063 1.19062 h -1.19062 -1.19063 z m -28.575,-11.90625 v -1.19063 h -1.19062 -1.19063 v 1.19063 1.19062 h 1.19063 1.19062 z m 33.3375,-2.38125 v -1.19063 h -1.19062 -1.19063 v -1.19062 -1.19063 h 1.19063 1.19062 v -1.19062 -1.19063 h 1.19063 1.19062 v -1.19062 -1.19063 h -1.19062 -1.19063 v 1.19063 1.19062 h -1.19062 -1.19063 v 1.19063 1.19062 h -1.19062 -1.19063 v -1.19062 -1.19063 h -1.19062 -1.19063 v -1.19062 -1.19063 h -1.19062 -1.19063 v 1.19063 1.19062 h 1.19063 1.19062 v 1.19063 1.19062 h 1.19063 1.19062 v 1.19063 1.19062 h 1.19063 1.19062 v 1.19063 1.19062 h 1.19063 1.19062 z m 7.14375,0 v -1.19063 h -2.38125 -2.38125 v 1.19063 1.19062 h 2.38125 2.38125 z m -38.1,-4.7625 v -1.19063 h 1.19063 1.19062 v -2.38125 -2.38125 h 1.19063 1.19062 v -1.19062 -1.19063 h 1.19063 1.19062 v 3.57188 3.57187 h 1.19063 1.19062 v 1.19063 1.19062 h 1.19063 1.19062 v -3.57187 -3.57188 h 1.19063 1.19062 v -1.19062 -1.19063 h 5.95313 5.95312 v 1.19063 1.19062 h 1.19063 1.19062 v -1.19062 -1.19063 h -1.19062 -1.19063 v -3.57187 -3.57188 h -1.19062 -1.19063 v -1.19062 -1.19063 h 1.19063 1.19062 v -2.38125 -2.38125 h -2.38125 -2.38125 v 1.19063 1.19062 h 1.19063 1.19062 v 1.19063 1.19062 h -2.38125 -2.38125 v 1.19063 1.19062 h -1.19062 -1.19063 v 1.19063 1.19062 h -1.19062 -1.19063 v 2.38125 2.38125 h -1.19062 -1.19063 v 1.19063 1.19062 h -1.19062 -1.19063 v -1.19062 -1.19063 h -1.19062 -1.19063 v -1.19062 -1.19063 h 1.19063 1.19062 v -1.19062 -1.19063 h 1.19063 1.19062 v -1.19062 -1.19063 h 1.19063 1.19062 v -1.19062 -1.19063 h -1.19062 -1.19063 v -1.19062 -1.19063 h -1.19062 -1.19063 v 1.19063 1.19062 h -1.19062 -1.19063 v -1.19062 -1.19063 h -2.38125 -2.38125 v 1.19063 1.19062 h 1.19063 1.19062 v 1.19063 1.19062 h 2.38125 2.38125 v 1.19063 1.19062 h -1.19062 -1.19063 v 1.19063 1.19062 h -2.38125 -2.38125 v 1.19063 1.19062 h -1.19062 -1.19063 v -1.19062 -1.19063 h -1.19062 -1.19063 v 1.19063 1.19062 h 1.19063 1.19062 v 1.19063 1.19062 h -3.57187 -3.57188 v 1.19063 1.19062 h 1.19063 1.19062 v 1.19063 1.19062 h 1.19063 1.19062 v 1.19063 1.19062 h 1.19063 1.19062 z m -2.38125,-2.38125 v -1.19063 h 1.19063 1.19062 v 1.19063 1.19062 h -1.19062 -1.19063 z m 21.43125,-11.90625 v -1.19063 h 1.19063 1.19062 v 1.19063 1.19062 h -1.19062 -1.19063 z m -9.525,-2.38125 v -1.19063 h 1.19063 1.19062 v 1.19063 1.19062 h -1.19062 -1.19063 z m 30.95625,4.7625 v -1.19063 h -1.19062 -1.19063 v -1.19062 -1.19063 h -2.38125 -2.38125 v 1.19063 1.19062 h 2.38125 2.38125 v 1.19063 1.19062 h 1.19063 1.19062 z M 90.76466,184.2781 v -2.38125 h 1.19063 1.19062 v 1.19063 1.19062 h 1.19063 1.19062 v -1.19062 -1.19063 h -1.19062 -1.19063 v -1.19062 -1.19063 h -1.19062 -1.19063 v 1.19063 1.19062 h -1.19062 -1.19063 v 2.38125 2.38125 h 1.19063 1.19062 z m 7.14375,-9.525 v -4.7625 h 1.19063 1.19062 v -1.19062 -1.19063 h -2.38125 -2.38125 v 2.38125 2.38125 h -1.19062 -1.19063 v 1.19063 1.19062 h 1.19063 1.19062 v 2.38125 2.38125 h 1.19063 1.19062 z m 9.525,1.19063 v -3.57188 h -3.57187 -3.57188 v 3.57188 3.57187 h 3.57188 3.57187 z m -4.7625,0 v -1.19063 h 1.19063 1.19062 v 1.19063 1.19062 h -1.19062 -1.19063 z m 33.3375,2.38125 v -1.19063 h -1.19062 -1.19063 v 1.19063 1.19062 h 1.19063 1.19062 z m 9.525,-2.38125 v -3.57188 h -3.57187 -3.57188 v 3.57188 3.57187 h 3.57188 3.57187 z m -4.7625,0 v -1.19063 h 1.19063 1.19062 v 1.19063 1.19062 h -1.19062 -1.19063 z m -19.05,-2.38125 v -1.19063 h -1.19062 -1.19063 v 1.19063 1.19062 h 1.19063 1.19062 z m -14.2875,-5.95313 v -2.38125 h -1.19062 -1.19063 v -1.19062 -1.19063 h -1.19062 -1.19063 v -1.19062 -1.19063 h -1.19062 -1.19063 v -1.19062 -1.19063 h 1.19063 1.19062 v -1.19062 -1.19063 h 1.19063 1.19062 v -1.19062 -1.19063 h -1.19062 -1.19063 v -1.19062 -1.19063 h -1.19062 -1.19063 v -1.19062 -1.19063 h -2.38125 -2.38125 v -1.19062 -1.19063 h -2.38125 -2.38125 v 1.19063 1.19062 h -1.19062 -1.19063 v 1.19063 1.19062 h 1.19063 1.19062 v 1.19063 1.19062 h -1.19062 -1.19063 v 1.19063 1.19062 h 1.19063 1.19062 v 1.19063 1.19062 h 1.19063 1.19062 v 1.19063 1.19062 h 3.57188 3.57187 v 1.19063 1.19062 h -2.38125 -2.38125 v 1.19063 1.19062 h 2.38125 2.38125 v -1.19062 -1.19063 h 1.19063 1.19062 v 3.57188 3.57187 h 2.38125 2.38125 z m -14.2875,-10.71562 v -1.19063 h -1.19062 -1.19063 v -1.19062 -1.19063 h 1.19063 1.19062 v -1.19062 -1.19063 h -1.19062 -1.19063 v -1.19062 -1.19063 h 2.38125 2.38125 v 1.19063 1.19062 h 2.38125 2.38125 v 1.19063 1.19062 h -1.19062 -1.19063 v 1.19063 1.19062 h 1.19063 1.19062 v 1.19063 1.19062 h -3.57187 -3.57188 z m 2.38125,-2.38125 v -1.19063 h -1.19062 -1.19063 v 1.19063 1.19062 h 1.19063 1.19062 z m -14.287499,9.525 v -1.19063 h -2.38125 -2.38125 v 1.19063 1.19062 h 2.38125 2.38125 z m 45.243749,57.15 v -1.19063 h 1.19063 1.19062 v 1.19063 1.19062 h -1.19062 -1.19063 z m 4.7625,-2.38125 v -1.19063 h 1.19063 1.19062 v 1.19063 1.19062 h -1.19062 -1.19063 z m -40.48125,-2.38125 v -1.19063 h 1.19063 1.19062 v 1.19063 1.19062 h -1.19062 -1.19063 z m 45.24375,-14.2875 v -1.19063 h 1.19063 1.19062 v 1.19063 1.19062 h -1.19062 -1.19063 z m 11.90625,-2.38125 v -1.19063 h 1.19063 1.19062 v 1.19063 1.19062 h -1.19062 -1.19063 z m -9.525,-2.38125 v -1.19063 h 3.57188 3.57187 v 1.19063 1.19062 h -3.57187 -3.57188 z M 78.858411,171.18123 v -1.19063 h 2.38125 2.381249 v 1.19063 1.19062 h -2.381249 -2.38125 z m 7.143749,-3.57188 v -2.38125 h 1.19063 1.19062 v 2.38125 2.38125 h -1.19062 -1.19063 z m 33.3375,-1.19062 v -1.19063 h -1.19062 -1.19063 v -1.19062 -1.19063 h -1.19062 -1.19063 v -1.19062 -1.19063 h 1.19063 1.19062 v -1.19062 -1.19063 h -1.19062 -1.19063 v -1.19062 -1.19063 h 1.19063 1.19062 v -1.19062 -1.19063 h 1.19063 1.19062 v 1.19063 1.19062 h 1.19063 1.19062 v 1.19063 1.19062 h -1.19062 -1.19063 v 1.19063 1.19062 h -1.19062 -1.19063 v 1.19063 1.19062 h 1.19063 1.19062 v 1.19063 1.19062 h 1.19063 1.19062 v 1.19063 1.19062 h -1.19062 -1.19063 z m 0,-9.525 v -1.19063 h -1.19062 -1.19063 v 1.19063 1.19062 h 1.19063 1.19062 z m 11.90625,0 v -1.19063 h 1.19063 1.19062 v 1.19063 1.19062 h -1.19062 -1.19063 z m -64.293749,-7.14375 v -1.19063 h 1.190625 1.190625 v 1.19063 1.19062 h -1.190625 -1.190625 z m 4.7625,-1.19063 v -2.38125 h 3.571875 3.571875 v 1.19063 1.19062 h -2.38125 -2.38125 v 1.19063 1.19062 h -1.190625 -1.190625 z m -14.2875,-1.19062 v -1.19063 h 1.190625 1.190625 v 1.19063 1.19062 h -1.190625 -1.190625 z m 59.531249,-8.33438 v -2.38125 h 1.19063 1.19062 v -1.19062 -1.19063 h 1.19063 1.19062 v -1.19062 -1.19063 h 1.19063 1.19062 v 1.19063 1.19062 h -1.19062 -1.19063 v 1.19063 1.19062 h -1.19062 -1.19063 v 2.38125 2.38125 h -1.19062 -1.19063 z m -4.7625,-1.19062 v -1.19063 h 1.19063 1.19062 v 1.19063 1.19062 h -1.19062 -1.19063 z m 2.38125,-4.7625 v -1.19063 h 1.19063 1.19062 v 1.19063 1.19062 h -1.19062 -1.19063 z m 23.8125,92.86875 v -1.19063 h 1.19063 1.19062 v 1.19063 1.19062 h 1.19063 1.19062 v -2.38125 -2.38125 h 1.19063 1.19062 v -1.19062 -1.19063 h -2.38125 -2.38125 v 1.19063 1.19062 h -1.19062 -1.19063 v 1.19063 1.19062 h -1.19062 -1.19063 v 1.19063 1.19062 h 1.19063 1.19062 z m 14.2875,-7.14375 v -1.19063 h -1.19062 -1.19063 v -1.19062 -1.19063 h 1.19063 1.19062 v -1.19062 -1.19063 h -1.19062 -1.19063 v -2.38125 -2.38125 h -1.19062 -1.19063 v 4.7625 4.7625 h 1.19063 1.19062 v 1.19063 1.19062 h 1.19063 1.19062 z m -69.05625,-2.38125 v -1.19063 h -1.190624 -1.190625 v 1.19063 1.19062 h 1.190625 1.190624 z m 23.8125,-2.38125 v -3.57188 h -3.57187 -3.57188 v 3.57188 3.57187 h 3.57188 3.57187 z m -4.7625,0 v -1.19063 h 1.19063 1.19062 v 1.19063 1.19062 h -1.19062 -1.19063 z m 42.8625,0 v -3.57188 h -3.57187 -3.57188 v 3.57188 3.57187 h 3.57188 3.57187 z m -4.7625,0 v -1.19063 h 1.19063 1.19062 v 1.19063 1.19062 h -1.19062 -1.19063 z m -80.962499,-19.05 v -1.19063 h 1.190625 1.190625 v 1.19063 1.19062 h 1.190625 1.190625 v -1.19062 -1.19063 h 1.190625 1.190625 v -1.19062 -1.19063 h 1.190625 1.190625 v 2.38125 2.38125 h 1.190625 1.190625 v -2.38125 -2.38125 h 1.190625 1.190625 v 1.19063 1.19062 h 1.190625 1.190625 v -1.19062 -1.19063 h -1.190625 -1.190625 v -1.19062 -1.19063 h 2.38125 2.38125 v -1.19062 -1.19063 h -2.38125 -2.38125 v -1.19062 -1.19063 h 2.38125 2.38125 v -1.19062 -1.19063 h -2.38125 -2.38125 v -4.7625 -4.7625 h -1.190625 -1.190625 v 4.7625 4.7625 h -1.190625 -1.190625 v 1.19063 1.19062 h -1.190625 -1.190625 v -1.19062 -1.19063 h -2.38125 -2.38125 v 1.19063 1.19062 h 2.38125 2.38125 v 1.19063 1.19062 h -2.38125 -2.38125 v 2.38125 2.38125 h -2.38125 -2.38125 v 2.38125 2.38125 h 1.190625 1.190625 z m 4.7625,-4.7625 v -1.19063 h 1.190625 1.190625 v -1.19062 -1.19063 h 1.190625 1.190625 v -1.19062 -1.19063 h 1.190625 1.190625 v -1.19062 -1.19063 h 1.190625 1.190625 v 1.19063 1.19062 h -1.190625 -1.190625 v 1.19063 1.19062 h 1.190625 1.190625 v 1.19063 1.19062 h -1.190625 -1.190625 v -1.19062 -1.19063 h -1.190625 -1.190625 v 1.19063 1.19062 h -1.190625 -1.190625 v 1.19063 1.19062 h -1.190625 -1.190625 z m -7.14375,-11.90625 v -1.19063 h -1.190625 -1.190625 v 1.19063 1.19062 h 1.190625 1.190625 z m 11.90625,-2.38125 v -3.57188 h -3.571875 -3.571875 v 3.57188 3.57187 h 3.571875 3.571875 z m -4.7625,0 v -1.19063 h 1.190625 1.190625 v 1.19063 1.19062 h -1.190625 -1.190625 z m 19.049999,2.38125 v -1.19063 h -1.190624 -1.190625 v 1.19063 1.19062 h 1.190625 1.190624 z m 64.29375,-16.66875 v -1.19063 h -1.19062 -1.19063 v 1.19063 1.19062 h 1.19063 1.19062 z m 4.7625,0 v -1.19063 h -1.19062 -1.19063 v 1.19063 1.19062 h 1.19063 1.19062 z m -14.2875,-14.2875 v -1.19063 h -1.19062 -1.19063 v 1.19063 1.19062 h 1.19063 1.19062 z m 0,-4.7625 v -1.19063 h -2.38125 -2.38125 v 1.19063 1.19062 h 2.38125 2.38125 z m -54.76875,-3.57188 v -2.38125 h -1.190624 -1.190625 v 2.38125 2.38125 h 1.190625 1.190624 z m 23.8125,-1.19062 v -3.57188 h -3.57187 -3.57188 v 3.57188 3.57187 h 3.57188 3.57187 z m -4.7625,0 v -1.19063 h 1.19063 1.19062 v 1.19063 1.19062 h -1.19062 -1.19063 z m -23.812499,0 v -1.19063 h -1.190625 -1.190625 v 1.19063 1.19062 h 1.190625 1.190625 z m 23.812499,-7.14375 v -1.19063 h -1.19062 -1.19063 v 1.19063 1.19062 h 1.19063 1.19062 z m -38.099999,78.58125 v -1.19063 h 1.190625 1.190625 v 1.19063 1.19062 h -1.190625 -1.190625 z m 90.487489,-2.38125 v -1.19063 h 1.19063 1.19062 v 1.19063 1.19062 h -1.19062 -1.19063 z M 52.664661,171.18123 v -1.19063 h -1.190625 -1.190625 v -1.19062 -1.19063 h 1.190625 1.190625 v 1.19063 1.19062 h 1.190625 1.190625 v 1.19063 1.19062 h -1.190625 -1.190625 z m -2.38125,-7.14375 v -1.19063 h 2.38125 2.38125 v 1.19063 1.19062 h -2.38125 -2.38125 z M 150.29591,153.32185 v -2.38125 h -1.19062 -1.19063 v -1.19062 -1.19063 h 1.19063 1.19062 v -2.38125 -2.38125 h -1.19062 -1.19063 v -1.19062 -1.19063 h 1.19063 1.19062 v 1.19063 1.19062 h 1.19063 1.19062 v -1.19062 -1.19063 h 1.19062 1.19062 v 1.19063 1.19062 h 1.19063 1.19062 v 1.19063 1.19062 h -2.38125 -2.38124 v 4.7625 4.7625 h -1.19062 -1.19063 z m 4.76249,1.19063 v -1.19063 h 1.19063 1.19062 v 1.19063 1.19062 h -1.19062 -1.19063 z m -14.28749,-2.38125 v -1.19063 h 1.19063 1.19062 v 1.19063 1.19062 h -1.19062 -1.19063 z M 50.283411,130.69998 v -8.33438 h 8.334375 8.334375 v 8.33438 8.33437 h -8.334375 -8.334375 z m 14.2875,0 v -5.95313 h -5.953125 -5.953125 v 5.95313 5.95312 h 5.953125 5.953125 z m -9.525,0 v -3.57188 h 3.571875 3.571875 v 3.57188 3.57187 h -3.571875 -3.571875 z m 85.724999,0 v -8.33438 h 8.33438 8.33436 v 8.33438 8.33437 h -8.33436 -8.33438 z m 14.28749,0 v -5.95313 h -5.95311 -5.95313 v 5.95313 5.95312 h 5.95313 5.95311 z m -9.52499,0 v -3.57188 h 3.57188 3.57187 v 3.57188 3.57187 h -3.57187 -3.57188 z m -76.199999,-4.7625 v -1.19063 h 1.190625 1.190625 v 1.19063 1.19062 h -1.190625 -1.190625 z m 7.14375,0 v -1.19063 h -1.190625 -1.190625 v -1.19062 -1.19063 h 2.38125 2.38125 v 2.38125 2.38125 h -1.190625 -1.190625 z"
       id="path1" /></g></svg>
